<svg width="1920" height="7450" viewBox="0 0 1920 7450" fill="none" xmlns="http://www.w3.org/2000/svg">
<mask id="mask0" mask-type="alpha" maskUnits="userSpaceOnUse" x="0" y="0" width="1920" height="7450">
<rect width="1920" height="7450" fill="#C4C4C4"/>
</mask>
<g mask="url(#mask0)">
<path d="M1652.27 2027C1662.47 2009.8 1656.47 1988.1 1656.07 1968.2C1655.07 1919.6 1693.97 1873.4 1741.97 1866.1C1741.47 1857.5 1732.67 1851.1 1724.07 1850.7C1715.47 1850.3 1707.27 1854.3 1699.97 1858.9C1668.67 1878.6 1645.97 1911.2 1638.27 1947.3C1642.97 1892.4 1676.07 1840.8 1723.87 1813.6C1719.17 1806.6 1714.57 1799.6 1709.87 1792.7C1644.67 1834.3 1606.37 1914.6 1615.07 1991.4C1600.27 1927.4 1614.67 1857.4 1653.37 1804.3C1637.57 1795.2 1616.27 1804.2 1605.97 1819.2C1595.67 1834.2 1593.67 1853.3 1592.77 1871.5C1590.87 1910.7 1592.77 1950.1 1598.47 1989C1591.17 1957.4 1583.77 1925.5 1568.47 1897C1553.17 1868.5 1528.57 1843.4 1497.37 1834.7C1491.97 1846.4 1486.57 1858.1 1481.17 1869.8C1487.97 1863.5 1498.87 1863.2 1507.37 1867C1515.87 1870.7 1522.57 1877.7 1528.57 1884.9C1554.87 1916.2 1573.47 1953.9 1582.37 1993.8C1563.87 1946.2 1513.37 1913.1 1462.47 1915.2C1462.27 1925.2 1462.17 1935.2 1461.97 1945.2C1462.07 1939.3 1516.37 1956.1 1520.97 1958.4C1539.57 1967.5 1556.07 1981 1568.67 1997.5C1578.37 2010.3 1583.17 2027.9 1597.17 2036.7C1615.17 2047.9 1640.47 2047 1652.27 2027Z" fill="#D13355"/>
<path d="M177.372 1611C184.472 1604.9 192.172 1595.3 187.272 1587.3C183.472 1581.2 174.772 1580.9 167.672 1582C133.472 1587.6 102.872 1611.7 89.3723 1643.7C75.8723 1675.7 80.0723 1714.4 99.9723 1742.8C119.872 1771.2 154.872 1788.3 189.472 1786.5C196.972 1786.1 204.972 1784.7 210.472 1779.5C215.972 1774.3 217.272 1764.3 211.372 1759.5C204.172 1753.6 190.572 1758.2 186.072 1750C182.872 1744.2 187.872 1737 193.972 1734.2C199.972 1731.5 206.972 1731.3 212.972 1728.7C218.972 1726.1 224.272 1719.1 221.472 1713.1C218.972 1708 212.072 1706.9 206.372 1707.9C200.372 1709 187.572 1714.4 181.972 1711.2C179.372 1709.8 177.872 1706.7 178.372 1703.8C179.172 1698.4 185.372 1695.7 190.872 1695.2C203.972 1694.2 219.572 1692.3 221.472 1675.7C222.472 1667.3 215.572 1658.2 207.172 1658.7C201.672 1659.1 197.272 1663 193.172 1666.6C189.072 1670.2 184.272 1673.9 178.772 1673.6C173.272 1673.3 168.372 1666.6 171.772 1662.3C180.872 1660.8 190.572 1659 197.272 1652.6C203.972 1646.2 205.272 1633.5 197.572 1628.5C188.372 1622.5 177.972 1633.5 169.972 1629.3C159.272 1623.7 172.772 1615 177.372 1611Z" fill="#FFD7CC"/>
<path d="M428.872 2307.3C511.372 2315.5 584.072 2259.3 624.372 2191.9C628.272 2185.3 632.072 2178.1 631.772 2170.4C631.472 2162.7 625.472 2154.8 617.772 2155.2C612.472 2155.5 608.172 2159.4 604.372 2163.1C584.372 2182.4 564.872 2202.9 544.772 2221.9C532.772 2233.2 518.972 2242.5 505.472 2251.8C493.772 2259.9 482.872 2269.1 470.072 2275.1C443.872 2287.3 420.072 2296.3 390.872 2287.6C383.672 2285.5 375.572 2280.9 375.272 2273.3C374.972 2266.3 382.172 2260.9 389.172 2259.9C396.172 2258.9 403.172 2260.7 410.272 2261.1C418.672 2261.5 424.672 2257.7 431.672 2253.9C516.972 2207.2 588.972 2138.6 636.872 2053.7C641.772 2045.1 646.272 2034.1 640.872 2025.8C636.072 2018.6 625.472 2017.4 617.572 2020.9C609.672 2024.3 603.872 2031.1 598.272 2037.7C558.672 2084.8 519.172 2132 479.572 2179.1C462.772 2199.1 443.172 2218.2 420.872 2231.7C417.372 2233.8 413.572 2235.7 409.572 2236.2C405.472 2236.7 401.072 2235.8 398.172 2232.9C393.872 2228.6 394.172 2221.1 397.272 2215.8C400.372 2210.5 405.572 2206.9 410.672 2203.4C427.972 2191.5 439.472 2174 452.672 2157.6C466.572 2140.3 480.672 2123.1 494.472 2105.7C513.072 2082.7 531.972 2059 541.272 2030.9C547.672 2011.7 549.472 1988 541.372 1969C533.372 1950.2 520.772 1960.4 513.372 1973.4C506.572 1985.5 499.772 1997.6 492.872 2009.7C478.772 2034.6 464.772 2059.6 450.672 2084.5C439.672 2104 428.272 2123.3 417.672 2142.9C408.072 2160.7 402.072 2181.5 394.772 2200.6C393.072 2205.1 391.272 2209.7 388.172 2213.3C385.072 2216.9 380.272 2219.5 375.572 2218.7C370.172 2217.8 366.272 2212.7 365.172 2207.4C364.072 2202.1 364.972 2196.5 366.172 2191.2C370.772 2169.7 377.372 2148.5 385.772 2128.2C389.972 2118 394.672 2108.1 399.872 2098.3C404.372 2089.7 406.172 2080.4 408.572 2071C419.572 2027.7 430.572 1984.4 441.572 1941.1C443.772 1932.5 445.572 1922.2 439.672 1915.6C434.272 1909.6 424.372 1909.6 417.372 1913.6C410.272 1917.5 405.472 1924.4 401.072 1931.2C375.072 1970.9 354.872 2014.5 340.972 2059.9C334.072 2082.6 330.172 2105.6 325.072 2128.7C320.472 2149.6 325.972 2174.9 327.572 2196.3C328.072 2203.2 327.672 2211.7 321.572 2214.9C315.172 2218.2 307.672 2212.9 303.372 2207.2C289.572 2189 292.972 2172.2 295.572 2151.6C297.072 2139.6 295.572 2126.7 296.772 2114.5C297.872 2102.7 299.572 2090.9 301.272 2079.2C308.272 2033.3 315.372 1987.4 322.372 1941.5C324.772 1926.1 323.072 1904.8 307.772 1902.3C297.172 1900.6 288.372 1910.2 282.272 1919.2C256.872 1957 241.072 2001.1 235.572 2046.2C232.772 2069 232.472 2092.2 234.872 2115.1C236.072 2126.3 237.872 2137.4 240.272 2148.4C242.372 2157.9 242.272 2167.5 250.072 2174.4C255.072 2178.8 261.072 2182 265.372 2187.1C269.572 2192.2 271.372 2200.4 266.872 2205.2C263.672 2208.6 258.272 2209.2 253.772 2207.7C249.372 2206.2 245.672 2203 242.472 2199.6C211.472 2167.3 207.172 2116.6 212.472 2074.4C215.972 2046.3 222.572 2018.3 221.772 1990C221.672 1986.6 221.172 1982.6 218.172 1980.9C215.572 1979.3 211.972 1980.4 209.772 1982.5C207.572 1984.6 206.372 1987.6 205.272 1990.4C191.672 2025.5 175.072 2057.7 171.772 2095.9C168.872 2129.8 174.472 2165.4 193.472 2193.5C220.272 2233.3 255.972 2227.2 293.572 2244.6C340.572 2266.7 373.772 2301.8 428.872 2307.3Z" fill="#ACB8DE"/>
<path d="M1053.67 2712.3C1085.77 2699.5 1100.37 2663.5 1120.87 2635.7C1170.67 2568.1 1272.67 2545.8 1346.17 2586.3C1354.57 2574 1349.17 2556 1337.77 2546.3C1326.37 2536.6 1310.97 2533.5 1296.07 2532.1C1232.57 2526.1 1166.87 2546.8 1118.27 2588.2C1182.57 2518 1282.27 2482.1 1376.47 2495.3C1377.47 2480.8 1378.37 2466.4 1379.37 2451.9C1246.17 2440.1 1109.17 2509.7 1040.07 2624.2C1087.27 2521 1180.77 2440.2 1289.67 2408.3C1277.57 2379.2 1238.97 2369 1208.97 2378.7C1178.97 2388.4 1156.17 2412.4 1135.77 2436.5C1091.87 2488.3 1052.97 2544.3 1019.67 2603.4C1042.97 2552.5 1066.57 2500.9 1075.57 2445.7C1084.57 2390.5 1077.47 2330.2 1043.87 2285.4C1024.17 2295.7 1004.37 2306 984.673 2316.3C1000.67 2314.8 1015.87 2326 1023.57 2340.1C1031.27 2354.2 1033.07 2370.8 1033.67 2386.9C1036.67 2457.5 1022.47 2528.7 992.673 2592.8C1017.47 2508.2 983.173 2409.6 911.273 2358.7C900.473 2372.3 889.673 2385.8 878.973 2399.4C885.273 2391.4 941.973 2471.8 945.873 2479.6C961.673 2511.7 970.173 2547.6 969.973 2583.4C969.873 2611.1 957.773 2640.4 967.673 2667.2C980.873 2701.7 1016.57 2727.1 1053.67 2712.3Z" fill="#8BCBCA"/>
<path d="M48.0715 3984.1C75.8715 3994.1 100.772 4012.2 118.872 4035.6C123.772 4041.9 128.272 4048.9 129.972 4056.7C131.672 4064.5 130.072 4073.5 124.172 4079C116.572 4086.1 104.272 4085.4 94.8715 4080.8C85.5715 4076.2 78.1715 4068.5 69.8715 4062.2C42.7715 4041.3 4.87152 4035.3 -27.3285 4046.9C-59.5285 4058.5 -84.9285 4087.1 -92.5285 4120.5C-94.4285 4128.7 -95.1285 4137.9 -90.6285 4145.1C-86.5285 4151.8 -78.5285 4155.3 -70.7285 4156C-62.9285 4156.6 -55.1285 4154.7 -47.5285 4152.5C7.27153 4136.3 58.5715 4103.6 115.672 4103.8C123.372 4103.8 131.872 4104.8 136.972 4110.6C144.272 4118.7 140.872 4132.1 133.972 4140.5C110.672 4169.2 63.9715 4162.4 33.2715 4183C20.1715 4191.8 10.4715 4205.6 6.77152 4221C4.77152 4229.3 4.87153 4239.2 10.9715 4245.2C14.7715 4248.8 20.0715 4250.3 25.1715 4251.2C47.6715 4254.9 71.5715 4248.5 89.2715 4234.1C116.172 4212.1 126.072 4175.7 146.972 4148C153.672 4139.2 163.772 4130.5 174.472 4133.4C184.872 4136.2 189.672 4148.8 188.372 4159.5C186.372 4176.9 173.472 4190.8 161.272 4203.4C137.872 4227.5 114.472 4251.6 91.0715 4275.6C80.3715 4286.6 95.0715 4307.8 108.972 4314.3C122.872 4320.8 140.072 4316.8 152.072 4307.3C164.072 4297.8 171.472 4283.5 176.072 4268.9C180.672 4254.3 182.672 4239 186.072 4224.1C191.172 4201.4 199.272 4179.3 210.172 4158.8C217.572 4144.8 230.172 4129.6 245.672 4132.4C253.872 4133.9 260.472 4140.4 263.672 4148.1C266.772 4155.8 266.872 4164.4 265.472 4172.6C262.572 4190.5 252.972 4207.2 239.072 4218.8C230.172 4226.3 219.572 4231.6 210.472 4238.8C201.372 4246 193.372 4256 192.672 4267.6C191.572 4285.6 209.872 4300.8 227.872 4300.1C245.872 4299.4 261.572 4286.1 269.472 4269.9C277.372 4253.7 278.572 4235.1 277.872 4217.1C277.172 4199.1 274.672 4181.2 275.772 4163.2C276.272 4154.8 277.572 4146.2 281.872 4138.9C286.072 4131.6 293.772 4125.9 302.172 4125.9C310.472 4125.9 318.172 4131.6 322.072 4138.9C325.972 4146.3 326.572 4155 325.472 4163.3C323.272 4179.3 315.172 4193.8 308.472 4208.5C301.772 4223.2 296.472 4239.7 300.372 4255.4C304.272 4271.1 320.572 4284.6 336.072 4279.9C350.972 4275.4 357.472 4257.2 355.572 4241.8C353.672 4226.1 345.772 4211.8 341.572 4196.8C337.172 4181.2 333.772 4165.1 331.872 4149C331.172 4143.2 331.172 4136.4 335.672 4132.6C341.372 4127.9 350.572 4132 354.072 4138.5C357.572 4145 357.272 4152.8 357.672 4160.1C359.372 4192 376.772 4222.6 403.372 4240.2C419.072 4250.6 439.372 4256.6 456.872 4249.6C474.372 4242.6 485.272 4219.2 474.472 4203.7C468.972 4195.7 459.272 4191.5 449.672 4189.6C440.072 4187.7 430.272 4187.9 420.672 4186.4C402.772 4183.6 385.672 4175.3 372.572 4162.7C365.372 4155.8 359.172 4144.4 365.272 4136.4C371.172 4128.7 383.172 4131.2 392.372 4134.2C413.172 4141 434.772 4146.6 456.672 4146.6C478.572 4146.5 501.172 4140.3 517.472 4125.7C525.972 4118.1 532.872 4107.7 532.972 4096.4C533.072 4075.9 510.572 4061.2 490.172 4061.9C469.672 4062.6 451.372 4074.1 434.272 4085.4C417.172 4096.7 399.072 4108.4 378.572 4109.7C352.872 4111.3 368.972 4087.1 376.872 4077.4C389.972 4061.4 405.472 4047.6 418.772 4031.9C434.372 4013.5 445.672 3993 439.672 3968C432.772 3938.9 407.172 3918 379.272 3938.2C365.172 3948.4 361.372 3967.9 362.772 3985.2C364.172 4002.5 369.472 4019.5 369.172 4036.8C368.672 4060.2 357.072 4083.2 338.472 4097.5C333.272 4101.5 327.172 4105 320.672 4105C306.372 4105.1 296.772 4088.4 298.772 4074.2C300.772 4060 310.372 4048.3 319.672 4037.5C330.072 4025.3 332.072 4010 335.072 3994.2C336.972 3984 337.372 3973.1 333.372 3963.5C329.372 3953.9 319.972 3946 309.572 3946.3C300.772 3946.5 292.772 3952.5 288.272 3960.1C283.772 3967.7 282.172 3976.7 281.672 3985.5C280.072 4013.1 287.372 4041.6 278.672 4067.8C276.072 4075.8 271.672 4083.5 264.772 4088.3C257.872 4093.1 247.972 4094.1 241.172 4089.1C235.872 4085.2 233.272 4078.3 233.072 4071.7C232.872 4065.1 234.672 4058.6 236.572 4052.2C240.972 4037.2 245.672 4022.3 250.772 4007.4C257.472 3987.9 246.572 3965.5 236.272 3947.7C231.172 3938.9 224.972 3930.5 216.672 3924.5C208.372 3918.5 197.972 3915.1 187.872 3916.7C177.772 3918.4 168.472 3925.7 165.972 3935.6C164.172 3942.8 166.072 3950.5 169.372 3957.2C172.672 3963.9 177.272 3969.8 181.472 3975.9C190.272 3989 197.272 4003.7 199.272 4019.3C201.272 4034.9 198.072 4051.6 188.372 4064.1C182.972 4071.1 173.672 4076.9 165.572 4073.5C156.972 4069.9 155.072 4058.9 154.272 4049.6C152.772 4031.5 151.372 4013.3 149.872 3995.2C148.872 3982.8 144.772 3971.5 135.872 3962.7C120.972 3948 103.572 3935.9 84.4715 3927.2C74.3715 3922.5 63.0715 3918.8 52.1715 3921.1C39.0715 3923.8 28.5715 3936.1 27.7715 3949.4C27.4715 3962.8 35.4715 3979.6 48.0715 3984.1Z" fill="#FFDF00"/>
<path d="M32.6717 5239.5C12.7717 5204.4 12.1717 5154.9 42.1717 5127.9C63.7717 5108.5 97.7717 5105.5 123.672 5118.6C149.572 5131.7 166.972 5159.2 170.272 5188.1C173.572 5217 163.472 5246.6 145.472 5269.3C140.572 5275.5 135.072 5281.3 131.972 5288.5C128.872 5295.7 128.772 5305 134.272 5310.6C141.372 5318 153.772 5316 162.772 5311.2C182.872 5300.5 195.572 5280.1 209.072 5261.7C222.572 5243.3 239.972 5225 262.572 5222.3C287.172 5219.3 310.772 5236.7 322.172 5258.7C341.772 5296.8 327.472 5348.7 291.272 5371.4C254.972 5394.1 202.072 5384.3 176.372 5350.2C172.972 5345.7 169.872 5340.7 164.872 5338C159.872 5335.3 152.372 5336.2 150.272 5341.5C148.772 5345.1 150.372 5349.1 151.772 5352.7C166.672 5391.1 167.972 5436.8 146.072 5471.7C124.172 5506.6 75.6717 5525.4 39.1717 5506.4C0.871716 5486.5 -10.4283 5432 9.2717 5393.6C18.3717 5376 32.5717 5361.6 49.1717 5350.9C57.8717 5345.4 67.1717 5340.9 76.7717 5337.3C83.1717 5334.9 101.372 5333.7 105.572 5328.8C118.972 5313.5 84.5717 5296.2 75.0717 5288.1C58.4717 5274.2 43.3717 5258.4 32.6717 5239.5Z" fill="#FFD7CC"/>
<path d="M1782.87 5511.9L1762.37 5492.9L1642.07 5629.3L1689.97 5753.3L1606.07 5815.5L1579.27 5596L1644.57 5506L1615.87 5451L1709.57 5376L1692.47 5353.9L1602.77 5425.7L1569.97 5362.8L1546.07 5375.2L1612.47 5502.8L1560.87 5573.9L1449.17 5512.7L1472.57 5350.1L1425.87 5330.7L1483.67 5209.2L1459.17 5196.4L1400.27 5320.1L1325.37 5289L1315.87 5314.7L1442.57 5367.3L1423.57 5498.7L1397.77 5484.6L1286.07 5481.8L1286.37 5509.6L1391.47 5512.2L1447.77 5543L1255.67 5621.5L1190.07 5517.6L1167.37 5532.1L1232.27 5634.9L1132.37 5710.5L1148.97 5733.1L1257.57 5651L1374.17 5603.4L1370.87 5658.9L1397.97 5661.6L1402.07 5592L1479.47 5560.4L1552.57 5600.4L1572.37 5762.2L1442.87 5733L1340.27 5693.4L1331.47 5719.4L1417.47 5752.5L1360.67 5828.6L1382.37 5845.9L1445.27 5761.8L1575.87 5791.3L1588.97 5898.5L1615.87 5896L1609.97 5847.4L1722.87 5763.8L1678.27 5648.2L1803.67 5658.8L1804.97 5631.1L1686.57 5621.1L1782.87 5511.9Z" fill="#008DB5"/>
<path d="M1646.55 1548.63C1638.25 1539.93 1637.35 1526.13 1641.15 1514.73C1645.05 1503.33 1652.85 1493.73 1660.55 1484.43C1665.85 1478.03 1671.85 1471.13 1680.05 1469.53C1688.25 1467.93 1698.25 1475.33 1695.65 1483.23C1714.15 1470.33 1734.45 1459.83 1755.65 1452.13C1762.25 1449.73 1769.55 1447.63 1776.05 1450.13C1782.55 1452.63 1786.55 1461.93 1781.55 1466.83C1800.95 1465.53 1820.55 1465.33 1839.95 1464.03C1846.65 1463.63 1853.45 1463.13 1859.85 1465.13C1866.25 1467.13 1872.15 1472.03 1873.35 1478.63C1874.55 1485.23 1869.25 1492.83 1862.65 1492.33C1874.65 1498.83 1886.65 1505.23 1898.65 1511.73C1907.65 1516.53 1917.95 1523.83 1916.85 1533.93C1916.45 1537.43 1914.65 1540.73 1913.95 1544.23C1912.25 1552.13 1916.35 1560.13 1920.95 1566.73C1925.65 1573.33 1931.25 1579.53 1933.45 1587.33C1935.65 1595.13 1933.05 1605.03 1925.45 1607.83C1918.35 1605.83 1908.35 1605.23 1906.15 1612.33C1905.45 1614.73 1906.05 1617.23 1905.85 1619.73C1905.25 1627.13 1897.55 1632.53 1890.15 1632.73C1882.75 1632.93 1875.75 1629.13 1869.75 1624.73C1855.35 1613.93 1844.45 1598.43 1839.35 1581.23C1839.95 1587.03 1832.45 1590.83 1826.95 1589.03C1821.45 1587.23 1817.75 1582.23 1814.45 1577.43C1806.25 1565.63 1798.15 1553.73 1789.95 1541.93C1794.55 1545.93 1789.45 1554.33 1783.35 1554.63C1777.25 1554.93 1772.05 1550.63 1767.55 1546.53C1756.25 1536.33 1744.95 1526.13 1733.65 1515.93C1731.05 1520.93 1731.35 1527.43 1734.35 1532.23C1739.45 1534.73 1736.75 1532.13 1734.15 1537.23C1731.65 1542.33 1725.85 1545.33 1720.15 1545.73C1714.45 1546.23 1708.85 1544.63 1703.45 1542.53C1698.15 1540.43 1692.95 1537.93 1687.45 1536.43C1684.35 1535.63 1681.05 1535.13 1677.95 1535.83C1674.85 1536.63 1671.95 1538.93 1671.25 1542.03C1670.85 1543.73 1671.15 1545.53 1670.95 1547.33C1670.35 1552.63 1665.15 1556.63 1659.85 1556.83C1654.95 1557.03 1650.25 1552.53 1646.55 1548.63Z" fill="#36C7C1"/>
<path d="M191.172 546.8C184.672 530.1 170.772 514.5 174.172 496.9C176.772 483.7 188.572 474.2 193.272 461.6C203.272 434.9 178.872 406 183.372 377.8C186.272 359.5 200.472 345.5 211.472 330.6C222.472 315.7 230.472 294.7 220.272 279.2C230.872 280.8 236.972 293 236.272 303.7C235.572 314.4 229.972 324 225.372 333.7C211.872 362.3 206.572 394.6 210.072 426C211.872 441.9 215.672 459 207.972 473C201.772 484.4 188.272 492.9 188.372 506C188.472 518.1 200.172 526.3 207.972 535.5C226.072 556.9 222.872 593 201.172 610.8C216.972 617.2 232.072 597.7 232.072 580.7C232.072 563.7 224.172 547.2 225.472 530.3C228.072 495.4 267.972 470.5 266.472 435.5C265.972 424.1 260.972 412.8 263.072 401.6C265.172 390.4 280.672 381.3 287.772 390.2C280.072 419.9 272.372 449.6 264.672 479.3C258.072 504.8 251.472 530.4 249.672 556.7C248.572 573.1 249.372 590 244.572 605.7C237.972 627.2 202.672 656.8 185.972 625.8C174.272 604 201.872 574.2 191.172 546.8Z" fill="#8AAA9A"/>
<path d="M106.273 1110.1C98.5728 1112.9 91.1728 1121.7 95.6728 1128.5C98.3728 1132.6 103.973 1133.4 108.973 1133.8C130.873 1135.7 152.773 1137.6 174.673 1139.4C191.973 1140.9 209.373 1142.4 226.473 1139.7C243.573 1137.1 260.673 1130 271.873 1116.8C273.673 1114.7 275.473 1112.2 275.473 1109.4C275.573 1104.8 270.973 1101.2 266.373 1100.6C261.773 1100 257.273 1101.5 252.773 1102.8C234.773 1107.9 215.673 1108.6 197.373 1104.8C185.373 1102.3 173.673 1098 161.573 1095.8C138.773 1091.6 126.273 1102.7 106.273 1110.1Z" fill="#D8BF8B"/>
<path d="M1708.47 493.4C1700.37 493.2 1690.77 494.3 1685.67 488C1681.77 483.3 1682.27 476.4 1680.17 470.6C1675.67 457.8 1660.37 453.3 1649.37 445.3C1627.57 429.5 1623.47 394.3 1640.97 373.9C1644.37 383.2 1641.37 393.5 1639.67 403.2C1637.97 412.9 1638.37 424.6 1646.07 430.8C1654.97 437.9 1668.77 434.2 1678.37 440.3C1692.47 449.3 1690.37 474.8 1706.07 480.5C1712.17 482.7 1718.87 481 1725.37 481.5C1731.77 482 1739.17 486.9 1737.77 493.3C1744.87 491.7 1744.97 480.8 1740.07 475.4C1735.27 469.9 1727.87 467.3 1722.97 461.8C1719.27 457.7 1717.37 452.3 1715.57 447C1710.27 431.7 1705.07 416.4 1699.77 401.1C1697.97 395.9 1696.17 390.1 1698.17 385C1700.17 379.8 1707.77 376.8 1711.27 381.1C1713.97 384.3 1712.57 389.1 1712.37 393.3C1712.07 399.8 1714.87 406 1717.87 411.8C1725.07 425.9 1733.37 439.6 1742.57 452.5C1748.47 460.8 1754.97 469.1 1758.17 478.8C1761.37 488.5 1760.57 500.3 1753.27 507.5C1735.27 525.6 1725.07 493.8 1708.47 493.4Z" fill="#909AB2"/>
<path d="M1340.07 858.3C1340.17 862.8 1341.17 867.8 1344.97 870.2C1346.87 871.4 1349.17 871.8 1351.37 872.1C1382.37 876.5 1413.77 878.7 1445.07 878.7C1451.47 878.7 1457.97 878.6 1464.07 876.6C1470.17 874.6 1475.77 870.4 1478.07 864.4C1481.37 855.6 1476.17 845.5 1468.67 840.1C1461.07 834.6 1451.57 832.7 1442.37 830.9C1433.17 829.1 1423.67 827.2 1416.17 821.7C1404.97 813.5 1399.37 798.3 1386.77 792.6C1377.97 788.6 1366.77 790.5 1359.77 797.1C1351.57 804.9 1353.97 814.3 1350.97 823.8C1346.77 836.3 1339.67 844 1340.07 858.3Z" fill="#D8BF8B"/>
<path d="M1048.07 108.3C1048.17 111.7 1048.97 115.5 1051.77 117.3C1053.17 118.2 1054.97 118.5 1056.57 118.7C1079.97 122 1103.67 123.7 1127.37 123.7C1132.17 123.7 1137.07 123.6 1141.67 122.1C1146.27 120.6 1150.57 117.4 1152.27 112.9C1154.77 106.3 1150.87 98.6001 1145.17 94.5001C1139.47 90.4001 1132.27 88.9001 1125.27 87.6001C1118.37 86.3001 1111.17 84.8001 1105.47 80.6001C1096.97 74.4001 1092.77 62.9001 1083.27 58.6001C1076.67 55.6001 1068.17 57.0001 1062.87 62.0001C1056.67 67.9001 1058.47 75.0001 1056.17 82.2001C1053.17 91.6001 1047.77 97.5001 1048.07 108.3Z" fill="#D8BF8B"/>
<path d="M538.073 514.3C538.173 517.7 538.973 521.5 541.773 523.3C543.173 524.2 544.973 524.5 546.573 524.7C569.973 528 593.673 529.7 617.373 529.7C622.173 529.7 627.073 529.6 631.673 528.1C636.273 526.6 640.573 523.4 642.273 518.9C644.773 512.3 640.873 504.6 635.173 500.5C629.473 496.4 622.273 494.9 615.273 493.6C608.373 492.3 601.173 490.8 595.473 486.6C586.973 480.4 582.773 468.9 573.273 464.6C566.673 461.6 558.173 463 552.873 468C546.673 473.9 548.473 481 546.173 488.2C543.173 497.6 537.773 503.5 538.073 514.3Z" fill="#D8BF8B"/>
<path d="M1027.97 5398.1L1031.57 5372L861.271 5352.8L791.371 5456.7L698.071 5425.5L853.071 5286.3L957.771 5288.1L984.771 5236.3L1093.37 5268.1L1101.17 5242.9L997.271 5212.5L1028.17 5153.1L1005.67 5141.4L942.971 5261.6L860.171 5260.2L847.171 5140.8L985.372 5071.1L975.171 5024.6L1100.17 5003.6L1096.87 4977.7L969.471 4999.1L953.071 4924.4L928.071 4930.9L955.872 5057.2L844.171 5113.5L841.171 5086L782.871 4998.2L761.571 5013.4L816.371 5096L822.971 5156.1L658.671 5050.1L703.471 4943.3L680.071 4933.7L635.671 5039.3L523.271 5002.9L514.771 5027.9L636.871 5067.5L736.571 5131.8L691.871 5159.3L704.571 5181.6L760.471 5147.3L826.671 5190L835.271 5268.1L720.871 5370.7L673.571 5254.9L648.771 5154.3L623.971 5161.5L644.771 5245.8L555.371 5243L553.671 5269.2L652.671 5272.3L700.371 5389.1L624.571 5457.1L641.071 5476.6L675.471 5445.8L801.071 5487.8L866.171 5391L925.771 5493.5L947.872 5479.6L891.571 5382.7L1027.97 5398.1Z" fill="#EC1728"/>
<path d="M439.971 3747.1L443.571 3721L273.271 3701.8L203.371 3805.7L110.071 3774.5L265.071 3635.3L369.771 3637.1L396.771 3585.3L505.371 3617.1L513.171 3591.9L409.271 3561.5L440.171 3502.1L417.671 3490.4L354.971 3610.6L272.171 3609.2L259.171 3489.8L397.371 3420.1L387.171 3373.6L512.171 3352.6L508.871 3326.7L381.471 3348.1L365.071 3273.4L340.071 3279.9L367.871 3406.2L256.171 3462.5L253.171 3435L194.871 3347.2L173.571 3362.4L228.371 3445L234.971 3505.1L70.6715 3399.1L115.471 3292.3L92.0715 3282.7L47.6715 3388.3L-64.7285 3351.9L-73.2285 3376.9L48.8715 3416.5L148.571 3480.8L103.871 3508.3L116.571 3530.6L172.471 3496.3L238.671 3539L247.271 3617.1L132.871 3719.7L85.5715 3603.9L60.7715 3503.3L35.9715 3510.5L56.7715 3594.8L-32.6285 3592L-34.3285 3618.2L64.6715 3621.3L112.371 3738.1L36.5715 3806.1L53.0715 3825.6L87.4715 3794.8L213.071 3836.8L278.171 3740L337.771 3842.5L359.871 3828.6L303.571 3731.7L439.971 3747.1Z" fill="#FF863A"/>
<path d="M1011.67 1279C1014.07 1287 1011.27 1296 1006.37 1301.8C1001.47 1307.7 994.971 1311 988.471 1314.1C940.071 1337.2 888.371 1351.6 835.671 1356.5C814.771 1358.5 791.571 1358 775.171 1341.6C764.371 1330.8 758.371 1314.5 756.571 1298.2C754.771 1281.9 756.771 1265.6 759.871 1249.8C769.171 1201.6 788.171 1156.6 814.671 1119.4C818.571 1113.9 822.871 1108.4 828.571 1105.8C834.271 1103.2 841.671 1104.1 845.671 1110C851.171 1118.1 847.471 1129.7 843.571 1138.5C830.571 1168 817.571 1197.5 804.571 1227.1C813.971 1205.7 831.571 1185.3 845.171 1167.6C860.071 1148.2 877.371 1110.5 901.871 1106.4C927.571 1102.1 909.971 1143.1 904.171 1155C895.371 1172.9 884.071 1188.9 872.871 1204.7C861.671 1220.6 850.471 1236.6 839.271 1252.5C868.871 1217.4 898.471 1182.3 928.071 1147.2C935.971 1137.9 944.271 1128.2 954.971 1124.3C965.671 1120.4 979.671 1124.1 985.271 1136.2C989.471 1145.3 987.871 1156.7 983.471 1165.1C979.071 1173.6 972.271 1179.8 965.571 1185.8C933.071 1215.1 900.571 1244.4 868.071 1273.8C890.571 1277.4 911.771 1264.2 929.871 1249.4C947.971 1234.6 965.672 1217.4 987.372 1211.3C993.572 1209.6 1000.17 1208.9 1006.27 1211.4C1012.37 1213.9 1017.87 1220.3 1018.47 1227.9C1019.57 1240.6 1008.17 1248.4 998.372 1253.1C966.872 1268.4 935.271 1283.7 903.771 1298.9C894.271 1303.5 882.771 1305.8 874.571 1313.4C864.971 1322.2 868.471 1332.5 881.671 1334C892.471 1335.1 1011.57 1278.7 1011.67 1279Z" fill="#ACB8DE"/>
<path d="M1527.47 3757.1L1514.37 3735.3L1375.07 3824.5L1385.87 3944.8L1296.97 3978.1L1328.47 3779.6L1408.07 3717.3L1396.87 3662.1L1497.57 3620L1488.07 3596.3L1391.67 3636.6L1378.77 3573.4L1354.77 3578.3L1380.87 3706.4L1317.97 3755.7L1235.67 3674.2L1296.87 3538L1260.87 3509.3L1341.87 3417.6L1323.67 3400.2L1241.17 3493.6L1183.47 3447.6L1168.77 3467.7L1266.27 3545.4L1216.77 3655.5L1197.77 3636.7L1100.87 3606.3L1094.07 3630.7L1185.37 3659.3L1226.87 3700.4L1039.27 3720.8L1007.97 3613.5L984.572 3620.5L1015.47 3726.7L909.172 3767.7L917.972 3791.6L1033.47 3747L1147.37 3734.7L1130.57 3782.4L1153.57 3791.5L1174.57 3731.7L1250.17 3723.5L1304.07 3776.8L1280.77 3923.2L1174.97 3865.2L1095.17 3804.8L1080.97 3825.3L1147.77 3875.9L1079.07 3928.1L1093.77 3948.7L1169.77 3890.9L1276.57 3949.5L1261.17 4046.5L1285.37 4051L1292.27 4007.1L1411.97 3962.2L1401.97 3850.1L1508.87 3890.7L1516.97 3866.8L1415.97 3828.4L1527.47 3757.1Z" fill="#FFCC33"/>
<path d="M337.373 4424.1C347.873 4407.9 363.373 4395.6 374.573 4380C385.773 4364.4 391.973 4342.2 381.273 4326.1C367.773 4305.7 334.873 4308.4 316.973 4325C299.073 4341.6 292.373 4366.7 286.573 4390.4C279.973 4416.8 273.473 4443.2 266.873 4469.6C261.573 4490.8 256.373 4513 261.173 4534.3C267.973 4564.4 293.573 4586.7 320.773 4601.2C403.673 4645.5 514.073 4630.9 582.773 4566.7C590.073 4559.9 596.973 4552.4 600.573 4543.1C604.073 4533.8 603.573 4522.4 596.873 4515C566.873 4482 517.873 4544.8 495.673 4559.1C486.173 4565.2 476.173 4571 464.973 4572.8C453.873 4574.7 441.373 4572 433.973 4563.5C424.173 4552.3 426.173 4534.4 434.473 4522.1C445.873 4505.1 469.773 4491 487.373 4480.7C496.973 4475.1 507.273 4470.9 516.073 4464.1C524.773 4457.3 531.973 4447.2 531.373 4436.1C530.673 4422.7 518.573 4411.9 505.473 4408.7C492.373 4405.5 478.673 4408.2 465.573 4411.6C431.373 4420.5 398.373 4434 367.773 4451.6C358.773 4456.8 338.273 4476.2 329.473 4466.6C320.873 4457.2 331.973 4432.3 337.373 4424.1Z" fill="#008753"/>
<path d="M1397.47 4710.2C1401.57 4696 1402.47 4681.9 1419.87 4674.9C1434.07 4669.2 1449.97 4671.3 1465.17 4672.6C1480.37 4673.9 1496.87 4674.1 1509.47 4665.4C1527.77 4652.8 1535.87 4623.3 1558.17 4622.7C1568.77 4622.4 1578.57 4629.6 1589.17 4629.2C1609.17 4628.4 1617.57 4604.3 1630.17 4588.8C1646.47 4568.6 1673.57 4561.5 1697.47 4551.4C1721.37 4541.3 1746.37 4522.8 1746.77 4496.8C1747.17 4471.2 1719.67 4450.4 1694.27 4454C1668.87 4457.6 1649.07 4481.1 1645.27 4506.4C1643.47 4518.4 1627.37 4516.7 1616.27 4512C1605.17 4507.3 1595.27 4498.1 1583.17 4498.1C1566.87 4498.1 1555.87 4514.6 1549.97 4529.8C1544.07 4545 1538.97 4562.4 1524.87 4570.6C1503.07 4583.1 1473.37 4565.7 1450.97 4577.1C1433.17 4586.1 1427.67 4609 1412.77 4622.1C1391.17 4641.1 1358.57 4636 1334.97 4650.5C1311.97 4664.6 1307.97 4695.4 1279.07 4704.8C1265.97 4709 1251.67 4707.7 1238.27 4710.9C1220.07 4715.2 1204.07 4728.3 1196.17 4745.3C1185.87 4767.6 1190.57 4797.1 1206.77 4815.7C1217.87 4828.5 1238.67 4828.3 1253.57 4820.1C1284.87 4802.7 1279.57 4756.2 1321.17 4751.8C1330.47 4750.8 1339.87 4752.5 1349.17 4751.8C1367.57 4750.4 1384.37 4738.2 1392.97 4722.1C1394.97 4718.1 1396.27 4714.1 1397.47 4710.2Z" fill="#008DB5"/>
<path d="M878.372 4449.1C864.472 4470.2 855.072 4494 847.172 4518C836.672 4549.8 828.672 4584.5 838.972 4616.3C842.172 4626.3 847.472 4636.1 856.272 4641.8C867.972 4649.4 883.772 4648.2 896.472 4642.3C906.272 4637.7 918.272 4627.4 930.272 4630.2C944.272 4633.4 950.672 4655.7 962.572 4664.3C978.472 4675.8 1003.67 4677 1015.77 4661.6C1021.97 4653.7 1023.67 4643.3 1027.37 4633.9C1031.07 4624.5 1038.47 4615.1 1048.57 4615C1060.17 4614.9 1067.67 4626.8 1077.97 4632.2C1091.57 4639.3 1109.17 4633.6 1119.47 4622.3C1129.77 4611 1133.87 4595.3 1135.47 4580C1139.17 4544.1 1130.07 4507.3 1111.37 4476.5C1092.67 4445.7 1064.57 4420.9 1032.27 4404.9C1004.77 4391.2 971.372 4384 941.372 4393.8C915.772 4402.3 892.772 4427.2 878.372 4449.1Z" fill="#00B590"/>
<path d="M1429.4 4189.7L1414.1 4174.4L1316.5 4276.9L1350.1 4374.6L1283.1 4420.5L1268.7 4249.1L1322.1 4181.1L1301.4 4137.5L1376.5 4082L1363.8 4064.3L1291.9 4117.5L1268.3 4067.6L1249.4 4076.6L1297.3 4177.7L1255.1 4231.4L1170 4180.6L1193 4054.9L1157.3 4038.4L1205.8 3945.7L1187.1 3935L1137.7 4029.4L1080.4 4003L1072.3 4022.7L1169.2 4067.4L1150.6 4168.9L1130.9 4157.2L1044.2 4151.8L1043.6 4173.4L1125.2 4178.5L1168.1 4204.1L1016.4 4259.4L968.5 4176.7L950.5 4187.3L997.9 4269.2L918 4325L930.2 4343L1017 4282.4L1109.1 4248.8L1104.9 4291.9L1125.9 4294.7L1131.1 4240.8L1192.2 4218.5L1247.8 4251.8L1258.4 4378.1L1158.7 4351.6L1080.1 4317.8L1072.5 4337.7L1138.3 4366L1091.9 4423.4L1108.3 4437.6L1159.7 4374L1260.3 4400.8L1267.3 4484.6L1288.4 4483.4L1285.2 4445.5L1375.4 4383.8L1344.1 4292.7L1441.3 4304.5L1443.1 4283L1351.3 4271.8L1429.4 4189.7Z" fill="#008DB5"/>
</g>
</svg>
