<svg width="1920" height="5950" viewBox="0 0 1920 5950" fill="none" xmlns="http://www.w3.org/2000/svg">
<mask id="mask0" mask-type="alpha" maskUnits="userSpaceOnUse" x="0" y="0" width="1920" height="5950">
<rect width="1920" height="5950" fill="#C4C4C4"/>
</mask>
<g mask="url(#mask0)">
<path d="M470.672 1607C486.472 1585.7 481.572 1556.3 483.772 1529.9C489.072 1465.7 546.672 1410 611.072 1406.9C611.572 1395.5 600.772 1385.9 589.472 1384.1C578.172 1382.3 566.772 1386.5 556.472 1391.6C512.572 1413.3 477.972 1453.3 462.872 1499.9C476.572 1428.1 527.272 1364.5 594.172 1335.1C588.972 1325.3 583.772 1315.4 578.572 1305.6C486.772 1351.6 425.272 1452.3 426.272 1554.9C415.572 1468.5 444.072 1377.9 502.372 1313.2C482.772 1299.1 453.372 1308 437.772 1326.4C422.072 1344.8 416.872 1369.7 413.272 1393.6C405.472 1445.1 402.572 1497.4 404.672 1549.5C399.372 1506.9 393.972 1463.6 377.672 1423.9C361.272 1384.2 332.372 1347.7 292.372 1331.9C283.672 1346.6 274.872 1361.3 266.172 1376C276.072 1368.6 290.472 1369.7 301.172 1375.8C311.972 1381.9 319.672 1392 326.672 1402.3C357.072 1447.2 376.472 1499.5 382.872 1553.3C364.972 1488 302.872 1437.4 235.272 1433.1C233.672 1446.3 232.072 1459.5 230.572 1472.7C231.472 1464.9 300.972 1494.6 306.572 1498.1C329.872 1512.7 349.772 1532.7 364.172 1556.2C375.272 1574.4 379.172 1598.3 396.472 1611.8C418.872 1629.4 452.372 1631.7 470.672 1607Z" fill="#8BCBCA"/>
<path d="M1839.77 2209.4C1848.07 2208.1 1856.57 2212.1 1861.67 2217.7C1866.87 2223.3 1869.27 2230.3 1871.47 2237.1C1887.97 2288.2 1895.37 2341.3 1893.27 2394.1C1892.47 2415 1888.97 2438 1870.47 2452.1C1858.37 2461.4 1841.37 2465.2 1824.97 2464.8C1808.57 2464.4 1792.67 2460.2 1777.47 2455.1C1730.97 2439.5 1688.87 2414.7 1655.47 2383.5C1650.57 2378.9 1645.67 2373.9 1643.77 2368C1641.87 2362.1 1643.87 2354.8 1650.17 2351.6C1658.97 2347.2 1669.87 2352.4 1678.17 2357.4C1705.67 2374.2 1733.27 2391 1760.77 2407.8C1740.87 2395.6 1722.87 2375.5 1707.17 2359.7C1689.87 2342.4 1654.77 2320.2 1654.07 2295.4C1653.27 2269.4 1691.57 2292.2 1702.57 2299.5C1719.17 2310.6 1733.47 2323.9 1747.67 2337.1C1761.97 2350.3 1776.27 2363.5 1790.67 2376.7C1759.77 2342.7 1728.97 2308.7 1698.07 2274.8C1689.87 2265.8 1681.37 2256.3 1678.87 2245.1C1676.37 2233.9 1681.97 2220.6 1694.67 2216.7C1704.27 2213.7 1715.27 2216.8 1723.07 2222.3C1730.87 2227.8 1736.17 2235.4 1741.17 2242.8C1765.97 2278.9 1790.67 2315 1815.47 2351.1C1822.07 2329.3 1811.77 2306.6 1799.47 2286.6C1787.17 2266.6 1772.47 2246.8 1769.37 2224.5C1768.47 2218.2 1768.67 2211.5 1771.97 2205.8C1775.27 2200.1 1782.27 2195.5 1789.87 2195.8C1802.57 2196.4 1808.87 2208.8 1812.17 2219C1823.17 2252.3 1834.07 2285.5 1845.07 2318.8C1848.37 2328.8 1849.17 2340.6 1855.57 2349.7C1863.07 2360.3 1873.67 2358.2 1876.87 2345.4C1879.57 2335 1839.37 2209.5 1839.77 2209.4Z" fill="#FFDF00"/>
<path d="M722.471 2170.4C749.571 2156.1 784.771 2160.7 808.671 2179.8C832.571 2198.9 844.571 2231.1 841.071 2261.5C826.671 2258.1 813.971 2249.2 803.671 2238.5C793.371 2227.8 785.271 2215.2 777.171 2202.7C781.071 2218.6 785.071 2234.7 785.271 2251.1C785.571 2267.5 781.871 2284.5 771.871 2297.5C757.171 2288.1 747.771 2271.9 743.071 2255C738.371 2238.1 737.971 2220.4 737.471 2202.9C737.671 2209.5 720.871 2223.6 716.271 2227.8C711.771 2232 695.471 2248.6 688.771 2247.1C681.171 2245.4 684.471 2226.3 685.471 2220.9C687.371 2210.9 691.371 2201.4 697.171 2193C703.771 2183.7 712.371 2175.7 722.471 2170.4Z" fill="#FFD7CC"/>
<path d="M129.172 4691.2C185.072 4670.4 193.072 4726.8 192.172 4751.2C191.272 4775.6 202.272 4823.3 237.872 4824.6C273.472 4825.9 277.872 4777.9 276.172 4745.7C274.472 4713.5 295.072 4658.9 342.572 4667C389.972 4675.1 427.372 4708.9 408.072 4762.9C388.772 4816.9 293.572 4873.5 286.172 4907C278.772 4940.5 259.772 4983.8 307.572 4989.4C355.372 4995 341.772 4876.6 386.372 4886.9C430.972 4897.2 460.072 4916.7 447.672 4976.4C435.172 5036 328.072 5007.5 310.372 5049.8C292.772 5092.2 297.172 5123.5 358.772 5131.1C420.372 5138.7 463.272 5089.9 477.672 5122.7C492.172 5155.5 481.872 5200.1 439.972 5197.8C398.072 5195.6 319.872 5161.3 295.672 5169.3C271.472 5177.3 257.172 5200.9 247.072 5208.5C227.572 5223.3 181.772 5230.2 161.172 5194C149.772 5173.9 166.872 5157 147.072 5143.9C127.172 5130.8 49.6723 5132.4 32.2723 5143.9C14.8723 5155.4 -44.1277 5139.3 -39.4277 5106.7C-34.7277 5074.1 4.77227 5031.2 27.4723 5051.1C50.1723 5071 99.5723 5083.3 109.072 5079.5C118.572 5075.8 138.572 5043.8 93.5723 5018.3C48.6723 4992.8 -0.22773 4976.7 0.77227 4943.6C1.67227 4910.5 16.7723 4876.8 35.7723 4878.3C54.7723 4879.8 85.6723 4895.8 98.5723 4939.8C111.472 4983.8 147.572 4999.3 167.972 4981.8C188.372 4964.3 197.472 4892.7 188.572 4865.8C179.672 4838.9 119.572 4785.5 114.972 4764.3C110.072 4743.4 99.4723 4702.2 129.172 4691.2Z" fill="#EF3C45"/>
<path d="M699.073 3023.3C707.673 3006.2 714.673 2982 699.173 2970.7C687.273 2962.1 670.573 2968.4 658.073 2976.1C597.973 3013.5 559.173 3083 558.773 3153.8C558.373 3224.6 596.673 3294.5 656.473 3332.4C716.273 3370.3 795.773 3375.1 859.673 3344.7C873.573 3338.1 887.573 3329 893.773 3314.9C899.973 3300.8 894.573 3280.9 879.873 3276.5C861.673 3271.1 839.573 3290.3 824.773 3278.5C814.173 3270.1 817.973 3252.4 827.173 3242.5C836.373 3232.6 849.373 3226.9 858.773 3217.2C868.173 3207.5 872.673 3190.1 862.473 3181.2C853.773 3173.5 839.773 3176.8 829.973 3183.1C819.573 3189.8 799.673 3210.1 786.473 3208.5C780.473 3207.8 775.273 3203.1 773.773 3197.3C770.973 3186.5 780.673 3176.4 790.573 3171.4C814.573 3159.1 842.473 3143.5 833.073 3110.7C828.273 3094.1 808.173 3082.3 792.773 3089.9C782.773 3094.9 777.473 3105.8 772.473 3115.8C767.573 3125.8 761.373 3136.5 750.873 3140.3C740.373 3144.1 725.773 3135.2 728.773 3124.4C744.773 3114.4 761.773 3103.4 769.273 3086.1C776.773 3068.8 769.473 3043.8 750.873 3040.4C728.873 3036.4 717.873 3065.2 699.373 3063.5C674.873 3061.5 693.473 3034.4 699.073 3023.3Z" fill="#FFD7CC"/>
<path d="M35.4723 2662.5C40.9723 2627.2 46.3723 2591.9 51.8723 2556.5C67.6723 2594.8 83.4723 2633 99.3723 2671.3C97.0723 2621.2 94.6723 2571.2 92.3723 2521.1C117.672 2578.1 160.272 2627.2 213.072 2660.3C200.972 2611 188.972 2561.6 176.872 2512.3C216.572 2538.7 256.372 2565 296.072 2591.4C261.972 2541.3 227.872 2491.2 193.672 2441.1C244.472 2482.4 311.572 2503 376.772 2497.3C326.272 2463.8 275.772 2430.4 225.172 2396.9C193.272 2375.8 160.272 2354.2 122.672 2347.5C94.2723 2342.4 57.2723 2347.4 36.0723 2369C19.6723 2385.7 20.2723 2420 16.2723 2442C3.17226 2515.4 9.57226 2592.4 35.4723 2662.5Z" fill="#8BCBCA"/>
<path d="M1126.47 5432.7C1136.47 5423.6 1136.17 5407.5 1132.17 5395.6C1127.97 5383 1119.97 5372 1114.57 5359.9C1102.57 5333.3 1103.67 5301.2 1117.37 5275.4C1128.17 5255.1 1145.97 5239 1155.07 5218C1164.17 5196.9 1159.37 5166.4 1137.47 5159.7C1121.77 5154.9 1104.57 5165.2 1096.17 5179.4C1087.77 5193.6 1086.07 5210.6 1084.57 5227C1071.87 5198.6 1059.17 5170.2 1046.57 5141.8C1049.07 5121 1055.17 5109.9 1057.77 5089.1C1059.67 5073.4 1061.57 5057.2 1056.97 5042.1C1052.37 5027 1039.57 5013.2 1023.77 5012.7C963.973 5010.8 1004.47 5095.9 1019.17 5118.9C1011.77 5107.9 1001.87 5098.5 990.373 5091.7C984.573 5088.2 978.273 5085.4 971.573 5084.9C953.973 5083.6 943.473 5104.2 946.373 5119.9C949.273 5135.6 963.273 5146.5 976.273 5155.8C998.173 5171.5 1020.07 5187.1 1041.97 5202.8C1041.37 5205.7 1039.37 5207.8 1038.77 5210.7C1015.47 5199.9 992.173 5189.1 968.873 5178.2C958.273 5173.3 943.773 5169.2 936.573 5178.3C930.473 5185.9 934.973 5198 942.973 5203.6C950.973 5209.2 961.073 5210.4 970.673 5212.4C978.373 5214 984.973 5216.2 992.773 5216.9C1000.67 5217.6 1008.27 5219.7 1015.47 5222.9C1029.67 5229.3 1042.07 5239.9 1051.47 5252.2C1067.47 5273.3 1076.17 5298.9 1084.87 5323.9C1091.47 5342.9 1099.07 5361.6 1106.77 5380.2C1113.57 5396.5 1124.87 5415.2 1126.47 5432.7Z" fill="#00B590"/>
<path d="M1580.37 5230.4C1640.07 5176.1 1646.67 5086.9 1624.17 5013.8C1621.97 5006.7 1619.27 4999.2 1613.47 4994.5C1607.67 4989.8 1598.07 4988.9 1593.27 4994.7C1589.97 4998.7 1590.07 5004.4 1590.27 5009.5C1591.27 5036.6 1593.37 5064 1593.97 5090.9C1594.37 5107 1592.07 5122.9 1589.97 5138.8C1588.17 5152.5 1587.77 5166.5 1583.77 5179.6C1575.57 5206.5 1566.57 5229.6 1541.27 5245.1C1534.97 5248.9 1526.47 5251.8 1520.77 5247.1C1515.47 5242.7 1516.27 5234 1520.07 5228.3C1523.87 5222.6 1529.77 5218.7 1534.67 5213.8C1540.47 5207.9 1541.57 5201.2 1543.37 5193.6C1565.17 5101.5 1562.37 5004.7 1532.17 4914.8C1529.07 4905.7 1524.17 4895.2 1514.57 4893.8C1506.27 4892.6 1498.47 4899.5 1495.87 4907.4C1493.27 4915.3 1494.37 4924 1495.47 4932.3C1503.77 4991.6 1512.17 5050.9 1520.47 5110.2C1523.97 5135.3 1525.07 5162 1520.27 5187C1519.57 5190.9 1518.47 5194.9 1516.17 5198.2C1513.87 5201.5 1510.37 5204.1 1506.37 5204.3C1500.37 5204.6 1495.27 5199.5 1493.47 5193.8C1491.67 5188.1 1492.47 5182 1493.27 5176C1495.97 5155.7 1490.67 5136 1487.47 5115.8C1484.07 5094.5 1480.67 5073.1 1477.17 5051.8C1472.57 5023.4 1467.77 4994.3 1453.57 4969.3C1443.87 4952.2 1427.87 4935.4 1408.87 4928.9C1390.07 4922.4 1389.17 4938.2 1393.87 4952C1398.17 4964.8 1402.47 4977.6 1406.77 4990.4C1415.67 5016.8 1424.57 5043.2 1433.37 5069.6C1440.27 5090.2 1446.77 5111 1454.07 5131.5C1460.67 5150.1 1471.87 5168 1480.87 5185.6C1482.97 5189.8 1485.17 5194 1485.77 5198.6C1486.37 5203.2 1485.07 5208.4 1481.47 5211.3C1477.27 5214.6 1471.07 5214.1 1466.47 5211.5C1461.87 5208.9 1458.47 5204.6 1455.37 5200.3C1442.77 5183 1431.77 5164.4 1422.57 5145.1C1417.97 5135.4 1413.87 5125.5 1410.17 5115.4C1406.97 5106.5 1401.37 5099.2 1396.07 5091.3C1371.97 5055.2 1347.77 5019 1323.67 4982.9C1318.87 4975.7 1312.67 4967.7 1303.97 4967.7C1296.07 4967.7 1289.67 4974.9 1287.97 4982.5C1286.27 4990.2 1288.07 4998.2 1290.07 5005.8C1301.87 5050.5 1320.17 5093.5 1344.07 5133.1C1355.97 5152.9 1370.07 5170.7 1383.47 5189.4C1395.57 5206.3 1417.47 5218.8 1433.97 5231.6C1439.27 5235.7 1445.17 5241.5 1443.47 5248C1441.67 5254.8 1432.97 5256.7 1426.07 5256.2C1403.87 5254.3 1393.97 5240.9 1380.77 5225.7C1373.07 5216.8 1362.77 5209.5 1354.67 5200.7C1346.87 5192.2 1339.47 5183.4 1332.07 5174.4C1303.47 5139.4 1274.87 5104.5 1246.17 5069.5C1236.57 5057.8 1220.07 5045.1 1208.27 5054.6C1200.07 5061.2 1201.37 5073.8 1203.87 5084C1214.67 5127 1236.27 5167.1 1265.37 5200.5C1280.07 5217.4 1296.67 5232.7 1314.77 5245.9C1323.67 5252.3 1332.87 5258.3 1342.37 5263.7C1350.67 5268.4 1357.47 5274.7 1367.57 5273.6C1373.97 5272.9 1380.27 5270.6 1386.67 5270.8C1393.17 5271.1 1400.17 5275.1 1400.77 5281.5C1401.17 5286 1398.07 5290.3 1394.07 5292.6C1390.07 5294.8 1385.37 5295.3 1380.87 5295.5C1337.37 5296.9 1297.87 5267 1270.67 5235.7C1252.57 5214.9 1236.67 5191.9 1215.67 5174C1213.17 5171.8 1209.97 5169.6 1206.77 5170.6C1203.97 5171.5 1202.37 5174.7 1202.47 5177.7C1202.57 5180.7 1203.97 5183.4 1205.27 5186.1C1221.87 5218.8 1234.27 5251.8 1259.77 5279C1282.37 5303.2 1311.77 5322.3 1344.57 5326.9C1390.87 5333.4 1409.57 5303.6 1446.67 5287.7C1493.47 5267.8 1540.57 5266.6 1580.37 5230.4Z" fill="#D13355"/>
<path d="M879.573 4867C849.973 4945.5 769.373 5000.3 685.573 5004.4C601.773 5008.5 518.573 4964.3 470.373 4895.6C506.273 4876.4 548.473 4871.5 589.073 4874.8C629.673 4878.1 669.173 4889.1 708.473 4900C671.473 4874.4 634.073 4848.6 603.673 4815.4C573.273 4782.2 549.973 4740.7 546.873 4695.8C594.273 4688.3 642.973 4704.6 683.273 4730.7C723.573 4756.9 756.673 4792.3 789.473 4827.4C777.073 4814.1 785.973 4754.8 787.573 4737.7C789.173 4720.8 792.473 4657.1 808.773 4648C827.273 4637.7 855.373 4682.8 863.173 4695.8C877.473 4719.7 886.573 4746.7 889.973 4774.3C893.773 4805.6 890.673 4837.6 879.573 4867Z" fill="#ACB8DE"/>
<path d="M21.9715 4405.3C68.3715 4380.8 128.871 4388.6 169.871 4421.5C210.871 4454.4 231.371 4509.6 225.471 4561.7C200.671 4555.8 178.871 4540.6 161.271 4522.2C143.671 4503.8 129.671 4482.2 115.871 4460.8C122.571 4488.1 129.371 4515.7 129.871 4543.9C130.371 4572 123.971 4601.2 106.771 4623.5C81.4715 4607.3 65.3715 4579.5 57.4715 4550.5C49.5715 4521.5 48.6715 4491.2 47.9715 4461.2C48.2715 4472.6 19.4715 4496.7 11.5715 4504C3.77148 4511.2 -24.2285 4539.7 -35.6285 4537.2C-48.6285 4534.3 -43.0285 4501.6 -41.2285 4492.2C-38.0285 4475.1 -31.0285 4458.7 -21.2285 4444.3C-10.1285 4428.2 4.67149 4414.5 21.9715 4405.3Z" fill="#ACB8DE"/>
<path d="M977.772 3944.2C988.772 3970.7 992.072 4000.4 987.072 4028.7C985.672 4036.4 983.672 4044.1 979.172 4050.5C974.672 4056.9 967.172 4061.5 959.372 4060.9C949.272 4060.1 941.772 4050.8 938.972 4041C936.172 4031.3 936.872 4021 936.072 4010.9C933.372 3977.8 912.872 3946.6 883.572 3931C854.172 3915.4 816.872 3915.9 787.972 3932.3C780.872 3936.3 773.772 3941.8 771.572 3949.7C769.472 3957 772.172 3965.1 776.772 3971.1C781.372 3977.1 787.872 3981.5 794.472 3985.4C841.872 4014.2 898.972 4029.7 936.072 4070.8C941.072 4076.3 945.872 4083.1 945.172 4090.5C944.172 4101.1 932.272 4107.3 921.672 4107.9C885.772 4109.9 860.172 4072 825.372 4063.4C810.472 4059.7 794.272 4061.8 780.772 4069.2C773.472 4073.2 766.372 4079.7 766.172 4088.1C765.972 4093.2 768.372 4098 771.172 4102.3C783.172 4120.9 803.372 4133.9 825.272 4137.2C858.672 4142.2 891.272 4125.5 924.772 4122.4C935.472 4121.4 948.372 4123.1 953.272 4132.6C958.072 4141.9 952.072 4153.6 943.572 4159.6C929.772 4169.5 911.372 4169.3 894.372 4168.8C861.772 4167.7 829.172 4166.6 796.572 4165.6C781.672 4165.1 776.072 4189.5 780.472 4203.7C784.872 4217.9 798.972 4227.7 813.672 4230.1C828.372 4232.5 843.472 4228.5 856.972 4222.2C870.472 4215.9 882.772 4207.4 895.672 4200.1C915.372 4188.9 936.472 4180.4 958.372 4174.7C973.272 4170.9 992.372 4170 1000.57 4183C1004.87 4189.8 1004.47 4198.9 1001.07 4206.2C997.672 4213.5 991.472 4219.2 984.672 4223.5C969.872 4233.1 951.672 4237.1 934.272 4234.7C923.072 4233.2 912.372 4229.1 901.172 4227.2C889.972 4225.3 877.572 4226.2 868.772 4233.2C855.172 4244.1 856.172 4267.3 868.372 4279.7C880.572 4292.1 900.472 4294.8 917.272 4289.9C934.072 4285 948.172 4273.7 960.672 4261.5C973.172 4249.3 984.472 4235.7 997.972 4224.8C1004.37 4219.7 1011.37 4215 1019.37 4213.3C1027.37 4211.6 1036.47 4213.3 1041.97 4219.4C1047.47 4225.4 1048.37 4234.6 1045.57 4242.2C1042.87 4249.8 1036.97 4256 1030.27 4260.5C1017.37 4269.4 1001.67 4273 986.672 4277.8C971.772 4282.7 956.472 4289.6 947.772 4302.6C939.072 4315.6 940.072 4336.2 953.472 4344.3C966.372 4352.1 983.772 4344.9 993.572 4333.5C1003.57 4321.9 1008.67 4306.9 1016.77 4294.1C1025.07 4280.8 1034.37 4267.8 1044.77 4255.9C1048.57 4251.6 1053.37 4247.1 1058.97 4247.9C1066.07 4248.9 1069.17 4258.2 1066.77 4265C1064.37 4271.8 1058.57 4276.6 1053.57 4281.7C1031.77 4303.7 1021.17 4336.3 1025.87 4366.9C1028.67 4385 1037.67 4403.5 1054.07 4411.5C1070.57 4419.5 1094.47 4412 1098.57 4394.2C1100.67 4385 1097.47 4375.3 1092.47 4367.2C1087.57 4359.1 1081.07 4352.1 1075.77 4344.2C1065.97 4329.5 1060.87 4311.8 1061.37 4294.2C1061.57 4284.5 1065.77 4272.6 1075.47 4271.8C1084.87 4271 1090.87 4281.2 1094.77 4289.8C1103.47 4309.2 1113.57 4328.4 1127.87 4344.1C1142.27 4359.8 1161.47 4371.9 1182.67 4374.1C1193.67 4375.3 1205.57 4373.4 1213.87 4366C1228.67 4352.7 1224.57 4326.9 1210.67 4312.7C1196.77 4298.5 1176.47 4292.8 1157.27 4287.9C1137.97 4283 1117.77 4277.6 1103.47 4263.8C1085.57 4246.4 1113.47 4242.1 1125.57 4241.5C1145.57 4240.4 1165.67 4242.6 1185.67 4241.9C1209.17 4241.1 1231.17 4235.8 1245.17 4215.2C1261.57 4191.2 1259.87 4159.2 1227.17 4152.3C1210.67 4148.8 1194.17 4158.8 1182.57 4171.1C1171.07 4183.4 1162.37 4198.3 1149.67 4209.4C1132.47 4224.4 1108.47 4231 1086.07 4227C1079.77 4225.9 1073.37 4223.8 1068.97 4219.1C1059.57 4208.9 1065.27 4191.1 1076.77 4183.2C1088.27 4175.3 1102.97 4174.7 1116.77 4174.3C1132.37 4173.8 1144.67 4165.3 1157.87 4157.1C1166.47 4151.8 1174.57 4145 1178.77 4135.8C1183.07 4126.6 1182.57 4114.8 1175.57 4107.5C1169.67 4101.3 1160.17 4099.5 1151.67 4101.2C1143.27 4102.9 1135.77 4107.7 1129.07 4113.1C1108.17 4129.9 1092.47 4153.9 1067.97 4164.7C1060.57 4168 1052.17 4170 1044.17 4168.1C1036.17 4166.2 1029.07 4159.8 1028.17 4151.7C1027.47 4145.3 1030.77 4139 1035.37 4134.5C1039.97 4130 1045.87 4127.1 1051.67 4124.3C1065.37 4117.6 1079.17 4111.3 1093.17 4105.3C1111.57 4097.4 1120.47 4074.9 1126.57 4055.9C1129.57 4046.5 1131.57 4036.5 1130.47 4026.6C1129.37 4016.7 1125.07 4007 1117.27 4000.8C1109.47 3994.6 1098.07 3992.8 1089.37 3997.5C1083.07 4000.9 1078.67 4007.3 1076.07 4014C1073.47 4020.7 1072.27 4027.9 1070.57 4034.9C1066.97 4049.8 1060.97 4064.4 1051.07 4076C1041.17 4087.7 1027.07 4096.3 1011.77 4097.5C1003.17 4098.2 992.972 4095.3 990.072 4087.2C987.072 4078.7 993.672 4070.1 999.872 4063.5C1011.97 4050.6 1023.97 4037.7 1036.07 4024.8C1044.37 4016 1049.77 4005.6 1050.27 3993.5C1051.07 3973.2 1048.37 3952.8 1042.27 3933.4C1038.97 3923.1 1034.37 3912.5 1025.57 3906.2C1015.07 3898.6 999.372 3899 989.272 3907.2C979.572 3915.4 972.772 3932.2 977.772 3944.2Z" fill="#FFD7CC"/>
<path d="M1802.87 4287.5C1819.17 4250.6 1858.57 4220.5 1898.07 4228.6C1926.57 4234.4 1949.27 4259.8 1954.17 4288.5C1959.17 4317.1 1947.47 4347.5 1926.27 4367.3C1905.07 4387.2 1875.27 4396.8 1846.27 4395.8C1838.37 4395.5 1830.47 4394.6 1822.77 4396.4C1815.17 4398.2 1807.67 4403.7 1806.37 4411.4C1804.67 4421.5 1813.67 4430.2 1822.87 4434.6C1843.47 4444.4 1867.37 4442.4 1890.17 4442.3C1912.97 4442.2 1938.07 4445.2 1953.77 4461.7C1970.87 4479.7 1970.97 4509 1960.07 4531.2C1941.17 4569.6 1891.07 4589.1 1851.17 4573.6C1811.27 4558.1 1787.57 4509.7 1799.67 4468.7C1801.27 4463.3 1803.37 4457.8 1802.57 4452.2C1801.77 4446.6 1796.57 4441.2 1791.07 4442.5C1787.27 4443.5 1784.97 4447.1 1782.87 4450.4C1760.97 4485.3 1725.07 4513.6 1683.97 4516.8C1642.87 4520 1598.87 4492.4 1592.27 4451.7C1585.37 4409.1 1622.37 4367.5 1664.97 4360.4C1684.57 4357.1 1704.57 4360 1723.07 4367C1732.67 4370.6 1741.87 4375.4 1750.47 4381C1756.17 4384.7 1768.07 4398.5 1774.37 4399C1794.67 4400.6 1787.97 4362.7 1788.77 4350.3C1790.37 4328.9 1794.07 4307.3 1802.87 4287.5Z" fill="#FF863A"/>
<path d="M1106.37 5630.8C1079.67 5650.6 1053.77 5673.9 1041.37 5704.7C1028.97 5735.5 1033.77 5775.5 1060.37 5795.5C1079.97 5810.3 1107.87 5812.4 1124.67 5830.2C1139.57 5846 1141.47 5869.5 1145.27 5890.9C1149.07 5912.3 1158.17 5936.1 1178.77 5943C1201.67 5950.7 1224.57 5933.5 1243.77 5919C1262.97 5904.5 1290.37 5891.3 1309.67 5905.8C1322.57 5915.4 1328.07 5935.4 1343.87 5938.3C1354.97 5940.4 1365.37 5932.5 1373.37 5924.5C1414.37 5883.6 1436.97 5826.8 1444.67 5769.4C1451.97 5714.5 1459.17 5510.2 1373.27 5507.8C1339.07 5506.9 1284.07 5540 1251.97 5551.9C1200.07 5571.2 1150.87 5597.8 1106.37 5630.8Z" fill="#E2F1DD"/>
<path d="M1461.87 5291.2C1527.17 5256.8 1612.27 5267.7 1669.87 5314C1727.47 5360.2 1756.47 5437.9 1748.07 5511.3C1713.17 5503 1682.57 5481.6 1657.77 5455.7C1632.97 5429.8 1613.37 5399.5 1593.87 5369.4C1603.37 5407.8 1612.87 5446.7 1613.57 5486.3C1614.27 5525.9 1605.27 5566.9 1581.17 5598.2C1545.57 5575.5 1522.97 5536.3 1511.77 5495.6C1500.57 5454.9 1499.37 5412.1 1498.37 5369.9C1498.77 5385.9 1458.27 5419.8 1447.17 5430.1C1436.27 5440.3 1396.87 5480.3 1380.87 5476.8C1362.67 5472.8 1370.57 5426.7 1372.97 5413.5C1377.47 5389.4 1387.27 5366.4 1401.07 5346.2C1416.57 5323.3 1437.47 5304 1461.87 5291.2Z" fill="#ACB8DE"/>
<path d="M1289.47 3908.6C1289.97 3891.8 1302.87 3877.4 1317.97 3870.2C1333.07 3863 1350.27 3861.4 1366.97 3859.9C1378.57 3858.9 1391.27 3858.2 1400.87 3864.8C1410.47 3871.4 1412.87 3888.5 1402.47 3893.7C1433.37 3899.6 1463.57 3909.4 1491.97 3923C1500.77 3927.2 1509.97 3932.4 1513.87 3941.3C1517.77 3950.2 1512.37 3963.3 1502.57 3963.1C1522.77 3981.2 1542.17 4000.5 1562.37 4018.5C1569.37 4024.7 1576.47 4031.1 1580.67 4039.4C1584.87 4047.7 1585.87 4058.4 1580.47 4066C1575.07 4073.6 1562.47 4075.8 1556.37 4068.7C1561.67 4086.9 1566.87 4105.2 1572.17 4123.4C1576.07 4137.1 1578.97 4154.4 1567.87 4163.2C1563.97 4166.3 1558.97 4167.7 1554.77 4170.3C1545.27 4176.4 1541.27 4188.1 1539.27 4199.2C1537.27 4210.3 1536.47 4221.9 1530.97 4231.7C1525.37 4241.5 1512.97 4248.6 1502.77 4243.8C1497.87 4234.8 1488.57 4224.2 1479.57 4229C1476.57 4230.6 1474.57 4233.6 1471.87 4235.9C1463.87 4242.6 1451.07 4240.1 1443.67 4232.9C1436.27 4225.7 1433.17 4215.1 1431.77 4204.8C1428.37 4179.9 1433.27 4154 1445.37 4132.1C1440.17 4138.3 1429.17 4134.6 1425.47 4127.4C1421.87 4120.2 1423.27 4111.6 1424.77 4103.7C1428.57 4084 1432.37 4064.4 1436.17 4044.7C1436.67 4053.2 1423.37 4056.3 1417.17 4050.6C1410.87 4044.9 1410.17 4035.4 1409.77 4026.9C1408.87 4005.7 1408.07 3984.5 1407.17 3963.4C1399.57 3965.7 1393.47 3972.2 1391.67 3979.9C1394.17 3987.4 1394.17 3982.1 1386.57 3984.6C1378.97 3987 1370.47 3984.2 1364.47 3979C1358.47 3973.8 1354.57 3966.6 1351.37 3959.3C1348.27 3952 1345.77 3944.4 1341.87 3937.5C1339.67 3933.6 1336.97 3929.8 1333.17 3927.5C1329.37 3925.2 1324.27 3924.5 1320.47 3926.9C1318.37 3928.2 1316.77 3930.2 1314.87 3931.8C1309.07 3936.3 1299.97 3935.2 1294.57 3930.1C1289.27 3925.1 1289.17 3916 1289.47 3908.6Z" fill="#36C7C1"/>
<path d="M1366.97 272.8C1361.97 260.1 1351.47 248.2 1354.07 234.8C1356.07 224.7 1364.97 217.5 1368.57 207.9C1376.17 187.5 1357.67 165.6 1360.97 144.1C1363.17 130.2 1373.97 119.5 1382.37 108.1C1390.77 96.7 1396.87 80.8 1389.07 69C1397.17 70.2 1401.77 79.5 1401.27 87.6C1400.77 95.7 1396.47 103.1 1392.97 110.5C1382.67 132.3 1378.67 156.9 1381.27 180.8C1382.67 192.9 1385.47 205.9 1379.67 216.6C1374.97 225.3 1364.67 231.8 1364.77 241.7C1364.87 250.9 1373.77 257.1 1379.67 264.2C1393.47 280.5 1390.97 308 1374.47 321.6C1386.47 326.5 1397.97 311.6 1398.07 298.6C1398.07 285.6 1392.07 273.1 1393.07 260.2C1395.07 233.6 1425.37 214.6 1424.27 188C1423.87 179.3 1420.07 170.7 1421.67 162.2C1423.27 153.7 1435.07 146.7 1440.47 153.5C1434.57 176.1 1428.77 198.8 1422.87 221.4C1417.87 240.8 1412.77 260.3 1411.47 280.3C1410.67 292.8 1411.27 305.7 1407.57 317.7C1402.57 334.1 1375.67 356.6 1362.87 333C1354.17 316.4 1375.17 293.7 1366.97 272.8Z" fill="#8AAA9A"/>
<path d="M1292.17 415.8C1288.37 417.2 1284.67 421.6 1286.97 424.9C1288.37 426.9 1291.07 427.3 1293.57 427.6C1304.47 428.5 1315.37 429.5 1326.17 430.4C1334.77 431.1 1343.37 431.9 1351.87 430.6C1360.37 429.3 1368.87 425.8 1374.37 419.2C1375.27 418.1 1376.17 416.9 1376.17 415.5C1376.27 413.2 1373.97 411.4 1371.67 411.1C1369.37 410.8 1367.17 411.6 1364.97 412.2C1356.07 414.7 1346.57 415.1 1337.47 413.2C1331.47 412 1325.77 409.8 1319.77 408.7C1308.37 406.6 1302.17 412.1 1292.17 415.8Z" fill="#767777"/>
<path d="M1284.27 652.1C1281.17 659.3 1279.77 668.1 1283.87 674.8C1289.47 683.8 1301.87 684.9 1312.47 685C1320.47 685.1 1328.47 685.2 1336.37 685.2C1344.27 685.3 1353.07 685.1 1358.87 679.7C1365.37 673.8 1365.87 663.8 1364.17 655.2C1362.37 646.3 1358.37 637.7 1352.07 631.1C1329.17 607.4 1295.47 626 1284.27 652.1Z" fill="#8AAA9A"/>
<path d="M591.473 325.4C583.373 325.2 573.773 326.3 568.673 320C564.773 315.3 565.273 308.4 563.173 302.6C558.673 289.8 543.373 285.3 532.373 277.3C510.573 261.5 506.473 226.3 523.973 205.9C527.373 215.2 524.373 225.5 522.673 235.2C520.973 244.9 521.373 256.6 529.073 262.8C537.973 269.9 551.773 266.2 561.373 272.3C575.473 281.3 573.373 306.8 589.073 312.5C595.173 314.7 601.873 313 608.373 313.5C614.773 314 622.173 318.9 620.773 325.3C627.873 323.7 627.873 312.8 623.073 307.4C618.273 301.9 610.873 299.3 605.973 293.8C602.273 289.7 600.373 284.3 598.573 279C593.273 263.7 588.073 248.4 582.773 233.1C580.973 227.9 579.173 222.1 581.173 217C583.173 211.9 590.773 208.8 594.273 213.1C596.973 216.3 595.573 221.1 595.373 225.3C595.073 231.8 597.873 238 600.873 243.8C608.073 257.9 616.373 271.6 625.573 284.5C631.473 292.8 637.973 301.1 641.173 310.8C644.373 320.5 643.573 332.3 636.273 339.5C618.273 357.6 608.073 325.8 591.473 325.4Z" fill="#909AB2"/>
<path d="M1654.37 153.1C1654.17 148.5 1652.67 143.4 1648.57 141.5C1644.57 139.7 1639.47 141.8 1635.57 139.8C1631.77 137.9 1630.47 133 1630.77 128.8C1630.97 124.5 1632.17 120.3 1631.47 116.1C1630.47 110.1 1625.97 105.4 1623.37 99.8999C1620.77 94.3999 1621.27 86.1999 1627.07 84.2999C1631.87 82.6999 1636.97 86.9999 1638.47 91.8999C1639.97 96.6999 1639.27 102 1639.47 107C1639.77 112.1 1641.47 117.7 1646.07 119.9C1651.37 122.5 1658.67 119.5 1663.27 123.3C1670.87 129.5 1662.37 146.3 1671.57 149.8C1681.07 153.3 1682.87 141 1679.77 135.2C1678.57 133.1 1677.67 130.4 1678.97 128.3C1680.57 125.8 1684.17 126 1686.97 127C1689.67 128 1692.67 129.4 1695.37 128.4C1698.77 127.2 1699.97 122.8 1699.27 119.3C1698.47 115.8 1696.27 112.8 1694.77 109.5C1692.47 104.5 1692.67 95.6999 1700.07 95.4999C1703.07 95.3999 1705.77 96.8999 1708.37 98.1999C1718.17 103.4 1727.87 99.0999 1733.97 90.0999C1737.67 84.6999 1739.57 77.8999 1744.97 74.2999C1752.77 68.9999 1764.77 74.1999 1767.47 83.1999C1770.17 92.1999 1764.57 102.4 1756.07 106.3C1749.87 109.2 1741.77 109.8 1738.47 115.8C1735.37 121.3 1738.27 128.6 1735.57 134.4C1731.17 143.8 1716.87 141.6 1708.07 147.1C1703.07 150.2 1700.17 155.7 1697.27 160.8C1685.37 181.8 1655.77 178.1 1654.37 153.1Z" fill="#93ACD1"/>
<path d="M1534.87 1318.6C1546.07 1324.4 1562.07 1329.3 1569.57 1319.2C1575.37 1311.4 1571.37 1300.3 1566.37 1292C1542.17 1251.9 1496.57 1225.6 1449.77 1224.8C1402.97 1224 1356.47 1248.6 1330.77 1287.8C1305.07 1327 1301.27 1379.5 1320.87 1422C1325.17 1431.3 1330.97 1440.6 1340.27 1444.8C1349.57 1449 1362.77 1445.7 1365.77 1435.9C1369.47 1423.9 1356.97 1409.1 1364.97 1399.4C1370.67 1392.5 1382.27 1395.2 1388.67 1401.3C1395.07 1407.4 1398.77 1416.1 1405.17 1422.4C1411.47 1428.7 1422.97 1431.8 1428.97 1425.2C1434.17 1419.5 1432.07 1410.2 1427.97 1403.7C1423.67 1396.7 1410.37 1383.4 1411.57 1374.7C1412.07 1370.8 1415.27 1367.3 1419.07 1366.4C1426.27 1364.7 1432.77 1371.1 1436.07 1377.7C1443.97 1393.7 1454.07 1412.3 1475.87 1406.3C1486.87 1403.3 1494.87 1390.1 1489.97 1379.8C1486.77 1373.1 1479.57 1369.5 1473.07 1366.2C1466.57 1362.9 1459.47 1358.7 1457.07 1351.7C1454.67 1344.7 1460.67 1335.1 1467.77 1337.3C1474.27 1348 1481.37 1359.3 1492.77 1364.4C1504.17 1369.5 1520.77 1364.9 1523.17 1352.6C1526.07 1338.1 1507.07 1330.6 1508.37 1318.3C1509.87 1302.3 1527.57 1314.9 1534.87 1318.6Z" fill="#FFD7CC"/>
<path d="M401.772 5582.3C397.172 5595.2 395.272 5609 394.172 5622.6C392.772 5640.7 392.972 5660 402.472 5675.5C405.472 5680.3 409.472 5684.8 414.872 5686.7C422.072 5689.2 430.172 5686.6 436.072 5681.8C440.672 5678.1 445.672 5671.2 452.372 5671.1C460.172 5671 466.372 5681.9 473.772 5684.9C483.672 5688.9 497.072 5686.3 501.472 5676.7C503.772 5671.7 503.272 5666 504.072 5660.6C504.772 5655.2 507.472 5649.3 512.772 5647.9C518.872 5646.4 524.372 5651.7 530.472 5653.2C538.572 5655.2 547.072 5649.9 551.072 5642.6C555.072 5635.3 555.172 5626.5 554.072 5618.3C551.372 5598.9 541.872 5580.7 528.072 5566.9C514.272 5553.1 496.272 5543.6 477.172 5539.3C460.872 5535.6 442.372 5536.1 427.872 5545.1C415.572 5552.8 406.572 5568.9 401.772 5582.3Z" fill="#EF3C45"/>
</g>
</svg>
