<svg width="1920" height="5950" viewBox="0 0 1920 5950" fill="none" xmlns="http://www.w3.org/2000/svg">
<mask id="mask0" mask-type="alpha" maskUnits="userSpaceOnUse" x="0" y="0" width="1920" height="5950">
<rect width="1920" height="5950" fill="#C4C4C4"/>
</mask>
<g mask="url(#mask0)">
<path d="M1612.37 4246C1619.47 4239.9 1627.17 4230.3 1622.27 4222.3C1618.47 4216.2 1609.77 4215.9 1602.67 4217C1568.47 4222.6 1537.87 4246.7 1524.37 4278.7C1510.87 4310.6 1515.07 4349.4 1534.97 4377.8C1554.87 4406.2 1589.87 4423.3 1624.47 4421.5C1631.97 4421.1 1639.97 4419.7 1645.47 4414.5C1650.97 4409.3 1652.27 4399.3 1646.37 4394.5C1639.17 4388.6 1625.57 4393.2 1621.07 4385C1617.87 4379.2 1622.87 4372 1628.97 4369.2C1634.97 4366.5 1641.97 4366.3 1647.97 4363.7C1654.07 4361.1 1659.27 4354.1 1656.47 4348.1C1653.97 4343 1647.07 4341.9 1641.37 4342.9C1635.37 4344 1622.57 4349.4 1616.97 4346.2C1614.37 4344.8 1612.87 4341.7 1613.37 4338.8C1614.17 4333.4 1620.37 4330.7 1625.87 4330.2C1638.97 4329.2 1654.57 4327.3 1656.47 4310.7C1657.47 4302.3 1650.57 4293.2 1642.17 4293.7C1636.67 4294.1 1632.27 4298 1628.17 4301.6C1624.07 4305.2 1619.27 4308.9 1613.77 4308.6C1608.27 4308.3 1603.37 4301.6 1606.77 4297.3C1615.87 4295.8 1625.57 4294 1632.27 4287.6C1638.97 4281.2 1640.27 4268.5 1632.57 4263.5C1623.37 4257.5 1612.97 4268.5 1604.97 4264.3C1594.27 4258.7 1607.77 4250 1612.37 4246Z" fill="#FFD7CC"/>
<path d="M1213.17 4933C1216.47 4942.3 1213.67 4953.1 1208.37 4960.3C1202.97 4967.5 1195.47 4971.9 1187.97 4975.9C1132.27 5006.2 1072.17 5026.3 1010.37 5035.4C985.871 5039 958.371 5040 937.971 5021.6C924.571 5009.5 916.471 4990.6 913.271 4971.5C910.171 4952.4 911.571 4933 914.171 4914.2C922.171 4856.8 941.771 4802.5 970.771 4756.9C975.071 4750.2 979.771 4743.5 986.271 4740C992.771 4736.5 1001.67 4737.2 1006.77 4743.9C1013.77 4753.1 1010.17 4767 1006.07 4777.7C992.571 4813.3 979.071 4849 965.471 4884.6C975.271 4858.8 994.671 4833.6 1009.67 4811.8C1026.07 4787.9 1044.07 4742.4 1072.77 4736.1C1102.77 4729.5 1084.67 4778.9 1078.57 4793.3C1069.27 4815 1056.87 4834.5 1044.77 4853.9C1032.57 4873.4 1020.37 4892.9 1008.17 4912.4C1040.87 4869.1 1073.67 4825.9 1106.37 4782.6C1115.07 4771.1 1124.27 4759.2 1136.67 4753.9C1149.07 4748.6 1165.77 4752.1 1173.17 4766.1C1178.67 4776.6 1177.57 4790.1 1172.87 4800.4C1168.17 4810.7 1160.57 4818.4 1153.07 4825.9C1116.57 4862.5 1079.97 4899.1 1043.47 4935.8C1070.17 4938.7 1094.37 4921.8 1114.97 4903.2C1135.47 4884.6 1155.27 4863.2 1180.47 4854.7C1187.67 4852.3 1195.37 4851 1202.77 4853.6C1210.17 4856.2 1216.97 4863.4 1218.27 4872.3C1220.37 4887.2 1207.37 4897.1 1196.17 4903.3C1159.87 4923.3 1123.67 4943.3 1087.37 4963.2C1076.47 4969.2 1062.97 4972.7 1053.77 4982.1C1043.07 4993.1 1047.77 5005 1063.47 5005.9C1075.97 5006.6 1212.97 4932.6 1213.17 4933Z" fill="#E2F1DD"/>
<path d="M541.172 5910.3C554.572 5911.7 566.472 5900.8 572.772 5890C579.372 5878.5 582.372 5865.3 587.872 5853.2C599.872 5826.6 624.672 5806.1 652.972 5799.3C675.272 5793.9 699.172 5796.6 720.972 5789.4C742.772 5782.2 762.472 5758.4 752.972 5737.5C746.172 5722.5 726.972 5716.5 710.872 5719.6C694.772 5722.7 680.872 5732.7 667.572 5742.4C680.372 5714.1 693.272 5685.8 706.072 5657.5C723.272 5645.6 735.672 5642.8 752.972 5630.9C765.972 5621.9 779.372 5612.6 787.572 5599.2C795.872 5585.8 797.672 5567 787.572 5554.9C749.372 5508.9 712.472 5595.6 705.072 5621.9C708.372 5609 708.872 5595.4 706.372 5582.3C705.072 5575.7 703.072 5569 698.972 5563.7C688.272 5549.6 665.872 5555.5 655.972 5568.1C646.072 5580.7 647.272 5598.4 648.972 5614.3C651.772 5641.1 654.572 5667.9 657.372 5694.7C654.772 5696.2 651.972 5696.1 649.372 5697.6C642.072 5673 634.672 5648.4 627.372 5623.8C624.072 5612.6 617.572 5599 605.872 5599.7C596.172 5600.2 590.072 5611.6 591.172 5621.3C592.272 5631 598.072 5639.4 602.972 5647.9C606.872 5654.7 609.672 5661.1 614.272 5667.4C618.972 5673.7 622.472 5680.8 624.772 5688.3C629.472 5703.2 629.672 5719.4 626.672 5734.7C621.572 5760.7 608.172 5784.1 595.172 5807.2C585.272 5824.7 576.372 5842.8 567.572 5860.9C559.672 5876.6 553.172 5897.5 541.172 5910.3Z" fill="#00B590"/>
<path d="M1824.67 4726C1827.07 4734 1824.27 4743 1819.37 4748.8C1814.47 4754.7 1807.97 4758 1801.47 4761.1C1753.07 4784.2 1701.37 4798.6 1648.67 4803.5C1627.77 4805.5 1604.57 4805 1588.17 4788.6C1577.37 4777.8 1571.37 4761.5 1569.57 4745.2C1567.77 4728.9 1569.77 4712.6 1572.87 4696.8C1582.17 4648.6 1601.17 4603.6 1627.67 4566.4C1631.57 4560.9 1635.87 4555.4 1641.57 4552.8C1647.27 4550.2 1654.67 4551.1 1658.67 4557C1664.17 4565.1 1660.47 4576.7 1656.57 4585.5C1643.57 4615 1630.57 4644.5 1617.57 4674.1C1626.97 4652.7 1644.57 4632.3 1658.17 4614.6C1673.07 4595.2 1690.37 4557.5 1714.87 4553.4C1740.57 4549.1 1722.97 4590.1 1717.17 4602C1708.37 4619.9 1697.07 4635.9 1685.87 4651.7C1674.67 4667.6 1663.47 4683.6 1652.27 4699.5C1681.87 4664.4 1711.47 4629.3 1741.07 4594.2C1748.97 4584.9 1757.27 4575.2 1767.97 4571.3C1778.67 4567.4 1792.67 4571.1 1798.27 4583.2C1802.47 4592.3 1800.87 4603.7 1796.47 4612.1C1792.07 4620.6 1785.27 4626.8 1778.57 4632.8C1746.07 4662.1 1713.57 4691.4 1681.07 4720.8C1703.57 4724.4 1724.77 4711.2 1742.87 4696.4C1761.07 4681.6 1778.67 4664.4 1800.37 4658.3C1806.57 4656.6 1813.17 4655.9 1819.27 4658.4C1825.37 4660.9 1830.87 4667.3 1831.47 4674.9C1832.57 4687.6 1821.17 4695.4 1811.37 4700.1C1779.87 4715.4 1748.27 4730.7 1716.77 4745.9C1707.27 4750.5 1695.77 4752.8 1687.57 4760.4C1677.97 4769.2 1681.47 4779.5 1694.67 4781C1705.47 4782.1 1824.57 4725.7 1824.67 4726Z" fill="#ACB8DE"/>
<path d="M814.173 4216.8C853.773 4187.2 913.873 4178.7 951.273 4211.1C978.173 4234.4 987.173 4275.2 975.273 4308.7C963.373 4342.3 932.673 4367.7 898.073 4376.1C863.473 4384.5 825.973 4377 795.473 4358.5C787.273 4353.5 779.273 4347.7 770.073 4345.1C760.773 4342.5 749.573 4343.8 743.573 4351.3C735.673 4361 740.073 4375.8 747.273 4386C763.373 4408.8 790.173 4421.1 814.573 4434.6C838.973 4448.2 863.973 4466.4 870.773 4493.5C878.173 4522.9 860.773 4554.3 835.773 4571.5C792.573 4601.2 727.273 4591.9 693.973 4551.4C660.673 4510.9 664.373 4445 701.973 4408.4C706.973 4403.6 712.573 4399 715.073 4392.5C717.573 4386 715.273 4377.1 708.573 4375.3C703.973 4374.1 699.273 4376.5 695.173 4378.8C650.873 4402.9 595.473 4411.5 549.673 4390.3C503.873 4369.1 473.473 4313.1 490.873 4265.7C509.073 4216 573.573 4193.8 623.373 4211.9C646.273 4220.2 665.873 4235.3 681.473 4253.8C689.573 4263.5 696.473 4274.1 702.273 4285.2C706.173 4292.6 710.473 4314.5 716.973 4318.8C737.673 4332.7 753.273 4288.2 761.673 4275.4C776.073 4253.5 792.873 4232.7 814.173 4216.8Z" fill="#FF863A"/>
<path d="M1134.97 4633.6C1166.87 4594.4 1196.97 4632 1206.87 4650.3C1216.67 4668.6 1245.27 4698.6 1271.87 4684.2C1298.47 4669.8 1280.97 4632.9 1265.87 4610.1C1250.67 4587.3 1242.27 4538.5 1280.47 4524C1318.67 4509.5 1360.47 4518.1 1369.67 4565.9C1378.87 4613.7 1333.67 4696.1 1342.77 4723.7C1351.77 4751.3 1356.57 4791.2 1393.87 4774.7C1431.17 4758.2 1370.27 4677.6 1407.27 4665.9C1444.27 4654.2 1473.97 4655.9 1490.57 4704.8C1507.17 4753.7 1416.57 4779 1421.97 4817.6C1427.37 4856.2 1444.07 4877.1 1492.37 4856.2C1540.67 4835.2 1550.97 4781.1 1575.67 4798.8C1600.37 4816.5 1612.07 4853.5 1580.47 4870C1548.87 4886.5 1476.97 4895.1 1462.77 4911.3C1448.57 4927.6 1448.27 4951 1444.17 4960.9C1436.27 4980.1 1405.77 5004.9 1375.17 4987.4C1358.17 4977.7 1363.47 4957.9 1343.27 4956.9C1323.07 4955.9 1267.17 4990.5 1259.47 5006.4C1251.77 5022.3 1201.57 5035.9 1190.97 5010.1C1180.37 4984.3 1190.67 4935.9 1215.87 4940.7C1241.07 4945.5 1282.37 4933.1 1287.77 4926.3C1293.07 4919.5 1293.87 4887.5 1250.07 4888.2C1206.27 4888.9 1163.67 4898.3 1150.07 4873.6C1136.47 4849 1132.97 4817.9 1147.47 4810.8C1161.97 4803.7 1191.47 4802 1219.87 4828.7C1248.27 4855.4 1281.27 4851.1 1288.67 4829.5C1296.07 4807.9 1271.77 4751.7 1253.77 4735.9C1235.67 4720.1 1168.77 4706.9 1156.27 4693.5C1143.77 4680.1 1117.97 4654.5 1134.97 4633.6Z" fill="#FFDF00"/>
<path d="M881.86 5637.1C895.86 5615.4 916.86 5598.9 931.86 5577.8C946.86 5556.7 955.16 5527 940.96 5505.4C922.86 5478 878.56 5481.6 854.56 5503.9C830.56 5526.2 821.56 5559.9 813.66 5591.8C804.86 5627.3 796.06 5662.7 787.26 5698.2C780.16 5726.7 773.06 5756.4 779.56 5785.1C788.66 5825.5 823.06 5855.5 859.56 5875C970.96 5934.4 1119.16 5914.9 1211.46 5828.7C1221.16 5819.6 1230.56 5809.5 1235.36 5797C1240.16 5784.5 1239.36 5769.2 1230.36 5759.3C1190.06 5715 1124.26 5799.3 1094.46 5818.5C1081.76 5826.7 1068.16 5834.4 1053.26 5836.9C1038.36 5839.4 1021.56 5835.8 1011.56 5824.4C998.46 5809.4 1001.16 5785.3 1012.26 5768.8C1027.56 5746 1059.66 5727 1083.26 5713.2C1096.06 5705.7 1110.06 5700 1121.76 5690.9C1133.46 5681.8 1143.06 5668.1 1142.36 5653.3C1141.46 5635.2 1125.16 5620.8 1107.66 5616.5C1090.06 5612.2 1071.66 5615.8 1054.16 5620.4C1008.26 5632.3 963.96 5650.4 922.76 5674.1C910.66 5681 883.06 5707.2 871.36 5694.2C859.86 5681.5 874.76 5648.2 881.86 5637.1Z" fill="#36C7C1"/>
<path d="M1808.67 5863.4C1773.17 5867.2 1737.57 5871 1702.07 5874.8C1734.97 5849.7 1767.87 5824.6 1800.77 5799.5C1752.97 5814.6 1705.17 5829.8 1657.47 5844.9C1706.07 5805.8 1742.57 5752 1760.97 5692.5C1716.37 5716.8 1671.77 5741.2 1627.17 5765.5C1642.47 5720.3 1657.77 5675.1 1672.97 5630C1633.37 5675.8 1593.67 5721.7 1554.07 5767.5C1580.97 5707.8 1583.67 5637.6 1561.27 5576.1C1541.87 5633.5 1522.57 5690.9 1503.17 5748.4C1490.97 5784.6 1478.57 5822.1 1481.77 5860.2C1484.17 5888.9 1498.47 5923.4 1524.77 5938.4C1545.07 5950 1578.07 5940.6 1600.47 5938.7C1674.87 5932.4 1747.67 5906.4 1808.67 5863.4Z" fill="#FFDF00"/>
<path d="M664.172 5473.5C629.272 5488.6 590.072 5493.5 552.472 5487.4C542.272 5485.8 531.972 5483.2 523.472 5477.4C514.972 5471.5 508.672 5461.7 509.272 5451.4C510.172 5438.1 522.372 5427.9 535.172 5424C547.972 5420.1 561.672 5420.8 574.972 5419.6C618.772 5415.4 659.572 5387.7 679.672 5348.5C699.672 5309.3 698.372 5260 676.072 5222C670.572 5212.6 663.172 5203.4 652.672 5200.6C642.972 5198 632.272 5201.6 624.472 5207.9C616.572 5214.2 610.972 5222.9 605.872 5231.6C568.772 5294.9 549.372 5370.8 495.572 5420.7C488.372 5427.4 479.472 5433.9 469.672 5433.1C455.672 5431.9 447.172 5416.4 446.172 5402.4C442.872 5355 492.572 5320.4 503.272 5274C507.872 5254.2 504.772 5232.8 494.772 5215.1C489.372 5205.5 480.572 5196.3 469.472 5196.1C462.772 5196 456.472 5199.3 450.872 5203C426.572 5219.3 409.672 5246.3 405.772 5275.3C399.872 5319.5 422.572 5362.4 427.272 5406.7C428.772 5420.8 426.872 5437.9 414.372 5444.6C402.172 5451.1 386.572 5443.5 378.372 5432.3C364.972 5414.2 364.872 5389.8 365.272 5367.3C366.072 5324.1 366.872 5281 367.672 5237.8C368.072 5218.1 335.672 5211.1 316.972 5217.2C298.272 5223.3 285.572 5242.1 282.672 5261.6C279.772 5281.1 285.372 5301 293.972 5318.7C302.572 5336.4 313.972 5352.6 323.972 5369.5C339.172 5395.3 350.872 5423.1 358.772 5452C364.172 5471.6 365.672 5496.9 348.672 5508C339.672 5513.8 327.772 5513.5 318.072 5509.1C308.372 5504.7 300.772 5496.6 294.772 5487.8C281.772 5468.5 276.072 5444.4 278.872 5421.3C280.672 5406.4 285.872 5392.2 288.072 5377.4C290.272 5362.6 288.972 5346.2 279.472 5334.7C264.672 5316.9 234.172 5318.7 217.872 5335.1C201.572 5351.5 198.572 5377.9 205.372 5400C212.172 5422.1 227.372 5440.6 243.872 5456.9C260.372 5473.2 278.472 5487.8 293.272 5505.6C300.172 5513.9 306.472 5523.2 308.872 5533.7C311.272 5544.2 309.172 5556.4 301.272 5563.8C293.472 5571.1 281.272 5572.5 271.172 5569.1C261.072 5565.6 252.772 5557.9 246.572 5549.2C234.572 5532.3 229.472 5511.5 222.772 5491.9C216.072 5472.2 206.572 5452.2 189.172 5440.8C171.772 5429.5 144.572 5431.2 134.072 5449.2C124.072 5466.4 133.872 5489.3 149.172 5502.1C164.772 5515.1 184.672 5521.6 201.872 5532C219.672 5542.8 237.072 5554.8 252.972 5568.3C258.672 5573.2 264.772 5579.5 263.772 5587C262.572 5596.4 250.272 5600.7 241.272 5597.7C232.272 5594.7 225.772 5587.1 218.872 5580.5C189.272 5552.1 145.972 5538.7 105.572 5545.5C81.6718 5549.5 57.3718 5561.8 47.1718 5583.7C36.8718 5605.6 47.3718 5637.2 70.9718 5642.3C83.1718 5645 95.9718 5640.4 106.572 5633.7C117.172 5627 126.272 5618.3 136.672 5611.2C155.972 5598 179.272 5590.9 202.672 5591.2C215.472 5591.3 231.372 5596.6 232.572 5609.4C233.772 5621.8 220.372 5630 209.072 5635.3C183.572 5647.2 158.372 5660.9 137.872 5680.2C117.372 5699.5 101.772 5725.2 99.1718 5753.3C97.8718 5767.9 100.572 5783.7 110.472 5794.4C128.372 5813.7 162.372 5807.8 180.972 5789.1C199.572 5770.4 206.572 5743.5 212.772 5717.9C218.972 5692.3 225.572 5665.4 243.672 5646.2C266.372 5622.1 272.572 5659 273.672 5675C275.472 5701.5 273.072 5728.1 274.372 5754.6C275.872 5785.6 283.372 5814.7 310.872 5832.9C342.972 5854.1 385.272 5851.2 393.772 5807.8C398.072 5785.9 384.472 5764.2 367.972 5749.2C351.472 5734.2 331.572 5723 316.572 5706.4C296.472 5684 287.172 5652.3 291.972 5622.5C293.372 5614.2 295.972 5605.6 302.072 5599.8C315.372 5587.2 339.072 5594.4 349.672 5609.4C360.272 5624.4 361.472 5643.9 362.272 5662.2C363.172 5682.8 374.772 5698.9 385.872 5716.3C393.072 5727.6 402.272 5738.2 414.472 5743.6C426.672 5749.1 442.372 5748.2 451.872 5738.9C459.972 5730.9 462.172 5718.3 459.772 5707.2C457.372 5696.1 450.872 5686.3 443.572 5677.5C420.872 5650.2 388.872 5629.9 374.072 5597.7C369.572 5587.9 366.772 5576.8 369.072 5566.3C371.372 5555.8 379.772 5546.1 390.472 5544.8C398.972 5543.8 407.372 5548 413.372 5554C419.372 5560 423.372 5567.7 427.272 5575.3C436.372 5593.3 444.972 5611.4 453.272 5629.8C464.072 5653.9 493.972 5665.4 519.272 5673.1C531.772 5676.9 545.072 5679.3 558.072 5677.7C571.072 5676.1 583.972 5670.1 591.872 5659.7C599.872 5649.3 602.172 5634.2 595.772 5622.7C591.072 5614.4 582.572 5608.8 573.672 5605.4C564.772 5602 555.172 5600.6 545.872 5598.5C526.072 5594 506.672 5586.3 491.072 5573.4C475.372 5560.5 463.772 5542 461.872 5521.8C460.772 5510.5 464.372 5496.9 475.072 5492.9C486.272 5488.7 497.772 5497.4 506.672 5505.4C523.972 5521.1 541.272 5536.8 558.572 5552.5C570.372 5563.3 584.172 5570.2 600.172 5570.6C627.072 5571.3 654.072 5567.3 679.572 5558.8C693.172 5554.3 707.072 5547.9 715.272 5536.2C725.172 5522.1 724.272 5501.4 713.272 5488.2C702.272 5475 679.972 5466.7 664.172 5473.5Z" fill="#009158"/>
<path d="M1789.57 4841.8C1754.27 4847.4 1720.47 4860.2 1687.87 4874.8C1644.77 4894.1 1600.87 4918.7 1577.37 4959.7C1569.97 4972.5 1564.87 4987.4 1567.17 5002C1570.37 5021.5 1586.67 5036.9 1604.97 5044.4C1619.17 5050.3 1641.17 5053 1649.77 5068.2C1659.77 5085.8 1642.47 5113.7 1644.87 5134.3C1648.07 5161.8 1670.67 5189.3 1698.27 5187.3C1712.47 5186.3 1724.97 5178.2 1738.17 5173.1C1751.47 5168 1768.37 5166.8 1777.97 5177.2C1789.07 5189.2 1783.87 5208.4 1787.97 5224.2C1793.47 5245.1 1816.17 5258.2 1837.87 5258.1C1859.47 5258.1 1879.77 5247.5 1897.17 5234.6C1938.07 5204.3 1967.87 5159.8 1982.27 5111C1996.67 5062.2 1995.77 5009.3 1981.77 4960.3C1969.87 4918.6 1945.67 4876.8 1906.97 4854.9C1873.97 4836.4 1826.07 4836 1789.57 4841.8Z" fill="#EC1728"/>
<path d="M1555.47 2890.4C1525.07 2909.2 1498.87 2934 1474.47 2960.1C1442.17 2994.6 1411.17 3034.2 1405.37 3081.1C1403.57 3095.8 1404.57 3111.5 1412.37 3124.1C1422.87 3140.9 1443.77 3148.7 1463.57 3148.6C1478.87 3148.5 1500.27 3142.5 1514.07 3153.2C1530.07 3165.5 1524.97 3198 1535.07 3216.1C1548.67 3240.3 1580.07 3256.8 1604.87 3244.4C1617.57 3238 1625.97 3225.7 1636.17 3215.9C1646.47 3206.1 1661.57 3198.4 1674.47 3204.3C1689.27 3211.1 1691.97 3230.9 1701.87 3243.8C1715.07 3261 1741.07 3264.2 1760.97 3255.8C1780.87 3247.4 1795.57 3229.8 1806.67 3211.2C1832.77 3167.5 1843.07 3114.9 1837.37 3064.3C1831.67 3013.7 1810.47 2965.2 1778.67 2925.5C1751.57 2891.6 1713.17 2862.4 1668.97 2857.2C1631.27 2852.7 1586.97 2870.9 1555.47 2890.4Z" fill="#E2F1DD"/>
<path d="M1615.27 892.1C1610.97 881.1 1601.77 870.7 1604.07 859.1C1605.77 850.4 1613.57 844.1 1616.67 835.8C1623.27 818.1 1607.17 799.1 1610.07 780.4C1611.97 768.3 1621.37 759.1 1628.67 749.2C1635.97 739.3 1641.27 725.5 1634.47 715.2C1641.47 716.3 1645.57 724.3 1645.07 731.4C1644.57 738.5 1640.87 744.8 1637.87 751.3C1628.97 770.2 1625.47 791.6 1627.77 812.3C1628.97 822.8 1631.47 834.1 1626.37 843.4C1622.27 851 1613.37 856.6 1613.47 865.2C1613.47 873.2 1621.27 878.6 1626.47 884.7C1638.47 898.9 1636.27 922.7 1621.97 934.5C1632.37 938.7 1642.37 925.8 1642.47 914.6C1642.57 903.4 1637.27 892.5 1638.07 881.3C1639.77 858.2 1666.17 841.7 1665.17 818.6C1664.87 811.1 1661.57 803.6 1662.97 796.2C1664.37 788.8 1674.57 782.8 1679.27 788.7C1674.17 808.3 1669.07 828 1663.97 847.6C1659.57 864.4 1655.27 881.4 1654.07 898.8C1653.37 909.7 1653.87 920.8 1650.67 931.2C1646.37 945.4 1622.97 964.9 1611.87 944.5C1604.07 930 1622.27 910.2 1615.27 892.1Z" fill="#8AAA9A"/>
<path d="M201.372 852.8C197.072 862.9 195.072 875.2 200.772 884.6C208.572 897.2 225.972 898.8 240.872 898.9C252.072 899 263.272 899.1 274.372 899.2C285.472 899.3 297.772 899 305.972 891.5C315.072 883.3 315.872 869.2 313.372 857.2C310.772 844.7 305.272 832.7 296.472 823.5C264.372 790.2 217.172 816.3 201.372 852.8Z" fill="#A38D6F"/>
<path d="M1411.27 2133.1L1406.17 2118.7L1312.77 2154.7L1304.57 2227.3L1247.87 2236.4L1290.57 2122.4L1345.27 2095.1V2061L1410.07 2048.2L1407.27 2033L1345.27 2045.3V2006.3H1330.47V2085.4L1287.17 2107L1248.17 2048.7L1300.97 1975.3L1283.07 1954L1342.17 1909.4L1333.57 1896.9L1273.37 1942.3L1244.67 1908.1L1233.47 1918.2L1281.97 1976.1L1239.27 2035.4L1230.27 2021.9L1176.47 1992.2L1169.57 2005.8L1220.17 2033.8L1239.87 2063.2L1126.07 2052.6L1120.57 1985.2L1105.77 1986.5L1111.27 2053.2L1043.27 2064.7L1045.67 2080L1119.57 2067.5L1188.57 2073.9L1172.87 2100.2L1185.37 2108.3L1205.07 2075.4L1250.87 2079.7L1276.37 2117.8L1244.87 2201.8L1189.17 2154.6L1149.17 2109.2L1138.27 2119.7L1171.77 2157.7L1124.67 2180.4L1130.97 2194.4L1182.97 2169.3L1239.27 2216.9L1218.37 2272.6L1232.17 2278.2L1241.57 2253L1317.97 2240.8L1325.57 2173.1L1384.07 2210.1L1391.77 2196.9L1336.47 2162L1411.27 2133.1Z" fill="#FFCC33"/>
<path d="M361.972 5742.8C376.072 5738.6 388.572 5731.8 403.772 5742.8C416.172 5751.7 422.972 5766.3 429.972 5779.8C437.072 5793.4 445.772 5807.4 459.772 5813.3C480.272 5822 509.472 5813 521.972 5831.4C527.872 5840.2 527.072 5852.3 533.172 5861C544.472 5877.4 569.472 5871.6 589.272 5873.9C615.072 5876.9 635.572 5895.9 656.972 5910.6C678.372 5925.4 707.372 5936.5 729.472 5922.9C751.372 5909.5 754.072 5875.2 737.372 5855.7C720.672 5836.2 690.272 5832.1 666.872 5842.5C655.772 5847.4 648.572 5833 646.572 5821C644.572 5809.1 647.072 5795.8 640.572 5785.6C631.772 5771.9 611.972 5771.4 595.972 5774.5C579.972 5777.7 562.572 5782.8 548.072 5775.2C525.772 5763.5 524.572 5729.2 502.872 5716.3C485.772 5706.1 463.472 5713.8 444.372 5708.2C416.772 5700.2 403.572 5669.9 378.672 5657.8C354.372 5646 326.272 5659.1 302.872 5639.8C292.272 5631 285.672 5618.3 275.772 5608.7C262.372 5595.6 242.772 5589.2 224.172 5591.7C199.872 5595 177.472 5614.8 170.472 5638.4C165.672 5654.6 176.972 5672.1 191.872 5680.2C223.372 5697.3 259.672 5667.8 285.772 5700.5C291.572 5707.8 295.272 5716.7 300.872 5724.1C311.972 5738.9 331.172 5746.5 349.472 5745.2C353.972 5744.9 358.072 5743.9 361.972 5742.8Z" fill="#008DB5"/>
</g>
</svg>
