<svg width="2067" height="5950" viewBox="0 0 2067 5950" fill="none" xmlns="http://www.w3.org/2000/svg">
<path d="M1898.67 4726C1901.07 4734 1898.27 4743 1893.37 4748.8C1888.47 4754.7 1881.97 4758 1875.47 4761.1C1827.07 4784.2 1775.37 4798.6 1722.67 4803.5C1701.77 4805.5 1678.57 4805 1662.17 4788.6C1651.37 4777.8 1645.37 4761.5 1643.57 4745.2C1641.77 4728.9 1643.77 4712.6 1646.87 4696.8C1656.17 4648.6 1675.17 4603.6 1701.67 4566.4C1705.57 4560.9 1709.87 4555.4 1715.57 4552.8C1721.27 4550.2 1728.67 4551.1 1732.67 4557C1738.17 4565.1 1734.47 4576.7 1730.57 4585.5C1717.57 4615 1704.57 4644.5 1691.57 4674.1C1700.97 4652.7 1718.57 4632.3 1732.17 4614.6C1747.07 4595.2 1764.37 4557.5 1788.87 4553.4C1814.57 4549.1 1796.97 4590.1 1791.17 4602C1782.37 4619.9 1771.07 4635.9 1759.87 4651.7C1748.67 4667.6 1737.47 4683.6 1726.27 4699.5C1755.87 4664.4 1785.47 4629.3 1815.07 4594.2C1822.97 4584.9 1831.27 4575.2 1841.97 4571.3C1852.67 4567.4 1866.67 4571.1 1872.27 4583.2C1876.47 4592.3 1874.87 4603.7 1870.47 4612.1C1866.07 4620.6 1859.27 4626.8 1852.57 4632.8C1820.07 4662.1 1787.57 4691.4 1755.07 4720.8C1777.57 4724.4 1798.77 4711.2 1816.87 4696.4C1835.07 4681.6 1852.67 4664.4 1874.37 4658.3C1880.57 4656.6 1887.17 4655.9 1893.27 4658.4C1899.37 4660.9 1904.87 4667.3 1905.47 4674.9C1906.57 4687.6 1895.17 4695.4 1885.37 4700.1C1853.87 4715.4 1822.27 4730.7 1790.77 4745.9C1781.27 4750.5 1769.77 4752.8 1761.57 4760.4C1751.97 4769.2 1755.47 4779.5 1768.67 4781C1779.47 4782.1 1898.57 4725.7 1898.67 4726Z" fill="#ACB8DE"/>
<path d="M1208.97 4633.6C1240.87 4594.4 1270.97 4632 1280.87 4650.3C1290.67 4668.6 1319.27 4698.6 1345.87 4684.2C1372.47 4669.8 1354.97 4632.9 1339.87 4610.1C1324.67 4587.3 1316.27 4538.5 1354.47 4524C1392.67 4509.5 1434.47 4518.1 1443.67 4565.9C1452.87 4613.7 1407.67 4696.1 1416.77 4723.7C1425.77 4751.3 1430.57 4791.2 1467.87 4774.7C1505.17 4758.2 1444.27 4677.6 1481.27 4665.9C1518.27 4654.2 1547.97 4655.9 1564.57 4704.8C1581.17 4753.7 1490.57 4779 1495.97 4817.6C1501.37 4856.2 1518.07 4877.1 1566.37 4856.2C1614.67 4835.2 1624.97 4781.1 1649.67 4798.8C1674.37 4816.5 1686.07 4853.5 1654.47 4870C1622.87 4886.5 1550.97 4895.1 1536.77 4911.3C1522.57 4927.6 1522.27 4951 1518.17 4960.9C1510.27 4980.1 1479.77 5004.9 1449.17 4987.4C1432.17 4977.7 1437.47 4957.9 1417.27 4956.9C1397.07 4955.9 1341.17 4990.5 1333.47 5006.4C1325.77 5022.3 1275.57 5035.9 1264.97 5010.1C1254.37 4984.3 1264.67 4935.9 1289.87 4940.7C1315.07 4945.5 1356.37 4933.1 1361.77 4926.3C1367.07 4919.5 1367.87 4887.5 1324.07 4888.2C1280.27 4888.9 1237.67 4898.3 1224.07 4873.6C1210.47 4849 1206.97 4817.9 1221.47 4810.8C1235.97 4803.7 1265.47 4802 1293.87 4828.7C1322.27 4855.4 1355.27 4851.1 1362.67 4829.5C1370.07 4807.9 1345.77 4751.7 1327.77 4735.9C1309.67 4720.1 1242.77 4706.9 1230.27 4693.5C1217.77 4680.1 1191.97 4654.5 1208.97 4633.6Z" fill="#FFDF00"/>
<path d="M955.86 5637.1C969.86 5615.4 990.86 5598.9 1005.86 5577.8C1020.86 5556.7 1029.16 5527 1014.96 5505.4C996.86 5478 952.56 5481.6 928.56 5503.9C904.56 5526.2 895.56 5559.9 887.66 5591.8C878.86 5627.3 870.06 5662.7 861.26 5698.2C854.16 5726.7 847.06 5756.4 853.56 5785.1C862.66 5825.5 897.06 5855.5 933.56 5875C1044.96 5934.4 1193.16 5914.9 1285.46 5828.7C1295.16 5819.6 1304.56 5809.5 1309.36 5797C1314.16 5784.5 1313.36 5769.2 1304.36 5759.3C1264.06 5715 1198.26 5799.3 1168.46 5818.5C1155.76 5826.7 1142.16 5834.4 1127.26 5836.9C1112.36 5839.4 1095.56 5835.8 1085.56 5824.4C1072.46 5809.4 1075.16 5785.3 1086.26 5768.8C1101.56 5746 1133.66 5727 1157.26 5713.2C1170.06 5705.7 1184.06 5700 1195.76 5690.9C1207.46 5681.8 1217.06 5668.1 1216.36 5653.3C1215.46 5635.2 1199.16 5620.8 1181.66 5616.5C1164.06 5612.2 1145.66 5615.8 1128.16 5620.4C1082.26 5632.3 1037.96 5650.4 996.76 5674.1C984.66 5681 957.06 5707.2 945.36 5694.2C933.86 5681.5 948.76 5648.2 955.86 5637.1Z" fill="#36C7C1"/>
<path d="M1882.67 5863.4C1847.17 5867.2 1811.57 5871 1776.07 5874.8C1808.97 5849.7 1841.87 5824.6 1874.77 5799.5C1826.97 5814.6 1779.17 5829.8 1731.47 5844.9C1780.07 5805.8 1816.57 5752 1834.97 5692.5C1790.37 5716.8 1745.77 5741.2 1701.17 5765.5C1716.47 5720.3 1731.77 5675.1 1746.97 5630C1707.37 5675.8 1667.67 5721.7 1628.07 5767.5C1654.97 5707.8 1657.67 5637.6 1635.27 5576.1C1615.87 5633.5 1596.57 5690.9 1577.17 5748.4C1564.97 5784.6 1552.57 5822.1 1555.77 5860.2C1558.17 5888.9 1572.47 5923.4 1598.77 5938.4C1619.07 5950 1652.07 5940.6 1674.47 5938.7C1748.87 5932.4 1821.67 5906.4 1882.67 5863.4Z" fill="#FFDF00"/>
<path d="M1863.57 4841.8C1828.27 4847.4 1794.47 4860.2 1761.87 4874.8C1718.77 4894.1 1674.87 4918.7 1651.37 4959.7C1643.97 4972.5 1638.87 4987.4 1641.17 5002C1644.37 5021.5 1660.67 5036.9 1678.97 5044.4C1693.17 5050.3 1715.17 5053 1723.77 5068.2C1733.77 5085.8 1716.47 5113.7 1718.87 5134.3C1722.07 5161.8 1744.67 5189.3 1772.27 5187.3C1786.47 5186.3 1798.97 5178.2 1812.17 5173.1C1825.47 5168 1842.37 5166.8 1851.97 5177.2C1863.07 5189.2 1857.87 5208.4 1861.97 5224.2C1867.47 5245.1 1890.17 5258.2 1911.87 5258.1C1933.47 5258.1 1953.77 5247.5 1971.17 5234.6C2012.07 5204.3 2041.87 5159.8 2056.27 5111C2070.67 5062.2 2069.77 5009.3 2055.77 4960.3C2043.87 4918.6 2019.67 4876.8 1980.97 4854.9C1947.97 4836.4 1900.07 4836 1863.57 4841.8Z" fill="#EC1728"/>
<path d="M1629.47 2890.4C1599.07 2909.2 1572.87 2934 1548.47 2960.1C1516.17 2994.6 1485.17 3034.2 1479.37 3081.1C1477.57 3095.8 1478.57 3111.5 1486.37 3124.1C1496.87 3140.9 1517.77 3148.7 1537.57 3148.6C1552.87 3148.5 1574.27 3142.5 1588.07 3153.2C1604.07 3165.5 1598.97 3198 1609.07 3216.1C1622.67 3240.3 1654.07 3256.8 1678.87 3244.4C1691.57 3238 1699.97 3225.7 1710.17 3215.9C1720.47 3206.1 1735.57 3198.4 1748.47 3204.3C1763.27 3211.1 1765.97 3230.9 1775.87 3243.8C1789.07 3261 1815.07 3264.2 1834.97 3255.8C1854.87 3247.4 1869.57 3229.8 1880.67 3211.2C1906.77 3167.5 1917.07 3114.9 1911.37 3064.3C1905.67 3013.7 1884.47 2965.2 1852.67 2925.5C1825.57 2891.6 1787.17 2862.4 1742.97 2857.2C1705.27 2852.7 1660.97 2870.9 1629.47 2890.4Z" fill="#E2F1DD"/>
<path d="M1750.97 4365.3C1764.27 4363.2 1772.97 4349.6 1776.17 4337.5C1779.57 4324.7 1778.97 4311.1 1781.07 4298C1785.67 4269.2 1804.27 4242.9 1829.87 4228.9C1849.97 4217.9 1873.77 4214.3 1892.97 4201.6C1912.17 4188.9 1924.97 4160.9 1910.37 4143.2C1899.87 4130.5 1879.77 4129.7 1864.97 4136.9C1850.17 4144.1 1839.37 4157.4 1829.17 4170.2C1834.17 4139.5 1839.17 4108.8 1844.17 4078.2C1857.67 4062.2 1868.97 4056.3 1882.47 4040.3C1892.67 4028.3 1903.17 4015.7 1907.57 4000.6C1912.07 3985.5 1908.87 3966.9 1895.97 3957.8C1847.07 3923.3 1834.07 4016.7 1833.77 4044C1833.57 4030.7 1830.47 4017.4 1824.67 4005.5C1821.77 3999.4 1817.97 3993.6 1812.67 3989.5C1798.67 3978.7 1778.57 3990.2 1772.37 4004.9C1766.07 4019.6 1771.87 4036.4 1777.67 4051.3C1787.37 4076.4 1797.07 4101.5 1806.77 4126.7C1804.67 4128.8 1801.87 4129.5 1799.77 4131.6C1786.27 4109.8 1772.77 4087.9 1759.17 4066.1C1753.07 4056.2 1743.17 4044.8 1732.07 4048.4C1722.77 4051.5 1719.97 4064 1723.47 4073.1C1726.97 4082.2 1734.87 4088.8 1741.77 4095.7C1747.37 4101.3 1751.67 4106.8 1757.77 4111.6C1763.97 4116.5 1769.17 4122.4 1773.37 4129C1781.77 4142.2 1786.27 4157.8 1787.27 4173.3C1789.07 4199.7 1782.27 4225.9 1775.77 4251.5C1770.87 4271 1766.97 4290.8 1763.17 4310.5C1760.07 4327.9 1759.17 4349.8 1750.97 4365.3Z" fill="#00B590"/>
<path d="M776.271 5114.6C787.871 5112.8 799.671 5118.3 806.771 5126.1C813.971 5133.9 817.371 5143.6 820.471 5153.1C843.471 5224.2 853.771 5298.2 850.871 5371.9C849.671 5401.1 844.871 5433.1 819.071 5452.8C802.171 5465.7 778.471 5471 755.671 5470.5C732.871 5470 710.671 5464.2 689.471 5457C624.671 5435.2 565.971 5400.8 519.471 5357.2C512.571 5350.8 505.871 5343.9 503.271 5335.5C500.671 5327.2 503.371 5317.1 512.171 5312.6C524.371 5306.4 539.671 5313.7 551.171 5320.7C589.571 5344.1 627.871 5367.5 666.271 5391C638.471 5374 613.471 5346 591.571 5324C567.471 5299.8 518.671 5269 517.571 5234.4C516.471 5198.1 569.771 5229.9 585.071 5240.2C608.171 5255.7 628.071 5274.2 647.971 5292.5C667.971 5310.9 687.871 5329.3 707.871 5347.7C664.871 5300.4 621.871 5253 578.871 5205.7C567.371 5193.1 555.671 5179.9 552.171 5164.3C548.671 5148.7 556.471 5130.2 574.171 5124.7C587.471 5120.6 602.871 5124.9 613.771 5132.5C624.671 5140.1 631.971 5150.7 639.071 5161.1C673.571 5211.4 708.071 5261.7 742.571 5312C751.771 5281.6 737.371 5249.9 720.271 5222.1C703.171 5194.3 682.671 5166.7 678.271 5135.6C677.071 5126.8 677.271 5117.5 681.871 5109.5C686.471 5101.5 696.271 5095.1 706.871 5095.6C724.571 5096.5 733.271 5113.6 737.971 5128C753.271 5174.4 768.571 5220.7 783.771 5267.1C788.371 5281 789.471 5297.4 798.371 5310.1C808.771 5324.9 823.571 5322 828.071 5304C831.671 5289.6 775.671 5114.7 776.271 5114.6Z" fill="#FFDF00"/>
<path d="M796.471 2170.4C823.571 2156.1 858.771 2160.7 882.671 2179.8C906.571 2198.9 918.571 2231.1 915.071 2261.5C900.671 2258.1 887.971 2249.2 877.671 2238.5C867.371 2227.8 859.271 2215.2 851.171 2202.7C855.071 2218.6 859.071 2234.7 859.271 2251.1C859.571 2267.5 855.871 2284.5 845.871 2297.5C831.171 2288.1 821.771 2271.9 817.071 2255C812.371 2238.1 811.971 2220.4 811.471 2202.9C811.671 2209.5 794.871 2223.6 790.271 2227.8C785.771 2232 769.471 2248.6 762.771 2247.1C755.171 2245.4 758.471 2226.3 759.471 2220.9C761.371 2210.9 765.371 2201.4 771.171 2193C777.771 2183.7 786.371 2175.7 796.471 2170.4Z" fill="#FFD7CC"/>
<path d="M109.472 2662.5C114.972 2627.2 120.372 2591.9 125.872 2556.5C141.672 2594.8 157.472 2633 173.372 2671.3C171.072 2621.2 168.672 2571.2 166.372 2521.1C191.672 2578.1 234.272 2627.2 287.072 2660.3C274.972 2611 262.972 2561.6 250.872 2512.3C290.572 2538.7 330.372 2565 370.072 2591.4C335.972 2541.3 301.872 2491.2 267.672 2441.1C318.472 2482.4 385.572 2503 450.772 2497.3C400.272 2463.8 349.772 2430.4 299.172 2396.9C267.272 2375.8 234.272 2354.2 196.672 2347.5C168.272 2342.4 131.272 2347.4 110.072 2369C93.6723 2385.7 94.2723 2420 90.2723 2442C77.1723 2515.4 83.5723 2592.4 109.472 2662.5Z" fill="#8BCBCA"/>
<path d="M1200.47 5432.7C1210.47 5423.6 1210.17 5407.5 1206.17 5395.6C1201.97 5383 1193.97 5372 1188.57 5359.9C1176.57 5333.3 1177.67 5301.2 1191.37 5275.4C1202.17 5255.1 1219.97 5239 1229.07 5218C1238.17 5196.9 1233.37 5166.4 1211.47 5159.7C1195.77 5154.9 1178.57 5165.2 1170.17 5179.4C1161.77 5193.6 1160.07 5210.6 1158.57 5227C1145.87 5198.6 1133.17 5170.2 1120.57 5141.8C1123.07 5121 1129.17 5109.9 1131.77 5089.1C1133.67 5073.4 1135.57 5057.2 1130.97 5042.1C1126.37 5027 1113.57 5013.2 1097.77 5012.7C1037.97 5010.8 1078.47 5095.9 1093.17 5118.9C1085.77 5107.9 1075.87 5098.5 1064.37 5091.7C1058.57 5088.2 1052.27 5085.4 1045.57 5084.9C1027.97 5083.6 1017.47 5104.2 1020.37 5119.9C1023.27 5135.6 1037.27 5146.5 1050.27 5155.8C1072.17 5171.5 1094.07 5187.1 1115.97 5202.8C1115.37 5205.7 1113.37 5207.8 1112.77 5210.7C1089.47 5199.9 1066.17 5189.1 1042.87 5178.2C1032.27 5173.3 1017.77 5169.2 1010.57 5178.3C1004.47 5185.9 1008.97 5198 1016.97 5203.6C1024.97 5209.2 1035.07 5210.4 1044.67 5212.4C1052.37 5214 1058.97 5216.2 1066.77 5216.9C1074.67 5217.6 1082.27 5219.7 1089.47 5222.9C1103.67 5229.3 1116.07 5239.9 1125.47 5252.2C1141.47 5273.3 1150.17 5298.9 1158.87 5323.9C1165.47 5342.9 1173.07 5361.6 1180.77 5380.2C1187.57 5396.5 1198.87 5415.2 1200.47 5432.7Z" fill="#00B590"/>
<path d="M953.573 4867C923.973 4945.5 843.373 5000.3 759.573 5004.4C675.773 5008.5 592.573 4964.3 544.373 4895.6C580.273 4876.4 622.473 4871.5 663.073 4874.8C703.673 4878.1 743.173 4889.1 782.473 4900C745.473 4874.4 708.073 4848.6 677.673 4815.4C647.273 4782.2 623.973 4740.7 620.873 4695.8C668.273 4688.3 716.973 4704.6 757.273 4730.7C797.573 4756.9 830.673 4792.3 863.473 4827.4C851.073 4814.1 859.973 4754.8 861.573 4737.7C863.173 4720.8 866.473 4657.1 882.773 4648C901.273 4637.7 929.373 4682.8 937.173 4695.8C951.473 4719.7 960.573 4746.7 963.973 4774.3C967.773 4805.6 964.673 4837.6 953.573 4867Z" fill="#ACB8DE"/>
<path d="M1051.77 3944.2C1062.77 3970.7 1066.07 4000.4 1061.07 4028.7C1059.67 4036.4 1057.67 4044.1 1053.17 4050.5C1048.67 4056.9 1041.17 4061.5 1033.37 4060.9C1023.27 4060.1 1015.77 4050.8 1012.97 4041C1010.17 4031.3 1010.87 4021 1010.07 4010.9C1007.37 3977.8 986.872 3946.6 957.572 3931C928.172 3915.4 890.872 3915.9 861.972 3932.3C854.872 3936.3 847.772 3941.8 845.572 3949.7C843.472 3957 846.172 3965.1 850.772 3971.1C855.372 3977.1 861.872 3981.5 868.472 3985.4C915.872 4014.2 972.972 4029.7 1010.07 4070.8C1015.07 4076.3 1019.87 4083.1 1019.17 4090.5C1018.17 4101.1 1006.27 4107.3 995.672 4107.9C959.772 4109.9 934.172 4072 899.372 4063.4C884.472 4059.7 868.272 4061.8 854.772 4069.2C847.472 4073.2 840.372 4079.7 840.172 4088.1C839.972 4093.2 842.372 4098 845.172 4102.3C857.172 4120.9 877.372 4133.9 899.272 4137.2C932.672 4142.2 965.272 4125.5 998.772 4122.4C1009.47 4121.4 1022.37 4123.1 1027.27 4132.6C1032.07 4141.9 1026.07 4153.6 1017.57 4159.6C1003.77 4169.5 985.372 4169.3 968.372 4168.8C935.772 4167.7 903.172 4166.6 870.572 4165.6C855.672 4165.1 850.072 4189.5 854.472 4203.7C858.872 4217.9 872.972 4227.7 887.672 4230.1C902.372 4232.5 917.472 4228.5 930.972 4222.2C944.472 4215.9 956.772 4207.4 969.672 4200.1C989.372 4188.9 1010.47 4180.4 1032.37 4174.7C1047.27 4170.9 1066.37 4170 1074.57 4183C1078.87 4189.8 1078.47 4198.9 1075.07 4206.2C1071.67 4213.5 1065.47 4219.2 1058.67 4223.5C1043.87 4233.1 1025.67 4237.1 1008.27 4234.7C997.072 4233.2 986.372 4229.1 975.172 4227.2C963.972 4225.3 951.572 4226.2 942.772 4233.2C929.172 4244.1 930.172 4267.3 942.372 4279.7C954.572 4292.1 974.472 4294.8 991.272 4289.9C1008.07 4285 1022.17 4273.7 1034.67 4261.5C1047.17 4249.3 1058.47 4235.7 1071.97 4224.8C1078.37 4219.7 1085.37 4215 1093.37 4213.3C1101.37 4211.6 1110.47 4213.3 1115.97 4219.4C1121.47 4225.4 1122.37 4234.6 1119.57 4242.2C1116.87 4249.8 1110.97 4256 1104.27 4260.5C1091.37 4269.4 1075.67 4273 1060.67 4277.8C1045.77 4282.7 1030.47 4289.6 1021.77 4302.6C1013.07 4315.6 1014.07 4336.2 1027.47 4344.3C1040.37 4352.1 1057.77 4344.9 1067.57 4333.5C1077.57 4321.9 1082.67 4306.9 1090.77 4294.1C1099.07 4280.8 1108.37 4267.8 1118.77 4255.9C1122.57 4251.6 1127.37 4247.1 1132.97 4247.9C1140.07 4248.9 1143.17 4258.2 1140.77 4265C1138.37 4271.8 1132.57 4276.6 1127.57 4281.7C1105.77 4303.7 1095.17 4336.3 1099.87 4366.9C1102.67 4385 1111.67 4403.5 1128.07 4411.5C1144.57 4419.5 1168.47 4412 1172.57 4394.2C1174.67 4385 1171.47 4375.3 1166.47 4367.2C1161.57 4359.1 1155.07 4352.1 1149.77 4344.2C1139.97 4329.5 1134.87 4311.8 1135.37 4294.2C1135.57 4284.5 1139.77 4272.6 1149.47 4271.8C1158.87 4271 1164.87 4281.2 1168.77 4289.8C1177.47 4309.2 1187.57 4328.4 1201.87 4344.1C1216.27 4359.8 1235.47 4371.9 1256.67 4374.1C1267.67 4375.3 1279.57 4373.4 1287.87 4366C1302.67 4352.7 1298.57 4326.9 1284.67 4312.7C1270.77 4298.5 1250.47 4292.8 1231.27 4287.9C1211.97 4283 1191.77 4277.6 1177.47 4263.8C1159.57 4246.4 1187.47 4242.1 1199.57 4241.5C1219.57 4240.4 1239.67 4242.6 1259.67 4241.9C1283.17 4241.1 1305.17 4235.8 1319.17 4215.2C1335.57 4191.2 1333.87 4159.2 1301.17 4152.3C1284.67 4148.8 1268.17 4158.8 1256.57 4171.1C1245.07 4183.4 1236.37 4198.3 1223.67 4209.4C1206.47 4224.4 1182.47 4231 1160.07 4227C1153.77 4225.9 1147.37 4223.8 1142.97 4219.1C1133.57 4208.9 1139.27 4191.1 1150.77 4183.2C1162.27 4175.3 1176.97 4174.7 1190.77 4174.3C1206.37 4173.8 1218.67 4165.3 1231.87 4157.1C1240.47 4151.8 1248.57 4145 1252.77 4135.8C1257.07 4126.6 1256.57 4114.8 1249.57 4107.5C1243.67 4101.3 1234.17 4099.5 1225.67 4101.2C1217.27 4102.9 1209.77 4107.7 1203.07 4113.1C1182.17 4129.9 1166.47 4153.9 1141.97 4164.7C1134.57 4168 1126.17 4170 1118.17 4168.1C1110.17 4166.2 1103.07 4159.8 1102.17 4151.7C1101.47 4145.3 1104.77 4139 1109.37 4134.5C1113.97 4130 1119.87 4127.1 1125.67 4124.3C1139.37 4117.6 1153.17 4111.3 1167.17 4105.3C1185.57 4097.4 1194.47 4074.9 1200.57 4055.9C1203.57 4046.5 1205.57 4036.5 1204.47 4026.6C1203.37 4016.7 1199.07 4007 1191.27 4000.8C1183.47 3994.6 1172.07 3992.8 1163.37 3997.5C1157.07 4000.9 1152.67 4007.3 1150.07 4014C1147.47 4020.7 1146.27 4027.9 1144.57 4034.9C1140.97 4049.8 1134.97 4064.4 1125.07 4076C1115.17 4087.7 1101.07 4096.3 1085.77 4097.5C1077.17 4098.2 1066.97 4095.3 1064.07 4087.2C1061.07 4078.7 1067.67 4070.1 1073.87 4063.5C1085.97 4050.6 1097.97 4037.7 1110.07 4024.8C1118.37 4016 1123.77 4005.6 1124.27 3993.5C1125.07 3973.2 1122.37 3952.8 1116.27 3933.4C1112.97 3923.1 1108.37 3912.5 1099.57 3906.2C1089.07 3898.6 1073.37 3899 1063.27 3907.2C1053.57 3915.4 1046.77 3932.2 1051.77 3944.2Z" fill="#FFD7CC"/>
<path d="M1535.87 5291.2C1601.17 5256.8 1686.27 5267.7 1743.87 5314C1801.47 5360.2 1830.47 5437.9 1822.07 5511.3C1787.17 5503 1756.57 5481.6 1731.77 5455.7C1706.97 5429.8 1687.37 5399.5 1667.87 5369.4C1677.37 5407.8 1686.87 5446.7 1687.57 5486.3C1688.27 5525.9 1679.27 5566.9 1655.17 5598.2C1619.57 5575.5 1596.97 5536.3 1585.77 5495.6C1574.57 5454.9 1573.37 5412.1 1572.37 5369.9C1572.77 5385.9 1532.27 5419.8 1521.17 5430.1C1510.27 5440.3 1470.87 5480.3 1454.87 5476.8C1436.67 5472.8 1444.57 5426.7 1446.97 5413.5C1451.47 5389.4 1461.27 5366.4 1475.07 5346.2C1490.57 5323.3 1511.47 5304 1535.87 5291.2Z" fill="#ACB8DE"/>
<path d="M1440.97 272.8C1435.97 260.1 1425.47 248.2 1428.07 234.8C1430.07 224.7 1438.97 217.5 1442.57 207.9C1450.17 187.5 1431.67 165.6 1434.97 144.1C1437.17 130.2 1447.97 119.5 1456.37 108.1C1464.77 96.7 1470.87 80.8 1463.07 69C1471.17 70.2 1475.77 79.5 1475.27 87.6C1474.77 95.7 1470.47 103.1 1466.97 110.5C1456.67 132.3 1452.67 156.9 1455.27 180.8C1456.67 192.9 1459.47 205.9 1453.67 216.6C1448.97 225.3 1438.67 231.8 1438.77 241.7C1438.87 250.9 1447.77 257.1 1453.67 264.2C1467.47 280.5 1464.97 308 1448.47 321.6C1460.47 326.5 1471.97 311.6 1472.07 298.6C1472.07 285.6 1466.07 273.1 1467.07 260.2C1469.07 233.6 1499.37 214.6 1498.27 188C1497.87 179.3 1494.07 170.7 1495.67 162.2C1497.27 153.7 1509.07 146.7 1514.47 153.5C1508.57 176.1 1502.77 198.8 1496.87 221.4C1491.87 240.8 1486.77 260.3 1485.47 280.3C1484.67 292.8 1485.27 305.7 1481.57 317.7C1476.57 334.1 1449.67 356.6 1436.87 333C1428.17 316.4 1449.17 293.7 1440.97 272.8Z" fill="#8AAA9A"/>
<path d="M665.473 325.4C657.373 325.2 647.773 326.3 642.673 320C638.773 315.3 639.273 308.4 637.173 302.6C632.673 289.8 617.373 285.3 606.373 277.3C584.573 261.5 580.473 226.3 597.973 205.9C601.373 215.2 598.373 225.5 596.673 235.2C594.973 244.9 595.373 256.6 603.073 262.8C611.973 269.9 625.773 266.2 635.373 272.3C649.473 281.3 647.373 306.8 663.073 312.5C669.173 314.7 675.873 313 682.373 313.5C688.773 314 696.173 318.9 694.773 325.3C701.873 323.7 701.873 312.8 697.073 307.4C692.273 301.9 684.873 299.3 679.973 293.8C676.273 289.7 674.373 284.3 672.573 279C667.273 263.7 662.073 248.4 656.773 233.1C654.973 227.9 653.173 222.1 655.173 217C657.173 211.9 664.773 208.8 668.273 213.1C670.973 216.3 669.573 221.1 669.373 225.3C669.073 231.8 671.873 238 674.873 243.8C682.073 257.9 690.373 271.6 699.573 284.5C705.473 292.8 711.973 301.1 715.173 310.8C718.373 320.5 717.573 332.3 710.273 339.5C692.273 357.6 682.073 325.8 665.473 325.4Z" fill="#909AB2"/>
<path d="M475.772 5582.3C471.172 5595.2 469.272 5609 468.172 5622.6C466.772 5640.7 466.972 5660 476.472 5675.5C479.472 5680.3 483.472 5684.8 488.872 5686.7C496.072 5689.2 504.172 5686.6 510.072 5681.8C514.672 5678.1 519.672 5671.2 526.372 5671.1C534.172 5671 540.372 5681.9 547.772 5684.9C557.672 5688.9 571.072 5686.3 575.472 5676.7C577.772 5671.7 577.272 5666 578.072 5660.6C578.772 5655.2 581.472 5649.3 586.772 5647.9C592.872 5646.4 598.372 5651.7 604.472 5653.2C612.572 5655.2 621.072 5649.9 625.072 5642.6C629.072 5635.3 629.172 5626.5 628.072 5618.3C625.372 5598.9 615.872 5580.7 602.072 5566.9C588.272 5553.1 570.272 5543.6 551.172 5539.3C534.872 5535.6 516.372 5536.1 501.872 5545.1C489.572 5552.8 480.572 5568.9 475.772 5582.3Z" fill="#EF3C45"/>
<path d="M1726.27 2027C1736.47 2009.8 1730.47 1988.1 1730.07 1968.2C1729.07 1919.6 1767.97 1873.4 1815.97 1866.1C1815.47 1857.5 1806.67 1851.1 1798.07 1850.7C1789.47 1850.3 1781.27 1854.3 1773.97 1858.9C1742.67 1878.6 1719.97 1911.2 1712.27 1947.3C1716.97 1892.4 1750.07 1840.8 1797.87 1813.6C1793.17 1806.6 1788.57 1799.6 1783.87 1792.7C1718.67 1834.3 1680.37 1914.6 1689.07 1991.4C1674.27 1927.4 1688.67 1857.4 1727.37 1804.3C1711.57 1795.2 1690.27 1804.2 1679.97 1819.2C1669.67 1834.2 1667.67 1853.3 1666.77 1871.5C1664.87 1910.7 1666.77 1950.1 1672.47 1989C1665.17 1957.4 1657.77 1925.5 1642.47 1897C1627.17 1868.5 1602.57 1843.4 1571.37 1834.7C1565.97 1846.4 1560.57 1858.1 1555.17 1869.8C1561.97 1863.5 1572.87 1863.2 1581.37 1867C1589.87 1870.7 1596.57 1877.7 1602.57 1884.9C1628.87 1916.2 1647.47 1953.9 1656.37 1993.8C1637.87 1946.2 1587.37 1913.1 1536.47 1915.2C1536.27 1925.2 1536.17 1935.2 1535.97 1945.2C1536.07 1939.3 1590.37 1956.1 1594.97 1958.4C1613.57 1967.5 1630.07 1981 1642.67 1997.5C1652.37 2010.3 1657.17 2027.9 1671.17 2036.7C1689.17 2047.9 1714.47 2047 1726.27 2027Z" fill="#D13355"/>
<path d="M251.372 1611C258.472 1604.9 266.172 1595.3 261.272 1587.3C257.472 1581.2 248.772 1580.9 241.672 1582C207.472 1587.6 176.872 1611.7 163.372 1643.7C149.872 1675.7 154.072 1714.4 173.972 1742.8C193.872 1771.2 228.872 1788.3 263.472 1786.5C270.972 1786.1 278.972 1784.7 284.472 1779.5C289.972 1774.3 291.272 1764.3 285.372 1759.5C278.172 1753.6 264.572 1758.2 260.072 1750C256.872 1744.2 261.872 1737 267.972 1734.2C273.972 1731.5 280.972 1731.3 286.972 1728.7C292.972 1726.1 298.272 1719.1 295.472 1713.1C292.972 1708 286.072 1706.9 280.372 1707.9C274.372 1709 261.572 1714.4 255.972 1711.2C253.372 1709.8 251.872 1706.7 252.372 1703.8C253.172 1698.4 259.372 1695.7 264.872 1695.2C277.972 1694.2 293.572 1692.3 295.472 1675.7C296.472 1667.3 289.572 1658.2 281.172 1658.7C275.672 1659.1 271.272 1663 267.172 1666.6C263.072 1670.2 258.272 1673.9 252.772 1673.6C247.272 1673.3 242.372 1666.6 245.772 1662.3C254.872 1660.8 264.572 1659 271.272 1652.6C277.972 1646.2 279.272 1633.5 271.572 1628.5C262.372 1622.5 251.972 1633.5 243.972 1629.3C233.272 1623.7 246.772 1615 251.372 1611Z" fill="#FFD7CC"/>
<path d="M106.672 5239.5C86.7717 5204.4 86.1717 5154.9 116.172 5127.9C137.772 5108.5 171.772 5105.5 197.672 5118.6C223.572 5131.7 240.972 5159.2 244.272 5188.1C247.572 5217 237.472 5246.6 219.472 5269.3C214.572 5275.5 209.072 5281.3 205.972 5288.5C202.872 5295.7 202.772 5305 208.272 5310.6C215.372 5318 227.772 5316 236.772 5311.2C256.872 5300.5 269.572 5280.1 283.072 5261.7C296.572 5243.3 313.972 5225 336.572 5222.3C361.172 5219.3 384.772 5236.7 396.172 5258.7C415.772 5296.8 401.472 5348.7 365.272 5371.4C328.972 5394.1 276.072 5384.3 250.372 5350.2C246.972 5345.7 243.872 5340.7 238.872 5338C233.872 5335.3 226.372 5336.2 224.272 5341.5C222.772 5345.1 224.372 5349.1 225.772 5352.7C240.672 5391.1 241.972 5436.8 220.072 5471.7C198.172 5506.6 149.672 5525.4 113.172 5506.4C74.8717 5486.5 63.5717 5432 83.2717 5393.6C92.3717 5376 106.572 5361.6 123.172 5350.9C131.872 5345.4 141.172 5340.9 150.772 5337.3C157.172 5334.9 175.372 5333.7 179.572 5328.8C192.972 5313.5 158.572 5296.2 149.072 5288.1C132.472 5274.2 117.372 5258.4 106.672 5239.5Z" fill="#FFD7CC"/>
<path d="M265.172 546.8C258.672 530.1 244.772 514.5 248.172 496.9C250.772 483.7 262.572 474.2 267.272 461.6C277.272 434.9 252.872 406 257.372 377.8C260.272 359.5 274.472 345.5 285.472 330.6C296.472 315.7 304.472 294.7 294.272 279.2C304.872 280.8 310.972 293 310.272 303.7C309.572 314.4 303.972 324 299.372 333.7C285.872 362.3 280.572 394.6 284.072 426C285.872 441.9 289.672 459 281.972 473C275.772 484.4 262.272 492.9 262.372 506C262.472 518.1 274.172 526.3 281.972 535.5C300.072 556.9 296.872 593 275.172 610.8C290.972 617.2 306.072 597.7 306.072 580.7C306.072 563.7 298.172 547.2 299.472 530.3C302.072 495.4 341.972 470.5 340.472 435.5C339.972 424.1 334.972 412.8 337.072 401.6C339.172 390.4 354.672 381.3 361.772 390.2C354.072 419.9 346.372 449.6 338.672 479.3C332.072 504.8 325.472 530.4 323.672 556.7C322.572 573.1 323.372 590 318.572 605.7C311.972 627.2 276.672 656.8 259.972 625.8C248.272 604 275.872 574.2 265.172 546.8Z" fill="#8AAA9A"/>
<path d="M180.273 1110.1C172.573 1112.9 165.173 1121.7 169.673 1128.5C172.373 1132.6 177.973 1133.4 182.973 1133.8C204.873 1135.7 226.773 1137.6 248.673 1139.4C265.973 1140.9 283.373 1142.4 300.473 1139.7C317.573 1137.1 334.673 1130 345.873 1116.8C347.673 1114.7 349.473 1112.2 349.473 1109.4C349.573 1104.8 344.973 1101.2 340.373 1100.6C335.773 1100 331.273 1101.5 326.773 1102.8C308.773 1107.9 289.673 1108.6 271.373 1104.8C259.373 1102.3 247.673 1098 235.573 1095.8C212.773 1091.6 200.273 1102.7 180.273 1110.1Z" fill="#D8BF8B"/>
<path d="M1782.47 493.4C1774.37 493.2 1764.77 494.3 1759.67 488C1755.77 483.3 1756.27 476.4 1754.17 470.6C1749.67 457.8 1734.37 453.3 1723.37 445.3C1701.57 429.5 1697.47 394.3 1714.97 373.9C1718.37 383.2 1715.37 393.5 1713.67 403.2C1711.97 412.9 1712.37 424.6 1720.07 430.8C1728.97 437.9 1742.77 434.2 1752.37 440.3C1766.47 449.3 1764.37 474.8 1780.07 480.5C1786.17 482.7 1792.87 481 1799.37 481.5C1805.77 482 1813.17 486.9 1811.77 493.3C1818.87 491.7 1818.97 480.8 1814.07 475.4C1809.27 469.9 1801.87 467.3 1796.97 461.8C1793.27 457.7 1791.37 452.3 1789.57 447C1784.27 431.7 1779.07 416.4 1773.77 401.1C1771.97 395.9 1770.17 390.1 1772.17 385C1774.17 379.8 1781.77 376.8 1785.27 381.1C1787.97 384.3 1786.57 389.1 1786.37 393.3C1786.07 399.8 1788.87 406 1791.87 411.8C1799.07 425.9 1807.37 439.6 1816.57 452.5C1822.47 460.8 1828.97 469.1 1832.17 478.8C1835.37 488.5 1834.57 500.3 1827.27 507.5C1809.27 525.6 1799.07 493.8 1782.47 493.4Z" fill="#909AB2"/>
<path d="M1414.07 858.3C1414.17 862.8 1415.17 867.8 1418.97 870.2C1420.87 871.4 1423.17 871.8 1425.37 872.1C1456.37 876.5 1487.77 878.7 1519.07 878.7C1525.47 878.7 1531.97 878.6 1538.07 876.6C1544.17 874.6 1549.77 870.4 1552.07 864.4C1555.37 855.6 1550.17 845.5 1542.67 840.1C1535.07 834.6 1525.57 832.7 1516.37 830.9C1507.17 829.1 1497.67 827.2 1490.17 821.7C1478.97 813.5 1473.37 798.3 1460.77 792.6C1451.97 788.6 1440.77 790.5 1433.77 797.1C1425.57 804.9 1427.97 814.3 1424.97 823.8C1420.77 836.3 1413.67 844 1414.07 858.3Z" fill="#D8BF8B"/>
<path d="M513.971 3747.1L517.571 3721L347.271 3701.8L277.371 3805.7L184.071 3774.5L339.071 3635.3L443.771 3637.1L470.771 3585.3L579.371 3617.1L587.171 3591.9L483.271 3561.5L514.171 3502.1L491.671 3490.4L428.971 3610.6L346.171 3609.2L333.171 3489.8L471.371 3420.1L461.171 3373.6L586.171 3352.6L582.871 3326.7L455.471 3348.1L439.071 3273.4L414.071 3279.9L441.871 3406.2L330.171 3462.5L327.171 3435L268.871 3347.2L247.571 3362.4L302.371 3445L308.971 3505.1L144.671 3399.1L189.471 3292.3L166.071 3282.7L121.671 3388.3L9.27148 3351.9L0.771484 3376.9L122.871 3416.5L222.571 3480.8L177.871 3508.3L190.571 3530.6L246.471 3496.3L312.671 3539L321.271 3617.1L206.871 3719.7L159.571 3603.9L134.771 3503.3L109.971 3510.5L130.771 3594.8L41.3715 3592L39.6715 3618.2L138.671 3621.3L186.371 3738.1L110.571 3806.1L127.071 3825.6L161.471 3794.8L287.071 3836.8L352.171 3740L411.771 3842.5L433.871 3828.6L377.571 3731.7L513.971 3747.1Z" fill="#FF863A"/>
<path d="M1085.67 1279C1088.07 1287 1085.27 1296 1080.37 1301.8C1075.47 1307.7 1068.97 1311 1062.47 1314.1C1014.07 1337.2 962.371 1351.6 909.671 1356.5C888.771 1358.5 865.571 1358 849.171 1341.6C838.371 1330.8 832.371 1314.5 830.571 1298.2C828.771 1281.9 830.771 1265.6 833.871 1249.8C843.171 1201.6 862.171 1156.6 888.671 1119.4C892.571 1113.9 896.871 1108.4 902.571 1105.8C908.271 1103.2 915.671 1104.1 919.671 1110C925.171 1118.1 921.471 1129.7 917.571 1138.5C904.571 1168 891.571 1197.5 878.571 1227.1C887.971 1205.7 905.571 1185.3 919.171 1167.6C934.071 1148.2 951.371 1110.5 975.871 1106.4C1001.57 1102.1 983.971 1143.1 978.171 1155C969.371 1172.9 958.071 1188.9 946.871 1204.7C935.671 1220.6 924.471 1236.6 913.271 1252.5C942.871 1217.4 972.471 1182.3 1002.07 1147.2C1009.97 1137.9 1018.27 1128.2 1028.97 1124.3C1039.67 1120.4 1053.67 1124.1 1059.27 1136.2C1063.47 1145.3 1061.87 1156.7 1057.47 1165.1C1053.07 1173.6 1046.27 1179.8 1039.57 1185.8C1007.07 1215.1 974.571 1244.4 942.071 1273.8C964.571 1277.4 985.771 1264.2 1003.87 1249.4C1021.97 1234.6 1039.67 1217.4 1061.37 1211.3C1067.57 1209.6 1074.17 1208.9 1080.27 1211.4C1086.37 1213.9 1091.87 1220.3 1092.47 1227.9C1093.57 1240.6 1082.17 1248.4 1072.37 1253.1C1040.87 1268.4 1009.27 1283.7 977.771 1298.9C968.271 1303.5 956.771 1305.8 948.571 1313.4C938.971 1322.2 942.471 1332.5 955.671 1334C966.471 1335.1 1085.57 1278.7 1085.67 1279Z" fill="#ACB8DE"/>
<path d="M411.373 4424.1C421.873 4407.9 437.373 4395.6 448.573 4380C459.773 4364.4 465.973 4342.2 455.273 4326.1C441.773 4305.7 408.873 4308.4 390.973 4325C373.073 4341.6 366.373 4366.7 360.573 4390.4C353.973 4416.8 347.473 4443.2 340.873 4469.6C335.573 4490.8 330.373 4513 335.173 4534.3C341.973 4564.4 367.573 4586.7 394.773 4601.2C477.673 4645.5 588.073 4630.9 656.773 4566.7C664.073 4559.9 670.973 4552.4 674.573 4543.1C678.073 4533.8 677.573 4522.4 670.873 4515C640.873 4482 591.873 4544.8 569.673 4559.1C560.173 4565.2 550.173 4571 538.973 4572.8C527.873 4574.7 515.373 4572 507.973 4563.5C498.173 4552.3 500.173 4534.4 508.473 4522.1C519.873 4505.1 543.773 4491 561.373 4480.7C570.973 4475.1 581.273 4470.9 590.073 4464.1C598.773 4457.3 605.973 4447.2 605.373 4436.1C604.673 4422.7 592.573 4411.9 579.473 4408.7C566.373 4405.5 552.673 4408.2 539.573 4411.6C505.373 4420.5 472.373 4434 441.773 4451.6C432.773 4456.8 412.273 4476.2 403.473 4466.6C394.873 4457.2 405.973 4432.3 411.373 4424.1Z" fill="#008753"/>
<path d="M143.328 5656.13C125.12 5654.3 106.609 5656.25 88.6136 5659.17C64.6844 5663.15 39.7106 5669.59 22.6429 5686.87C17.376 5692.3 12.8181 5698.93 12.0815 5706.54C11.1425 5716.68 17.1084 5726.36 25.2237 5732.48C31.4959 5737.26 42.0472 5741.54 44.3212 5750.2C46.9473 5760.29 34.7913 5771.82 33.2677 5782.38C31.247 5796.5 38.9082 5813.05 52.7705 5815.69C59.9931 5817.07 67.2278 5814.6 74.4893 5813.91C81.7187 5813.09 90.2372 5814.7 93.7496 5821.13C97.6479 5828.56 92.5321 5837.4 92.5384 5845.79C92.5362 5856.94 102.132 5866.27 112.883 5869.12C123.633 5871.97 135.082 5869.29 145.368 5865.24C169.671 5855.52 190.242 5837.37 203.728 5815.06C217.214 5792.74 223.777 5766.34 223.243 5740.19C222.826 5717.86 216.256 5694.02 199.94 5678.09C186.014 5664.6 162.248 5658.07 143.328 5656.13Z" fill="#E2F1DD"/>
</svg>
