<svg width="2041" height="5950" viewBox="0 0 2041 5950" fill="none" xmlns="http://www.w3.org/2000/svg">
<path d="M1286.17 4933C1289.47 4942.3 1286.67 4953.1 1281.37 4960.3C1275.97 4967.5 1268.47 4971.9 1260.97 4975.9C1205.27 5006.2 1145.17 5026.3 1083.37 5035.4C1058.87 5039 1031.37 5040 1010.97 5021.6C997.571 5009.5 989.471 4990.6 986.271 4971.5C983.171 4952.4 984.571 4933 987.171 4914.2C995.171 4856.8 1014.77 4802.5 1043.77 4756.9C1048.07 4750.2 1052.77 4743.5 1059.27 4740C1065.77 4736.5 1074.67 4737.2 1079.77 4743.9C1086.77 4753.1 1083.17 4767 1079.07 4777.7C1065.57 4813.3 1052.07 4849 1038.47 4884.6C1048.27 4858.8 1067.67 4833.6 1082.67 4811.8C1099.07 4787.9 1117.07 4742.4 1145.77 4736.1C1175.77 4729.5 1157.67 4778.9 1151.57 4793.3C1142.27 4815 1129.87 4834.5 1117.77 4853.9C1105.57 4873.4 1093.37 4892.9 1081.17 4912.4C1113.87 4869.1 1146.67 4825.9 1179.37 4782.6C1188.07 4771.1 1197.27 4759.2 1209.67 4753.9C1222.07 4748.6 1238.77 4752.1 1246.17 4766.1C1251.67 4776.6 1250.57 4790.1 1245.87 4800.4C1241.17 4810.7 1233.57 4818.4 1226.07 4825.9C1189.57 4862.5 1152.97 4899.1 1116.47 4935.8C1143.17 4938.7 1167.37 4921.8 1187.97 4903.2C1208.47 4884.6 1228.27 4863.2 1253.47 4854.7C1260.67 4852.3 1268.37 4851 1275.77 4853.6C1283.17 4856.2 1289.97 4863.4 1291.27 4872.3C1293.37 4887.2 1280.37 4897.1 1269.17 4903.3C1232.87 4923.3 1196.67 4943.3 1160.37 4963.2C1149.47 4969.2 1135.97 4972.7 1126.77 4982.1C1116.07 4993.1 1120.77 5005 1136.47 5005.9C1148.97 5006.6 1285.97 4932.6 1286.17 4933Z" fill="#E2F1DD"/>
<path d="M614.172 5910.3C627.572 5911.7 639.472 5900.8 645.772 5890C652.372 5878.5 655.372 5865.3 660.872 5853.2C672.872 5826.6 697.672 5806.1 725.972 5799.3C748.272 5793.9 772.172 5796.6 793.972 5789.4C815.772 5782.2 835.472 5758.4 825.972 5737.5C819.172 5722.5 799.972 5716.5 783.872 5719.6C767.772 5722.7 753.872 5732.7 740.572 5742.4C753.372 5714.1 766.272 5685.8 779.072 5657.5C796.272 5645.6 808.672 5642.8 825.972 5630.9C838.972 5621.9 852.372 5612.6 860.572 5599.2C868.872 5585.8 870.672 5567 860.572 5554.9C822.372 5508.9 785.472 5595.6 778.072 5621.9C781.372 5609 781.872 5595.4 779.372 5582.3C778.072 5575.7 776.072 5569 771.972 5563.7C761.272 5549.6 738.872 5555.5 728.972 5568.1C719.072 5580.7 720.272 5598.4 721.972 5614.3C724.772 5641.1 727.572 5667.9 730.372 5694.7C727.772 5696.2 724.972 5696.1 722.372 5697.6C715.072 5673 707.672 5648.4 700.372 5623.8C697.072 5612.6 690.572 5599 678.872 5599.7C669.172 5600.2 663.072 5611.6 664.172 5621.3C665.272 5631 671.072 5639.4 675.972 5647.9C679.872 5654.7 682.672 5661.1 687.272 5667.4C691.972 5673.7 695.472 5680.8 697.772 5688.3C702.472 5703.2 702.672 5719.4 699.672 5734.7C694.572 5760.7 681.172 5784.1 668.172 5807.2C658.272 5824.7 649.372 5842.8 640.572 5860.9C632.672 5876.6 626.172 5897.5 614.172 5910.3Z" fill="#00B590"/>
<path d="M56.9209 4910.73C70.3939 4910.74 81.1095 4898.68 86.2651 4887.28C91.647 4875.17 93.2732 4861.73 97.4993 4849.13C106.699 4821.43 129.259 4798.49 156.709 4788.82C178.335 4781.15 202.386 4781.38 223.33 4771.97C244.274 4762.57 261.421 4736.87 249.821 4717.06C241.514 4702.84 221.799 4698.84 206.103 4703.58C190.407 4708.32 177.61 4719.7 165.378 4730.72C175.199 4701.25 185.119 4671.77 194.94 4642.31C210.825 4628.7 222.871 4624.64 238.855 4611.02C250.86 4600.73 263.232 4590.1 270.01 4575.93C276.888 4561.75 276.744 4542.86 265.453 4531.87C222.724 4490.04 194.938 4580.08 190.283 4607C192.239 4593.83 191.337 4580.25 187.503 4567.47C185.531 4561.04 182.852 4554.58 178.229 4549.73C166.135 4536.81 144.461 4544.98 135.909 4558.53C127.358 4572.09 130.372 4589.57 133.699 4605.21C139.241 4631.58 144.783 4657.95 150.325 4684.32C147.893 4686.08 145.098 4686.27 142.666 4688.03C132.874 4664.31 122.983 4640.6 113.191 4616.88C108.756 4606.08 100.892 4593.22 89.3258 4595.12C79.7287 4596.62 74.8338 4608.58 76.9258 4618.12C79.0178 4627.65 85.6512 4635.41 91.3996 4643.36C95.9785 4649.72 99.422 4655.8 104.646 4661.6C109.969 4667.38 114.181 4674.08 117.24 4681.31C123.448 4695.64 125.313 4711.74 123.903 4727.26C121.505 4753.65 110.583 4778.3 100.028 4802.62C91.9812 4821.05 84.9904 4839.96 78.0991 4858.87C71.8561 4875.3 67.5405 4896.76 56.9209 4910.73Z" fill="#00B590"/>
<path d="M737.172 5473.5C702.272 5488.6 663.072 5493.5 625.472 5487.4C615.272 5485.8 604.972 5483.2 596.472 5477.4C587.972 5471.5 581.672 5461.7 582.272 5451.4C583.172 5438.1 595.372 5427.9 608.172 5424C620.972 5420.1 634.672 5420.8 647.972 5419.6C691.772 5415.4 732.572 5387.7 752.672 5348.5C772.672 5309.3 771.372 5260 749.072 5222C743.572 5212.6 736.172 5203.4 725.672 5200.6C715.972 5198 705.272 5201.6 697.472 5207.9C689.572 5214.2 683.972 5222.9 678.872 5231.6C641.772 5294.9 622.372 5370.8 568.572 5420.7C561.372 5427.4 552.472 5433.9 542.672 5433.1C528.672 5431.9 520.172 5416.4 519.172 5402.4C515.872 5355 565.572 5320.4 576.272 5274C580.872 5254.2 577.772 5232.8 567.772 5215.1C562.372 5205.5 553.572 5196.3 542.472 5196.1C535.772 5196 529.472 5199.3 523.872 5203C499.572 5219.3 482.672 5246.3 478.772 5275.3C472.872 5319.5 495.572 5362.4 500.272 5406.7C501.772 5420.8 499.872 5437.9 487.372 5444.6C475.172 5451.1 459.572 5443.5 451.372 5432.3C437.972 5414.2 437.872 5389.8 438.272 5367.3C439.072 5324.1 439.872 5281 440.672 5237.8C441.072 5218.1 408.672 5211.1 389.972 5217.2C371.272 5223.3 358.572 5242.1 355.672 5261.6C352.772 5281.1 358.372 5301 366.972 5318.7C375.572 5336.4 386.972 5352.6 396.972 5369.5C412.172 5395.3 423.872 5423.1 431.772 5452C437.172 5471.6 438.672 5496.9 421.672 5508C412.672 5513.8 400.772 5513.5 391.072 5509.1C381.372 5504.7 373.772 5496.6 367.772 5487.8C354.772 5468.5 349.072 5444.4 351.872 5421.3C353.672 5406.4 358.872 5392.2 361.072 5377.4C363.272 5362.6 361.972 5346.2 352.472 5334.7C337.672 5316.9 307.172 5318.7 290.872 5335.1C274.572 5351.5 271.572 5377.9 278.372 5400C285.172 5422.1 300.372 5440.6 316.872 5456.9C333.372 5473.2 351.472 5487.8 366.272 5505.6C373.172 5513.9 379.472 5523.2 381.872 5533.7C384.272 5544.2 382.172 5556.4 374.272 5563.8C366.472 5571.1 354.272 5572.5 344.172 5569.1C334.072 5565.6 325.772 5557.9 319.572 5549.2C307.572 5532.3 302.472 5511.5 295.772 5491.9C289.072 5472.2 279.572 5452.2 262.172 5440.8C244.772 5429.5 217.572 5431.2 207.072 5449.2C197.072 5466.4 206.872 5489.3 222.172 5502.1C237.772 5515.1 257.672 5521.6 274.872 5532C292.672 5542.8 310.072 5554.8 325.972 5568.3C331.672 5573.2 337.772 5579.5 336.772 5587C335.572 5596.4 323.272 5600.7 314.272 5597.7C305.272 5594.7 298.772 5587.1 291.872 5580.5C262.272 5552.1 218.972 5538.7 178.572 5545.5C154.672 5549.5 130.372 5561.8 120.172 5583.7C109.872 5605.6 120.372 5637.2 143.972 5642.3C156.172 5645 168.972 5640.4 179.572 5633.7C190.172 5627 199.272 5618.3 209.672 5611.2C228.972 5598 252.272 5590.9 275.672 5591.2C288.472 5591.3 304.372 5596.6 305.572 5609.4C306.772 5621.8 293.372 5630 282.072 5635.3C256.572 5647.2 231.372 5660.9 210.872 5680.2C190.372 5699.5 174.772 5725.2 172.172 5753.3C170.872 5767.9 173.572 5783.7 183.472 5794.4C201.372 5813.7 235.372 5807.8 253.972 5789.1C272.572 5770.4 279.572 5743.5 285.772 5717.9C291.972 5692.3 298.572 5665.4 316.672 5646.2C339.372 5622.1 345.572 5659 346.672 5675C348.472 5701.5 346.072 5728.1 347.372 5754.6C348.872 5785.6 356.372 5814.7 383.872 5832.9C415.972 5854.1 458.272 5851.2 466.772 5807.8C471.072 5785.9 457.472 5764.2 440.972 5749.2C424.472 5734.2 404.572 5723 389.572 5706.4C369.472 5684 360.172 5652.3 364.972 5622.5C366.372 5614.2 368.972 5605.6 375.072 5599.8C388.372 5587.2 412.072 5594.4 422.672 5609.4C433.272 5624.4 434.472 5643.9 435.272 5662.2C436.172 5682.8 447.772 5698.9 458.872 5716.3C466.072 5727.6 475.272 5738.2 487.472 5743.6C499.672 5749.1 515.372 5748.2 524.872 5738.9C532.972 5730.9 535.172 5718.3 532.772 5707.2C530.372 5696.1 523.872 5686.3 516.572 5677.5C493.872 5650.2 461.872 5629.9 447.072 5597.7C442.572 5587.9 439.772 5576.8 442.072 5566.3C444.372 5555.8 452.772 5546.1 463.472 5544.8C471.972 5543.8 480.372 5548 486.372 5554C492.372 5560 496.372 5567.7 500.272 5575.3C509.372 5593.3 517.972 5611.4 526.272 5629.8C537.072 5653.9 566.972 5665.4 592.272 5673.1C604.772 5676.9 618.072 5679.3 631.072 5677.7C644.072 5676.1 656.972 5670.1 664.872 5659.7C672.872 5649.3 675.172 5634.2 668.772 5622.7C664.072 5614.4 655.572 5608.8 646.672 5605.4C637.772 5602 628.172 5600.6 618.872 5598.5C599.072 5594 579.672 5586.3 564.072 5573.4C548.372 5560.5 536.772 5542 534.872 5521.8C533.772 5510.5 537.372 5496.9 548.072 5492.9C559.272 5488.7 570.772 5497.4 579.672 5505.4C596.972 5521.1 614.272 5536.8 631.572 5552.5C643.372 5563.3 657.172 5570.2 673.172 5570.6C700.072 5571.3 727.072 5567.3 752.572 5558.8C766.172 5554.3 780.072 5547.9 788.272 5536.2C798.172 5522.1 797.272 5501.4 786.272 5488.2C775.272 5475 752.972 5466.7 737.172 5473.5Z" fill="#009158"/>
<path d="M1688.27 892.1C1683.97 881.1 1674.77 870.7 1677.07 859.1C1678.77 850.4 1686.57 844.1 1689.67 835.8C1696.27 818.1 1680.17 799.1 1683.07 780.4C1684.97 768.3 1694.37 759.1 1701.67 749.2C1708.97 739.3 1714.27 725.5 1707.47 715.2C1714.47 716.3 1718.57 724.3 1718.07 731.4C1717.57 738.5 1713.87 744.8 1710.87 751.3C1701.97 770.2 1698.47 791.6 1700.77 812.3C1701.97 822.8 1704.47 834.1 1699.37 843.4C1695.27 851 1686.37 856.6 1686.47 865.2C1686.47 873.2 1694.27 878.6 1699.47 884.7C1711.47 898.9 1709.27 922.7 1694.97 934.5C1705.37 938.7 1715.37 925.8 1715.47 914.6C1715.57 903.4 1710.27 892.5 1711.07 881.3C1712.77 858.2 1739.17 841.7 1738.17 818.6C1737.87 811.1 1734.57 803.6 1735.97 796.2C1737.37 788.8 1747.57 782.8 1752.27 788.7C1747.17 808.3 1742.07 828 1736.97 847.6C1732.57 864.4 1728.27 881.4 1727.07 898.8C1726.37 909.7 1726.87 920.8 1723.67 931.2C1719.37 945.4 1695.97 964.9 1684.87 944.5C1677.07 930 1695.27 910.2 1688.27 892.1Z" fill="#8AAA9A"/>
<path d="M333.073 4662.3C280.973 4732 292.173 4827.7 330.873 4900.5C334.673 4907.6 339.073 4914.9 346.173 4918.8C353.273 4922.7 363.673 4921.6 367.473 4914.5C370.073 4909.6 368.873 4903.6 367.673 4898.2C361.173 4869.7 353.273 4841.2 347.173 4812.8C343.473 4795.9 342.673 4778.5 341.673 4761.3C340.773 4746.4 338.373 4731.6 339.873 4716.8C343.073 4686.7 347.873 4660.4 371.473 4638.8C377.273 4633.5 385.773 4628.7 392.773 4632.5C399.273 4636.1 400.173 4645.4 397.373 4652.2C394.573 4659 389.073 4664.4 384.973 4670.5C380.073 4677.9 380.173 4685.2 379.873 4693.7C375.573 4795.6 398.273 4897.5 448.573 4986.5C453.673 4995.5 461.073 5005.6 471.473 5005.2C480.473 5004.8 487.273 4995.9 488.473 4987C489.673 4978 486.673 4969.1 483.773 4960.6C462.873 4899.5 441.973 4838.5 420.973 4777.4C412.073 4751.5 405.573 4723.5 405.473 4696.1C405.473 4691.8 405.773 4687.4 407.573 4683.5C409.273 4679.6 412.573 4676.1 416.773 4675.1C422.973 4673.6 429.473 4677.9 432.573 4683.6C435.673 4689.3 436.073 4695.9 436.473 4702.3C437.773 4724.3 447.373 4744.1 454.873 4764.8C462.873 4786.7 470.773 4808.6 478.773 4830.5C489.373 4859.6 500.373 4889.5 520.573 4913C534.373 4929.1 554.673 4943.6 576.073 4946.7C597.273 4949.7 594.973 4932.8 587.273 4919.1C580.073 4906.4 572.973 4893.8 565.773 4881.1C550.973 4855 536.173 4828.8 521.373 4802.7C509.873 4782.3 498.673 4761.6 486.773 4741.4C475.973 4723.1 460.473 4706.4 447.373 4689.6C444.273 4685.6 441.073 4681.6 439.573 4676.8C438.073 4672 438.273 4666.3 441.573 4662.5C445.273 4658.2 451.973 4657.4 457.373 4659.3C462.773 4661.2 467.173 4665 471.373 4668.9C488.273 4684.7 503.673 4702 517.373 4720.6C524.173 4729.9 530.573 4739.5 536.573 4749.4C541.773 4758.1 549.273 4764.7 556.373 4772C589.273 4805.3 622.273 4838.7 655.173 4872C661.773 4878.6 669.973 4885.8 679.073 4884.1C687.373 4882.5 692.673 4873.6 692.973 4865.1C693.273 4856.6 689.673 4848.5 686.073 4840.9C664.473 4796 636.273 4754.3 602.973 4717.2C586.373 4698.7 567.773 4682.7 549.873 4665.7C533.673 4650.2 507.873 4641.5 487.773 4631.3C481.273 4628 473.873 4623.1 474.373 4615.9C474.873 4608.4 483.673 4604.5 491.173 4603.7C514.973 4601.2 528.273 4613.3 545.373 4626.7C555.373 4634.6 567.673 4640.2 578.073 4647.8C588.073 4655.2 597.773 4663 607.273 4671C644.673 4702.2 682.073 4733.3 719.573 4764.5C732.073 4774.9 752.173 4785 762.673 4772.6C769.973 4764 766.073 4750.8 761.273 4740.6C741.073 4697.3 709.973 4659.3 672.473 4629.8C653.473 4614.9 632.773 4602.1 610.973 4591.9C600.273 4586.9 589.273 4582.5 578.073 4578.7C568.373 4575.5 559.873 4570.1 549.373 4573.4C542.773 4575.5 536.573 4579.2 529.673 4580.2C522.773 4581.2 514.473 4578.4 512.573 4571.7C511.273 4567 513.673 4561.8 517.473 4558.6C521.273 4555.4 526.073 4553.9 530.873 4552.8C576.673 4542.4 624.573 4566.1 659.673 4593.6C683.073 4612 704.573 4633.1 730.473 4647.7C733.573 4649.5 737.473 4651.1 740.573 4649.5C743.373 4648 744.373 4644.2 743.673 4641.1C742.973 4638 740.973 4635.3 738.973 4632.8C714.773 4601.5 694.873 4569.2 662.273 4545.6C633.473 4524.6 598.473 4510.4 562.773 4512.2C512.473 4514.7 498.673 4550.1 462.673 4574.5C417.373 4605 367.773 4615.8 333.073 4662.3Z" fill="#FFD7CC"/>
<path d="M727.272 2642.9C736.172 2644.3 744.872 2643.8 750.372 2653.9C754.872 2662.1 754.772 2671.9 755.072 2681.3C755.372 2690.6 756.572 2700.7 762.672 2707.7C771.672 2717.9 790.172 2720.6 792.272 2734.1C793.272 2740.5 789.572 2747 790.672 2753.4C792.572 2765.5 807.872 2768.8 818.272 2775.3C831.772 2783.7 838.072 2799.7 845.972 2813.5C853.872 2827.3 866.972 2841.1 882.772 2839.4C898.372 2837.8 908.972 2819.5 904.872 2804.4C900.772 2789.2 885.072 2778.9 869.372 2778.5C861.972 2778.3 861.772 2768.4 863.772 2761.3C865.772 2754.2 870.672 2747.5 869.772 2740.1C868.572 2730.2 857.772 2724.7 848.072 2722.2C838.372 2719.7 827.472 2718 821.472 2710C812.272 2697.7 820.572 2678.4 812.072 2665.5C805.272 2655.4 790.972 2653.7 781.872 2645.6C768.772 2633.9 769.472 2613.7 758.872 2600.4C748.572 2587.5 729.572 2587.3 721.772 2570.5C718.172 2562.8 717.972 2554.1 715.072 2546.2C711.072 2535.4 701.972 2526.7 691.072 2523.2C676.772 2518.6 659.172 2523.7 649.072 2534.8C642.072 2542.5 643.772 2555.1 649.872 2563.5C662.772 2581.2 690.572 2574.6 696.372 2599.5C697.672 2605.1 697.372 2610.9 698.472 2616.5C700.672 2627.6 709.272 2636.9 719.772 2640.9C722.272 2641.9 724.772 2642.5 727.272 2642.9Z" fill="#FFDF00"/>
<path d="M494.273 665.1C486.573 667.9 479.173 676.7 483.673 683.5C486.373 687.6 491.973 688.4 496.973 688.8C518.873 690.7 540.773 692.6 562.673 694.4C579.973 695.9 597.373 697.4 614.473 694.7C631.573 692 648.673 685 659.873 671.8C661.673 669.7 663.473 667.2 663.473 664.4C663.573 659.8 658.973 656.2 654.373 655.6C649.773 655 645.273 656.5 640.773 657.8C622.773 662.9 603.673 663.6 585.373 659.8C573.373 657.3 561.673 653 549.573 650.8C526.773 646.6 514.273 657.7 494.273 665.1Z" fill="#767777"/>
<path d="M543.672 1607C559.472 1585.7 554.572 1556.3 556.772 1529.9C562.072 1465.7 619.672 1410 684.072 1406.9C684.572 1395.5 673.772 1385.9 662.472 1384.1C651.172 1382.3 639.772 1386.5 629.472 1391.6C585.572 1413.3 550.972 1453.3 535.872 1499.9C549.572 1428.1 600.272 1364.5 667.172 1335.1C661.972 1325.3 656.772 1315.4 651.572 1305.6C559.772 1351.6 498.272 1452.3 499.272 1554.9C488.572 1468.5 517.072 1377.9 575.372 1313.2C555.772 1299.1 526.372 1308 510.772 1326.4C495.072 1344.8 489.872 1369.7 486.272 1393.6C478.472 1445.1 475.572 1497.4 477.672 1549.5C472.372 1506.9 466.972 1463.6 450.672 1423.9C434.272 1384.2 405.372 1347.7 365.372 1331.9C356.672 1346.6 347.872 1361.3 339.172 1376C349.072 1368.6 363.472 1369.7 374.172 1375.8C384.972 1381.9 392.672 1392 399.672 1402.3C430.072 1447.2 449.472 1499.5 455.872 1553.3C437.972 1488 375.872 1437.4 308.272 1433.1C306.672 1446.3 305.072 1459.5 303.572 1472.7C304.472 1464.9 373.972 1494.6 379.572 1498.1C402.872 1512.7 422.772 1532.7 437.172 1556.2C448.272 1574.4 452.172 1598.3 469.472 1611.8C491.872 1629.4 525.372 1631.7 543.672 1607Z" fill="#8BCBCA"/>
<path d="M1912.77 2209.4C1921.07 2208.1 1929.57 2212.1 1934.67 2217.7C1939.87 2223.3 1942.27 2230.3 1944.47 2237.1C1960.97 2288.2 1968.37 2341.3 1966.27 2394.1C1965.47 2415 1961.97 2438 1943.47 2452.1C1931.37 2461.4 1914.37 2465.2 1897.97 2464.8C1881.57 2464.4 1865.67 2460.2 1850.47 2455.1C1803.97 2439.5 1761.87 2414.7 1728.47 2383.5C1723.57 2378.9 1718.67 2373.9 1716.77 2368C1714.87 2362.1 1716.87 2354.8 1723.17 2351.6C1731.97 2347.2 1742.87 2352.4 1751.17 2357.4C1778.67 2374.2 1806.27 2391 1833.77 2407.8C1813.87 2395.6 1795.87 2375.5 1780.17 2359.7C1762.87 2342.4 1727.77 2320.2 1727.07 2295.4C1726.27 2269.4 1764.57 2292.2 1775.57 2299.5C1792.17 2310.6 1806.47 2323.9 1820.67 2337.1C1834.97 2350.3 1849.27 2363.5 1863.67 2376.7C1832.77 2342.7 1801.97 2308.7 1771.07 2274.8C1762.87 2265.8 1754.37 2256.3 1751.87 2245.1C1749.37 2233.9 1754.97 2220.6 1767.67 2216.7C1777.27 2213.7 1788.27 2216.8 1796.07 2222.3C1803.87 2227.8 1809.17 2235.4 1814.17 2242.8C1838.97 2278.9 1863.67 2315 1888.47 2351.1C1895.07 2329.3 1884.77 2306.6 1872.47 2286.6C1860.17 2266.6 1845.47 2246.8 1842.37 2224.5C1841.47 2218.2 1841.67 2211.5 1844.97 2205.8C1848.27 2200.1 1855.27 2195.5 1862.87 2195.8C1875.57 2196.4 1881.87 2208.8 1885.17 2219C1896.17 2252.3 1907.07 2285.5 1918.07 2318.8C1921.37 2328.8 1922.17 2340.6 1928.57 2349.7C1936.07 2360.3 1946.67 2358.2 1949.87 2345.4C1952.57 2335 1912.37 2209.5 1912.77 2209.4Z" fill="#FFDF00"/>
<path d="M1653.37 5230.4C1713.07 5176.1 1719.67 5086.9 1697.17 5013.8C1694.97 5006.7 1692.27 4999.2 1686.47 4994.5C1680.67 4989.8 1671.07 4988.9 1666.27 4994.7C1662.97 4998.7 1663.07 5004.4 1663.27 5009.5C1664.27 5036.6 1666.37 5064 1666.97 5090.9C1667.37 5107 1665.07 5122.9 1662.97 5138.8C1661.17 5152.5 1660.77 5166.5 1656.77 5179.6C1648.57 5206.5 1639.57 5229.6 1614.27 5245.1C1607.97 5248.9 1599.47 5251.8 1593.77 5247.1C1588.47 5242.7 1589.27 5234 1593.07 5228.3C1596.87 5222.6 1602.77 5218.7 1607.67 5213.8C1613.47 5207.9 1614.57 5201.2 1616.37 5193.6C1638.17 5101.5 1635.37 5004.7 1605.17 4914.8C1602.07 4905.7 1597.17 4895.2 1587.57 4893.8C1579.27 4892.6 1571.47 4899.5 1568.87 4907.4C1566.27 4915.3 1567.37 4924 1568.47 4932.3C1576.77 4991.6 1585.17 5050.9 1593.47 5110.2C1596.97 5135.3 1598.07 5162 1593.27 5187C1592.57 5190.9 1591.47 5194.9 1589.17 5198.2C1586.87 5201.5 1583.37 5204.1 1579.37 5204.3C1573.37 5204.6 1568.27 5199.5 1566.47 5193.8C1564.67 5188.1 1565.47 5182 1566.27 5176C1568.97 5155.7 1563.67 5136 1560.47 5115.8C1557.07 5094.5 1553.67 5073.1 1550.17 5051.8C1545.57 5023.4 1540.77 4994.3 1526.57 4969.3C1516.87 4952.2 1500.87 4935.4 1481.87 4928.9C1463.07 4922.4 1462.17 4938.2 1466.87 4952C1471.17 4964.8 1475.47 4977.6 1479.77 4990.4C1488.67 5016.8 1497.57 5043.2 1506.37 5069.6C1513.27 5090.2 1519.77 5111 1527.07 5131.5C1533.67 5150.1 1544.87 5168 1553.87 5185.6C1555.97 5189.8 1558.17 5194 1558.77 5198.6C1559.37 5203.2 1558.07 5208.4 1554.47 5211.3C1550.27 5214.6 1544.07 5214.1 1539.47 5211.5C1534.87 5208.9 1531.47 5204.6 1528.37 5200.3C1515.77 5183 1504.77 5164.4 1495.57 5145.1C1490.97 5135.4 1486.87 5125.5 1483.17 5115.4C1479.97 5106.5 1474.37 5099.2 1469.07 5091.3C1444.97 5055.2 1420.77 5019 1396.67 4982.9C1391.87 4975.7 1385.67 4967.7 1376.97 4967.7C1369.07 4967.7 1362.67 4974.9 1360.97 4982.5C1359.27 4990.2 1361.07 4998.2 1363.07 5005.8C1374.87 5050.5 1393.17 5093.5 1417.07 5133.1C1428.97 5152.9 1443.07 5170.7 1456.47 5189.4C1468.57 5206.3 1490.47 5218.8 1506.97 5231.6C1512.27 5235.7 1518.17 5241.5 1516.47 5248C1514.67 5254.8 1505.97 5256.7 1499.07 5256.2C1476.87 5254.3 1466.97 5240.9 1453.77 5225.7C1446.07 5216.8 1435.77 5209.5 1427.67 5200.7C1419.87 5192.2 1412.47 5183.4 1405.07 5174.4C1376.47 5139.4 1347.87 5104.5 1319.17 5069.5C1309.57 5057.8 1293.07 5045.1 1281.27 5054.6C1273.07 5061.2 1274.37 5073.8 1276.87 5084C1287.67 5127 1309.27 5167.1 1338.37 5200.5C1353.07 5217.4 1369.67 5232.7 1387.77 5245.9C1396.67 5252.3 1405.87 5258.3 1415.37 5263.7C1423.67 5268.4 1430.47 5274.7 1440.57 5273.6C1446.97 5272.9 1453.27 5270.6 1459.67 5270.8C1466.17 5271.1 1473.17 5275.1 1473.77 5281.5C1474.17 5286 1471.07 5290.3 1467.07 5292.6C1463.07 5294.8 1458.37 5295.3 1453.87 5295.5C1410.37 5296.9 1370.87 5267 1343.67 5235.7C1325.57 5214.9 1309.67 5191.9 1288.67 5174C1286.17 5171.8 1282.97 5169.6 1279.77 5170.6C1276.97 5171.5 1275.37 5174.7 1275.47 5177.7C1275.57 5180.7 1276.97 5183.4 1278.27 5186.1C1294.87 5218.8 1307.27 5251.8 1332.77 5279C1355.37 5303.2 1384.77 5322.3 1417.57 5326.9C1463.87 5333.4 1482.57 5303.6 1519.67 5287.7C1566.47 5267.8 1613.57 5266.6 1653.37 5230.4Z" fill="#D13355"/>
<path d="M1875.87 4287.5C1892.17 4250.6 1931.57 4220.5 1971.07 4228.6C1999.57 4234.4 2022.27 4259.8 2027.17 4288.5C2032.17 4317.1 2020.47 4347.5 1999.27 4367.3C1978.07 4387.2 1948.27 4396.8 1919.27 4395.8C1911.37 4395.5 1903.47 4394.6 1895.77 4396.4C1888.17 4398.2 1880.67 4403.7 1879.37 4411.4C1877.67 4421.5 1886.67 4430.2 1895.87 4434.6C1916.47 4444.4 1940.37 4442.4 1963.17 4442.3C1985.97 4442.2 2011.07 4445.2 2026.77 4461.7C2043.87 4479.7 2043.97 4509 2033.07 4531.2C2014.17 4569.6 1964.07 4589.1 1924.17 4573.6C1884.27 4558.1 1860.57 4509.7 1872.67 4468.7C1874.27 4463.3 1876.37 4457.8 1875.57 4452.2C1874.77 4446.6 1869.57 4441.2 1864.07 4442.5C1860.27 4443.5 1857.97 4447.1 1855.87 4450.4C1833.97 4485.3 1798.07 4513.6 1756.97 4516.8C1715.87 4520 1671.87 4492.4 1665.27 4451.7C1658.37 4409.1 1695.37 4367.5 1737.97 4360.4C1757.57 4357.1 1777.57 4360 1796.07 4367C1805.67 4370.6 1814.87 4375.4 1823.47 4381C1829.17 4384.7 1841.07 4398.5 1847.37 4399C1867.67 4400.6 1860.97 4362.7 1861.77 4350.3C1863.37 4328.9 1867.07 4307.3 1875.87 4287.5Z" fill="#FF863A"/>
<path d="M1179.37 5630.8C1152.67 5650.6 1126.77 5673.9 1114.37 5704.7C1101.97 5735.5 1106.77 5775.5 1133.37 5795.5C1152.97 5810.3 1180.87 5812.4 1197.67 5830.2C1212.57 5846 1214.47 5869.5 1218.27 5890.9C1222.07 5912.3 1231.17 5936.1 1251.77 5943C1274.67 5950.7 1297.57 5933.5 1316.77 5919C1335.97 5904.5 1363.37 5891.3 1382.67 5905.8C1395.57 5915.4 1401.07 5935.4 1416.87 5938.3C1427.97 5940.4 1438.37 5932.5 1446.37 5924.5C1487.37 5883.6 1509.97 5826.8 1517.67 5769.4C1524.97 5714.5 1532.17 5510.2 1446.27 5507.8C1412.07 5506.9 1357.07 5540 1324.97 5551.9C1273.07 5571.2 1223.87 5597.8 1179.37 5630.8Z" fill="#E2F1DD"/>
<path d="M1362.47 3908.6C1362.97 3891.8 1375.87 3877.4 1390.97 3870.2C1406.07 3863 1423.27 3861.4 1439.97 3859.9C1451.57 3858.9 1464.27 3858.2 1473.87 3864.8C1483.47 3871.4 1485.87 3888.5 1475.47 3893.7C1506.37 3899.6 1536.57 3909.4 1564.97 3923C1573.77 3927.2 1582.97 3932.4 1586.87 3941.3C1590.77 3950.2 1585.37 3963.3 1575.57 3963.1C1595.77 3981.2 1615.17 4000.5 1635.37 4018.5C1642.37 4024.7 1649.47 4031.1 1653.67 4039.4C1657.87 4047.7 1658.87 4058.4 1653.47 4066C1648.07 4073.6 1635.47 4075.8 1629.37 4068.7C1634.67 4086.9 1639.87 4105.2 1645.17 4123.4C1649.07 4137.1 1651.97 4154.4 1640.87 4163.2C1636.97 4166.3 1631.97 4167.7 1627.77 4170.3C1618.27 4176.4 1614.27 4188.1 1612.27 4199.2C1610.27 4210.3 1609.47 4221.9 1603.97 4231.7C1598.37 4241.5 1585.97 4248.6 1575.77 4243.8C1570.87 4234.8 1561.57 4224.2 1552.57 4229C1549.57 4230.6 1547.57 4233.6 1544.87 4235.9C1536.87 4242.6 1524.07 4240.1 1516.67 4232.9C1509.27 4225.7 1506.17 4215.1 1504.77 4204.8C1501.37 4179.9 1506.27 4154 1518.37 4132.1C1513.17 4138.3 1502.17 4134.6 1498.47 4127.4C1494.87 4120.2 1496.27 4111.6 1497.77 4103.7C1501.57 4084 1505.37 4064.4 1509.17 4044.7C1509.67 4053.2 1496.37 4056.3 1490.17 4050.6C1483.87 4044.9 1483.17 4035.4 1482.77 4026.9C1481.87 4005.7 1481.07 3984.5 1480.17 3963.4C1472.57 3965.7 1466.47 3972.2 1464.67 3979.9C1467.17 3987.4 1467.17 3982.1 1459.57 3984.6C1451.97 3987 1443.47 3984.2 1437.47 3979C1431.47 3973.8 1427.57 3966.6 1424.37 3959.3C1421.27 3952 1418.77 3944.4 1414.87 3937.5C1412.67 3933.6 1409.97 3929.8 1406.17 3927.5C1402.37 3925.2 1397.27 3924.5 1393.47 3926.9C1391.37 3928.2 1389.77 3930.2 1387.87 3931.8C1382.07 3936.3 1372.97 3935.2 1367.57 3930.1C1362.27 3925.1 1362.17 3916 1362.47 3908.6Z" fill="#36C7C1"/>
<path d="M1365.17 415.8C1361.37 417.2 1357.67 421.6 1359.97 424.9C1361.37 426.9 1364.07 427.3 1366.57 427.6C1377.47 428.5 1388.37 429.5 1399.17 430.4C1407.77 431.1 1416.37 431.9 1424.87 430.6C1433.37 429.3 1441.87 425.8 1447.37 419.2C1448.27 418.1 1449.17 416.9 1449.17 415.5C1449.27 413.2 1446.97 411.4 1444.67 411.1C1442.37 410.8 1440.17 411.6 1437.97 412.2C1429.07 414.7 1419.57 415.1 1410.47 413.2C1404.47 412 1398.77 409.8 1392.77 408.7C1381.37 406.6 1375.17 412.1 1365.17 415.8Z" fill="#767777"/>
<path d="M142.072 4035.79C169.872 4045.79 194.772 4063.89 212.872 4087.29C217.772 4093.59 222.272 4100.59 223.972 4108.39C225.672 4116.19 224.072 4125.19 218.172 4130.69C210.572 4137.79 198.272 4137.09 188.872 4132.49C179.572 4127.89 172.172 4120.19 163.872 4113.89C136.772 4092.99 98.8715 4086.99 66.6715 4098.59C34.4715 4110.19 9.07152 4138.79 1.47152 4172.19C-0.428475 4180.39 -1.12847 4189.59 3.37153 4196.79C7.47152 4203.49 15.4715 4206.99 23.2715 4207.69C31.0715 4208.29 38.8715 4206.39 46.4715 4204.19C101.272 4187.99 152.572 4155.29 209.672 4155.49C217.372 4155.49 225.872 4156.49 230.972 4162.29C238.272 4170.39 234.872 4183.79 227.972 4192.19C204.672 4220.89 157.972 4214.09 127.272 4234.69C114.172 4243.49 104.472 4257.29 100.772 4272.69C98.7715 4280.99 98.8715 4290.89 104.972 4296.89C108.772 4300.49 114.072 4301.99 119.172 4302.89C141.672 4306.59 165.572 4300.19 183.272 4285.79C210.172 4263.79 220.072 4227.39 240.972 4199.69C247.672 4190.89 257.772 4182.19 268.472 4185.09C278.872 4187.89 283.672 4200.49 282.372 4211.19C280.372 4228.59 267.472 4242.49 255.272 4255.09C231.872 4279.19 208.472 4303.29 185.072 4327.29C174.372 4338.29 189.072 4359.49 202.972 4365.99C216.872 4372.49 234.072 4368.49 246.072 4358.99C258.072 4349.49 265.472 4335.19 270.072 4320.59C274.672 4305.99 276.672 4290.69 280.072 4275.79C285.172 4253.09 293.272 4230.99 304.172 4210.49C311.572 4196.49 324.172 4181.29 339.672 4184.09C347.872 4185.59 354.472 4192.09 357.672 4199.79C360.772 4207.49 360.872 4216.09 359.472 4224.29C356.572 4242.19 346.972 4258.89 333.072 4270.49C324.172 4277.99 313.572 4283.29 304.472 4290.49C295.372 4297.69 287.372 4307.69 286.672 4319.29C285.572 4337.29 303.872 4352.49 321.872 4351.79C339.872 4351.09 355.572 4337.79 363.472 4321.59C371.372 4305.39 372.572 4286.79 371.872 4268.79C371.172 4250.79 368.672 4232.89 369.772 4214.89C370.272 4206.49 371.572 4197.89 375.872 4190.59C380.072 4183.29 387.772 4177.59 396.172 4177.59C404.472 4177.59 412.172 4183.29 416.072 4190.59C419.972 4197.99 420.572 4206.69 419.472 4214.99C417.272 4230.99 409.172 4245.49 402.472 4260.19C395.772 4274.89 390.472 4291.39 394.372 4307.09C398.272 4322.79 414.572 4336.29 430.072 4331.59C444.972 4327.09 451.472 4308.89 449.572 4293.49C447.672 4277.79 439.772 4263.49 435.572 4248.49C431.172 4232.89 427.772 4216.79 425.872 4200.69C425.172 4194.89 425.172 4188.09 429.672 4184.29C435.372 4179.59 444.572 4183.69 448.072 4190.19C451.572 4196.69 451.272 4204.49 451.672 4211.79C453.372 4243.69 470.772 4274.29 497.372 4291.89C513.072 4302.29 533.372 4308.29 550.872 4301.29C568.372 4294.29 579.272 4270.89 568.472 4255.39C562.972 4247.39 553.272 4243.19 543.672 4241.29C534.072 4239.39 524.272 4239.59 514.672 4238.09C496.772 4235.29 479.672 4226.99 466.572 4214.39C459.372 4207.49 453.172 4196.09 459.272 4188.09C465.172 4180.39 477.172 4182.89 486.372 4185.89C507.172 4192.69 528.772 4198.29 550.672 4198.29C572.572 4198.19 595.172 4191.99 611.472 4177.39C619.972 4169.79 626.872 4159.39 626.972 4148.09C627.072 4127.59 604.572 4112.89 584.172 4113.59C563.672 4114.29 545.372 4125.79 528.272 4137.09C511.172 4148.39 493.072 4160.09 472.572 4161.39C446.872 4162.99 462.972 4138.79 470.872 4129.09C483.972 4113.09 499.472 4099.29 512.772 4083.59C528.372 4065.19 539.672 4044.69 533.672 4019.69C526.772 3990.59 501.172 3969.69 473.272 3989.89C459.172 4000.09 455.372 4019.59 456.772 4036.89C458.172 4054.19 463.472 4071.19 463.172 4088.49C462.672 4111.89 451.072 4134.89 432.472 4149.19C427.272 4153.19 421.172 4156.69 414.672 4156.69C400.372 4156.79 390.772 4140.09 392.772 4125.89C394.772 4111.69 404.372 4099.99 413.672 4089.19C424.072 4076.99 426.072 4061.69 429.072 4045.89C430.972 4035.69 431.372 4024.79 427.372 4015.19C423.372 4005.59 413.972 3997.69 403.572 3997.99C394.772 3998.19 386.772 4004.19 382.272 4011.79C377.772 4019.39 376.172 4028.39 375.672 4037.19C374.072 4064.79 381.372 4093.29 372.672 4119.49C370.072 4127.49 365.672 4135.19 358.772 4139.99C351.872 4144.79 341.972 4145.79 335.172 4140.79C329.872 4136.89 327.272 4129.99 327.072 4123.39C326.872 4116.79 328.672 4110.29 330.572 4103.89C334.972 4088.89 339.672 4073.99 344.772 4059.09C351.472 4039.59 340.572 4017.19 330.272 3999.39C325.172 3990.59 318.972 3982.19 310.672 3976.19C302.372 3970.19 291.972 3966.79 281.872 3968.39C271.772 3970.09 262.472 3977.39 259.972 3987.29C258.172 3994.49 260.072 4002.19 263.372 4008.89C266.672 4015.59 271.272 4021.49 275.472 4027.59C284.272 4040.69 291.272 4055.39 293.272 4070.99C295.272 4086.59 292.072 4103.29 282.372 4115.79C276.972 4122.79 267.672 4128.59 259.572 4125.19C250.972 4121.59 249.072 4110.59 248.272 4101.29C246.772 4083.19 245.372 4064.99 243.872 4046.89C242.872 4034.49 238.772 4023.19 229.872 4014.39C214.972 3999.69 197.572 3987.59 178.472 3978.89C168.372 3974.19 157.072 3970.49 146.172 3972.79C133.072 3975.49 122.572 3987.79 121.772 4001.09C121.472 4014.49 129.472 4031.29 142.072 4035.79Z" fill="#00B590"/>
<path d="M1719.55 1548.63C1711.25 1539.93 1710.35 1526.13 1714.15 1514.73C1718.05 1503.33 1725.85 1493.73 1733.55 1484.43C1738.85 1478.03 1744.85 1471.13 1753.05 1469.53C1761.25 1467.93 1771.25 1475.33 1768.65 1483.23C1787.15 1470.33 1807.45 1459.83 1828.65 1452.13C1835.25 1449.73 1842.55 1447.63 1849.05 1450.13C1855.55 1452.63 1859.55 1461.93 1854.55 1466.83C1873.95 1465.53 1893.55 1465.33 1912.95 1464.03C1919.65 1463.63 1926.45 1463.13 1932.85 1465.13C1939.25 1467.13 1945.15 1472.03 1946.35 1478.63C1947.55 1485.23 1942.25 1492.83 1935.65 1492.33C1947.65 1498.83 1959.65 1505.23 1971.65 1511.73C1980.65 1516.53 1990.95 1523.83 1989.85 1533.93C1989.45 1537.43 1987.65 1540.73 1986.95 1544.23C1985.25 1552.13 1989.35 1560.13 1993.95 1566.73C1998.65 1573.33 2004.25 1579.53 2006.45 1587.33C2008.65 1595.13 2006.05 1605.03 1998.45 1607.83C1991.35 1605.83 1981.35 1605.23 1979.15 1612.33C1978.45 1614.73 1979.05 1617.23 1978.85 1619.73C1978.25 1627.13 1970.55 1632.53 1963.15 1632.73C1955.75 1632.93 1948.75 1629.13 1942.75 1624.73C1928.35 1613.93 1917.45 1598.43 1912.35 1581.23C1912.95 1587.03 1905.45 1590.83 1899.95 1589.03C1894.45 1587.23 1890.75 1582.23 1887.45 1577.43C1879.25 1565.63 1871.15 1553.73 1862.95 1541.93C1867.55 1545.93 1862.45 1554.33 1856.35 1554.63C1850.25 1554.93 1845.05 1550.63 1840.55 1546.53C1829.25 1536.33 1817.95 1526.13 1806.65 1515.93C1804.05 1520.93 1804.35 1527.43 1807.35 1532.23C1812.45 1534.73 1809.75 1532.13 1807.15 1537.23C1804.65 1542.33 1798.85 1545.33 1793.15 1545.73C1787.45 1546.23 1781.85 1544.63 1776.45 1542.53C1771.15 1540.43 1765.95 1537.93 1760.45 1536.43C1757.35 1535.63 1754.05 1535.13 1750.95 1535.83C1747.85 1536.63 1744.95 1538.93 1744.25 1542.03C1743.85 1543.73 1744.15 1545.53 1743.95 1547.33C1743.35 1552.63 1738.15 1556.63 1732.85 1556.83C1727.95 1557.03 1723.25 1552.53 1719.55 1548.63Z" fill="#36C7C1"/>
<path d="M1502.4 4189.7L1487.1 4174.4L1389.5 4276.9L1423.1 4374.6L1356.1 4420.5L1341.7 4249.1L1395.1 4181.1L1374.4 4137.5L1449.5 4082L1436.8 4064.3L1364.9 4117.5L1341.3 4067.6L1322.4 4076.6L1370.3 4177.7L1328.1 4231.4L1243 4180.6L1266 4054.9L1230.3 4038.4L1278.8 3945.7L1260.1 3935L1210.7 4029.4L1153.4 4003L1145.3 4022.7L1242.2 4067.4L1223.6 4168.9L1203.9 4157.2L1117.2 4151.8L1116.6 4173.4L1198.2 4178.5L1241.1 4204.1L1089.4 4259.4L1041.5 4176.7L1023.5 4187.3L1070.9 4269.2L991 4325L1003.2 4343L1090 4282.4L1182.1 4248.8L1177.9 4291.9L1198.9 4294.7L1204.1 4240.8L1265.2 4218.5L1320.8 4251.8L1331.4 4378.1L1231.7 4351.6L1153.1 4317.8L1145.5 4337.7L1211.3 4366L1164.9 4423.4L1181.3 4437.6L1232.7 4374L1333.3 4400.8L1340.3 4484.6L1361.4 4483.4L1358.2 4445.5L1448.4 4383.8L1417.1 4292.7L1514.3 4304.5L1516.1 4283L1424.3 4271.8L1502.4 4189.7Z" fill="#008DB5"/>
</svg>
