<svg width="1940" height="5950" viewBox="0 0 1940 5950" fill="none" xmlns="http://www.w3.org/2000/svg">
<path d="M1118.77 1571.2C1100.07 1569.3 1080.27 1569.2 1063.37 1577.4C1046.47 1585.6 1033.27 1604.2 1036.77 1622.7C1039.37 1636.4 1050.27 1647.9 1050.47 1661.8C1050.67 1674.1 1042.57 1684.7 1035.97 1695.1C1029.47 1705.5 1024.17 1719 1030.17 1729.7C1036.87 1741.6 1052.97 1743.2 1066.57 1744.4C1080.17 1745.6 1096.67 1750.6 1099.27 1764C1100.97 1772.9 1095.77 1783.4 1101.27 1790.7C1105.17 1795.8 1112.47 1796.5 1118.87 1796.2C1151.67 1794.7 1182.77 1779.5 1207.87 1758.3C1231.87 1738.1 1312.67 1655.1 1277.57 1621.5C1263.57 1608.1 1227.87 1601 1209.97 1593.8C1180.77 1581.9 1149.97 1574.3 1118.77 1571.2Z" fill="#E2F1DD"/>
<path d="M1417.37 4316.1C1473.67 4362.6 1496.07 4444.4 1475.87 4514.6C1455.57 4584.7 1395.77 4640.8 1325.67 4661.1C1319.97 4626.1 1327.87 4590 1342.07 4557.5C1356.27 4525 1376.47 4495.6 1396.47 4466.3C1364.97 4489.6 1333.17 4513.1 1297.27 4528.8C1261.37 4544.5 1220.57 4551.9 1182.77 4541.8C1189.97 4500.6 1217.07 4465.1 1249.97 4439.4C1282.87 4413.6 1321.37 4396.3 1359.57 4379.3C1345.07 4385.8 1298.77 4361.7 1285.17 4355.5C1271.77 4349.4 1220.17 4328.7 1217.27 4312.7C1213.97 4294.5 1259.07 4284.2 1271.97 4281.4C1295.67 4276.4 1320.47 4276.5 1344.17 4281.4C1370.87 4287 1396.37 4298.7 1417.37 4316.1Z" fill="#8BCBCA"/>
<path d="M477.872 3922.5C473.072 3948.3 470.672 3975.7 480.072 4000.2C489.472 4024.7 513.772 4045.2 539.872 4042.5C559.172 4040.5 576.372 4026.7 595.672 4028C612.772 4029.1 626.572 4041.7 640.172 4052C653.772 4062.3 671.972 4071.2 687.572 4064.1C704.872 4056.2 708.972 4034 712.172 4015.3C715.472 3996.5 724.172 3974.3 743.172 3972.2C755.772 3970.8 769.772 3979.4 780.472 3972.6C787.972 3967.8 789.772 3957.7 790.072 3948.8C791.772 3903.1 774.272 3858.1 747.872 3820.9C722.572 3785.2 616.872 3663.4 566.072 3708.2C545.772 3726.1 531.872 3774.8 519.672 3798.9C499.972 3837.7 485.772 3879.5 477.872 3922.5Z" fill="#E2F1DD"/>
<path d="M559.072 961.3C558.672 953.2 556.072 943.9 548.572 940.6C541.372 937.4 532.372 941.1 525.272 937.6C518.472 934.2 516.272 925.5 516.572 917.9C516.972 910.3 519.072 902.7 517.872 895.2C516.172 884.5 507.972 876.1 503.372 866.3C498.772 856.5 499.672 841.8 509.972 838.4C518.572 835.5 527.572 843.3 530.372 851.9C533.172 860.5 531.772 869.9 532.272 879C532.772 888.1 535.872 898.1 544.072 902.1C553.672 906.8 566.672 901.4 574.872 908.1C588.372 919.2 573.172 949.3 589.672 955.4C606.672 961.7 609.872 939.6 604.272 929.3C602.172 925.5 600.472 920.7 602.772 917.1C605.572 912.7 612.072 913.1 616.972 914.8C621.872 916.5 627.072 919.1 631.972 917.4C638.072 915.3 640.272 907.4 638.872 901.1C637.472 894.8 633.572 889.4 630.872 883.6C626.772 874.7 627.172 858.9 640.372 858.6C645.672 858.5 650.572 861 655.272 863.5C672.772 872.8 690.072 865.1 701.072 849C707.572 839.4 711.172 827.2 720.772 820.7C734.672 811.3 756.072 820.6 760.972 836.6C765.872 852.6 755.772 870.9 740.572 877.9C729.472 883 714.972 884.2 709.072 894.8C703.572 904.7 708.672 917.7 703.872 928C695.972 944.9 670.472 940.9 654.772 950.8C645.872 956.4 640.572 966.1 635.472 975.3C614.472 1012.6 561.472 1005.9 559.072 961.3Z" fill="#93ACD1"/>
<path d="M260.372 5764.1C261.072 5754.8 259.772 5742.5 250.672 5740.3C243.672 5738.6 237.272 5744.6 233.072 5750.4C212.872 5778.6 208.272 5817.2 221.372 5849.3C234.472 5881.4 264.772 5905.9 298.872 5911.9C332.972 5917.9 369.872 5905.2 393.072 5879.5C398.172 5873.9 402.772 5867.2 402.972 5859.7C403.172 5852.2 396.972 5844.1 389.472 5844.9C380.172 5845.9 373.872 5858.7 364.872 5856.1C358.472 5854.3 356.972 5845.6 359.272 5839.4C361.572 5833.2 366.372 5828.2 368.872 5822.1C371.272 5816 370.072 5807.3 363.872 5805.1C358.472 5803.2 352.772 5807.4 349.572 5812C346.072 5817 340.972 5829.9 334.672 5831.6C331.872 5832.4 328.572 5831.3 326.872 5828.9C323.572 5824.5 326.072 5818.2 329.672 5814C338.272 5804 347.972 5791.7 337.572 5778.6C332.272 5772 320.972 5770.4 315.472 5776.7C311.872 5780.8 311.472 5786.7 311.172 5792.2C310.772 5797.7 310.072 5803.7 305.972 5807.3C301.872 5811 293.672 5809.7 293.072 5804.2C298.472 5796.7 304.072 5788.5 304.272 5779.3C304.472 5770.1 296.472 5760.1 287.372 5762.1C276.672 5764.4 277.072 5779.5 268.372 5782.2C256.572 5785.9 259.872 5770.1 260.372 5764.1Z" fill="#FFDF00"/>
<path d="M65.95 4383.36C112.35 4358.86 172.85 4366.66 213.85 4399.56C254.85 4432.46 275.35 4487.66 269.45 4539.76C244.65 4533.86 222.85 4518.66 205.25 4500.26C187.65 4481.86 173.65 4460.26 159.85 4438.86C166.55 4466.16 173.35 4493.76 173.85 4521.96C174.35 4550.06 167.95 4579.26 150.75 4601.56C125.45 4585.36 109.35 4557.56 101.45 4528.56C93.55 4499.56 92.65 4469.26 91.95 4439.26C92.25 4450.66 63.45 4474.76 55.55 4482.06C47.75 4489.26 19.75 4517.76 8.35 4515.26C-4.65 4512.36 0.950001 4479.66 2.75 4470.26C5.95 4453.16 12.95 4436.76 22.75 4422.36C33.85 4406.26 48.65 4392.56 65.95 4383.36Z" fill="#ACB8DE"/>
<path d="M1304.27 652.1C1301.17 659.3 1299.77 668.1 1303.87 674.8C1309.47 683.8 1321.87 684.9 1332.47 685C1340.47 685.1 1348.47 685.2 1356.37 685.2C1364.27 685.3 1373.07 685.1 1378.87 679.7C1385.37 673.8 1385.87 663.8 1384.17 655.2C1382.37 646.3 1378.37 637.7 1372.07 631.1C1349.17 607.4 1315.47 626 1304.27 652.1Z" fill="#8AAA9A"/>
<path d="M1674.37 153.1C1674.17 148.5 1672.67 143.4 1668.57 141.5C1664.57 139.7 1659.47 141.8 1655.57 139.8C1651.77 137.9 1650.47 133 1650.77 128.8C1650.97 124.5 1652.17 120.3 1651.47 116.1C1650.47 110.1 1645.97 105.4 1643.37 99.8999C1640.77 94.3999 1641.27 86.1999 1647.07 84.2999C1651.87 82.6999 1656.97 86.9999 1658.47 91.8999C1659.97 96.6999 1659.27 102 1659.47 107C1659.77 112.1 1661.47 117.7 1666.07 119.9C1671.37 122.5 1678.67 119.5 1683.27 123.3C1690.87 129.5 1682.37 146.3 1691.57 149.8C1701.07 153.3 1702.87 141 1699.77 135.2C1698.57 133.1 1697.67 130.4 1698.97 128.3C1700.57 125.8 1704.17 126 1706.97 127C1709.67 128 1712.67 129.4 1715.37 128.4C1718.77 127.2 1719.97 122.8 1719.27 119.3C1718.47 115.8 1716.27 112.8 1714.77 109.5C1712.47 104.5 1712.67 95.6999 1720.07 95.4999C1723.07 95.3999 1725.77 96.8999 1728.37 98.1999C1738.17 103.4 1747.87 99.0999 1753.97 90.0999C1757.67 84.6999 1759.57 77.8999 1764.97 74.2999C1772.77 68.9999 1784.77 74.1999 1787.47 83.1999C1790.17 92.1999 1784.57 102.4 1776.07 106.3C1769.87 109.2 1761.77 109.8 1758.47 115.8C1755.37 121.3 1758.27 128.6 1755.57 134.4C1751.17 143.8 1736.87 141.6 1728.07 147.1C1723.07 150.2 1720.17 155.7 1717.27 160.8C1705.37 181.8 1675.77 178.1 1674.37 153.1Z" fill="#93ACD1"/>
<path d="M448.872 2307.3C531.372 2315.5 604.072 2259.3 644.372 2191.9C648.272 2185.3 652.072 2178.1 651.772 2170.4C651.472 2162.7 645.472 2154.8 637.772 2155.2C632.472 2155.5 628.172 2159.4 624.372 2163.1C604.372 2182.4 584.872 2202.9 564.772 2221.9C552.772 2233.2 538.972 2242.5 525.472 2251.8C513.772 2259.9 502.872 2269.1 490.072 2275.1C463.872 2287.3 440.072 2296.3 410.872 2287.6C403.672 2285.5 395.572 2280.9 395.272 2273.3C394.972 2266.3 402.172 2260.9 409.172 2259.9C416.172 2258.9 423.172 2260.7 430.272 2261.1C438.672 2261.5 444.672 2257.7 451.672 2253.9C536.972 2207.2 608.972 2138.6 656.872 2053.7C661.772 2045.1 666.272 2034.1 660.872 2025.8C656.072 2018.6 645.472 2017.4 637.572 2020.9C629.672 2024.3 623.872 2031.1 618.272 2037.7C578.672 2084.8 539.172 2132 499.572 2179.1C482.772 2199.1 463.172 2218.2 440.872 2231.7C437.372 2233.8 433.572 2235.7 429.572 2236.2C425.472 2236.7 421.072 2235.8 418.172 2232.9C413.872 2228.6 414.172 2221.1 417.272 2215.8C420.372 2210.5 425.572 2206.9 430.672 2203.4C447.972 2191.5 459.472 2174 472.672 2157.6C486.572 2140.3 500.672 2123.1 514.472 2105.7C533.072 2082.7 551.972 2059 561.272 2030.9C567.672 2011.7 569.472 1988 561.372 1969C553.372 1950.2 540.772 1960.4 533.372 1973.4C526.572 1985.5 519.772 1997.6 512.872 2009.7C498.772 2034.6 484.772 2059.6 470.672 2084.5C459.672 2104 448.272 2123.3 437.672 2142.9C428.072 2160.7 422.072 2181.5 414.772 2200.6C413.072 2205.1 411.272 2209.7 408.172 2213.3C405.072 2216.9 400.272 2219.5 395.572 2218.7C390.172 2217.8 386.272 2212.7 385.172 2207.4C384.072 2202.1 384.972 2196.5 386.172 2191.2C390.772 2169.7 397.372 2148.5 405.772 2128.2C409.972 2118 414.672 2108.1 419.872 2098.3C424.372 2089.7 426.172 2080.4 428.572 2071C439.572 2027.7 450.572 1984.4 461.572 1941.1C463.772 1932.5 465.572 1922.2 459.672 1915.6C454.272 1909.6 444.372 1909.6 437.372 1913.6C430.272 1917.5 425.472 1924.4 421.072 1931.2C395.072 1970.9 374.872 2014.5 360.972 2059.9C354.072 2082.6 350.172 2105.6 345.072 2128.7C340.472 2149.6 345.972 2174.9 347.572 2196.3C348.072 2203.2 347.672 2211.7 341.572 2214.9C335.172 2218.2 327.672 2212.9 323.372 2207.2C309.572 2189 312.972 2172.2 315.572 2151.6C317.072 2139.6 315.572 2126.7 316.772 2114.5C317.872 2102.7 319.572 2090.9 321.272 2079.2C328.272 2033.3 335.372 1987.4 342.372 1941.5C344.772 1926.1 343.072 1904.8 327.772 1902.3C317.172 1900.6 308.372 1910.2 302.272 1919.2C276.872 1957 261.072 2001.1 255.572 2046.2C252.772 2069 252.472 2092.2 254.872 2115.1C256.072 2126.3 257.872 2137.4 260.272 2148.4C262.372 2157.9 262.272 2167.5 270.072 2174.4C275.072 2178.8 281.072 2182 285.372 2187.1C289.572 2192.2 291.372 2200.4 286.872 2205.2C283.672 2208.6 278.272 2209.2 273.772 2207.7C269.372 2206.2 265.672 2203 262.472 2199.6C231.472 2167.3 227.172 2116.6 232.472 2074.4C235.972 2046.3 242.572 2018.3 241.772 1990C241.672 1986.6 241.172 1982.6 238.172 1980.9C235.572 1979.3 231.972 1980.4 229.772 1982.5C227.572 1984.6 226.372 1987.6 225.272 1990.4C211.672 2025.5 195.072 2057.7 191.772 2095.9C188.872 2129.8 194.472 2165.4 213.472 2193.5C240.272 2233.3 275.972 2227.2 313.572 2244.6C360.572 2266.7 393.772 2301.8 448.872 2307.3Z" fill="#ACB8DE"/>
<path d="M1073.67 2712.3C1105.77 2699.5 1120.37 2663.5 1140.87 2635.7C1190.67 2568.1 1292.67 2545.8 1366.17 2586.3C1374.57 2574 1369.17 2556 1357.77 2546.3C1346.37 2536.6 1330.97 2533.5 1316.07 2532.1C1252.57 2526.1 1186.87 2546.8 1138.27 2588.2C1202.57 2518 1302.27 2482.1 1396.47 2495.3C1397.47 2480.8 1398.37 2466.4 1399.37 2451.9C1266.17 2440.1 1129.17 2509.7 1060.07 2624.2C1107.27 2521 1200.77 2440.2 1309.67 2408.3C1297.57 2379.2 1258.97 2369 1228.97 2378.7C1198.97 2388.4 1176.17 2412.4 1155.77 2436.5C1111.87 2488.3 1072.97 2544.3 1039.67 2603.4C1062.97 2552.5 1086.57 2500.9 1095.57 2445.7C1104.57 2390.5 1097.47 2330.2 1063.87 2285.4C1044.17 2295.7 1024.37 2306 1004.67 2316.3C1020.67 2314.8 1035.87 2326 1043.57 2340.1C1051.27 2354.2 1053.07 2370.8 1053.67 2386.9C1056.67 2457.5 1042.47 2528.7 1012.67 2592.8C1037.47 2508.2 1003.17 2409.6 931.273 2358.7C920.473 2372.3 909.673 2385.8 898.973 2399.4C905.273 2391.4 961.973 2471.8 965.873 2479.6C981.673 2511.7 990.173 2547.6 989.973 2583.4C989.873 2611.1 977.773 2640.4 987.673 2667.2C1000.87 2701.7 1036.57 2727.1 1073.67 2712.3Z" fill="#8BCBCA"/>
<path d="M1802.87 5511.9L1782.37 5492.9L1662.07 5629.3L1709.97 5753.3L1626.07 5815.5L1599.27 5596L1664.57 5506L1635.87 5451L1729.57 5376L1712.47 5353.9L1622.77 5425.7L1589.97 5362.8L1566.07 5375.2L1632.47 5502.8L1580.87 5573.9L1469.17 5512.7L1492.57 5350.1L1445.87 5330.7L1503.67 5209.2L1479.17 5196.4L1420.27 5320.1L1345.37 5289L1335.87 5314.7L1462.57 5367.3L1443.57 5498.7L1417.77 5484.6L1306.07 5481.8L1306.37 5509.6L1411.47 5512.2L1467.77 5543L1275.67 5621.5L1210.07 5517.6L1187.37 5532.1L1252.27 5634.9L1152.37 5710.5L1168.97 5733.1L1277.57 5651L1394.17 5603.4L1390.87 5658.9L1417.97 5661.6L1422.07 5592L1499.47 5560.4L1572.57 5600.4L1592.37 5762.2L1462.87 5733L1360.27 5693.4L1351.47 5719.4L1437.47 5752.5L1380.67 5828.6L1402.37 5845.9L1465.27 5761.8L1595.87 5791.3L1608.97 5898.5L1635.87 5896L1629.97 5847.4L1742.87 5763.8L1698.27 5648.2L1823.67 5658.8L1824.97 5631.1L1706.57 5621.1L1802.87 5511.9Z" fill="#008DB5"/>
<path d="M1047.97 5398.1L1051.57 5372L881.271 5352.8L811.371 5456.7L718.071 5425.5L873.071 5286.3L977.771 5288.1L1004.77 5236.3L1113.37 5268.1L1121.17 5242.9L1017.27 5212.5L1048.17 5153.1L1025.67 5141.4L962.971 5261.6L880.171 5260.2L867.171 5140.8L1005.37 5071.1L995.171 5024.6L1120.17 5003.6L1116.87 4977.7L989.471 4999.1L973.071 4924.4L948.071 4930.9L975.872 5057.2L864.171 5113.5L861.171 5086L802.871 4998.2L781.571 5013.4L836.371 5096L842.971 5156.1L678.671 5050.1L723.471 4943.3L700.071 4933.7L655.671 5039.3L543.271 5002.9L534.771 5027.9L656.871 5067.5L756.571 5131.8L711.871 5159.3L724.571 5181.6L780.471 5147.3L846.671 5190L855.271 5268.1L740.871 5370.7L693.571 5254.9L668.771 5154.3L643.971 5161.5L664.771 5245.8L575.371 5243L573.671 5269.2L672.671 5272.3L720.371 5389.1L644.571 5457.1L661.071 5476.6L695.471 5445.8L821.071 5487.8L886.171 5391L945.771 5493.5L967.872 5479.6L911.571 5382.7L1047.97 5398.1Z" fill="#EC1728"/>
<path d="M898.372 4449.1C884.472 4470.2 875.072 4494 867.172 4518C856.672 4549.8 848.672 4584.5 858.972 4616.3C862.172 4626.3 867.472 4636.1 876.272 4641.8C887.972 4649.4 903.772 4648.2 916.472 4642.3C926.272 4637.7 938.272 4627.4 950.272 4630.2C964.272 4633.4 970.672 4655.7 982.572 4664.3C998.472 4675.8 1023.67 4677 1035.77 4661.6C1041.97 4653.7 1043.67 4643.3 1047.37 4633.9C1051.07 4624.5 1058.47 4615.1 1068.57 4615C1080.17 4614.9 1087.67 4626.8 1097.97 4632.2C1111.57 4639.3 1129.17 4633.6 1139.47 4622.3C1149.77 4611 1153.87 4595.3 1155.47 4580C1159.17 4544.1 1150.07 4507.3 1131.37 4476.5C1112.67 4445.7 1084.57 4420.9 1052.27 4404.9C1024.77 4391.2 991.372 4384 961.372 4393.8C935.772 4402.3 912.772 4427.2 898.372 4449.1Z" fill="#00B590"/>
</svg>
