<svg width="2055" height="5950" viewBox="0 0 2055 5950" fill="none" xmlns="http://www.w3.org/2000/svg">
<path d="M1652.37 4246C1659.47 4239.9 1667.17 4230.3 1662.27 4222.3C1658.47 4216.2 1649.77 4215.9 1642.67 4217C1608.47 4222.6 1577.87 4246.7 1564.37 4278.7C1550.87 4310.6 1555.07 4349.4 1574.97 4377.8C1594.87 4406.2 1629.87 4423.3 1664.47 4421.5C1671.97 4421.1 1679.97 4419.7 1685.47 4414.5C1690.97 4409.3 1692.27 4399.3 1686.37 4394.5C1679.17 4388.6 1665.57 4393.2 1661.07 4385C1657.87 4379.2 1662.87 4372 1668.97 4369.2C1674.97 4366.5 1681.97 4366.3 1687.97 4363.7C1694.07 4361.1 1699.27 4354.1 1696.47 4348.1C1693.97 4343 1687.07 4341.9 1681.37 4342.9C1675.37 4344 1662.57 4349.4 1656.97 4346.2C1654.37 4344.8 1652.87 4341.7 1653.37 4338.8C1654.17 4333.4 1660.37 4330.7 1665.87 4330.2C1678.97 4329.2 1694.57 4327.3 1696.47 4310.7C1697.47 4302.3 1690.57 4293.2 1682.17 4293.7C1676.67 4294.1 1672.27 4298 1668.17 4301.6C1664.07 4305.2 1659.27 4308.9 1653.77 4308.6C1648.27 4308.3 1643.37 4301.6 1646.77 4297.3C1655.87 4295.8 1665.57 4294 1672.27 4287.6C1678.97 4281.2 1680.27 4268.5 1672.57 4263.5C1663.37 4257.5 1652.97 4268.5 1644.97 4264.3C1634.27 4258.7 1647.77 4250 1652.37 4246Z" fill="#FFD7CC"/>
<path d="M854.173 4216.8C893.773 4187.2 953.873 4178.7 991.273 4211.1C1018.17 4234.4 1027.17 4275.2 1015.27 4308.7C1003.37 4342.3 972.673 4367.7 938.073 4376.1C903.473 4384.5 865.973 4377 835.473 4358.5C827.273 4353.5 819.273 4347.7 810.073 4345.1C800.773 4342.5 789.573 4343.8 783.573 4351.3C775.673 4361 780.073 4375.8 787.273 4386C803.373 4408.8 830.173 4421.1 854.573 4434.6C878.973 4448.2 903.973 4466.4 910.773 4493.5C918.173 4522.9 900.773 4554.3 875.773 4571.5C832.573 4601.2 767.273 4591.9 733.973 4551.4C700.673 4510.9 704.373 4445 741.973 4408.4C746.973 4403.6 752.573 4399 755.073 4392.5C757.573 4386 755.273 4377.1 748.573 4375.3C743.973 4374.1 739.273 4376.5 735.173 4378.8C690.873 4402.9 635.473 4411.5 589.673 4390.3C543.873 4369.1 513.473 4313.1 530.873 4265.7C549.073 4216 613.573 4193.8 663.373 4211.9C686.273 4220.2 705.873 4235.3 721.473 4253.8C729.573 4263.5 736.473 4274.1 742.273 4285.2C746.173 4292.6 750.473 4314.5 756.973 4318.8C777.673 4332.7 793.273 4288.2 801.673 4275.4C816.073 4253.5 832.873 4232.7 854.173 4216.8Z" fill="#FF863A"/>
<path d="M241.372 852.8C237.072 862.9 235.072 875.2 240.772 884.6C248.572 897.2 265.972 898.8 280.872 898.9C292.072 899 303.272 899.1 314.372 899.2C325.472 899.3 337.772 899 345.972 891.5C355.072 883.3 355.872 869.2 353.372 857.2C350.772 844.7 345.272 832.7 336.472 823.5C304.372 790.2 257.172 816.3 241.372 852.8Z" fill="#A38D6F"/>
<path d="M1451.27 2133.1L1446.17 2118.7L1352.77 2154.7L1344.57 2227.3L1287.87 2236.4L1330.57 2122.4L1385.27 2095.1V2061L1450.07 2048.2L1447.27 2033L1385.27 2045.3V2006.3H1370.47V2085.4L1327.17 2107L1288.17 2048.7L1340.97 1975.3L1323.07 1954L1382.17 1909.4L1373.57 1896.9L1313.37 1942.3L1284.67 1908.1L1273.47 1918.2L1321.97 1976.1L1279.27 2035.4L1270.27 2021.9L1216.47 1992.2L1209.57 2005.8L1260.17 2033.8L1279.87 2063.2L1166.07 2052.6L1160.57 1985.2L1145.77 1986.5L1151.27 2053.2L1083.27 2064.7L1085.67 2080L1159.57 2067.5L1228.57 2073.9L1212.87 2100.2L1225.37 2108.3L1245.07 2075.4L1290.87 2079.7L1316.37 2117.8L1284.87 2201.8L1229.17 2154.6L1189.17 2109.2L1178.27 2119.7L1211.77 2157.7L1164.67 2180.4L1170.97 2194.4L1222.97 2169.3L1279.27 2216.9L1258.37 2272.6L1272.17 2278.2L1281.57 2253L1357.97 2240.8L1365.57 2173.1L1424.07 2210.1L1431.77 2196.9L1376.47 2162L1451.27 2133.1Z" fill="#FFCC33"/>
<path d="M401.972 5742.8C416.072 5738.6 428.572 5731.8 443.772 5742.8C456.172 5751.7 462.972 5766.3 469.972 5779.8C477.072 5793.4 485.772 5807.4 499.772 5813.3C520.272 5822 549.472 5813 561.972 5831.4C567.872 5840.2 567.072 5852.3 573.172 5861C584.472 5877.4 609.472 5871.6 629.272 5873.9C655.072 5876.9 675.572 5895.9 696.972 5910.6C718.372 5925.4 747.372 5936.5 769.472 5922.9C791.372 5909.5 794.072 5875.2 777.372 5855.7C760.672 5836.2 730.272 5832.1 706.872 5842.5C695.772 5847.4 688.572 5833 686.572 5821C684.572 5809.1 687.072 5795.8 680.572 5785.6C671.772 5771.9 651.972 5771.4 635.972 5774.5C619.972 5777.7 602.572 5782.8 588.072 5775.2C565.772 5763.5 564.572 5729.2 542.872 5716.3C525.772 5706.1 503.472 5713.8 484.372 5708.2C456.772 5700.2 443.572 5669.9 418.672 5657.8C394.372 5646 366.272 5659.1 342.872 5639.8C332.272 5631 325.672 5618.3 315.772 5608.7C302.372 5595.6 282.772 5589.2 264.172 5591.7C239.872 5595 217.472 5614.8 210.472 5638.4C205.672 5654.6 216.972 5672.1 231.872 5680.2C263.372 5697.3 299.672 5667.8 325.772 5700.5C331.572 5707.8 335.272 5716.7 340.872 5724.1C351.972 5738.9 371.172 5746.5 389.472 5745.2C393.972 5744.9 398.072 5743.9 401.972 5742.8Z" fill="#008DB5"/>
<path d="M563.771 1793.3C559.171 1778.3 552.971 1763.1 541.271 1752.7C529.571 1742.3 511.071 1738.1 497.871 1746.7C488.171 1753.1 482.871 1765.1 472.271 1769.8C462.871 1773.9 452.171 1771 442.071 1769.3C431.971 1767.6 419.971 1767.9 413.571 1775.9C406.571 1784.8 410.471 1797.7 413.971 1808.6C417.471 1819.5 418.871 1833.7 409.371 1840C403.071 1844.2 393.271 1843.5 389.471 1850C386.771 1854.6 388.671 1860.5 390.871 1865.3C402.571 1890 424.171 1909.1 448.471 1921.6C471.671 1933.6 561.371 1969.1 575.971 1931.4C581.771 1916.4 575.771 1886.7 575.571 1870.5C575.271 1844.4 571.371 1818.3 563.771 1793.3Z" fill="#FFDF00"/>
<path d="M995.273 5647.2C1001.57 5606.7 1007.77 5566.3 1014.07 5525.8C1032.17 5569.6 1050.27 5613.4 1068.47 5657.3C1065.77 5600 1063.07 5542.6 1060.37 5485.3C1089.37 5550.6 1138.17 5606.8 1198.67 5644.7C1184.87 5588.2 1171.07 5531.6 1157.27 5475.1C1202.77 5505.3 1248.27 5535.5 1293.87 5565.7C1254.77 5508.3 1215.67 5450.9 1176.57 5393.6C1234.67 5441 1311.67 5464.5 1386.37 5457.9C1328.47 5419.6 1270.67 5381.2 1212.77 5342.9C1176.27 5318.7 1138.47 5294 1095.37 5286.3C1062.87 5280.5 1020.47 5286.2 996.173 5310.9C977.373 5330 978.073 5369.3 973.573 5394.6C958.173 5478.8 965.573 5567 995.273 5647.2Z" fill="#FF863A"/>
<path d="M1927.07 5137.4C1952.67 5129.2 1981.27 5141 2000.37 5159.9C2019.47 5178.8 2030.97 5203.9 2042.17 5228.4C2049.87 5245.4 2057.77 5264.1 2052.87 5282.1C2047.97 5300.1 2023.47 5312.9 2009.97 5300C2017.67 5349.8 2018.97 5400.7 2013.67 5450.9C2012.07 5466.4 2009.17 5483.1 1997.77 5493.8C1986.37 5504.4 1963.77 5503.3 1958.77 5488.5C1942.37 5528.7 1923.57 5568.3 1907.17 5608.5C1901.47 5622.3 1895.67 5636.5 1885.47 5647.4C1875.27 5658.3 1859.57 5665.4 1845.27 5661.4C1830.87 5657.4 1820.87 5639.4 1828.27 5626.4C1803.57 5644.1 1778.87 5661.8 1754.07 5679.5C1735.57 5692.8 1710.97 5706.4 1691.67 5694.3C1684.87 5690.1 1680.17 5683.3 1673.87 5678.4C1659.67 5667.3 1639.77 5667.6 1621.97 5670.5C1604.17 5673.4 1586.17 5678.5 1568.37 5675.4C1550.57 5672.3 1533.17 5657.3 1534.97 5639.4C1545.97 5627.2 1556.97 5607.5 1544.87 5596.4C1540.87 5592.7 1535.17 5591.3 1530.37 5588.5C1516.07 5580.1 1512.87 5559.4 1519.77 5544.3C1526.67 5529.2 1541.07 5518.9 1555.87 5511.3C1591.57 5492.9 1633.37 5486.3 1672.97 5492.9C1660.87 5488.4 1660.47 5469.7 1669.37 5460.4C1678.27 5451 1692.07 5448.6 1704.87 5446.7C1736.57 5441.9 1768.27 5437.1 1800.07 5432.3C1787.57 5437.6 1775.77 5419.3 1781.07 5406.7C1786.37 5394.2 1800.17 5387.9 1812.87 5382.8C1844.37 5370.1 1875.87 5357.4 1907.37 5344.8C1899.77 5334.6 1886.67 5328.9 1874.07 5330.2C1864.07 5338.1 1871.97 5335.1 1864.27 5325C1856.57 5314.9 1856.27 5300.5 1860.77 5288.6C1865.37 5276.7 1874.17 5267 1883.47 5258.3C1892.77 5249.7 1902.97 5241.8 1911.37 5232.2C1916.07 5226.8 1920.27 5220.7 1921.77 5213.7C1923.27 5206.7 1921.47 5198.7 1915.87 5194.1C1912.77 5191.6 1908.87 5190.4 1905.57 5188.2C1895.57 5181.8 1892.47 5167.5 1897.27 5156.7C1902.07 5146 1915.77 5141 1927.07 5137.4Z" fill="#36C7C1"/>
<path d="M1568.37 540.8C1564.07 550.9 1562.07 563.2 1567.77 572.6C1575.57 585.2 1592.97 586.8 1607.87 586.9C1619.07 587 1630.27 587.1 1641.37 587.2C1652.47 587.3 1664.77 587 1672.97 579.5C1682.07 571.3 1682.87 557.2 1680.37 545.2C1677.77 532.7 1672.27 520.7 1663.47 511.5C1631.37 478.2 1584.17 504.3 1568.37 540.8Z" fill="#A38D6F"/>
<path d="M169.172 4691.2C225.072 4670.4 233.072 4726.8 232.172 4751.2C231.272 4775.6 242.272 4823.3 277.872 4824.6C313.472 4825.9 317.872 4777.9 316.172 4745.7C314.472 4713.5 335.072 4658.9 382.572 4667C429.972 4675.1 467.372 4708.9 448.072 4762.9C428.772 4816.9 333.572 4873.5 326.172 4907C318.772 4940.5 299.772 4983.8 347.572 4989.4C395.372 4995 381.772 4876.6 426.372 4886.9C470.972 4897.2 500.072 4916.7 487.672 4976.4C475.172 5036 368.072 5007.5 350.372 5049.8C332.772 5092.2 337.172 5123.5 398.772 5131.1C460.372 5138.7 503.272 5089.9 517.672 5122.7C532.172 5155.5 521.872 5200.1 479.972 5197.8C438.072 5195.6 359.872 5161.3 335.672 5169.3C311.472 5177.3 297.172 5200.9 287.072 5208.5C267.572 5223.3 221.772 5230.2 201.172 5194C189.772 5173.9 206.872 5157 187.072 5143.9C167.172 5130.8 89.6723 5132.4 72.2723 5143.9C54.8723 5155.4 -4.12773 5139.3 0.572272 5106.7C5.27227 5074.1 44.7723 5031.2 67.4723 5051.1C90.1723 5071 139.572 5083.3 149.072 5079.5C158.572 5075.8 178.572 5043.8 133.572 5018.3C88.6723 4992.8 39.7723 4976.7 40.7723 4943.6C41.6723 4910.5 56.7723 4876.8 75.7723 4878.3C94.7723 4879.8 125.672 4895.8 138.572 4939.8C151.472 4983.8 187.572 4999.3 207.972 4981.8C228.372 4964.3 237.472 4892.7 228.572 4865.8C219.672 4838.9 159.572 4785.5 154.972 4764.3C150.072 4743.4 139.472 4702.2 169.172 4691.2Z" fill="#EF3C45"/>
<path d="M739.073 3023.3C747.673 3006.2 754.673 2982 739.173 2970.7C727.273 2962.1 710.573 2968.4 698.073 2976.1C637.973 3013.5 599.173 3083 598.773 3153.8C598.373 3224.6 636.673 3294.5 696.473 3332.4C756.273 3370.3 835.773 3375.1 899.673 3344.7C913.573 3338.1 927.573 3329 933.773 3314.9C939.973 3300.8 934.573 3280.9 919.873 3276.5C901.673 3271.1 879.573 3290.3 864.773 3278.5C854.173 3270.1 857.973 3252.4 867.173 3242.5C876.373 3232.6 889.373 3226.9 898.773 3217.2C908.173 3207.5 912.673 3190.1 902.473 3181.2C893.773 3173.5 879.773 3176.8 869.973 3183.1C859.573 3189.8 839.673 3210.1 826.473 3208.5C820.473 3207.8 815.273 3203.1 813.773 3197.3C810.973 3186.5 820.673 3176.4 830.573 3171.4C854.573 3159.1 882.473 3143.5 873.073 3110.7C868.273 3094.1 848.173 3082.3 832.773 3089.9C822.773 3094.9 817.473 3105.8 812.473 3115.8C807.573 3125.8 801.373 3136.5 790.873 3140.3C780.373 3144.1 765.773 3135.2 768.773 3124.4C784.773 3114.4 801.773 3103.4 809.273 3086.1C816.773 3068.8 809.473 3043.8 790.873 3040.4C768.873 3036.4 757.873 3065.2 739.373 3063.5C714.873 3061.5 733.473 3034.4 739.073 3023.3Z" fill="#FFD7CC"/>
<path d="M1574.87 1318.6C1586.07 1324.4 1602.07 1329.3 1609.57 1319.2C1615.37 1311.4 1611.37 1300.3 1606.37 1292C1582.17 1251.9 1536.57 1225.6 1489.77 1224.8C1442.97 1224 1396.47 1248.6 1370.77 1287.8C1345.07 1327 1341.27 1379.5 1360.87 1422C1365.17 1431.3 1370.97 1440.6 1380.27 1444.8C1389.57 1449 1402.77 1445.7 1405.77 1435.9C1409.47 1423.9 1396.97 1409.1 1404.97 1399.4C1410.67 1392.5 1422.27 1395.2 1428.67 1401.3C1435.07 1407.4 1438.77 1416.1 1445.17 1422.4C1451.47 1428.7 1462.97 1431.8 1468.97 1425.2C1474.17 1419.5 1472.07 1410.2 1467.97 1403.7C1463.67 1396.7 1450.37 1383.4 1451.57 1374.7C1452.07 1370.8 1455.27 1367.3 1459.07 1366.4C1466.27 1364.7 1472.77 1371.1 1476.07 1377.7C1483.97 1393.7 1494.07 1412.3 1515.87 1406.3C1526.87 1403.3 1534.87 1390.1 1529.97 1379.8C1526.77 1373.1 1519.57 1369.5 1513.07 1366.2C1506.57 1362.9 1499.47 1358.7 1497.07 1351.7C1494.67 1344.7 1500.67 1335.1 1507.77 1337.3C1514.27 1348 1521.37 1359.3 1532.77 1364.4C1544.17 1369.5 1560.77 1364.9 1563.17 1352.6C1566.07 1338.1 1547.07 1330.6 1548.37 1318.3C1549.87 1302.3 1567.57 1314.9 1574.87 1318.6Z" fill="#FFD7CC"/>
<path d="M1088.07 108.3C1088.17 111.7 1088.97 115.5 1091.77 117.3C1093.17 118.2 1094.97 118.5 1096.57 118.7C1119.97 122 1143.67 123.7 1167.37 123.7C1172.17 123.7 1177.07 123.6 1181.67 122.1C1186.27 120.6 1190.57 117.4 1192.27 112.9C1194.77 106.3 1190.87 98.6001 1185.17 94.5001C1179.47 90.4001 1172.27 88.9001 1165.27 87.6001C1158.37 86.3001 1151.17 84.8001 1145.47 80.6001C1136.97 74.4001 1132.77 62.9001 1123.27 58.6001C1116.67 55.6001 1108.17 57.0001 1102.87 62.0001C1096.67 67.9001 1098.47 75.0001 1096.17 82.2001C1093.17 91.6001 1087.77 97.5001 1088.07 108.3Z" fill="#D8BF8B"/>
<path d="M578.073 514.3C578.173 517.7 578.973 521.5 581.773 523.3C583.173 524.2 584.973 524.5 586.573 524.7C609.973 528 633.673 529.7 657.373 529.7C662.173 529.7 667.073 529.6 671.673 528.1C676.273 526.6 680.573 523.4 682.273 518.9C684.773 512.3 680.873 504.6 675.173 500.5C669.473 496.4 662.273 494.9 655.273 493.6C648.373 492.3 641.173 490.8 635.473 486.6C626.973 480.4 622.773 468.9 613.273 464.6C606.673 461.6 598.173 463 592.873 468C586.673 473.9 588.473 481 586.173 488.2C583.173 497.6 577.773 503.5 578.073 514.3Z" fill="#D8BF8B"/>
<path d="M1567.47 3757.1L1554.37 3735.3L1415.07 3824.5L1425.87 3944.8L1336.97 3978.1L1368.47 3779.6L1448.07 3717.3L1436.87 3662.1L1537.57 3620L1528.07 3596.3L1431.67 3636.6L1418.77 3573.4L1394.77 3578.3L1420.87 3706.4L1357.97 3755.7L1275.67 3674.2L1336.87 3538L1300.87 3509.3L1381.87 3417.6L1363.67 3400.2L1281.17 3493.6L1223.47 3447.6L1208.77 3467.7L1306.27 3545.4L1256.77 3655.5L1237.77 3636.7L1140.87 3606.3L1134.07 3630.7L1225.37 3659.3L1266.87 3700.4L1079.27 3720.8L1047.97 3613.5L1024.57 3620.5L1055.47 3726.7L949.172 3767.7L957.972 3791.6L1073.47 3747L1187.37 3734.7L1170.57 3782.4L1193.57 3791.5L1214.57 3731.7L1290.17 3723.5L1344.07 3776.8L1320.77 3923.2L1214.97 3865.2L1135.17 3804.8L1120.97 3825.3L1187.77 3875.9L1119.07 3928.1L1133.77 3948.7L1209.77 3890.9L1316.57 3949.5L1301.17 4046.5L1325.37 4051L1332.27 4007.1L1451.97 3962.2L1441.97 3850.1L1548.87 3890.7L1556.97 3866.8L1455.97 3828.4L1567.47 3757.1Z" fill="#FFCC33"/>
<path d="M1437.47 4710.2C1441.57 4696 1442.47 4681.9 1459.87 4674.9C1474.07 4669.2 1489.97 4671.3 1505.17 4672.6C1520.37 4673.9 1536.87 4674.1 1549.47 4665.4C1567.77 4652.8 1575.87 4623.3 1598.17 4622.7C1608.77 4622.4 1618.57 4629.6 1629.17 4629.2C1649.17 4628.4 1657.57 4604.3 1670.17 4588.8C1686.47 4568.6 1713.57 4561.5 1737.47 4551.4C1761.37 4541.3 1786.37 4522.8 1786.77 4496.8C1787.17 4471.2 1759.67 4450.4 1734.27 4454C1708.87 4457.6 1689.07 4481.1 1685.27 4506.4C1683.47 4518.4 1667.37 4516.7 1656.27 4512C1645.17 4507.3 1635.27 4498.1 1623.17 4498.1C1606.87 4498.1 1595.87 4514.6 1589.97 4529.8C1584.07 4545 1578.97 4562.4 1564.87 4570.6C1543.07 4583.1 1513.37 4565.7 1490.97 4577.1C1473.17 4586.1 1467.67 4609 1452.77 4622.1C1431.17 4641.1 1398.57 4636 1374.97 4650.5C1351.97 4664.6 1347.97 4695.4 1319.07 4704.8C1305.97 4709 1291.67 4707.7 1278.27 4710.9C1260.07 4715.2 1244.07 4728.3 1236.17 4745.3C1225.87 4767.6 1230.57 4797.1 1246.77 4815.7C1257.87 4828.5 1278.67 4828.3 1293.57 4820.1C1324.87 4802.7 1319.57 4756.2 1361.17 4751.8C1370.47 4750.8 1379.87 4752.5 1389.17 4751.8C1407.57 4750.4 1424.37 4738.2 1432.97 4722.1C1434.97 4718.1 1436.27 4714.1 1437.47 4710.2Z" fill="#008DB5"/>
<path d="M1195.07 5020.43C1239.66 4974.33 1312.91 4960.39 1373.05 4983.02C1433.18 5005.65 1477.98 5061.98 1490.94 5124.75C1459.89 5127.32 1428.78 5117.95 1401.34 5103.27C1373.9 5088.59 1349.42 5068.81 1325.26 5049.2C1343.42 5078.37 1361.81 5107.85 1373.11 5140.42C1384.38 5172.87 1388.05 5209.22 1376.54 5241.67C1340.99 5232.47 1311.72 5206.29 1291.52 5175.61C1271.31 5144.92 1258.75 5110.07 1246.53 5075.48C1251.21 5088.61 1226.92 5127.56 1220.52 5139.04C1214.19 5150.37 1192.5 5194.12 1178.31 5195.55C1162.1 5197.13 1156.18 5157.01 1154.69 5145.41C1151.91 5124.33 1153.81 5102.61 1159.71 5082.16C1166.49 5059.24 1178.47 5037.69 1195.07 5020.43Z" fill="#009158"/>
</svg>
