<svg width="1920" height="5950" viewBox="0 0 1920 5950" fill="none" xmlns="http://www.w3.org/2000/svg">
<mask id="mask0" mask-type="alpha" maskUnits="userSpaceOnUse" x="0" y="0" width="1920" height="5950">
<rect width="1920" height="5950" fill="#C4C4C4"/>
</mask>
<g mask="url(#mask0)">
<path d="M523.771 1793.3C519.171 1778.3 512.971 1763.1 501.271 1752.7C489.571 1742.3 471.071 1738.1 457.871 1746.7C448.171 1753.1 442.871 1765.1 432.271 1769.8C422.871 1773.9 412.171 1771 402.071 1769.3C391.971 1767.6 379.971 1767.9 373.571 1775.9C366.571 1784.8 370.471 1797.7 373.971 1808.6C377.471 1819.5 378.871 1833.7 369.371 1840C363.071 1844.2 353.271 1843.5 349.471 1850C346.771 1854.6 348.671 1860.5 350.871 1865.3C362.571 1890 384.171 1909.1 408.471 1921.6C431.671 1933.6 521.371 1969.1 535.971 1931.4C541.771 1916.4 535.771 1886.7 535.571 1870.5C535.271 1844.4 531.371 1818.3 523.771 1793.3Z" fill="#FFDF00"/>
<path d="M1098.77 1571.2C1080.07 1569.3 1060.27 1569.2 1043.37 1577.4C1026.47 1585.6 1013.27 1604.2 1016.77 1622.7C1019.37 1636.4 1030.27 1647.9 1030.47 1661.8C1030.67 1674.1 1022.57 1684.7 1015.97 1695.1C1009.47 1705.5 1004.17 1719 1010.17 1729.7C1016.87 1741.6 1032.97 1743.2 1046.57 1744.4C1060.17 1745.6 1076.67 1750.6 1079.27 1764C1080.97 1772.9 1075.77 1783.4 1081.27 1790.7C1085.17 1795.8 1092.47 1796.5 1098.87 1796.2C1131.67 1794.7 1162.77 1779.5 1187.87 1758.3C1211.87 1738.1 1292.67 1655.1 1257.57 1621.5C1243.57 1608.1 1207.87 1601 1189.97 1593.8C1160.77 1581.9 1129.97 1574.3 1098.77 1571.2Z" fill="#E2F1DD"/>
<path d="M260.073 4662.3C207.973 4732 219.173 4827.7 257.873 4900.5C261.673 4907.6 266.073 4914.9 273.173 4918.8C280.273 4922.7 290.673 4921.6 294.473 4914.5C297.073 4909.6 295.873 4903.6 294.673 4898.2C288.173 4869.7 280.273 4841.2 274.173 4812.8C270.473 4795.9 269.673 4778.5 268.673 4761.3C267.773 4746.4 265.373 4731.6 266.873 4716.8C270.073 4686.7 274.873 4660.4 298.473 4638.8C304.273 4633.5 312.773 4628.7 319.773 4632.5C326.273 4636.1 327.173 4645.4 324.373 4652.2C321.573 4659 316.073 4664.4 311.973 4670.5C307.073 4677.9 307.173 4685.2 306.873 4693.7C302.573 4795.6 325.273 4897.5 375.573 4986.5C380.673 4995.5 388.073 5005.6 398.473 5005.2C407.473 5004.8 414.273 4995.9 415.473 4987C416.673 4978 413.673 4969.1 410.773 4960.6C389.873 4899.5 368.973 4838.5 347.973 4777.4C339.073 4751.5 332.573 4723.5 332.473 4696.1C332.473 4691.8 332.773 4687.4 334.573 4683.5C336.273 4679.6 339.573 4676.1 343.773 4675.1C349.973 4673.6 356.473 4677.9 359.573 4683.6C362.673 4689.3 363.073 4695.9 363.473 4702.3C364.773 4724.3 374.373 4744.1 381.873 4764.8C389.873 4786.7 397.773 4808.6 405.773 4830.5C416.373 4859.6 427.373 4889.5 447.573 4913C461.373 4929.1 481.673 4943.6 503.073 4946.7C524.273 4949.7 521.973 4932.8 514.273 4919.1C507.073 4906.4 499.973 4893.8 492.773 4881.1C477.973 4855 463.173 4828.8 448.373 4802.7C436.873 4782.3 425.673 4761.6 413.773 4741.4C402.973 4723.1 387.473 4706.4 374.373 4689.6C371.273 4685.6 368.073 4681.6 366.573 4676.8C365.073 4672 365.273 4666.3 368.573 4662.5C372.273 4658.2 378.973 4657.4 384.373 4659.3C389.773 4661.2 394.173 4665 398.373 4668.9C415.273 4684.7 430.673 4702 444.373 4720.6C451.173 4729.9 457.573 4739.5 463.573 4749.4C468.773 4758.1 476.273 4764.7 483.373 4772C516.273 4805.3 549.273 4838.7 582.173 4872C588.773 4878.6 596.973 4885.8 606.073 4884.1C614.373 4882.5 619.673 4873.6 619.973 4865.1C620.273 4856.6 616.673 4848.5 613.073 4840.9C591.473 4796 563.273 4754.3 529.973 4717.2C513.373 4698.7 494.773 4682.7 476.873 4665.7C460.673 4650.2 434.873 4641.5 414.773 4631.3C408.273 4628 400.873 4623.1 401.373 4615.9C401.873 4608.4 410.673 4604.5 418.173 4603.7C441.973 4601.2 455.273 4613.3 472.373 4626.7C482.373 4634.6 494.673 4640.2 505.073 4647.8C515.073 4655.2 524.773 4663 534.273 4671C571.673 4702.2 609.073 4733.3 646.573 4764.5C659.073 4774.9 679.173 4785 689.673 4772.6C696.973 4764 693.073 4750.8 688.273 4740.6C668.073 4697.3 636.973 4659.3 599.473 4629.8C580.473 4614.9 559.773 4602.1 537.973 4591.9C527.273 4586.9 516.273 4582.5 505.073 4578.7C495.373 4575.5 486.873 4570.1 476.373 4573.4C469.773 4575.5 463.573 4579.2 456.673 4580.2C449.773 4581.2 441.473 4578.4 439.573 4571.7C438.273 4567 440.673 4561.8 444.473 4558.6C448.273 4555.4 453.073 4553.9 457.873 4552.8C503.673 4542.4 551.573 4566.1 586.673 4593.6C610.073 4612 631.573 4633.1 657.473 4647.7C660.573 4649.5 664.473 4651.1 667.573 4649.5C670.373 4648 671.373 4644.2 670.673 4641.1C669.973 4638 667.973 4635.3 665.973 4632.8C641.773 4601.5 621.873 4569.2 589.273 4545.6C560.473 4524.6 525.473 4510.4 489.773 4512.2C439.473 4514.7 425.673 4550.1 389.673 4574.5C344.373 4605 294.773 4615.8 260.073 4662.3Z" fill="#FFD7CC"/>
<path d="M955.273 5647.2C961.573 5606.7 967.773 5566.3 974.073 5525.8C992.173 5569.6 1010.27 5613.4 1028.47 5657.3C1025.77 5600 1023.07 5542.6 1020.37 5485.3C1049.37 5550.6 1098.17 5606.8 1158.67 5644.7C1144.87 5588.2 1131.07 5531.6 1117.27 5475.1C1162.77 5505.3 1208.27 5535.5 1253.87 5565.7C1214.77 5508.3 1175.67 5450.9 1136.57 5393.6C1194.67 5441 1271.67 5464.5 1346.37 5457.9C1288.47 5419.6 1230.67 5381.2 1172.77 5342.9C1136.27 5318.7 1098.47 5294 1055.37 5286.3C1022.87 5280.5 980.473 5286.2 956.173 5310.9C937.373 5330 938.073 5369.3 933.573 5394.6C918.173 5478.8 925.573 5567 955.273 5647.2Z" fill="#FF863A"/>
<path d="M1676.97 4365.3C1690.27 4363.2 1698.97 4349.6 1702.17 4337.5C1705.57 4324.7 1704.97 4311.1 1707.07 4298C1711.67 4269.2 1730.27 4242.9 1755.87 4228.9C1775.97 4217.9 1799.77 4214.3 1818.97 4201.6C1838.17 4188.9 1850.97 4160.9 1836.37 4143.2C1825.87 4130.5 1805.77 4129.7 1790.97 4136.9C1776.17 4144.1 1765.37 4157.4 1755.17 4170.2C1760.17 4139.5 1765.17 4108.8 1770.17 4078.2C1783.67 4062.2 1794.97 4056.3 1808.47 4040.3C1818.67 4028.3 1829.17 4015.7 1833.57 4000.6C1838.07 3985.5 1834.87 3966.9 1821.97 3957.8C1773.07 3923.3 1760.07 4016.7 1759.77 4044C1759.57 4030.7 1756.47 4017.4 1750.67 4005.5C1747.77 3999.4 1743.97 3993.6 1738.67 3989.5C1724.67 3978.7 1704.57 3990.2 1698.37 4004.9C1692.07 4019.6 1697.87 4036.4 1703.67 4051.3C1713.37 4076.4 1723.07 4101.5 1732.77 4126.7C1730.67 4128.8 1727.87 4129.5 1725.77 4131.6C1712.27 4109.8 1698.77 4087.9 1685.17 4066.1C1679.07 4056.2 1669.17 4044.8 1658.07 4048.4C1648.77 4051.5 1645.97 4064 1649.47 4073.1C1652.97 4082.2 1660.87 4088.8 1667.77 4095.7C1673.37 4101.3 1677.67 4106.8 1683.77 4111.6C1689.97 4116.5 1695.17 4122.4 1699.37 4129C1707.77 4142.2 1712.27 4157.8 1713.27 4173.3C1715.07 4199.7 1708.27 4225.9 1701.77 4251.5C1696.87 4271 1692.97 4290.8 1689.17 4310.5C1686.07 4327.9 1685.17 4349.8 1676.97 4365.3Z" fill="#00B590"/>
<path d="M1397.37 4316.1C1453.67 4362.6 1476.07 4444.4 1455.87 4514.6C1435.57 4584.7 1375.77 4640.8 1305.67 4661.1C1299.97 4626.1 1307.87 4590 1322.07 4557.5C1336.27 4525 1356.47 4495.6 1376.47 4466.3C1344.97 4489.6 1313.17 4513.1 1277.27 4528.8C1241.37 4544.5 1200.57 4551.9 1162.77 4541.8C1169.97 4500.6 1197.07 4465.1 1229.97 4439.4C1262.87 4413.6 1301.37 4396.3 1339.57 4379.3C1325.07 4385.8 1278.77 4361.7 1265.17 4355.5C1251.77 4349.4 1200.17 4328.7 1197.27 4312.7C1193.97 4294.5 1239.07 4284.2 1251.97 4281.4C1275.67 4276.4 1300.47 4276.5 1324.17 4281.4C1350.87 4287 1376.37 4298.7 1397.37 4316.1Z" fill="#8BCBCA"/>
<path d="M457.872 3922.5C453.072 3948.3 450.672 3975.7 460.072 4000.2C469.472 4024.7 493.772 4045.2 519.872 4042.5C539.172 4040.5 556.372 4026.7 575.672 4028C592.772 4029.1 606.572 4041.7 620.172 4052C633.772 4062.3 651.972 4071.2 667.572 4064.1C684.872 4056.2 688.972 4034 692.172 4015.3C695.472 3996.5 704.172 3974.3 723.172 3972.2C735.772 3970.8 749.772 3979.4 760.472 3972.6C767.972 3967.8 769.772 3957.7 770.072 3948.8C771.772 3903.1 754.272 3858.1 727.872 3820.9C702.572 3785.2 596.872 3663.4 546.072 3708.2C525.772 3726.1 511.872 3774.8 499.672 3798.9C479.972 3837.7 465.772 3879.5 457.872 3922.5Z" fill="#E2F1DD"/>
<path d="M1887.07 5137.4C1912.67 5129.2 1941.27 5141 1960.37 5159.9C1979.47 5178.8 1990.97 5203.9 2002.17 5228.4C2009.87 5245.4 2017.77 5264.1 2012.87 5282.1C2007.97 5300.1 1983.47 5312.9 1969.97 5300C1977.67 5349.8 1978.97 5400.7 1973.67 5450.9C1972.07 5466.4 1969.17 5483.1 1957.77 5493.8C1946.37 5504.4 1923.77 5503.3 1918.77 5488.5C1902.37 5528.7 1883.57 5568.3 1867.17 5608.5C1861.47 5622.3 1855.67 5636.5 1845.47 5647.4C1835.27 5658.3 1819.57 5665.4 1805.27 5661.4C1790.87 5657.4 1780.87 5639.4 1788.27 5626.4C1763.57 5644.1 1738.87 5661.8 1714.07 5679.5C1695.57 5692.8 1670.97 5706.4 1651.67 5694.3C1644.87 5690.1 1640.17 5683.3 1633.87 5678.4C1619.67 5667.3 1599.77 5667.6 1581.97 5670.5C1564.17 5673.4 1546.17 5678.5 1528.37 5675.4C1510.57 5672.3 1493.17 5657.3 1494.97 5639.4C1505.97 5627.2 1516.97 5607.5 1504.87 5596.4C1500.87 5592.7 1495.17 5591.3 1490.37 5588.5C1476.07 5580.1 1472.87 5559.4 1479.77 5544.3C1486.67 5529.2 1501.07 5518.9 1515.87 5511.3C1551.57 5492.9 1593.37 5486.3 1632.97 5492.9C1620.87 5488.4 1620.47 5469.7 1629.37 5460.4C1638.27 5451 1652.07 5448.6 1664.87 5446.7C1696.57 5441.9 1728.27 5437.1 1760.07 5432.3C1747.57 5437.6 1735.77 5419.3 1741.07 5406.7C1746.37 5394.2 1760.17 5387.9 1772.87 5382.8C1804.37 5370.1 1835.87 5357.4 1867.37 5344.8C1859.77 5334.6 1846.67 5328.9 1834.07 5330.2C1824.07 5338.1 1831.97 5335.1 1824.27 5325C1816.57 5314.9 1816.27 5300.5 1820.77 5288.6C1825.37 5276.7 1834.17 5267 1843.47 5258.3C1852.77 5249.7 1862.97 5241.8 1871.37 5232.2C1876.07 5226.8 1880.27 5220.7 1881.77 5213.7C1883.27 5206.7 1881.47 5198.7 1875.87 5194.1C1872.77 5191.6 1868.87 5190.4 1865.57 5188.2C1855.57 5181.8 1852.47 5167.5 1857.27 5156.7C1862.07 5146 1875.77 5141 1887.07 5137.4Z" fill="#36C7C1"/>
<path d="M702.271 5114.6C713.871 5112.8 725.671 5118.3 732.771 5126.1C739.971 5133.9 743.371 5143.6 746.471 5153.1C769.471 5224.2 779.771 5298.2 776.871 5371.9C775.671 5401.1 770.871 5433.1 745.071 5452.8C728.171 5465.7 704.471 5471 681.671 5470.5C658.871 5470 636.671 5464.2 615.471 5457C550.671 5435.2 491.971 5400.8 445.471 5357.2C438.571 5350.8 431.871 5343.9 429.271 5335.5C426.671 5327.2 429.371 5317.1 438.171 5312.6C450.371 5306.4 465.671 5313.7 477.171 5320.7C515.571 5344.1 553.871 5367.5 592.271 5391C564.471 5374 539.471 5346 517.571 5324C493.471 5299.8 444.671 5269 443.571 5234.4C442.471 5198.1 495.771 5229.9 511.071 5240.2C534.171 5255.7 554.071 5274.2 573.971 5292.5C593.971 5310.9 613.871 5329.3 633.871 5347.7C590.871 5300.4 547.871 5253 504.871 5205.7C493.371 5193.1 481.671 5179.9 478.171 5164.3C474.671 5148.7 482.471 5130.2 500.171 5124.7C513.471 5120.6 528.871 5124.9 539.771 5132.5C550.671 5140.1 557.971 5150.7 565.071 5161.1C599.571 5211.4 634.071 5261.7 668.571 5312C677.771 5281.6 663.371 5249.9 646.271 5222.1C629.171 5194.3 608.671 5166.7 604.271 5135.6C603.071 5126.8 603.271 5117.5 607.871 5109.5C612.471 5101.5 622.271 5095.1 632.871 5095.6C650.571 5096.5 659.271 5113.6 663.971 5128C679.271 5174.4 694.571 5220.7 709.771 5267.1C714.371 5281 715.471 5297.4 724.371 5310.1C734.771 5324.9 749.571 5322 754.071 5304C757.671 5289.6 701.671 5114.7 702.271 5114.6Z" fill="#FFDF00"/>
<path d="M654.272 2642.9C663.172 2644.3 671.872 2643.8 677.372 2653.9C681.872 2662.1 681.772 2671.9 682.072 2681.3C682.372 2690.6 683.572 2700.7 689.672 2707.7C698.672 2717.9 717.172 2720.6 719.272 2734.1C720.272 2740.5 716.572 2747 717.672 2753.4C719.572 2765.5 734.872 2768.8 745.272 2775.3C758.772 2783.7 765.072 2799.7 772.972 2813.5C780.872 2827.3 793.972 2841.1 809.772 2839.4C825.372 2837.8 835.972 2819.5 831.872 2804.4C827.772 2789.2 812.072 2778.9 796.372 2778.5C788.972 2778.3 788.772 2768.4 790.772 2761.3C792.772 2754.2 797.672 2747.5 796.772 2740.1C795.572 2730.2 784.772 2724.7 775.072 2722.2C765.372 2719.7 754.472 2718 748.472 2710C739.272 2697.7 747.572 2678.4 739.072 2665.5C732.272 2655.4 717.972 2653.7 708.872 2645.6C695.772 2633.9 696.472 2613.7 685.872 2600.4C675.572 2587.5 656.572 2587.3 648.772 2570.5C645.172 2562.8 644.972 2554.1 642.072 2546.2C638.072 2535.4 628.972 2526.7 618.072 2523.2C603.772 2518.6 586.172 2523.7 576.072 2534.8C569.072 2542.5 570.772 2555.1 576.872 2563.5C589.772 2581.2 617.572 2574.6 623.372 2599.5C624.672 2605.1 624.372 2610.9 625.472 2616.5C627.672 2627.6 636.272 2636.9 646.772 2640.9C649.272 2641.9 651.772 2642.5 654.272 2642.9Z" fill="#FFDF00"/>
<path d="M421.273 665.1C413.573 667.9 406.173 676.7 410.673 683.5C413.373 687.6 418.973 688.4 423.973 688.8C445.873 690.7 467.773 692.6 489.673 694.4C506.973 695.9 524.373 697.4 541.473 694.7C558.573 692 575.673 685 586.873 671.8C588.673 669.7 590.473 667.2 590.473 664.4C590.573 659.8 585.973 656.2 581.373 655.6C576.773 655 572.273 656.5 567.773 657.8C549.773 662.9 530.673 663.6 512.373 659.8C500.373 657.3 488.673 653 476.573 650.8C453.773 646.6 441.273 657.7 421.273 665.1Z" fill="#767777"/>
<path d="M1528.37 540.8C1524.07 550.9 1522.07 563.2 1527.77 572.6C1535.57 585.2 1552.97 586.8 1567.87 586.9C1579.07 587 1590.27 587.1 1601.37 587.2C1612.47 587.3 1624.77 587 1632.97 579.5C1642.07 571.3 1642.87 557.2 1640.37 545.2C1637.77 532.7 1632.27 520.7 1623.47 511.5C1591.37 478.2 1544.17 504.3 1528.37 540.8Z" fill="#A38D6F"/>
<path d="M539.072 961.3C538.672 953.2 536.072 943.9 528.572 940.6C521.372 937.4 512.372 941.1 505.272 937.6C498.472 934.2 496.272 925.5 496.572 917.9C496.972 910.3 499.072 902.7 497.872 895.2C496.172 884.5 487.972 876.1 483.372 866.3C478.772 856.5 479.672 841.8 489.972 838.4C498.572 835.5 507.572 843.3 510.372 851.9C513.172 860.5 511.772 869.9 512.272 879C512.772 888.1 515.872 898.1 524.072 902.1C533.672 906.8 546.672 901.4 554.872 908.1C568.372 919.2 553.172 949.3 569.672 955.4C586.672 961.7 589.872 939.6 584.272 929.3C582.172 925.5 580.472 920.7 582.772 917.1C585.572 912.7 592.072 913.1 596.972 914.8C601.872 916.5 607.072 919.1 611.972 917.4C618.072 915.3 620.272 907.4 618.872 901.1C617.472 894.8 613.572 889.4 610.872 883.6C606.772 874.7 607.172 858.9 620.372 858.6C625.672 858.5 630.572 861 635.272 863.5C652.772 872.8 670.072 865.1 681.072 849C687.572 839.4 691.172 827.2 700.772 820.7C714.672 811.3 736.072 820.6 740.972 836.6C745.872 852.6 735.772 870.9 720.572 877.9C709.472 883 694.972 884.2 689.072 894.8C683.572 904.7 688.672 917.7 683.872 928C675.972 944.9 650.472 940.9 634.772 950.8C625.872 956.4 620.572 966.1 615.472 975.3C594.472 1012.6 541.472 1005.9 539.072 961.3Z" fill="#93ACD1"/>
<path d="M240.372 5764.1C241.072 5754.8 239.772 5742.5 230.672 5740.3C223.672 5738.6 217.272 5744.6 213.072 5750.4C192.872 5778.6 188.272 5817.2 201.372 5849.3C214.472 5881.4 244.772 5905.9 278.872 5911.9C312.972 5917.9 349.872 5905.2 373.072 5879.5C378.172 5873.9 382.772 5867.2 382.972 5859.7C383.172 5852.2 376.972 5844.1 369.472 5844.9C360.172 5845.9 353.872 5858.7 344.872 5856.1C338.472 5854.3 336.972 5845.6 339.272 5839.4C341.572 5833.2 346.372 5828.2 348.872 5822.1C351.272 5816 350.072 5807.3 343.872 5805.1C338.472 5803.2 332.772 5807.4 329.572 5812C326.072 5817 320.972 5829.9 314.672 5831.6C311.872 5832.4 308.572 5831.3 306.872 5828.9C303.572 5824.5 306.072 5818.2 309.672 5814C318.272 5804 327.972 5791.7 317.572 5778.6C312.272 5772 300.972 5770.4 295.472 5776.7C291.872 5780.8 291.472 5786.7 291.172 5792.2C290.772 5797.7 290.072 5803.7 285.972 5807.3C281.872 5811 273.672 5809.7 273.072 5804.2C278.472 5796.7 284.072 5788.5 284.272 5779.3C284.472 5770.1 276.472 5760.1 267.372 5762.1C256.672 5764.4 257.072 5779.5 248.372 5782.2C236.572 5785.9 239.872 5770.1 240.372 5764.1Z" fill="#FF863A"/>
</g>
</svg>
