<svg width="2585" height="5950" viewBox="0 0 2585 5950" fill="none" xmlns="http://www.w3.org/2000/svg">
<mask id="mask0" mask-type="alpha" maskUnits="userSpaceOnUse" x="0" y="0" width="2585" height="5950">
<rect width="2585" height="5950" fill="#C4C4C4"/>
</mask>
<g mask="url(#mask0)">
<path d="M2063.3 3680.74C2071.9 3663.64 2078.9 3639.44 2063.4 3628.14C2051.5 3619.54 2034.8 3625.84 2022.3 3633.54C1962.2 3670.94 1923.4 3740.44 1923 3811.24C1922.6 3882.04 1960.9 3951.94 2020.7 3989.84C2080.5 4027.74 2160 4032.54 2223.9 4002.14C2237.8 3995.54 2251.8 3986.44 2258 3972.34C2264.2 3958.24 2258.8 3938.34 2244.1 3933.94C2225.9 3928.54 2203.8 3947.74 2189 3935.94C2178.4 3927.54 2182.2 3909.84 2191.4 3899.94C2200.6 3890.04 2213.6 3884.34 2223 3874.64C2232.4 3864.94 2236.9 3847.54 2226.7 3838.64C2218 3830.94 2204 3834.24 2194.2 3840.54C2183.8 3847.24 2163.9 3867.54 2150.7 3865.94C2144.7 3865.24 2139.5 3860.54 2138 3854.74C2135.2 3843.94 2144.9 3833.84 2154.8 3828.84C2178.8 3816.54 2206.7 3800.94 2197.3 3768.14C2192.5 3751.54 2172.4 3739.74 2157 3747.34C2147 3752.34 2141.7 3763.24 2136.7 3773.24C2131.8 3783.24 2125.6 3793.94 2115.1 3797.74C2104.6 3801.54 2090 3792.64 2093 3781.84C2109 3771.84 2126 3760.84 2133.5 3743.54C2141 3726.24 2133.7 3701.24 2115.1 3697.84C2093.1 3693.84 2082.1 3722.64 2063.6 3720.94C2039.1 3718.94 2057.7 3691.84 2063.3 3680.74Z" fill="#EF3C45"/>
<path d="M2032.51 5500.28C1951.89 5496.46 1884.15 5554.87 1848.37 5622.47C1844.91 5629.04 1841.52 5636.25 1842.29 5643.68C1843.07 5651.1 1849.22 5658.53 1856.72 5657.82C1861.88 5657.33 1865.84 5653.22 1869.3 5649.48C1887.76 5629.61 1905.65 5608.75 1924.25 5589.3C1935.35 5577.64 1948.22 5568.02 1960.95 5558.26C1971.91 5549.85 1982.09 5540.23 1994.18 5533.79C2019 5520.57 2041.7 5510.6 2070.55 5517.53C2077.69 5519.3 2085.75 5523.26 2086.46 5530.61C2087.09 5537.47 2080.38 5543.06 2073.66 5544.4C2066.94 5545.74 2060.01 5544.33 2053.08 5544.33C2044.81 5544.4 2039.29 5548.36 2032.65 5552.46C1952.11 5602.17 1885.64 5672.6 1843.42 5757.52C1839.18 5766.15 1835.22 5777.04 1841.02 5784.82C1846.04 5791.54 1856.44 5792.17 1863.86 5788.42C1871.28 5784.68 1876.66 5777.75 1881.75 5771.1C1917.81 5723.3 1953.8 5675.43 1989.87 5627.63C2005.14 5607.4 2023.24 5587.75 2044.31 5573.46C2047.57 5571.2 2051.17 5569.15 2055.13 5568.44C2059.09 5567.74 2063.41 5568.37 2066.38 5571.06C2070.83 5575.09 2070.83 5582.3 2068.07 5587.61C2065.31 5592.91 2060.44 5596.66 2055.63 5600.33C2039.36 5612.78 2029.18 5630.46 2017.16 5647C2004.5 5664.47 1991.78 5682 1979.19 5699.54C1962.36 5722.87 1945.18 5746.85 1937.54 5774.56C1932.31 5793.51 1931.74 5816.71 1940.58 5834.74C1949.28 5852.63 1961.09 5842.09 1967.52 5829.01C1973.53 5816.92 1979.54 5804.83 1985.55 5792.74C1997.93 5767.78 2010.3 5742.82 2022.75 5717.92C2032.43 5698.48 2042.55 5679.18 2051.88 5659.52C2060.37 5641.7 2065.1 5621.12 2071.18 5602.31C2072.67 5597.86 2074.08 5593.33 2076.91 5589.66C2079.74 5585.98 2084.34 5583.22 2088.93 5583.72C2094.24 5584.35 2098.27 5589.09 2099.68 5594.18C2101.09 5599.27 2100.46 5604.72 2099.61 5609.95C2096.29 5631.09 2090.91 5652.02 2083.77 5672.18C2080.16 5682.29 2076.06 5692.19 2071.54 5701.94C2067.51 5710.5 2066.3 5719.62 2064.47 5728.96C2055.98 5771.52 2047.5 5814.23 2039.01 5856.8C2037.31 5865.29 2036.04 5875.33 2042.19 5881.48C2047.78 5887.06 2057.4 5886.5 2063.97 5882.33C2070.62 5878.08 2075 5871.16 2078.96 5864.37C2102.23 5824.42 2119.69 5781.07 2130.79 5736.17C2136.38 5713.75 2139 5691.2 2142.74 5668.5C2146.14 5647.99 2139.49 5623.67 2136.87 5602.95C2136.03 5596.3 2135.95 5588.03 2141.75 5584.64C2147.83 5581.1 2155.33 5585.91 2159.86 5591.14C2174.21 5608.18 2171.73 5624.66 2170.32 5644.74C2169.47 5656.48 2171.59 5668.92 2171.1 5680.87C2170.6 5692.4 2169.61 5703.85 2168.48 5715.45C2163.96 5760.42 2159.5 5805.32 2155.05 5850.37C2153.56 5865.43 2156.25 5886.07 2171.31 5887.7C2181.78 5888.83 2189.77 5879 2195.21 5870.02C2217.98 5831.98 2231.06 5788.35 2234.1 5744.16C2235.66 5721.81 2234.74 5699.26 2231.27 5677.13C2229.51 5666.31 2227.24 5655.56 2224.34 5645.02C2221.8 5635.83 2221.44 5626.57 2213.52 5620.2C2208.5 5616.17 2202.42 5613.34 2198.04 5608.68C2193.65 5603.87 2191.53 5596.09 2195.63 5591.14C2198.53 5587.68 2203.77 5586.83 2208.22 5588.03C2212.61 5589.3 2216.28 5592.27 2219.61 5595.31C2251.35 5625.08 2258.14 5674.15 2255.24 5715.52C2253.33 5743.03 2248.31 5770.53 2250.51 5798.04C2250.72 5801.36 2251.43 5805.18 2254.4 5806.74C2257.01 5808.08 2260.41 5806.95 2262.46 5804.76C2264.51 5802.57 2265.43 5799.67 2266.42 5796.84C2277.8 5761.98 2292.37 5729.88 2293.57 5692.61C2294.7 5659.52 2287.42 5625.22 2267.48 5598.78C2239.33 5561.44 2205.04 5569.29 2167.56 5554.3C2120.4 5535.28 2086.25 5502.82 2032.51 5500.28Z" fill="#D13355"/>
<path d="M1561.89 5290.73C1509.95 5283.28 1465.59 5241.41 1451.75 5190.69C1437.91 5139.98 1453.77 5083.27 1489.16 5044.59C1505.76 5063.94 1514.47 5089.05 1517.89 5114.28C1521.32 5139.51 1519.95 5165.21 1518.54 5190.64C1529.16 5164.61 1539.88 5138.28 1556.05 5115.17C1572.16 5092.15 1594.5 5072.28 1621.52 5064.35C1632.47 5092.32 1629.16 5124.28 1618.5 5152.38C1607.85 5180.49 1590.77 5205.53 1573.71 5230.22C1580.17 5220.82 1617.63 5218.25 1628.31 5216.98C1638.85 5215.74 1678.26 5209.14 1686.01 5217.86C1694.83 5227.85 1671.08 5251.01 1664.1 5257.56C1651.46 5269.52 1636.15 5278.67 1619.76 5284.56C1601.32 5291.06 1581.29 5293.45 1561.89 5290.73Z" fill="#FFD7CC"/>
<path d="M334.241 5548.49C330.459 5474.78 376.104 5402.13 442.32 5369.31C508.444 5336.45 591.138 5342.78 654.216 5381.24C632.021 5409.43 599.746 5428.2 565.823 5439.83C531.9 5451.45 496.169 5456.51 460.662 5461.56C499.5 5469.07 538.791 5476.79 575.021 5492.79C611.25 5508.8 644.675 5534.19 662.953 5569.21C627.397 5591.98 582.329 5596.02 540.69 5589.08C499.051 5582.14 459.708 5565.25 420.993 5548.43C435.68 5554.79 449.427 5605.78 454.111 5620.18C458.787 5634.36 478.532 5686.92 468.633 5699.97C457.357 5714.8 418.842 5688.27 407.872 5680.54C387.893 5666.33 371.139 5647.78 358.606 5626.77C344.338 5603.08 335.605 5576 334.241 5548.49Z" fill="#ACB8DE"/>
<path d="M894.076 3930.08C896.055 3946.77 885.416 3962.91 871.541 3972.26C857.666 3981.6 840.889 3985.72 824.592 3989.66C813.266 3992.36 800.807 3994.92 790.34 3989.81C779.873 3984.69 774.981 3968.13 784.502 3961.46C753.07 3960.17 721.756 3954.93 691.663 3945.66C682.341 3942.8 672.475 3939.01 667.307 3930.78C662.139 3922.55 665.552 3908.8 675.274 3907.55C652.629 3892.62 630.599 3876.39 607.969 3861.56C600.132 3856.46 592.167 3851.18 586.791 3843.58C581.415 3835.99 578.85 3825.56 583.072 3817.25C587.294 3808.93 599.433 3804.9 606.512 3811.03C598.59 3793.8 590.752 3776.47 582.83 3759.25C576.955 3746.27 571.539 3729.59 581.222 3719.25C584.623 3715.61 589.363 3713.49 593.134 3710.3C601.633 3702.87 603.866 3690.7 604.21 3679.43C604.554 3668.16 603.637 3656.57 607.634 3646.06C611.73 3635.54 622.95 3626.7 633.745 3629.94C639.917 3638.12 650.676 3647.24 658.871 3641.16C661.603 3639.14 663.14 3635.88 665.471 3633.21C672.398 3625.4 685.426 3625.99 693.806 3632.02C702.185 3638.05 706.812 3648.08 709.714 3658.06C716.743 3682.19 715.71 3708.53 706.967 3731.97C711.197 3725.07 722.622 3727.11 727.342 3733.69C731.963 3740.28 731.844 3749 731.524 3757.03C730.666 3777.07 729.793 3797.02 728.935 3817.07C727.189 3808.73 739.888 3803.71 746.86 3808.43C753.93 3813.14 756.021 3822.44 757.669 3830.78C761.68 3851.62 765.593 3872.47 769.59 3893.21C776.769 3889.82 781.845 3882.49 782.492 3874.61C778.915 3867.56 779.695 3872.8 786.844 3869.21C794.008 3865.71 802.828 3867.23 809.528 3871.49C816.228 3875.75 821.146 3882.3 825.386 3889.05C829.527 3895.81 833.119 3902.96 837.992 3909.21C840.742 3912.75 843.973 3916.11 848.07 3917.82C852.167 3919.54 857.314 3919.48 860.72 3916.55C862.605 3914.95 863.893 3912.74 865.537 3910.87C870.611 3905.57 879.774 3905.32 885.866 3909.57C891.845 3913.73 893.283 3922.72 894.076 3930.08Z" fill="#ACB8DE"/>
<path d="M1176.68 5812.81C1170.71 5829.6 1168.25 5847.57 1166.82 5865.28C1165 5888.85 1165.26 5913.98 1177.59 5934.16C1181.48 5940.41 1186.67 5946.27 1193.67 5948.74C1203.01 5952 1213.52 5948.61 1221.17 5942.36C1227.13 5937.54 1233.62 5928.56 1242.31 5928.43C1252.43 5928.3 1260.47 5942.49 1270.07 5946.4C1282.91 5951.61 1300.29 5948.22 1306 5935.72C1308.98 5929.21 1308.33 5921.79 1309.37 5914.76C1310.28 5907.73 1313.78 5900.04 1320.65 5898.22C1328.56 5896.27 1335.7 5903.17 1343.61 5905.12C1354.12 5907.73 1365.14 5900.83 1370.33 5891.32C1375.52 5881.82 1375.65 5870.36 1374.22 5859.68C1370.72 5834.42 1358.4 5810.72 1340.5 5792.75C1322.6 5774.79 1299.25 5762.42 1274.48 5756.82C1253.33 5752 1229.34 5752.65 1210.53 5764.37C1194.58 5774.4 1182.9 5795.36 1176.68 5812.81Z" fill="#FFDF00"/>
<path d="M602.678 4329.81C596.712 4346.6 594.247 4364.57 592.821 4382.28C591.005 4405.85 591.264 4430.98 603.586 4451.16C607.477 4457.41 612.666 4463.27 619.67 4465.74C629.009 4469 639.515 4465.61 647.168 4459.36C653.134 4454.54 659.62 4445.56 668.31 4445.43C678.427 4445.3 686.469 4459.49 696.067 4463.4C708.908 4468.61 726.289 4465.22 731.996 4452.72C734.979 4446.21 734.331 4438.79 735.368 4431.76C736.276 4424.73 739.778 4417.04 746.653 4415.22C754.565 4413.27 761.699 4420.17 769.611 4422.12C780.117 4424.73 791.142 4417.83 796.331 4408.32C801.519 4398.82 801.649 4387.36 800.222 4376.68C796.72 4351.42 784.398 4327.72 766.498 4309.75C748.598 4291.79 725.251 4279.42 700.477 4273.82C679.335 4269 655.339 4269.65 636.532 4281.37C620.578 4291.4 608.904 4312.36 602.678 4329.81Z" fill="#EF3C45"/>
<path d="M1222.55 4770.01C1230.32 4753.96 1234.73 4736.37 1238.08 4718.93C1242.45 4695.7 1244.94 4670.69 1234.89 4649.28C1231.7 4642.65 1227.19 4636.26 1220.49 4633.03C1211.56 4628.78 1200.75 4631 1192.46 4636.38C1186.01 4640.51 1178.58 4648.74 1169.93 4647.92C1159.86 4646.94 1153.41 4631.96 1144.3 4627.03C1132.1 4620.45 1114.45 4621.92 1107.42 4633.72C1103.74 4639.87 1103.58 4647.32 1101.78 4654.19C1100.11 4661.08 1095.79 4668.34 1088.76 4669.4C1080.68 4670.48 1074.34 4662.84 1066.69 4660.03C1056.53 4656.3 1044.82 4661.96 1038.62 4670.84C1032.43 4679.72 1031.05 4691.1 1031.3 4701.87C1032.03 4727.36 1041.69 4752.26 1057.52 4772.07C1073.36 4791.88 1095.22 4806.73 1119.23 4815C1139.72 4822.09 1163.64 4824.06 1183.62 4814.46C1200.57 4806.24 1214.46 4786.67 1222.55 4770.01Z" fill="#008753"/>
<path d="M568.555 5838.81C559.563 5842.53 551.374 5848.09 543.669 5853.98C533.446 5861.86 523.346 5871.14 519.656 5883.51C518.54 5887.37 518.057 5891.61 519.61 5895.35C521.698 5900.33 526.906 5903.35 532.235 5904.17C536.367 5904.83 542.378 5904.18 545.603 5907.65C549.349 5911.7 546.526 5920.15 548.445 5925.47C551.019 5932.57 558.736 5938.38 565.89 5936.13C569.62 5934.96 572.394 5931.99 575.625 5929.84C578.809 5927.64 583.204 5926.25 586.452 5928.37C590.133 5930.87 589.937 5936.28 592.032 5940.2C594.81 5945.41 601.634 5947.36 607.384 5945.99C613.133 5944.62 617.829 5940.48 621.64 5936.01C630.609 5925.36 635.726 5911.71 636.482 5897.89C637.239 5884.07 633.735 5870.09 626.964 5858C621.202 5847.67 612.18 5838.18 600.561 5834.84C590.671 5832.03 577.906 5834.96 568.555 5838.81Z" fill="#D13355"/>
<path d="M1600.56 5754.81C1591.56 5758.53 1583.37 5764.09 1575.67 5769.98C1565.45 5777.86 1555.35 5787.14 1551.66 5799.51C1550.54 5803.37 1550.06 5807.61 1551.61 5811.35C1553.7 5816.33 1558.91 5819.35 1564.23 5820.17C1568.37 5820.83 1574.38 5820.18 1577.6 5823.65C1581.35 5827.7 1578.53 5836.15 1580.44 5841.47C1583.02 5848.57 1590.74 5854.38 1597.89 5852.13C1601.62 5850.96 1604.39 5847.99 1607.63 5845.84C1610.81 5843.64 1615.2 5842.25 1618.45 5844.37C1622.13 5846.87 1621.94 5852.28 1624.03 5856.2C1626.81 5861.41 1633.63 5863.36 1639.38 5861.99C1645.13 5860.62 1649.83 5856.48 1653.64 5852.01C1662.61 5841.36 1667.73 5827.71 1668.48 5813.89C1669.24 5800.07 1665.74 5786.09 1658.96 5774C1653.2 5763.67 1644.18 5754.18 1632.56 5750.84C1622.67 5748.03 1609.91 5750.96 1600.56 5754.81Z" fill="#FF863A"/>
<path d="M522.684 4867.33C546.939 4884.19 566.292 4908.13 577.703 4935.43C580.801 4942.78 583.331 4950.71 582.95 4958.68C582.568 4966.66 578.689 4974.94 571.564 4978.72C562.382 4983.6 550.685 4979.74 542.8 4972.86C535.011 4966 529.862 4956.64 523.48 4948.41C502.729 4921.19 467.682 4905.57 433.576 4908.42C399.469 4911.27 367.52 4932.3 351.516 4962.59C347.554 4970.01 344.492 4978.72 346.97 4986.84C349.192 4994.37 356.01 4999.83 363.362 5002.53C370.739 5005.13 378.765 5005.32 386.676 5005.16C443.802 5003.73 501.828 4985.46 556.922 5000.46C564.359 5002.46 572.308 5005.63 575.729 5012.56C580.678 5022.27 573.919 5034.33 565.076 5040.65C535.129 5062.33 491.791 5043.65 456.799 5055.58C441.865 5060.68 428.917 5071.49 421.349 5085.4C417.265 5092.9 414.793 5102.49 419.128 5109.87C421.864 5114.33 426.594 5117.15 431.286 5119.34C452.056 5128.75 476.798 5128.77 497.627 5119.46C529.313 5105.19 548.316 5072.6 575.686 5051.27C584.439 5044.51 596.45 5038.73 606.032 5044.3C615.349 5049.7 616.717 5063.12 612.686 5073.11C606.241 5089.4 590.177 5099.48 575.126 5108.48C546.276 5125.69 517.426 5142.89 488.601 5160C475.414 5167.85 484.112 5192.14 495.85 5202.02C507.589 5211.9 525.238 5212.5 539.291 5206.44C553.344 5200.38 564.2 5188.49 572.43 5175.58C580.66 5162.67 586.56 5148.41 593.708 5134.91C604.522 5114.31 618.077 5095.06 633.921 5078.09C644.7 5066.49 660.811 5055.08 675.054 5061.8C682.584 5065.38 687.272 5073.37 688.366 5081.64C689.362 5089.88 687.228 5098.21 683.749 5105.76C676.305 5122.3 662.702 5135.94 646.269 5143.54C635.728 5148.47 624.116 5150.84 613.46 5155.43C602.804 5160.03 592.484 5167.61 588.799 5178.63C583.068 5195.73 596.799 5215.16 614.364 5219.15C631.93 5223.14 650.542 5214.37 662.374 5200.77C674.206 5187.18 680.189 5169.52 684.182 5151.96C688.175 5134.39 690.403 5116.46 696.135 5099.36C698.796 5091.38 702.283 5083.41 708.329 5077.47C714.279 5071.51 723.194 5068 731.306 5070.18C739.322 5072.34 745.28 5079.84 747.153 5087.9C749 5096.06 747.323 5104.62 744.108 5112.35C737.833 5127.23 726.249 5139.13 715.965 5151.59C705.682 5164.05 696.283 5178.61 695.977 5194.78C695.671 5210.96 707.912 5228.22 724.1 5227.7C739.658 5227.22 750.656 5211.33 752.816 5195.97C755.053 5180.31 751.133 5164.45 750.967 5148.88C750.764 5132.67 751.657 5116.24 753.998 5100.2C754.826 5094.41 756.59 5087.85 761.922 5085.34C768.646 5082.28 776.468 5088.63 778.162 5095.81C779.856 5103 777.543 5110.45 776.036 5117.61C769.403 5148.86 778.27 5182.92 799.395 5206.82C811.86 5220.94 829.909 5232 848.625 5229.78C867.342 5227.55 883.939 5207.78 877.529 5190.01C874.292 5180.86 866.014 5174.29 857.235 5169.96C848.456 5165.64 838.94 5163.29 830.058 5159.35C813.497 5152 799.135 5139.55 789.751 5123.98C784.588 5115.45 781.557 5102.83 789.523 5096.69C797.218 5090.78 808.159 5096.31 816.266 5101.6C834.59 5113.56 853.999 5124.57 875.149 5130.25C896.325 5135.83 919.76 5135.71 939.289 5125.84C949.47 5120.7 958.831 5112.45 961.859 5101.56C967.273 5081.79 949.356 5061.75 929.473 5057.14C909.493 5052.5 888.836 5058.86 869.39 5065.33C849.944 5071.81 829.429 5078.42 809.294 5074.35C784.058 5069.23 805.884 5050.04 816.03 5042.72C832.832 5030.66 851.381 5021.36 868.298 5009.64C888.137 4995.92 904.367 4979.05 905.057 4953.35C905.942 4923.46 886.639 4896.63 854.454 4908.91C838.191 4915.1 829.463 4932.95 826.328 4950.02C823.193 4967.09 823.902 4984.88 819.125 5001.51C812.572 5023.98 795.403 5043.18 773.731 5052.17C767.671 5054.68 760.872 5056.48 754.594 5054.8C740.758 5051.18 735.818 5032.57 741.433 5019.37C747.048 5006.17 759.354 4997.37 771.137 4989.35C784.346 4980.26 790.246 4966.01 797.242 4951.52C801.722 4942.17 804.936 4931.74 803.563 4921.43C802.19 4911.12 795.161 4901.06 785.039 4898.65C776.488 4896.56 767.206 4900.28 760.888 4906.45C754.571 4912.62 750.691 4920.9 747.926 4929.27C739.222 4955.51 738.879 4984.93 723.681 5007.98C719.095 5015.03 712.848 5021.32 704.939 5024.17C697.03 5027.01 687.21 5025.41 681.94 5018.82C677.833 5013.68 677.111 5006.34 678.63 4999.91C680.149 4993.49 683.573 4987.68 687.068 4981.99C695.209 4968.64 703.613 4955.47 712.403 4942.41C723.932 4925.31 719.215 4900.85 713.885 4880.99C711.242 4871.17 707.433 4861.45 700.973 4853.5C694.514 4845.55 685.352 4839.57 675.182 4838.49C664.987 4837.52 654.112 4842.15 649.129 4851.07C645.523 4857.55 645.361 4865.48 646.81 4872.81C648.259 4880.14 651.172 4887.03 653.646 4894.01C658.746 4908.94 661.694 4924.96 659.579 4940.54C657.464 4956.13 650.042 4971.42 637.431 4980.98C630.401 4986.34 619.914 4989.53 612.974 4984.14C605.602 4978.44 606.62 4967.32 608.26 4958.13C611.506 4940.26 614.875 4922.32 618.121 4904.45C620.372 4892.22 619.343 4880.24 613.03 4869.43C602.453 4851.37 588.787 4835.17 572.598 4821.81C564.063 4814.66 554.109 4808.15 542.985 4807.55C529.633 4806.76 516.302 4815.91 512.08 4828.55C508.314 4841.41 511.683 4859.71 522.684 4867.33Z" fill="#008DB5"/>
<path d="M1150.72 5230.89C1165.79 5235.21 1180.75 5236.16 1188.18 5254.49C1194.22 5269.46 1192 5286.21 1190.62 5302.23C1189.24 5318.25 1189.02 5335.64 1198.26 5348.92C1211.63 5368.2 1242.93 5376.74 1243.56 5400.24C1243.88 5411.41 1236.24 5421.74 1236.67 5432.91C1237.52 5453.99 1263.09 5462.84 1279.53 5476.12C1300.97 5493.29 1308.5 5521.85 1319.22 5547.04C1329.94 5572.23 1349.57 5598.57 1377.15 5599C1404.32 5599.42 1426.39 5570.44 1422.57 5543.67C1418.75 5516.9 1393.81 5496.03 1366.97 5492.03C1354.23 5490.13 1356.04 5473.17 1361.03 5461.47C1366.01 5449.77 1375.77 5439.34 1375.77 5426.59C1375.77 5409.41 1358.27 5397.82 1342.14 5391.6C1326.01 5385.38 1307.55 5380.01 1298.85 5365.15C1285.58 5342.17 1304.05 5310.87 1291.95 5287.27C1282.4 5268.51 1258.1 5262.71 1244.2 5247.01C1224.04 5224.25 1229.45 5189.89 1214.07 5165.02C1199.1 5140.78 1166.42 5136.57 1156.45 5106.11C1151.99 5092.31 1153.37 5077.24 1149.98 5063.12C1145.41 5043.94 1131.51 5027.07 1113.48 5018.75C1089.81 5007.89 1058.51 5012.85 1038.77 5029.92C1025.19 5041.62 1025.41 5063.54 1034.11 5079.24C1052.57 5112.23 1101.91 5106.64 1106.58 5150.48C1107.64 5160.28 1105.84 5170.19 1106.58 5179.99C1108.06 5199.38 1121.01 5217.08 1138.09 5226.15C1142.34 5228.25 1146.58 5229.62 1150.72 5230.89Z" fill="#008753"/>
<path d="M1048.52 5732.97C1050.31 5702.61 1045.79 5672.15 1039.58 5642.39C1031.39 5602.93 1018.85 5561.96 988.98 5535.02C979.628 5526.52 968.209 5519.5 955.608 5518.85C938.843 5517.97 923.099 5528.73 913.414 5542.52C905.969 5553.21 899.66 5571.16 885.47 5575.46C868.955 5580.55 848.868 5561.16 831.292 5559.36C807.803 5556.94 780.82 5570.85 777.476 5594.18C775.768 5606.15 780.253 5618.01 782.053 5630.03C783.853 5642.05 781.797 5656.3 771.332 5662.48C759.303 5669.56 744.327 5661.68 730.344 5662.25C711.899 5663.03 696.988 5679.56 693.053 5697.53C689.118 5715.51 694.291 5734.33 701.829 5751.24C719.573 5790.88 751.198 5823.75 789.218 5844.6C827.237 5865.45 871.443 5874.39 914.73 5871.63C951.632 5869.36 990.771 5856.76 1016.14 5828.5C1037.7 5804.24 1046.69 5764.45 1048.52 5732.97Z" fill="#FF863A"/>
<path d="M2166.99 5159.72L2164.73 5136.58L2013.46 5150.78L1974.58 5253.4L1887.47 5243.37L1992.72 5094.67L2083.64 5077.27L2096.25 5027.46L2196.66 5035.43L2198.21 5012.19L2102.03 5004.61L2116.53 4947.66L2094.66 4941.64L2065.34 5057.07L1993.52 5070.8L1957.49 4969.85L2062.59 4884.42L2044.19 4845.96L2147.93 4805.14L2139.7 4783.33L2034.05 4824.89L2004.45 4763.23L1984.24 4773.46L2034.25 4877.78L1949.36 4946.75L1940.98 4923.43L1872.57 4858.06L1857.3 4875.1L1921.67 4936.64L1939.84 4987.52L1775.86 4925.49L1792.59 4824.93L1770.37 4820.84L1753.77 4920.4L1649.16 4909.29L1647 4932.43L1760.63 4944.51L1860.2 4982.14L1827.23 5014.03L1842.78 5031.07L1883.97 4991.15L1950.03 5016.11L1973.49 5082.15L1895.93 5191.72L1831.14 5100.15L1788.89 5017.52L1768.96 5028.26L1804.32 5097.43L1726.48 5111.19L1730.4 5134.21L1816.65 5118.96L1881.98 5211.4L1830.49 5284.08L1848.85 5297.95L1872.11 5265.06L1989.33 5278.64L2025.61 5182.97L2098.37 5260.9L2114.57 5244.78L2045.89 5171.14L2166.99 5159.72Z" fill="#FF863A"/>
</g>
</svg>
