<svg width="2585" height="5950" viewBox="0 0 2585 5950" fill="none" xmlns="http://www.w3.org/2000/svg">
<mask id="mask0" mask-type="alpha" maskUnits="userSpaceOnUse" x="0" y="0" width="2585" height="5950">
<rect width="2585" height="5950" fill="#C4C4C4"/>
</mask>
<g mask="url(#mask0)">
<path d="M1179.51 5888.12L1205.84 5887.38L1196.77 5716.24L1082.79 5664.38L1098.22 5567.22L1261.02 5697.22L1276.46 5800.79L1332 5818.9L1318.49 5931.25L1344.63 5934.8L1357.53 5827.31L1421.2 5848.02L1429.04 5823.91L1300.17 5781.83L1287.93 5699.93L1403.57 5667.46L1495.05 5792.32L1539.24 5774.61L1580.51 5894.45L1605.51 5886.94L1563.45 5764.79L1634.44 5736.33L1623.91 5712.74L1503.91 5760.93L1430 5660.02L1456.63 5652.53L1533.65 5580.59L1515.15 5562.08L1442.69 5629.72L1384.5 5646.11L1462.03 5466.61L1574.74 5493.24L1580.36 5468.58L1468.9 5442.15L1486.32 5325.3L1460.26 5321.02L1441.28 5447.97L1394.25 5556.89L1359.78 5517.32L1339.87 5533.52L1382.9 5583.01L1351.67 5655.34L1276.04 5676.66L1156.02 5580.7L1262.47 5515L1357.62 5473.99L1346.44 5450.71L1266.71 5485.09L1254.77 5396.45L1228.64 5399.08L1241.87 5497.24L1134.5 5563.5L1054.96 5499.92L1038.44 5519.4L1074.48 5548.27L1053.71 5679.06L1159.9 5727.36L1068.6 5803L1085.94 5822.52L1172.26 5751.05L1179.51 5888.12Z" fill="#008DB5"/>
<path d="M1349.43 4901.24C1387.98 4886.9 1393.49 4925.77 1392.87 4942.59C1392.25 4959.4 1399.84 4992.27 1424.38 4993.17C1448.93 4994.07 1451.96 4960.99 1450.79 4938.8C1449.62 4916.6 1463.82 4878.98 1496.57 4884.56C1529.26 4890.14 1555.04 4913.43 1541.74 4950.65C1528.43 4987.86 1462.79 5026.87 1457.69 5049.96C1452.58 5073.04 1439.48 5102.89 1472.44 5106.75C1505.4 5110.6 1496.02 5029.01 1526.77 5036.11C1557.53 5043.2 1577.59 5056.64 1569.04 5097.79C1560.42 5138.86 1486.58 5119.22 1474.37 5148.37C1462.24 5177.59 1465.27 5199.16 1507.74 5204.4C1550.22 5209.64 1579.8 5176.01 1589.73 5198.61C1599.72 5221.22 1592.62 5251.95 1563.73 5250.37C1534.84 5248.85 1480.92 5225.21 1464.24 5230.73C1447.55 5236.24 1437.69 5252.5 1430.73 5257.74C1417.28 5267.94 1385.7 5272.7 1371.5 5247.75C1363.64 5233.9 1375.43 5222.25 1361.78 5213.22C1348.05 5204.19 1294.62 5205.3 1282.62 5213.22C1270.62 5221.15 1229.94 5210.05 1233.18 5187.58C1236.42 5165.12 1263.66 5135.55 1279.31 5149.27C1294.96 5162.98 1329.02 5171.46 1335.57 5168.84C1342.13 5166.29 1355.92 5144.24 1324.89 5126.66C1293.93 5109.09 1260.21 5097.99 1260.9 5075.18C1261.52 5052.37 1271.93 5029.14 1285.03 5030.18C1298.13 5031.21 1319.44 5042.24 1328.33 5072.56C1337.23 5102.89 1362.12 5113.57 1376.19 5101.51C1390.25 5089.45 1396.53 5040.1 1390.39 5021.56C1384.25 5003.03 1342.81 4966.22 1339.64 4951.61C1336.26 4937.21 1328.96 4908.82 1349.43 4901.24Z" fill="#EF3C45"/>
<path d="M2063.3 3680.74C2071.9 3663.64 2078.9 3639.44 2063.4 3628.14C2051.5 3619.54 2034.8 3625.84 2022.3 3633.54C1962.2 3670.94 1923.4 3740.44 1923 3811.24C1922.6 3882.04 1960.9 3951.94 2020.7 3989.84C2080.5 4027.74 2160 4032.54 2223.9 4002.14C2237.8 3995.54 2251.8 3986.44 2258 3972.34C2264.2 3958.24 2258.8 3938.34 2244.1 3933.94C2225.9 3928.54 2203.8 3947.74 2189 3935.94C2178.4 3927.54 2182.2 3909.84 2191.4 3899.94C2200.6 3890.04 2213.6 3884.34 2223 3874.64C2232.4 3864.94 2236.9 3847.54 2226.7 3838.64C2218 3830.94 2204 3834.24 2194.2 3840.54C2183.8 3847.24 2163.9 3867.54 2150.7 3865.94C2144.7 3865.24 2139.5 3860.54 2138 3854.74C2135.2 3843.94 2144.9 3833.84 2154.8 3828.84C2178.8 3816.54 2206.7 3800.94 2197.3 3768.14C2192.5 3751.54 2172.4 3739.74 2157 3747.34C2147 3752.34 2141.7 3763.24 2136.7 3773.24C2131.8 3783.24 2125.6 3793.94 2115.1 3797.74C2104.6 3801.54 2090 3792.64 2093 3781.84C2109 3771.84 2126 3760.84 2133.5 3743.54C2141 3726.24 2133.7 3701.24 2115.1 3697.84C2093.1 3693.84 2082.1 3722.64 2063.6 3720.94C2039.1 3718.94 2057.7 3691.84 2063.3 3680.74Z" fill="#EF3C45"/>
<path d="M618.681 5618C633.037 5604.94 632.606 5581.82 626.864 5564.74C620.834 5546.65 609.35 5530.86 601.598 5513.49C584.371 5475.3 585.95 5429.22 605.617 5392.18C621.121 5363.04 646.675 5339.92 659.738 5309.77C672.802 5279.48 665.911 5235.7 634.472 5226.08C611.934 5219.19 587.242 5233.97 575.183 5254.36C563.124 5274.75 560.684 5299.15 558.531 5322.7C540.299 5281.92 522.067 5241.15 503.979 5200.38C507.568 5170.52 516.325 5154.59 520.057 5124.73C522.785 5102.19 525.513 5078.93 518.909 5057.25C512.305 5035.57 493.93 5015.76 471.248 5015.04C385.401 5012.32 443.541 5134.49 464.644 5167.51C454.021 5151.71 439.809 5138.22 423.3 5128.46C414.974 5123.43 405.93 5119.41 396.311 5118.7C371.045 5116.83 355.972 5146.4 360.135 5168.94C364.298 5191.48 384.396 5207.13 403.058 5220.48C434.497 5243.02 465.936 5265.41 497.375 5287.95C496.514 5292.12 493.643 5295.13 492.781 5299.3C459.333 5283.79 425.884 5268.29 392.435 5252.64C377.218 5245.6 356.402 5239.72 346.066 5252.78C337.309 5263.69 343.769 5281.06 355.254 5289.1C366.738 5297.14 381.238 5298.86 395.019 5301.74C406.073 5304.03 415.548 5307.19 426.745 5308.2C438.086 5309.2 448.997 5312.22 459.333 5316.81C479.718 5326 497.519 5341.21 511.013 5358.87C533.982 5389.16 546.472 5425.92 558.961 5461.81C568.436 5489.08 579.346 5515.93 590.4 5542.63C600.162 5566.03 616.384 5592.88 618.681 5618Z" fill="#00B590"/>
<path d="M2072.51 5472.28C1991.89 5468.46 1924.15 5526.87 1888.37 5594.47C1884.91 5601.04 1881.52 5608.25 1882.29 5615.68C1883.07 5623.1 1889.22 5630.53 1896.72 5629.82C1901.88 5629.33 1905.84 5625.22 1909.3 5621.48C1927.76 5601.61 1945.65 5580.75 1964.25 5561.3C1975.35 5549.64 1988.22 5540.02 2000.95 5530.26C2011.91 5521.85 2022.09 5512.23 2034.18 5505.79C2059 5492.57 2081.7 5482.6 2110.55 5489.53C2117.69 5491.3 2125.75 5495.26 2126.46 5502.61C2127.09 5509.47 2120.38 5515.06 2113.66 5516.4C2106.94 5517.74 2100.01 5516.33 2093.08 5516.33C2084.81 5516.4 2079.29 5520.36 2072.65 5524.46C1992.11 5574.17 1925.64 5644.6 1883.42 5729.52C1879.18 5738.15 1875.22 5749.04 1881.02 5756.82C1886.04 5763.54 1896.44 5764.17 1903.86 5760.42C1911.28 5756.68 1916.66 5749.75 1921.75 5743.1C1957.81 5695.3 1993.8 5647.43 2029.87 5599.63C2045.14 5579.4 2063.24 5559.75 2084.31 5545.46C2087.57 5543.2 2091.17 5541.15 2095.13 5540.44C2099.09 5539.74 2103.41 5540.37 2106.38 5543.06C2110.83 5547.09 2110.83 5554.3 2108.07 5559.61C2105.31 5564.91 2100.44 5568.66 2095.63 5572.33C2079.36 5584.78 2069.18 5602.46 2057.16 5619C2044.5 5636.47 2031.78 5654 2019.19 5671.54C2002.36 5694.87 1985.18 5718.85 1977.54 5746.56C1972.31 5765.51 1971.74 5788.71 1980.58 5806.74C1989.28 5824.63 2001.09 5814.09 2007.52 5801.01C2013.53 5788.92 2019.54 5776.83 2025.55 5764.74C2037.93 5739.78 2050.3 5714.82 2062.75 5689.92C2072.43 5670.48 2082.55 5651.18 2091.88 5631.52C2100.37 5613.7 2105.1 5593.12 2111.18 5574.31C2112.67 5569.86 2114.08 5565.33 2116.91 5561.66C2119.74 5557.98 2124.34 5555.22 2128.93 5555.72C2134.24 5556.35 2138.27 5561.09 2139.68 5566.18C2141.09 5571.27 2140.46 5576.72 2139.61 5581.95C2136.29 5603.09 2130.91 5624.02 2123.77 5644.18C2120.16 5654.29 2116.06 5664.19 2111.54 5673.94C2107.51 5682.5 2106.3 5691.62 2104.47 5700.96C2095.98 5743.52 2087.5 5786.23 2079.01 5828.8C2077.31 5837.29 2076.04 5847.33 2082.19 5853.48C2087.78 5859.06 2097.4 5858.5 2103.97 5854.33C2110.62 5850.08 2115 5843.16 2118.96 5836.37C2142.23 5796.42 2159.69 5753.07 2170.79 5708.17C2176.38 5685.75 2179 5663.2 2182.74 5640.5C2186.14 5619.99 2179.49 5595.67 2176.87 5574.95C2176.03 5568.3 2175.95 5560.03 2181.75 5556.64C2187.83 5553.1 2195.33 5557.91 2199.86 5563.14C2214.21 5580.18 2211.73 5596.66 2210.32 5616.74C2209.47 5628.48 2211.59 5640.92 2211.1 5652.87C2210.6 5664.4 2209.61 5675.85 2208.48 5687.45C2203.96 5732.42 2199.5 5777.32 2195.05 5822.37C2193.56 5837.43 2196.25 5858.07 2211.31 5859.7C2221.78 5860.83 2229.77 5851 2235.21 5842.02C2257.98 5803.98 2271.06 5760.35 2274.1 5716.16C2275.66 5693.81 2274.74 5671.26 2271.27 5649.13C2269.51 5638.31 2267.24 5627.56 2264.34 5617.02C2261.8 5607.83 2261.44 5598.57 2253.52 5592.2C2248.5 5588.17 2242.42 5585.34 2238.04 5580.68C2233.65 5575.87 2231.53 5568.09 2235.63 5563.14C2238.53 5559.68 2243.77 5558.83 2248.22 5560.03C2252.61 5561.3 2256.28 5564.27 2259.61 5567.31C2291.35 5597.08 2298.14 5646.15 2295.24 5687.52C2293.33 5715.03 2288.31 5742.53 2290.51 5770.04C2290.72 5773.36 2291.43 5777.18 2294.4 5778.74C2297.01 5780.08 2300.41 5778.95 2302.46 5776.76C2304.51 5774.57 2305.43 5771.67 2306.42 5768.84C2317.8 5733.98 2332.37 5701.88 2333.57 5664.61C2334.7 5631.52 2327.42 5597.22 2307.48 5570.78C2279.33 5533.44 2245.04 5541.29 2207.56 5526.3C2160.4 5507.28 2126.25 5474.82 2072.51 5472.28Z" fill="#D13355"/>
<path d="M609.277 5318.23C556.711 5379.46 561.136 5468.8 592.459 5538.57C595.516 5545.35 599.118 5552.46 605.452 5556.41C611.786 5560.36 621.424 5560.07 625.474 5553.73C628.257 5549.35 627.457 5543.71 626.631 5538.67C622.304 5511.9 616.849 5484.96 612.944 5458.34C610.566 5442.41 610.892 5426.35 611.02 5410.31C611.12 5396.5 609.795 5382.55 612.153 5369.06C616.981 5341.36 623.07 5317.32 646.271 5298.83C652.056 5294.28 660.134 5290.36 666.369 5294.32C672.17 5298.04 672.447 5306.77 669.377 5312.89C666.307 5319.02 660.932 5323.61 656.672 5329.08C651.642 5335.65 651.375 5342.43 650.523 5350.2C640.22 5444.28 654.909 5540 695.941 5625.5C700.137 5634.15 706.291 5643.97 715.991 5644.18C724.375 5644.35 731.267 5636.54 732.875 5628.38C734.483 5620.22 732.321 5611.72 730.209 5603.62C714.676 5545.79 699.043 5487.97 683.51 5430.15C676.949 5405.67 672.572 5379.31 674.26 5353.9C674.475 5349.95 675.074 5345.84 676.951 5342.29C678.827 5338.73 681.981 5335.72 685.926 5335.03C691.843 5333.99 697.532 5338.42 700.02 5343.86C702.507 5349.29 702.464 5355.45 702.408 5361.5C702.226 5381.98 709.91 5400.88 715.571 5420.53C721.566 5441.25 727.573 5462.07 733.667 5482.78C741.726 5510.39 750.07 5538.68 767.238 5561.74C778.968 5577.52 796.914 5592.22 816.569 5596.34C836.026 5600.48 834.975 5584.68 828.613 5571.57C822.771 5559.39 816.929 5547.22 811.086 5535.05C799.006 5509.94 786.925 5484.84 774.944 5459.72C765.562 5440.13 756.552 5420.28 746.785 5400.84C737.947 5383.19 724.63 5366.81 713.533 5350.45C710.932 5346.54 708.232 5342.64 707.071 5338.15C705.909 5333.66 706.559 5328.34 709.775 5325.02C713.537 5321.22 719.752 5320.96 724.637 5322.97C729.522 5324.99 733.425 5328.84 737.03 5332.72C751.663 5348.34 764.868 5365.44 776.373 5383.47C782.131 5392.53 787.418 5401.85 792.333 5411.41C796.603 5419.85 803.059 5426.41 809.291 5433.6C837.649 5466.46 866.119 5499.4 894.478 5532.27C900.127 5538.82 907.264 5546 915.898 5544.93C923.738 5543.95 929.204 5536.02 929.956 5528.27C930.695 5520.42 927.925 5512.7 925.005 5505.41C907.795 5462.5 884.343 5422.08 855.753 5385.72C841.507 5367.53 825.324 5351.6 809.725 5334.69C795.638 5319.41 772.366 5309.7 754.417 5299.03C748.653 5295.61 742.084 5290.58 742.971 5283.92C743.921 5276.95 752.321 5273.99 759.23 5273.64C781.495 5272.79 792.969 5284.87 807.939 5298.34C816.675 5306.22 827.795 5312.2 836.916 5319.93C845.703 5327.41 854.129 5335.23 862.58 5343.25C895.269 5374.47 927.946 5405.59 960.734 5436.79C971.701 5447.22 989.638 5457.79 1000.18 5446.91C1007.5 5439.35 1004.66 5427.01 1000.93 5417.19C984.92 5375.85 958.55 5338.71 925.562 5309.15C908.895 5294.18 890.538 5281.04 870.952 5270.17C861.332 5264.91 851.464 5260.09 841.371 5255.9C832.556 5252.26 825.033 5246.84 815.145 5249.18C808.88 5250.66 802.91 5253.72 796.534 5254.3C790.047 5254.81 782.608 5251.7 781.225 5245.42C780.275 5241 782.822 5236.35 786.508 5233.58C790.207 5230.9 794.81 5229.83 799.251 5229.08C842.249 5222.34 885.127 5247.15 915.972 5274.87C936.493 5293.28 955.102 5314.15 978.145 5329.33C980.897 5331.21 984.343 5332.99 987.396 5331.61C990.064 5330.37 991.258 5327 990.789 5324.03C990.321 5321.07 988.6 5318.56 986.977 5316.04C966.48 5285.63 950.114 5254.41 921.461 5230.55C896.056 5209.32 864.529 5193.98 831.412 5193.45C784.664 5192.7 769.773 5224.57 734.911 5244.91C690.915 5270.42 644.32 5277.41 609.277 5318.23Z" fill="#D13355"/>
<path d="M803.74 5223.16C738.544 5223.77 676.188 5180.77 649.667 5121.21C623.147 5061.64 631.79 4988.94 668.021 4934.71C692.022 4955.32 707.432 4984.52 716.45 5014.87C725.469 5045.21 728.599 5076.92 731.746 5108.46C739.896 5074.46 748.079 5040.11 763.591 5008.75C779.103 4977.4 802.624 4948.85 834.285 4933.99C853.04 4966.22 854.916 5006.09 847.33 5042.62C839.672 5079.19 823.325 5113.12 807.111 5146.75C813.263 5134.03 858.73 5123.81 871.569 5120.16C884.264 5116.57 931.345 5101.06 942.52 5110.32C955.181 5120.82 930.401 5153.86 923.174 5163.16C909.876 5180.24 892.87 5194.42 873.828 5204.64C852.218 5216.19 828.161 5222.94 803.74 5223.16Z" fill="#FF863A"/>
<path d="M1035.89 5634.73C983.95 5627.28 939.586 5585.41 925.75 5534.69C911.915 5483.98 927.771 5427.27 963.165 5388.59C979.762 5407.94 988.466 5433.05 991.892 5458.28C995.317 5483.51 993.949 5509.21 992.537 5534.64C1003.16 5508.61 1013.88 5482.28 1030.05 5459.17C1046.16 5436.15 1068.5 5416.28 1095.52 5408.35C1106.47 5436.32 1103.16 5468.28 1092.5 5496.38C1081.85 5524.49 1064.77 5549.53 1047.71 5574.22C1054.17 5564.82 1091.63 5562.25 1102.31 5560.98C1112.85 5559.74 1152.26 5553.14 1160.01 5561.86C1168.83 5571.85 1145.08 5595.01 1138.1 5601.56C1125.46 5613.52 1110.15 5622.67 1093.76 5628.56C1075.32 5635.06 1055.29 5637.45 1035.89 5634.73Z" fill="#FFD7CC"/>
<path d="M1590.68 5374.78C1603.3 5405.15 1607.08 5439.19 1601.35 5471.62C1599.74 5480.45 1597.45 5489.27 1592.29 5496.61C1587.13 5503.94 1578.52 5509.22 1569.58 5508.53C1558 5507.61 1549.4 5496.95 1546.18 5485.72C1542.97 5474.6 1543.78 5462.8 1542.86 5451.22C1539.76 5413.29 1516.25 5377.53 1482.65 5359.65C1448.93 5341.77 1406.16 5342.35 1373.01 5361.14C1364.87 5365.73 1356.73 5372.03 1354.21 5381.08C1351.8 5389.45 1354.89 5398.73 1360.17 5405.61C1365.45 5412.49 1372.9 5417.53 1380.47 5422C1434.83 5455.01 1500.31 5472.77 1542.86 5519.87C1548.59 5526.18 1554.1 5533.97 1553.29 5542.45C1552.15 5554.6 1538.5 5561.71 1526.34 5562.39C1485.17 5564.69 1455.81 5521.25 1415.91 5511.39C1398.82 5507.15 1380.24 5509.56 1364.76 5518.04C1356.39 5522.62 1348.24 5530.07 1348.01 5539.7C1347.78 5545.55 1350.54 5551.05 1353.75 5555.98C1367.51 5577.29 1390.68 5592.19 1415.79 5595.97C1454.09 5601.7 1491.48 5582.56 1529.9 5579.01C1542.17 5577.87 1556.96 5579.81 1562.58 5590.7C1568.09 5601.36 1561.21 5614.77 1551.46 5621.65C1535.63 5632.99 1514.53 5632.76 1495.04 5632.19C1457.65 5630.93 1420.26 5629.67 1382.88 5628.52C1365.79 5627.95 1359.37 5655.91 1364.41 5672.19C1369.46 5688.46 1385.63 5699.69 1402.49 5702.44C1419.35 5705.19 1436.66 5700.61 1452.14 5693.39C1467.63 5686.17 1481.73 5676.43 1496.53 5668.06C1519.12 5655.23 1543.32 5645.48 1568.43 5638.95C1585.52 5634.6 1607.42 5633.56 1616.83 5648.46C1621.76 5656.26 1621.3 5666.69 1617.4 5675.05C1613.5 5683.42 1606.39 5689.95 1598.59 5694.88C1581.62 5705.88 1560.75 5710.47 1540.79 5707.72C1527.95 5706 1515.68 5701.3 1502.83 5699.12C1489.99 5696.94 1475.77 5697.97 1465.68 5706C1450.08 5718.49 1451.23 5745.08 1465.22 5759.29C1479.21 5773.5 1502.03 5776.59 1521.3 5770.98C1540.56 5765.36 1556.73 5752.41 1571.07 5738.43C1585.41 5724.45 1598.36 5708.86 1613.85 5696.37C1621.19 5690.52 1629.21 5685.14 1638.39 5683.19C1647.56 5681.24 1658 5683.19 1664.31 5690.18C1670.61 5697.06 1671.65 5707.6 1668.43 5716.31C1665.34 5725.02 1658.57 5732.13 1650.89 5737.28C1636.09 5747.48 1618.09 5751.61 1600.89 5757.11C1583.8 5762.73 1566.25 5770.64 1556.28 5785.53C1546.3 5800.43 1547.45 5824.04 1562.81 5833.32C1577.61 5842.26 1597.56 5834.01 1608.8 5820.95C1620.27 5807.65 1626.12 5790.46 1635.41 5775.79C1644.93 5760.55 1655.59 5745.65 1667.52 5732.01C1671.88 5727.08 1677.38 5721.93 1683.8 5722.84C1691.94 5723.99 1695.5 5734.65 1692.75 5742.44C1690 5750.23 1683.34 5755.74 1677.61 5761.58C1652.61 5786.79 1640.45 5824.16 1645.84 5859.23C1649.05 5879.97 1659.38 5901.17 1678.18 5910.34C1697.11 5919.51 1724.51 5910.91 1729.22 5890.51C1731.62 5879.97 1727.95 5868.85 1722.22 5859.57C1716.6 5850.29 1709.15 5842.26 1703.07 5833.21C1691.83 5816.36 1685.98 5796.08 1686.55 5775.91C1686.78 5764.79 1691.6 5751.15 1702.72 5750.23C1713.5 5749.32 1720.39 5761.01 1724.86 5770.86C1734.84 5793.1 1746.42 5815.1 1762.82 5833.1C1779.33 5851.09 1801.35 5864.96 1825.66 5867.48C1838.28 5868.85 1851.93 5866.68 1861.44 5858.19C1878.42 5842.95 1873.72 5813.38 1857.77 5797.11C1841.83 5780.84 1818.55 5774.3 1796.53 5768.69C1774.4 5763.07 1751.24 5756.88 1734.84 5741.07C1714.31 5721.12 1746.3 5716.2 1760.18 5715.51C1783.12 5714.25 1806.17 5716.77 1829.1 5715.97C1856.05 5715.05 1881.28 5708.98 1897.34 5685.37C1916.15 5657.86 1914.2 5621.19 1876.7 5613.28C1857.77 5609.27 1838.85 5620.73 1825.55 5634.83C1812.36 5648.92 1802.38 5666 1787.82 5678.72C1768.09 5695.91 1740.57 5703.48 1714.88 5698.89C1707.66 5697.63 1700.32 5695.22 1695.27 5689.84C1684.49 5678.15 1691.03 5657.75 1704.22 5648.69C1717.4 5639.64 1734.26 5638.95 1750.09 5638.49C1767.98 5637.92 1782.08 5628.18 1797.22 5618.78C1807.09 5612.71 1816.37 5604.91 1821.19 5594.37C1826.12 5583.83 1825.55 5570.3 1817.52 5561.94C1810.76 5554.83 1799.86 5552.77 1790.11 5554.71C1780.48 5556.66 1771.88 5562.16 1764.19 5568.35C1740.23 5587.61 1722.22 5615.11 1694.12 5627.49C1685.64 5631.27 1676 5633.56 1666.83 5631.39C1657.65 5629.21 1649.51 5621.87 1648.48 5612.59C1647.68 5605.26 1651.46 5598.04 1656.74 5592.88C1662.01 5587.72 1668.78 5584.4 1675.43 5581.19C1691.14 5573.51 1706.97 5566.29 1723.02 5559.41C1744.13 5550.36 1754.33 5524.57 1761.33 5502.8C1764.77 5492.02 1767.06 5480.56 1765.8 5469.22C1764.54 5457.87 1759.61 5446.75 1750.66 5439.65C1741.72 5432.54 1728.64 5430.48 1718.67 5435.87C1711.44 5439.76 1706.39 5447.1 1703.41 5454.78C1700.43 5462.46 1699.06 5470.71 1697.11 5478.73C1692.98 5495.81 1686.1 5512.54 1674.74 5525.83C1663.39 5539.24 1647.22 5549.1 1629.67 5550.47C1619.81 5551.28 1608.11 5547.95 1604.79 5538.67C1601.35 5528.93 1608.92 5519.07 1616.03 5511.51C1629.9 5496.72 1643.66 5481.94 1657.54 5467.16C1667.06 5457.07 1673.25 5445.15 1673.82 5431.28C1674.74 5408.02 1671.65 5384.64 1664.65 5362.4C1660.87 5350.6 1655.59 5338.45 1645.5 5331.23C1633.46 5322.52 1615.45 5322.98 1603.87 5332.38C1592.74 5341.77 1584.95 5361.03 1590.68 5374.78Z" fill="#EF3C45"/>
<path d="M1009.26 4187.88C987.131 4204.27 965.666 4223.57 955.39 4249.08C945.113 4274.58 949.091 4307.71 971.136 4324.27C987.38 4336.53 1010.5 4338.27 1024.43 4353.01C1036.77 4366.09 1038.35 4385.55 1041.5 4403.28C1044.65 4421 1052.19 4440.71 1069.26 4446.42C1088.24 4452.8 1107.22 4438.56 1123.13 4426.55C1139.04 4414.54 1161.75 4403.61 1177.75 4415.62C1188.44 4423.57 1193 4440.13 1206.09 4442.53C1215.29 4444.27 1223.91 4437.73 1230.54 4431.1C1264.52 4397.23 1283.25 4350.19 1289.63 4302.66C1295.68 4257.19 1301.65 4088 1230.46 4086.01C1202.11 4085.27 1156.53 4112.68 1129.93 4122.54C1086.91 4138.52 1046.14 4160.55 1009.26 4187.88Z" fill="#ACB8DE"/>
<path d="M297.241 5780.49C293.459 5706.78 339.104 5634.13 405.32 5601.31C471.444 5568.45 554.138 5574.78 617.216 5613.24C595.021 5641.43 562.746 5660.2 528.823 5671.83C494.9 5683.45 459.169 5688.51 423.662 5693.56C462.5 5701.07 501.791 5708.79 538.021 5724.79C574.25 5740.8 607.675 5766.19 625.953 5801.21C590.397 5823.98 545.329 5828.02 503.69 5821.08C462.051 5814.14 422.708 5797.25 383.993 5780.43C398.68 5786.79 412.427 5837.78 417.111 5852.18C421.787 5866.36 441.532 5918.92 431.633 5931.97C420.357 5946.8 381.842 5920.27 370.872 5912.54C350.893 5898.33 334.139 5879.78 321.606 5858.77C307.338 5835.08 298.605 5808 297.241 5780.49Z" fill="#ACB8DE"/>
<path d="M894.076 3930.08C896.055 3946.77 885.416 3962.91 871.541 3972.26C857.666 3981.6 840.889 3985.72 824.592 3989.66C813.266 3992.36 800.807 3994.92 790.34 3989.81C779.873 3984.69 774.981 3968.13 784.502 3961.46C753.07 3960.17 721.756 3954.93 691.663 3945.66C682.341 3942.8 672.475 3939.01 667.307 3930.78C662.139 3922.55 665.552 3908.8 675.274 3907.55C652.629 3892.62 630.599 3876.39 607.969 3861.56C600.132 3856.46 592.167 3851.18 586.791 3843.58C581.415 3835.99 578.85 3825.56 583.072 3817.25C587.294 3808.93 599.433 3804.9 606.512 3811.03C598.59 3793.8 590.752 3776.47 582.83 3759.25C576.955 3746.27 571.539 3729.59 581.222 3719.25C584.623 3715.61 589.363 3713.49 593.134 3710.3C601.633 3702.87 603.866 3690.7 604.21 3679.43C604.554 3668.16 603.637 3656.57 607.634 3646.06C611.73 3635.54 622.95 3626.7 633.745 3629.94C639.917 3638.12 650.676 3647.24 658.871 3641.16C661.603 3639.14 663.14 3635.88 665.471 3633.21C672.398 3625.4 685.426 3625.99 693.806 3632.02C702.185 3638.05 706.812 3648.08 709.714 3658.06C716.743 3682.19 715.71 3708.53 706.967 3731.97C711.197 3725.07 722.622 3727.11 727.342 3733.69C731.963 3740.28 731.844 3749 731.524 3757.03C730.666 3777.07 729.793 3797.02 728.935 3817.07C727.189 3808.73 739.888 3803.71 746.86 3808.43C753.93 3813.14 756.021 3822.44 757.669 3830.78C761.68 3851.62 765.593 3872.47 769.59 3893.21C776.769 3889.82 781.845 3882.49 782.492 3874.61C778.915 3867.56 779.695 3872.8 786.844 3869.21C794.008 3865.71 802.828 3867.23 809.528 3871.49C816.228 3875.75 821.146 3882.3 825.386 3889.05C829.527 3895.81 833.119 3902.96 837.992 3909.21C840.742 3912.75 843.973 3916.11 848.07 3917.82C852.167 3919.54 857.314 3919.48 860.72 3916.55C862.605 3914.95 863.893 3912.74 865.537 3910.87C870.611 3905.57 879.774 3905.32 885.866 3909.57C891.845 3913.73 893.283 3922.72 894.076 3930.08Z" fill="#ACB8DE"/>
<path d="M1172.68 5741.81C1166.71 5758.6 1164.25 5776.57 1162.82 5794.28C1161 5817.85 1161.26 5842.98 1173.59 5863.16C1177.48 5869.41 1182.67 5875.27 1189.67 5877.74C1199.01 5881 1209.52 5877.61 1217.17 5871.36C1223.13 5866.54 1229.62 5857.56 1238.31 5857.43C1248.43 5857.3 1256.47 5871.49 1266.07 5875.4C1278.91 5880.61 1296.29 5877.22 1302 5864.72C1304.98 5858.21 1304.33 5850.79 1305.37 5843.76C1306.28 5836.73 1309.78 5829.04 1316.65 5827.22C1324.56 5825.27 1331.7 5832.17 1339.61 5834.12C1350.12 5836.73 1361.14 5829.83 1366.33 5820.32C1371.52 5810.82 1371.65 5799.36 1370.22 5788.68C1366.72 5763.42 1354.4 5739.72 1336.5 5721.75C1318.6 5703.79 1295.25 5691.42 1270.48 5685.82C1249.33 5681 1225.34 5681.65 1206.53 5693.37C1190.58 5703.4 1178.9 5724.36 1172.68 5741.81Z" fill="#FFDF00"/>
<path d="M602.678 4329.81C596.712 4346.6 594.247 4364.57 592.821 4382.28C591.005 4405.85 591.264 4430.98 603.586 4451.16C607.477 4457.41 612.666 4463.27 619.67 4465.74C629.009 4469 639.515 4465.61 647.168 4459.36C653.134 4454.54 659.62 4445.56 668.31 4445.43C678.427 4445.3 686.469 4459.49 696.067 4463.4C708.908 4468.61 726.289 4465.22 731.996 4452.72C734.979 4446.21 734.331 4438.79 735.368 4431.76C736.276 4424.73 739.778 4417.04 746.653 4415.22C754.565 4413.27 761.699 4420.17 769.611 4422.12C780.117 4424.73 791.142 4417.83 796.331 4408.32C801.519 4398.82 801.649 4387.36 800.222 4376.68C796.72 4351.42 784.398 4327.72 766.498 4309.75C748.598 4291.79 725.251 4279.42 700.477 4273.82C679.335 4269 655.339 4269.65 636.532 4281.37C620.578 4291.4 608.904 4312.36 602.678 4329.81Z" fill="#EF3C45"/>
<path d="M1190.55 4782.01C1198.32 4765.96 1202.73 4748.37 1206.08 4730.93C1210.45 4707.7 1212.94 4682.69 1202.89 4661.28C1199.7 4654.65 1195.19 4648.26 1188.49 4645.03C1179.56 4640.78 1168.75 4643 1160.46 4648.38C1154.01 4652.51 1146.58 4660.74 1137.93 4659.92C1127.86 4658.94 1121.41 4643.96 1112.3 4639.03C1100.1 4632.45 1082.45 4633.92 1075.42 4645.72C1071.74 4651.87 1071.58 4659.32 1069.78 4666.19C1068.11 4673.08 1063.79 4680.34 1056.76 4681.4C1048.68 4682.48 1042.34 4674.84 1034.69 4672.03C1024.53 4668.3 1012.82 4673.96 1006.62 4682.84C1000.43 4691.72 999.049 4703.1 999.303 4713.87C1000.03 4739.36 1009.69 4764.26 1025.52 4784.07C1041.36 4803.88 1063.22 4818.73 1087.23 4827C1107.72 4834.09 1131.64 4836.06 1151.62 4826.46C1168.57 4818.24 1182.46 4798.67 1190.55 4782.01Z" fill="#008753"/>
<path d="M568.555 5838.81C559.563 5842.53 551.374 5848.09 543.669 5853.98C533.446 5861.86 523.346 5871.14 519.656 5883.51C518.54 5887.37 518.057 5891.61 519.61 5895.35C521.698 5900.33 526.906 5903.35 532.235 5904.17C536.367 5904.83 542.378 5904.18 545.603 5907.65C549.349 5911.7 546.526 5920.15 548.445 5925.47C551.019 5932.57 558.736 5938.38 565.89 5936.13C569.62 5934.96 572.394 5931.99 575.625 5929.84C578.809 5927.64 583.204 5926.25 586.452 5928.37C590.133 5930.87 589.937 5936.28 592.032 5940.2C594.81 5945.41 601.634 5947.36 607.384 5945.99C613.133 5944.62 617.829 5940.48 621.64 5936.01C630.609 5925.36 635.726 5911.71 636.482 5897.89C637.239 5884.07 633.735 5870.09 626.964 5858C621.202 5847.67 612.18 5838.18 600.561 5834.84C590.671 5832.03 577.906 5834.96 568.555 5838.81Z" fill="#D13355"/>
<path d="M383.072 4646.79C410.872 4656.79 435.772 4674.89 453.872 4698.29C458.772 4704.59 463.272 4711.59 464.972 4719.39C466.672 4727.19 465.072 4736.19 459.172 4741.69C451.572 4748.79 439.272 4748.09 429.872 4743.49C420.572 4738.89 413.172 4731.19 404.872 4724.89C377.772 4703.99 339.872 4697.99 307.672 4709.59C275.472 4721.19 250.072 4749.79 242.472 4783.19C240.572 4791.39 239.872 4800.59 244.372 4807.79C248.472 4814.49 256.472 4817.99 264.272 4818.69C272.072 4819.29 279.872 4817.39 287.472 4815.19C342.272 4798.99 393.572 4766.29 450.672 4766.49C458.372 4766.49 466.872 4767.49 471.972 4773.29C479.272 4781.39 475.872 4794.79 468.972 4803.19C445.672 4831.89 398.972 4825.09 368.272 4845.69C355.172 4854.49 345.472 4868.29 341.772 4883.69C339.772 4891.99 339.872 4901.89 345.972 4907.89C349.772 4911.49 355.072 4912.99 360.172 4913.89C382.672 4917.59 406.572 4911.19 424.272 4896.79C451.172 4874.79 461.072 4838.39 481.972 4810.69C488.672 4801.89 498.772 4793.19 509.472 4796.09C519.872 4798.89 524.672 4811.49 523.372 4822.19C521.372 4839.59 508.472 4853.49 496.272 4866.09C472.872 4890.19 449.472 4914.29 426.072 4938.29C415.372 4949.29 430.072 4970.49 443.972 4976.99C457.872 4983.49 475.072 4979.49 487.072 4969.99C499.072 4960.49 506.472 4946.19 511.072 4931.59C515.672 4916.99 517.672 4901.69 521.072 4886.79C526.172 4864.09 534.272 4841.99 545.172 4821.49C552.572 4807.49 565.172 4792.29 580.672 4795.09C588.872 4796.59 595.472 4803.09 598.672 4810.79C601.772 4818.49 601.872 4827.09 600.472 4835.29C597.572 4853.19 587.972 4869.89 574.072 4881.49C565.172 4888.99 554.572 4894.29 545.472 4901.49C536.372 4908.69 528.372 4918.69 527.672 4930.29C526.572 4948.29 544.872 4963.49 562.872 4962.79C580.872 4962.09 596.572 4948.79 604.472 4932.59C612.372 4916.39 613.572 4897.79 612.872 4879.79C612.172 4861.79 609.672 4843.89 610.772 4825.89C611.272 4817.49 612.572 4808.89 616.872 4801.59C621.072 4794.29 628.772 4788.59 637.172 4788.59C645.472 4788.59 653.172 4794.29 657.072 4801.59C660.972 4808.99 661.572 4817.69 660.472 4825.99C658.272 4841.99 650.172 4856.49 643.472 4871.19C636.772 4885.89 631.472 4902.39 635.372 4918.09C639.272 4933.79 655.572 4947.29 671.072 4942.59C685.972 4938.09 692.472 4919.89 690.572 4904.49C688.672 4888.79 680.772 4874.49 676.572 4859.49C672.172 4843.89 668.772 4827.79 666.872 4811.69C666.172 4805.89 666.172 4799.09 670.672 4795.29C676.372 4790.59 685.572 4794.69 689.072 4801.19C692.572 4807.69 692.272 4815.49 692.672 4822.79C694.372 4854.69 711.772 4885.29 738.372 4902.89C754.072 4913.29 774.372 4919.29 791.872 4912.29C809.372 4905.29 820.272 4881.89 809.472 4866.39C803.972 4858.39 794.272 4854.19 784.672 4852.29C775.072 4850.39 765.272 4850.59 755.672 4849.09C737.772 4846.29 720.672 4837.99 707.572 4825.39C700.372 4818.49 694.172 4807.09 700.272 4799.09C706.172 4791.39 718.172 4793.89 727.372 4796.89C748.172 4803.69 769.772 4809.29 791.672 4809.29C813.572 4809.19 836.172 4802.99 852.472 4788.39C860.972 4780.79 867.872 4770.39 867.972 4759.09C868.072 4738.59 845.572 4723.89 825.172 4724.59C804.672 4725.29 786.372 4736.79 769.272 4748.09C752.172 4759.39 734.072 4771.09 713.572 4772.39C687.872 4773.99 703.972 4749.79 711.872 4740.09C724.972 4724.09 740.472 4710.29 753.772 4694.59C769.372 4676.19 780.672 4655.69 774.672 4630.69C767.772 4601.59 742.172 4580.69 714.272 4600.89C700.172 4611.09 696.372 4630.59 697.772 4647.89C699.172 4665.19 704.472 4682.19 704.172 4699.49C703.672 4722.89 692.072 4745.89 673.472 4760.19C668.272 4764.19 662.172 4767.69 655.672 4767.69C641.372 4767.79 631.772 4751.09 633.772 4736.89C635.772 4722.69 645.372 4710.99 654.672 4700.19C665.072 4687.99 667.072 4672.69 670.072 4656.89C671.972 4646.69 672.372 4635.79 668.372 4626.19C664.372 4616.59 654.972 4608.69 644.572 4608.99C635.772 4609.19 627.772 4615.19 623.272 4622.79C618.772 4630.39 617.172 4639.39 616.672 4648.19C615.072 4675.79 622.372 4704.29 613.672 4730.49C611.072 4738.49 606.672 4746.19 599.772 4750.99C592.872 4755.79 582.972 4756.79 576.172 4751.79C570.872 4747.89 568.272 4740.99 568.072 4734.39C567.872 4727.79 569.672 4721.29 571.572 4714.89C575.972 4699.89 580.672 4684.99 585.772 4670.09C592.472 4650.59 581.572 4628.19 571.272 4610.39C566.172 4601.59 559.972 4593.19 551.672 4587.19C543.372 4581.19 532.972 4577.79 522.872 4579.39C512.772 4581.09 503.472 4588.39 500.972 4598.29C499.172 4605.49 501.072 4613.19 504.372 4619.89C507.672 4626.59 512.272 4632.49 516.472 4638.59C525.272 4651.69 532.272 4666.39 534.272 4681.99C536.272 4697.59 533.072 4714.29 523.372 4726.79C517.972 4733.79 508.672 4739.59 500.572 4736.19C491.972 4732.59 490.072 4721.59 489.272 4712.29C487.772 4694.19 486.372 4675.99 484.872 4657.89C483.872 4645.49 479.772 4634.19 470.872 4625.39C455.972 4610.69 438.572 4598.59 419.472 4589.89C409.372 4585.19 398.072 4581.49 387.172 4583.79C374.072 4586.49 363.572 4598.79 362.772 4612.09C362.472 4625.49 370.472 4642.29 383.072 4646.79Z" fill="#008DB5"/>
<path d="M2161.92 4920.87C2142.02 4885.77 2141.42 4836.27 2171.42 4809.27C2193.02 4789.87 2227.02 4786.87 2252.92 4799.97C2278.82 4813.07 2296.22 4840.57 2299.52 4869.47C2302.82 4898.37 2292.72 4927.97 2274.72 4950.67C2269.82 4956.87 2264.32 4962.67 2261.22 4969.87C2258.12 4977.07 2258.02 4986.37 2263.52 4991.97C2270.62 4999.37 2283.02 4997.37 2292.02 4992.57C2312.12 4981.87 2324.82 4961.47 2338.32 4943.07C2351.82 4924.67 2369.22 4906.37 2391.82 4903.67C2416.42 4900.67 2440.02 4918.07 2451.42 4940.07C2471.02 4978.17 2456.72 5030.07 2420.52 5052.77C2384.22 5075.47 2331.32 5065.67 2305.62 5031.57C2302.22 5027.07 2299.12 5022.07 2294.12 5019.37C2289.12 5016.67 2281.62 5017.57 2279.52 5022.87C2278.02 5026.47 2279.62 5030.47 2281.02 5034.07C2295.92 5072.47 2297.22 5118.17 2275.32 5153.07C2253.42 5187.97 2204.92 5206.77 2168.42 5187.77C2130.12 5167.87 2118.82 5113.37 2138.52 5074.97C2147.62 5057.37 2161.82 5042.97 2178.42 5032.27C2187.12 5026.77 2196.42 5022.27 2206.02 5018.67C2212.42 5016.27 2230.62 5015.07 2234.82 5010.17C2248.22 4994.87 2213.82 4977.57 2204.32 4969.47C2187.72 4955.57 2172.62 4939.77 2161.92 4920.87Z" fill="#FF863A"/>
<path d="M2235.2 5396.7L2238.8 5370.6L2068.5 5351.4L1998.6 5455.3L1905.3 5424.1L2060.3 5284.9L2165 5286.7L2192 5234.9L2300.6 5266.7L2308.4 5241.5L2204.5 5211.1L2235.4 5151.7L2212.9 5140L2150.2 5260.2L2067.4 5258.8L2054.4 5139.4L2192.6 5069.7L2182.4 5023.2L2307.4 5002.2L2304.1 4976.3L2176.7 4997.7L2160.3 4923L2135.3 4929.5L2163.1 5055.8L2051.4 5112.1L2048.4 5084.6L1990.1 4996.8L1968.8 5012L2023.6 5094.6L2030.2 5154.7L1865.9 5048.7L1910.7 4941.9L1887.3 4932.3L1842.9 5037.9L1730.5 5001.5L1722 5026.5L1844.1 5066.1L1943.8 5130.4L1899.1 5157.9L1911.8 5180.2L1967.7 5145.9L2033.9 5188.6L2042.5 5266.7L1928.1 5369.3L1880.8 5253.5L1856 5152.9L1831.2 5160.1L1852 5244.4L1762.6 5241.6L1760.9 5267.8L1859.9 5270.9L1907.6 5387.7L1831.8 5455.7L1848.3 5475.2L1882.7 5444.4L2008.3 5486.4L2073.4 5389.6L2133 5492.1L2155.1 5478.2L2098.8 5381.3L2235.2 5396.7Z" fill="#008753"/>
<path d="M558.699 5600.26L561.37 5580.91L435.039 5566.67L383.186 5643.71L313.975 5620.58L428.956 5517.36L506.624 5518.69L526.653 5480.28L607.214 5503.86L613 5485.17L535.925 5462.63L558.848 5418.59L542.157 5409.91L495.645 5499.04L434.223 5498L424.579 5409.47L527.098 5357.78L519.531 5323.3L612.258 5307.73L609.81 5288.52L515.303 5304.39L503.137 5249L484.592 5253.82L505.214 5347.47L422.354 5389.22L420.128 5368.83L376.88 5303.72L361.08 5315L401.731 5376.25L406.627 5420.81L284.747 5342.21L317.98 5263.01L300.622 5255.9L267.685 5334.2L184.305 5307.21L178 5325.75L268.576 5355.11L342.534 5402.79L309.375 5423.18L318.796 5439.72L360.264 5414.29L409.372 5445.95L415.752 5503.86L330.888 5579.94L295.8 5494.07L277.403 5419.48L259.006 5424.81L274.436 5487.32L208.118 5485.25L206.857 5504.68L280.296 5506.98L315.681 5593.59L259.451 5644.01L271.691 5658.47L297.21 5635.63L390.381 5666.77L438.674 5594.99L482.886 5671L499.28 5660.69L457.516 5588.84L558.699 5600.26Z" fill="#008DB5"/>
<path d="M1693.38 5197.54C1676.76 5187.73 1663.82 5172.75 1647.77 5162.21C1631.72 5151.67 1609.28 5146.4 1593.64 5157.76C1573.82 5172.1 1577.88 5204.86 1595.21 5222.05C1612.54 5239.24 1637.9 5244.89 1661.82 5249.7C1688.47 5255.2 1715.12 5260.59 1741.77 5266.09C1763.18 5270.5 1785.57 5274.77 1806.65 5269.09C1836.45 5261.04 1857.66 5234.54 1871.02 5206.76C1911.83 5122.08 1892.64 5012.39 1825.64 4946.42C1818.54 4939.41 1810.76 4932.83 1801.32 4929.62C1791.88 4926.51 1780.51 4927.48 1773.4 4934.48C1741.68 4965.83 1806.46 5012.18 1821.67 5033.76C1828.16 5043 1834.37 5052.75 1836.64 5063.86C1839 5074.88 1836.82 5087.48 1828.64 5095.22C1817.85 5105.48 1799.89 5104.23 1787.25 5096.45C1769.79 5085.77 1754.71 5062.47 1743.69 5045.32C1737.69 5035.96 1733.07 5025.84 1725.91 5017.33C1718.75 5008.92 1708.36 5002.15 1697.29 5003.21C1683.93 5004.47 1673.65 5017.01 1671 5030.23C1668.34 5043.45 1671.61 5057.03 1675.55 5069.97C1685.87 5103.77 1700.73 5136.18 1719.59 5166.02C1725.16 5174.8 1745.4 5194.47 1736.17 5203.67C1727.14 5212.65 1701.8 5202.6 1693.38 5197.54Z" fill="#36C7C1"/>
<path d="M1092.72 5234.89C1107.79 5239.21 1122.75 5240.16 1130.18 5258.49C1136.22 5273.46 1134 5290.21 1132.62 5306.23C1131.24 5322.25 1131.02 5339.64 1140.26 5352.92C1153.63 5372.2 1184.93 5380.74 1185.56 5404.24C1185.88 5415.41 1178.24 5425.74 1178.67 5436.91C1179.52 5457.99 1205.09 5466.84 1221.53 5480.12C1242.97 5497.29 1250.5 5525.85 1261.22 5551.04C1271.94 5576.23 1291.57 5602.57 1319.15 5603C1346.32 5603.42 1368.39 5574.44 1364.57 5547.67C1360.75 5520.9 1335.81 5500.03 1308.97 5496.03C1296.23 5494.13 1298.04 5477.17 1303.03 5465.47C1308.01 5453.77 1317.77 5443.34 1317.77 5430.59C1317.77 5413.41 1300.27 5401.82 1284.14 5395.6C1268.01 5389.38 1249.55 5384.01 1240.85 5369.15C1227.58 5346.17 1246.05 5314.87 1233.95 5291.27C1224.4 5272.51 1200.1 5266.71 1186.2 5251.01C1166.04 5228.25 1171.45 5193.89 1156.07 5169.02C1141.1 5144.78 1108.42 5140.57 1098.45 5110.11C1093.99 5096.31 1095.37 5081.24 1091.98 5067.12C1087.41 5047.94 1073.51 5031.07 1055.48 5022.75C1031.81 5011.89 1000.51 5016.85 980.775 5033.92C967.193 5045.62 967.405 5067.54 976.106 5083.24C994.569 5116.23 1043.91 5110.64 1048.58 5154.48C1049.64 5164.28 1047.84 5174.19 1048.58 5183.99C1050.06 5203.38 1063.01 5221.08 1080.09 5230.15C1084.34 5232.25 1088.58 5233.62 1092.72 5234.89Z" fill="#008753"/>
<path d="M1048.52 5796.97C1050.31 5766.61 1045.79 5736.15 1039.58 5706.39C1031.39 5666.93 1018.85 5625.96 988.98 5599.02C979.628 5590.52 968.209 5583.5 955.608 5582.85C938.843 5581.97 923.099 5592.73 913.414 5606.52C905.969 5617.21 899.66 5635.16 885.47 5639.46C868.955 5644.55 848.868 5625.16 831.292 5623.36C807.803 5620.94 780.82 5634.85 777.476 5658.18C775.768 5670.15 780.253 5682.01 782.053 5694.03C783.853 5706.05 781.797 5720.3 771.332 5726.48C759.303 5733.56 744.327 5725.68 730.344 5726.25C711.899 5727.03 696.988 5743.56 693.053 5761.53C689.118 5779.51 694.291 5798.33 701.829 5815.24C719.573 5854.88 751.198 5887.75 789.218 5908.6C827.237 5929.45 871.443 5938.39 914.73 5935.63C951.632 5933.36 990.771 5920.76 1016.14 5892.5C1037.7 5868.24 1046.69 5828.45 1048.52 5796.97Z" fill="#FF863A"/>
<path d="M1804.4 4464.7L1789.1 4449.4L1691.5 4551.9L1725.1 4649.6L1658.1 4695.5L1643.7 4524.1L1697.1 4456.1L1676.4 4412.5L1751.5 4357L1738.8 4339.3L1666.9 4392.5L1643.3 4342.6L1624.4 4351.6L1672.3 4452.7L1630.1 4506.4L1545 4455.6L1568 4329.9L1532.3 4313.4L1580.8 4220.7L1562.1 4210L1512.7 4304.4L1455.4 4278L1447.3 4297.7L1544.2 4342.4L1525.6 4443.9L1505.9 4432.2L1419.2 4426.8L1418.6 4448.4L1500.2 4453.5L1543.1 4479.1L1391.4 4534.4L1343.5 4451.7L1325.5 4462.3L1372.9 4544.2L1293 4600L1305.2 4618L1392 4557.4L1484.1 4523.8L1479.9 4566.9L1500.9 4569.7L1506.1 4515.8L1567.2 4493.5L1622.8 4526.8L1633.4 4653.1L1533.7 4626.6L1455.1 4592.8L1447.5 4612.7L1513.3 4641L1466.9 4698.4L1483.3 4712.6L1534.7 4649L1635.3 4675.8L1642.3 4759.6L1663.4 4758.4L1660.2 4720.5L1750.4 4658.8L1719.1 4567.7L1816.3 4579.5L1818.1 4558L1726.3 4546.8L1804.4 4464.7Z" fill="#FF863A"/>
</g>
</svg>
