<svg width="986" height="3726" viewBox="0 0 986 3726" fill="none" xmlns="http://www.w3.org/2000/svg">
<mask id="mask0" mask-type="alpha" maskUnits="userSpaceOnUse" x="0" y="0" width="986" height="3726">
<rect width="986" height="3726" fill="#C4C4C4"/>
</mask>
<g mask="url(#mask0)">
<path d="M400.938 3648.6C402.838 3652.1 402.338 3656.4 400.738 3659.6C399.038 3662.8 396.338 3664.9 393.738 3667C373.738 3682.3 351.438 3693.9 327.638 3701.3C318.238 3704.2 307.538 3706.3 298.338 3700.3C292.338 3696.4 287.938 3689.5 285.538 3682.2C283.138 3674.9 282.438 3667.2 282.338 3659.7C281.938 3636.7 286.338 3614.2 294.938 3594.5C296.238 3591.6 297.638 3588.7 299.938 3586.9C302.338 3585.1 305.838 3584.9 308.238 3587.2C311.538 3590.4 310.938 3596.1 310.038 3600.5C306.938 3615.3 303.838 3630.1 300.638 3645C302.938 3634.3 308.938 3623.2 313.538 3613.7C318.538 3603.3 322.838 3584.3 333.638 3580.1C345.038 3575.7 340.938 3596.2 339.438 3602.2C337.138 3611.3 333.438 3619.7 329.938 3628.1C326.338 3636.5 322.738 3644.9 319.138 3653.3C329.338 3634.3 339.538 3615.3 349.738 3596.3C352.438 3591.2 355.338 3586 359.838 3583.2C364.338 3580.4 371.138 3580.7 374.938 3585.7C377.738 3589.5 378.138 3594.8 376.938 3599.2C375.738 3603.5 373.238 3607 370.738 3610.4C358.638 3627 346.538 3643.6 334.438 3660.3C345.138 3659.8 353.538 3651.7 360.438 3643.1C367.338 3634.5 373.738 3624.9 383.138 3620C385.838 3618.6 388.738 3617.6 391.838 3618.2C394.938 3618.8 398.038 3621.2 399.038 3624.6C400.738 3630.3 396.238 3635 392.238 3638.1C379.238 3648.2 366.238 3658.2 353.238 3668.3C349.338 3671.3 344.238 3673.5 341.238 3677.8C337.738 3682.8 340.338 3687.1 346.538 3686.6C351.638 3685.9 400.838 3648.4 400.938 3648.6Z" fill="#FFDF00"/>
<path d="M551.106 1824.02C565.406 1824.52 578.806 1834.52 584.106 1847.82C589.406 1861.12 586.806 1877.12 578.406 1888.72C573.306 1883.92 570.206 1877.42 568.506 1870.62C566.806 1863.82 566.406 1856.82 566.006 1849.92C563.906 1857.32 561.806 1864.82 558.106 1871.52C554.406 1878.32 549.006 1884.32 541.906 1887.32C538.106 1880.02 538.006 1871.22 540.006 1863.32C542.006 1855.42 545.906 1848.02 549.806 1840.82C548.306 1843.52 538.206 1845.42 535.406 1846.12C532.606 1846.82 522.106 1849.82 519.706 1847.62C517.006 1845.22 522.806 1838.12 524.406 1836.12C527.506 1832.52 531.406 1829.52 535.606 1827.42C540.406 1825.12 545.706 1823.82 551.106 1824.02Z" fill="#8BCBCA"/>
<path d="M397.638 2838.6C416.238 2824.7 444.438 2820.7 461.938 2835.9C474.538 2846.8 478.738 2866 473.238 2881.7C467.638 2897.5 453.238 2909.4 437.038 2913.3C420.838 2917.3 403.138 2913.7 388.838 2905.1C384.938 2902.8 381.238 2900 376.938 2898.8C372.638 2897.6 367.338 2898.2 364.438 2901.7C360.738 2906.3 362.838 2913.2 366.238 2918C373.838 2928.7 386.338 2934.5 397.838 2940.8C409.338 2947.2 421.038 2955.7 424.238 2968.5C427.738 2982.3 419.538 2997.1 407.838 3005.1C387.538 3019 356.938 3014.7 341.338 2995.7C325.738 2976.7 327.438 2945.8 345.038 2928.6C347.338 2926.3 350.038 2924.2 351.138 2921.1C352.338 2918.1 351.238 2913.9 348.138 2913C345.938 2912.4 343.838 2913.6 341.838 2914.6C321.038 2925.9 295.038 2930 273.538 2920C252.038 2910 237.738 2883.8 245.938 2861.5C254.538 2838.2 284.738 2827.8 308.138 2836.2C318.838 2840.1 328.138 2847.2 335.438 2855.9C339.238 2860.4 342.438 2865.4 345.238 2870.6C347.038 2874.1 349.138 2884.3 352.138 2886.4C361.838 2892.9 369.138 2872 373.138 2866C379.738 2855.8 387.638 2846.1 397.638 2838.6Z" fill="#FF863A"/>
<path d="M633.138 3153.9L626.638 3142.8L555.038 3186.8L559.338 3248.1L513.838 3264.2L531.738 3163.5L572.838 3132.6L567.638 3104.4L619.138 3084L614.638 3071.9L565.238 3091.5L559.238 3059.2L547.038 3061.5L559.138 3126.8L526.638 3151.3L485.538 3109.1L517.938 3040.4L499.938 3025.5L541.938 2979.6L532.838 2970.6L490.038 3017.4L461.138 2993.4L453.438 3003.5L502.338 3043.9L476.138 3099.4L466.638 3089.7L417.638 3073.3L414.038 3085.7L460.138 3101.1L480.838 3122.3L385.238 3130.9L370.438 3076.1L358.438 3079.5L373.138 3133.7L318.738 3153.6L323.038 3165.8L382.138 3144.2L440.138 3139L431.138 3163.1L442.738 3167.9L454.038 3137.7L492.438 3134.3L519.338 3161.9L506.138 3236.1L452.938 3205.6L412.938 3174.2L405.538 3184.5L439.038 3210.8L403.638 3236.7L410.838 3247.3L450.038 3218.6L503.838 3249.4L495.038 3298.6L507.338 3301.1L511.238 3278.8L572.538 3257.2L568.438 3200L622.438 3221.7L626.738 3209.6L575.738 3189.2L633.138 3153.9Z" fill="#36C7C1"/>
<path d="M148.038 3091.3C174.238 3081.6 178.038 3108 177.638 3119.5C177.138 3131 182.338 3153.3 199.038 3154C215.738 3154.6 217.838 3132.1 217.038 3117C216.238 3101.9 225.938 3076.2 248.238 3080.1C270.538 3083.9 288.038 3099.8 278.938 3125.1C269.838 3150.5 225.238 3177 221.738 3192.8C218.238 3208.5 209.338 3228.8 231.738 3231.5C254.138 3234.1 247.838 3178.6 268.738 3183.4C289.638 3188.2 303.338 3197.4 297.538 3225.4C291.738 3253.4 241.338 3240 233.138 3259.9C224.838 3279.8 226.938 3294.5 255.838 3298.1C284.738 3301.7 304.838 3278.8 311.638 3294.2C318.438 3309.6 313.638 3330.5 293.938 3329.5C274.238 3328.5 237.538 3312.3 226.238 3316.1C214.838 3319.9 208.138 3330.9 203.438 3334.5C194.238 3341.4 172.738 3344.7 163.138 3327.7C157.738 3318.3 165.838 3310.4 156.538 3304.2C147.238 3298 110.838 3298.8 102.638 3304.2C94.4381 3309.6 66.7381 3302 68.9381 3286.7C71.1381 3271.4 89.6381 3251.3 100.338 3260.6C111.038 3269.9 134.138 3275.7 138.638 3273.9C143.138 3272.1 152.438 3257.2 131.338 3245.2C110.238 3233.2 87.3381 3225.7 87.7381 3210.1C88.1381 3194.6 95.2381 3178.8 104.138 3179.4C113.038 3180.1 127.538 3187.6 133.638 3208.3C139.638 3229 156.638 3236.2 166.238 3228C175.838 3219.8 180.138 3186.2 175.938 3173.5C171.738 3160.9 143.538 3135.8 141.338 3125.9C139.138 3115.8 134.138 3096.5 148.038 3091.3Z" fill="#EF3C45"/>
<path d="M620.238 3110.2C635.238 3091.8 649.338 3109.5 653.938 3118C658.538 3126.6 671.938 3140.7 684.438 3133.9C696.938 3127.1 688.738 3109.8 681.638 3099.1C674.538 3088.4 670.538 3065.5 688.438 3058.7C706.338 3051.9 725.938 3055.9 730.338 3078.4C734.638 3100.8 713.438 3139.5 717.738 3152.5C721.938 3165.5 724.238 3184.2 741.738 3176.4C759.238 3168.7 730.638 3130.8 748.038 3125.3C765.438 3119.8 779.338 3120.6 787.138 3143.6C794.938 3166.6 752.438 3178.4 754.938 3196.5C757.438 3214.6 765.338 3224.4 787.938 3214.6C810.638 3204.8 815.438 3179.3 827.038 3187.7C838.638 3196 844.138 3213.4 829.338 3221.1C814.538 3228.8 780.738 3232.9 774.138 3240.5C767.438 3248.1 767.338 3259.1 765.438 3263.8C761.738 3272.8 747.438 3284.4 733.038 3276.2C725.038 3271.6 727.538 3262.4 718.038 3261.9C708.538 3261.4 682.338 3277.7 678.638 3285.1C675.038 3292.6 651.438 3299 646.538 3286.8C641.538 3274.7 646.438 3252 658.238 3254.2C670.038 3256.4 689.438 3250.6 691.938 3247.4C694.438 3244.2 694.838 3229.2 674.238 3229.5C653.638 3229.8 633.638 3234.2 627.338 3222.7C620.938 3211.1 619.338 3196.6 626.138 3193.2C632.938 3189.9 646.838 3189.1 660.138 3201.6C673.438 3214.1 688.938 3212.1 692.438 3202C695.938 3191.9 684.538 3165.5 676.038 3158.1C667.538 3150.7 636.138 3144.5 630.238 3138.2C624.338 3131.9 612.238 3120 620.238 3110.2Z" fill="#FFDF00"/>
<path d="M141.076 2304.66C143.676 2288.06 146.176 2271.46 148.776 2254.96C156.176 2272.96 163.576 2290.86 171.076 2308.86C169.976 2285.36 168.876 2261.86 167.776 2238.36C179.676 2265.06 199.676 2288.16 224.476 2303.66C218.776 2280.46 213.176 2257.36 207.476 2234.16C226.176 2246.56 244.776 2258.96 263.476 2271.26C247.476 2247.76 231.476 2224.26 215.476 2200.76C239.276 2220.16 270.876 2229.86 301.476 2227.16C277.776 2211.46 254.076 2195.76 230.376 2180.06C215.376 2170.16 199.876 2160.06 182.276 2156.86C168.976 2154.46 151.576 2156.86 141.576 2166.96C133.876 2174.76 134.176 2190.86 132.276 2201.26C125.876 2235.66 128.876 2271.76 141.076 2304.66Z" fill="#FF863A"/>
<path d="M809.638 2851.6C815.238 2848.7 817.138 2841.4 816.838 2835.5C816.438 2829.3 814.238 2823.3 813.238 2817.2C811.138 2803.7 815.538 2789.3 824.938 2779.3C832.338 2771.4 842.338 2766.3 849.038 2757.9C855.738 2749.5 857.338 2735.1 848.238 2729.3C841.738 2725.2 832.638 2727.8 827.138 2733.1C821.638 2738.4 818.738 2746 816.038 2753.2C813.738 2738.8 811.538 2724.4 809.238 2709.9C812.938 2700.8 817.038 2696.5 820.738 2687.4C823.538 2680.5 826.338 2673.4 826.138 2666C825.938 2658.6 821.838 2650.8 814.738 2648.6C787.838 2640.4 795.738 2683.9 799.638 2696.2C797.638 2690.3 794.338 2684.8 789.938 2680.3C787.738 2678 785.238 2676 782.238 2674.9C774.438 2672.1 767.138 2680.2 766.538 2687.7C765.938 2695.2 770.938 2701.8 775.638 2707.6C783.638 2717.4 791.638 2727.2 799.638 2737C799.038 2738.2 797.838 2739 797.238 2740.2C788.038 2732.4 778.838 2724.7 769.538 2716.9C765.338 2713.4 759.338 2709.7 754.838 2713C751.138 2715.7 751.738 2721.7 754.638 2725.3C757.538 2728.8 762.038 2730.6 766.138 2732.7C769.438 2734.4 772.138 2736.2 775.638 2737.4C779.138 2738.7 782.338 2740.5 785.138 2742.9C790.838 2747.5 795.038 2753.9 797.838 2760.6C802.538 2772.1 803.338 2784.8 804.138 2797.2C804.738 2806.6 805.938 2816 807.138 2825.4C808.138 2833.6 811.038 2843.5 809.638 2851.6Z" fill="#00B590"/>
<path d="M924.338 3522.5L914.738 3513.6L858.238 3577.6L880.738 3635.8L841.338 3665L828.738 3562L859.438 3519.8L845.938 3494L889.938 3458.7L881.838 3448.3L839.738 3482.1L824.338 3452.5L813.138 3458.4L844.338 3518.2L820.138 3551.6L767.638 3522.9L778.638 3446.6L756.738 3437.5L783.838 3380.4L772.438 3374.4L744.738 3432.5L709.538 3417.9L705.138 3429.9L764.538 3454.6L755.638 3516.3L743.538 3509.7L691.138 3508.4L691.238 3521.5L740.638 3522.7L767.038 3537.1L676.838 3574L646.038 3525.2L635.438 3532L665.838 3580.3L618.938 3615.8L626.738 3626.3L677.738 3587.8L732.438 3565.5L730.938 3591.5L743.638 3592.8L745.538 3560.1L781.938 3545.3L816.238 3564.1L825.538 3640L764.738 3626.3L716.538 3607.7L712.438 3619.9L752.838 3635.5L726.138 3671.2L736.338 3679.3L765.838 3639.8L827.138 3653.7L833.338 3704L845.938 3702.8L843.138 3680L896.138 3640.8L875.238 3586.5L934.138 3591.5L934.738 3578.5L879.138 3573.8L924.338 3522.5Z" fill="#008DB5"/>
<path d="M153.633 654.169C150.033 655.469 146.533 659.669 148.633 662.769C149.933 664.669 152.533 665.069 154.833 665.269C165.133 666.169 175.433 667.069 185.733 667.869C193.833 668.569 202.033 669.269 210.033 668.069C218.033 666.869 226.033 663.469 231.333 657.369C232.233 656.369 233.033 655.169 233.033 653.869C233.133 651.669 230.933 649.969 228.833 649.669C226.633 649.369 224.533 650.069 222.433 650.669C214.033 653.069 205.033 653.369 196.433 651.569C190.733 650.369 185.333 648.369 179.633 647.369C168.833 645.569 163.033 650.769 153.633 654.169Z" fill="#D8BF8B"/>
<path d="M615.674 345.7C610.774 345.6 604.974 346.2 601.774 342.4C599.374 339.5 599.674 335.3 598.474 331.8C595.674 324 586.474 321.3 579.774 316.4C566.474 306.8 563.974 285.4 574.674 273C576.774 278.7 574.974 284.9 573.874 290.8C572.874 296.7 573.074 303.8 577.774 307.6C583.174 311.9 591.574 309.7 597.374 313.4C605.974 318.9 604.674 334.3 614.174 337.9C617.874 339.3 621.974 338.2 625.874 338.5C629.774 338.8 634.274 341.8 633.474 345.6C637.774 344.7 637.774 338 634.874 334.7C631.974 331.4 627.474 329.8 624.474 326.4C622.274 323.9 621.074 320.6 619.974 317.4C616.774 308.1 613.574 298.8 610.374 289.5C609.274 286.3 608.174 282.8 609.374 279.7C610.574 276.6 615.174 274.7 617.374 277.3C618.974 279.3 618.174 282.2 618.074 284.7C617.874 288.7 619.574 292.4 621.374 296C625.774 304.6 630.774 312.9 636.374 320.7C639.974 325.8 643.874 330.8 645.874 336.7C647.774 342.6 647.274 349.8 642.874 354.2C631.974 365.2 625.774 345.9 615.674 345.7Z" fill="#909AB2"/>
<path d="M807.602 828.1C802.402 828 796.202 828.7 792.902 824.6C790.402 821.6 790.702 817.1 789.402 813.4C786.502 805.1 776.602 802.2 769.502 797.1C755.402 786.9 752.702 764.2 764.102 751C766.302 757 764.402 763.6 763.302 769.9C762.202 776.2 762.402 783.7 767.402 787.7C773.102 792.3 782.102 789.9 788.302 793.9C797.402 799.7 796.102 816.2 806.202 819.9C810.102 821.3 814.502 820.2 818.602 820.6C822.802 820.9 827.502 824.1 826.602 828.2C831.202 827.2 831.202 820.1 828.102 816.6C825.002 813.1 820.202 811.3 817.102 807.8C814.702 805.1 813.502 801.6 812.302 798.3C808.902 788.4 805.502 778.5 802.102 768.6C800.902 765.2 799.802 761.5 801.002 758.2C802.202 754.9 807.202 752.9 809.502 755.7C811.202 757.8 810.402 760.9 810.202 763.6C810.002 767.8 811.802 771.8 813.702 775.6C818.402 784.7 823.702 793.5 829.702 801.9C833.502 807.3 837.702 812.6 839.802 818.9C841.802 825.2 841.302 832.8 836.602 837.5C824.902 848.9 818.202 828.4 807.602 828.1Z" fill="#909AB2"/>
<path d="M158.301 84.8968C158.201 82.7968 157.501 80.2968 155.601 79.3968C153.701 78.5968 151.301 79.4968 149.501 78.5968C147.701 77.6968 147.101 75.3968 147.201 73.3968C147.301 71.3968 147.901 69.3968 147.501 67.3968C147.001 64.5968 144.901 62.3968 143.701 59.7968C142.501 57.1968 142.701 53.3968 145.401 52.4968C147.701 51.7968 150.001 53.7968 150.701 56.0968C151.401 58.3968 151.101 60.7968 151.201 63.1968C151.301 65.5968 152.101 68.1968 154.301 69.2968C156.801 70.4968 160.201 69.0968 162.401 70.8968C166.001 73.7968 162.001 81.6968 166.301 83.2968C170.801 84.9968 171.601 79.1968 170.101 76.4968C169.601 75.4968 169.101 74.1968 169.701 73.2968C170.401 72.0968 172.101 72.1968 173.401 72.6968C174.701 73.0968 176.101 73.7968 177.301 73.3968C178.901 72.7968 179.501 70.7968 179.101 69.0968C178.701 67.3968 177.701 65.9968 177.001 64.4968C175.901 62.1968 176.001 57.9968 179.501 57.8968C180.901 57.8968 182.201 58.4968 183.401 59.1968C188.001 61.6968 192.501 59.5968 195.401 55.3968C197.101 52.8968 198.001 49.6968 200.601 47.9968C204.201 45.4968 209.901 47.9968 211.201 52.1968C212.501 56.3968 209.801 61.1968 205.801 63.0968C202.901 64.3968 199.101 64.6968 197.501 67.4968C196.001 70.0968 197.401 73.4968 196.101 76.1968C194.001 80.5968 187.301 79.5968 183.201 82.1968C180.901 83.6968 179.501 86.1968 178.101 88.5968C172.801 98.3968 158.901 96.5968 158.301 84.8968Z" fill="#93ACD1"/>
<path d="M533.938 3529.1L535.638 3516.9L455.738 3507.8L422.938 3556.6L379.138 3542L451.938 3476.6L501.038 3477.5L513.738 3453.2L564.638 3468.1L568.338 3456.3L519.538 3442L534.038 3414.1L523.538 3408.6L494.138 3465L455.238 3464.4L449.138 3408.3L513.938 3375.6L509.138 3353.8L567.838 3343.9L566.338 3331.8L506.538 3341.8L498.838 3306.7L487.138 3309.8L500.138 3369.1L447.738 3395.5L446.238 3382.6L418.938 3341.4L408.938 3348.5L434.638 3387.3L437.738 3415.5L360.638 3365.7L381.638 3315.6L370.638 3311.1L349.838 3360.7L297.038 3343.6L293.138 3355.3L350.438 3373.9L397.238 3404.1L376.238 3417L382.138 3427.5L408.438 3411.4L439.438 3431.4L443.538 3468.1L389.838 3516.2L367.638 3461.9L355.938 3414.7L344.338 3418.1L354.138 3457.6L312.138 3456.3L311.338 3468.6L357.838 3470.1L380.238 3524.9L344.638 3556.8L352.338 3565.9L368.538 3551.5L427.438 3571.2L458.038 3525.8L485.938 3573.9L496.338 3567.3L469.938 3521.9L533.938 3529.1Z" fill="#EC1728"/>
<path d="M700.038 2694.7L692.938 2687.5L647.138 2735.6L662.838 2781.5L631.438 2803L624.638 2722.5L649.738 2690.6L640.038 2670.2L675.238 2644.1L669.238 2635.8L635.538 2660.8L624.438 2637.3L615.638 2641.6L638.038 2689L618.238 2714.2L578.338 2690.4L589.138 2631.4L572.338 2623.7L595.138 2580.1L586.338 2575.1L563.138 2619.4L536.238 2607L532.438 2616.3L577.938 2637.2L569.238 2684.9L560.038 2679.4L519.238 2676.9L519.038 2687L557.338 2689.4L577.438 2701.4L506.238 2727.4L483.738 2688.6L475.338 2693.6L497.538 2732L460.038 2758.2L465.738 2766.6L506.538 2738.2L549.738 2722.4L547.738 2742.6L557.638 2744L560.038 2718.6L588.738 2708.2L614.838 2723.8L619.838 2783.1L573.038 2770.6L536.138 2754.8L532.538 2764.1L563.438 2777.4L541.638 2804.4L549.438 2811L573.438 2781.2L620.738 2793.8L624.038 2833.1L633.838 2832.5L632.438 2814.7L674.738 2785.7L660.038 2743L705.638 2748.6L706.538 2738.5L663.438 2733.2L700.038 2694.7Z" fill="#008DB5"/>
<path d="M359.5 1222.77C360.6 1226.37 359.3 1230.47 357.1 1233.07C354.9 1235.67 351.9 1237.27 349 1238.67C327.1 1249.07 303.8 1255.57 280 1257.77C270.6 1258.67 260.1 1258.47 252.7 1251.07C247.8 1246.17 245.1 1238.77 244.3 1231.47C243.5 1224.07 244.4 1216.77 245.8 1209.57C250 1187.77 258.6 1167.47 270.6 1150.67C272.4 1148.17 274.3 1145.67 276.9 1144.57C279.5 1143.47 282.8 1143.87 284.6 1146.47C287.1 1150.17 285.4 1155.37 283.7 1159.37C277.8 1172.67 271.9 1186.07 266.1 1199.37C270.4 1189.67 278.3 1180.47 284.4 1172.47C291.1 1163.67 298.9 1146.67 310 1144.87C321.6 1142.97 313.7 1161.47 311 1166.77C307 1174.87 301.9 1182.07 296.9 1189.27C291.8 1196.47 286.8 1203.67 281.7 1210.87C295.1 1194.97 308.4 1179.17 321.8 1163.27C325.4 1159.07 329.1 1154.67 334 1152.87C338.9 1151.07 345.1 1152.77 347.7 1158.27C349.6 1162.37 348.9 1167.47 346.9 1171.37C344.9 1175.27 341.8 1177.97 338.8 1180.77C324.1 1193.97 309.4 1207.27 294.7 1220.47C304.8 1222.07 314.4 1216.17 322.6 1209.47C330.8 1202.77 338.8 1194.97 348.6 1192.27C351.4 1191.47 354.4 1191.17 357.1 1192.27C359.9 1193.37 362.3 1196.27 362.6 1199.67C363.1 1205.37 357.9 1208.97 353.5 1211.07C339.3 1217.97 325 1224.87 310.8 1231.77C306.5 1233.87 301.3 1234.87 297.6 1238.27C293.3 1242.27 294.9 1246.87 300.8 1247.57C305.6 1248.07 359.4 1222.57 359.5 1222.77Z" fill="#ACB8DE"/>
<path d="M841.9 1716.3L839.1 1708.5L788.4 1728L784 1767.5L753.1 1772.4L776.3 1710.5L806 1695.7V1677.2L841.2 1670.2L839.7 1662L806 1668.6V1647.4H798V1690.4L774.5 1702.1L753.3 1670.5L782 1630.6L772.3 1619L804.4 1594.8L799.7 1588L767 1612.7L751.4 1594.1L745.3 1599.6L771.6 1631L748.5 1663.2L743.6 1655.9L714.4 1639.8L710.6 1647.2L738.1 1662.4L748.8 1678.3L687 1672.6L684 1636L676 1636.7L679 1672.9L642 1679.2L643.3 1687.5L683.4 1680.7L720.9 1684.2L712.4 1698.4L719.2 1702.9L729.9 1685L754.8 1687.3L768.6 1708L751.5 1753.6L721.3 1728L699.5 1703.3L693.6 1709L711.8 1729.7L686.3 1742L689.6 1749.6L717.9 1736L748.4 1761.8L737.1 1792.1L744.6 1795.1L749.7 1781.4L791.2 1774.8L795.3 1738L827.1 1758.2L831.3 1751L801.3 1732L841.9 1716.3Z" fill="#FFCC33"/>
</g>
</svg>
