<svg width="986" height="3726" viewBox="0 0 986 3726" fill="none" xmlns="http://www.w3.org/2000/svg">
<mask id="mask0" mask-type="alpha" maskUnits="userSpaceOnUse" x="0" y="0" width="986" height="3726">
<rect width="986" height="3726" fill="#C4C4C4"/>
</mask>
<g mask="url(#mask0)">
<path d="M665.238 2853.3C668.538 2850.4 672.238 2845.9 669.938 2842.2C668.138 2839.3 664.038 2839.2 660.738 2839.7C644.638 2842.3 630.338 2853.6 624.038 2868.6C617.738 2883.6 619.638 2901.8 629.038 2915.1C638.338 2928.4 654.838 2936.5 671.038 2935.6C674.538 2935.4 678.338 2934.7 680.938 2932.3C683.538 2929.9 684.138 2925.2 681.338 2922.9C677.938 2920.1 671.538 2922.3 669.438 2918.5C667.938 2915.8 670.338 2912.4 673.138 2911.1C675.938 2909.8 679.238 2909.7 682.038 2908.5C684.838 2907.3 687.338 2904 686.038 2901.2C684.838 2898.8 681.638 2898.3 678.938 2898.7C676.138 2899.2 670.138 2901.8 667.438 2900.3C666.238 2899.6 665.538 2898.2 665.738 2896.8C666.138 2894.3 669.038 2893 671.538 2892.8C677.738 2892.3 685.038 2891.5 685.938 2883.7C686.338 2879.8 683.138 2875.5 679.238 2875.7C676.638 2875.9 674.538 2877.7 672.638 2879.4C670.738 2881.1 668.438 2882.8 665.938 2882.7C663.338 2882.6 661.038 2879.4 662.638 2877.4C666.938 2876.7 671.438 2875.8 674.638 2872.8C677.738 2869.8 678.438 2863.8 674.738 2861.5C670.438 2858.7 665.538 2863.8 661.738 2861.9C656.738 2859.3 663.138 2855.2 665.238 2853.3Z" fill="#FFD7CC"/>
<path d="M287.838 2722.2L282.838 2713.5L227.038 2747.7L230.438 2795.4L194.938 2808L208.938 2729.6L240.838 2705.6L236.838 2683.6L276.938 2667.7L273.438 2658.3L234.938 2673.5L230.338 2648.4L220.838 2650.2L230.238 2701.1L204.938 2720.1L172.938 2687.2L198.138 2633.8L184.138 2622.2L216.838 2586.5L209.738 2579.5L176.438 2615.8L153.938 2597.2L147.938 2605L186.038 2636.5L165.638 2679.7L158.238 2672.1L120.038 2659.4L117.238 2669L153.138 2681L169.238 2697.5L94.8381 2704.2L83.2381 2661.6L73.9381 2664.2L85.4381 2706.4L43.0381 2721.9L46.3381 2731.4L92.4381 2714.6L137.538 2710.5L130.538 2729.3L139.638 2733.1L148.338 2709.6L178.338 2706.8L199.238 2728.3L188.938 2786.1L147.538 2762.4L116.438 2737.9L110.638 2745.9L136.738 2766.4L109.138 2786.6L114.838 2794.9L145.338 2772.5L187.138 2796.5L180.338 2834.7L189.838 2836.7L192.938 2819.4L240.638 2802.5L237.438 2758.1L279.538 2774.9L282.838 2765.5L243.138 2749.6L287.838 2722.2Z" fill="#FFCC33"/>
<path d="M547.838 3576C550.738 3557 553.738 3538 556.638 3519C565.138 3539.6 573.638 3560.1 582.138 3580.7C580.838 3553.8 579.638 3526.9 578.338 3499.9C591.938 3530.5 614.838 3557 643.238 3574.7C636.738 3548.2 630.238 3521.6 623.838 3495.1C645.238 3509.3 666.538 3523.5 687.938 3537.6C669.638 3510.7 651.238 3483.7 632.938 3456.8C660.238 3479 696.338 3490.1 731.438 3487C704.238 3469 677.138 3451 649.938 3433C632.838 3421.7 615.038 3410 594.838 3406.4C579.538 3403.7 559.738 3406.4 548.238 3417.9C539.438 3426.9 539.738 3445.3 537.638 3457.2C530.438 3497 533.938 3538.4 547.838 3576Z" fill="#FF863A"/>
<path d="M754.138 3368.8C784.838 3340.7 788.038 3294.5 776.338 3256.6C775.238 3252.9 773.738 3249 770.838 3246.6C767.838 3244.1 762.838 3243.7 760.438 3246.7C758.738 3248.8 758.838 3251.7 758.938 3254.4C759.438 3268.4 760.638 3282.6 760.938 3296.6C761.138 3304.9 760.038 3313.2 758.938 3321.4C758.038 3328.5 757.838 3335.7 755.838 3342.5C751.638 3356.4 747.038 3368.4 734.038 3376.4C730.838 3378.4 726.438 3379.8 723.538 3377.4C720.838 3375.1 721.238 3370.6 723.138 3367.7C725.038 3364.7 728.138 3362.7 730.638 3360.2C733.638 3357.2 734.138 3353.7 735.138 3349.7C746.238 3302 744.638 3251.9 728.938 3205.2C727.338 3200.5 724.738 3195 719.838 3194.3C715.538 3193.6 711.538 3197.2 710.238 3201.3C708.838 3205.4 709.438 3209.9 710.038 3214.2C714.438 3244.9 718.838 3275.7 723.238 3306.4C725.138 3319.4 725.638 3333.2 723.238 3346.2C722.838 3348.2 722.338 3350.3 721.138 3352C719.938 3353.7 718.138 3355 716.038 3355.1C712.938 3355.3 710.338 3352.6 709.338 3349.6C708.438 3346.6 708.738 3343.5 709.138 3340.4C710.538 3329.9 707.738 3319.7 706.038 3309.2C704.238 3298.1 702.438 3287.1 700.638 3276C698.238 3261.3 695.738 3246.2 688.338 3233.2C683.338 3224.3 675.038 3215.6 665.238 3212.2C655.538 3208.8 655.138 3217 657.538 3224.2C659.738 3230.8 662.038 3237.5 664.238 3244.1C668.838 3257.8 673.438 3271.5 678.138 3285.2C681.738 3295.9 685.138 3306.7 688.938 3317.3C692.338 3326.9 698.138 3336.2 702.838 3345.4C703.938 3347.6 705.038 3349.8 705.338 3352.2C705.638 3354.6 705.038 3357.3 703.138 3358.8C701.038 3360.5 697.838 3360.2 695.438 3358.9C693.038 3357.6 691.338 3355.3 689.738 3353.1C683.238 3344.1 677.538 3334.5 672.738 3324.4C670.338 3319.4 668.238 3314.2 666.238 3309C664.538 3304.4 661.638 3300.6 658.938 3296.5C646.438 3277.7 633.938 3259 621.438 3240.2C618.938 3236.5 615.738 3232.3 611.238 3232.3C607.138 3232.3 603.938 3236 603.038 3240C602.138 3244 603.138 3248.1 604.138 3252.1C610.238 3275.3 619.838 3297.6 632.138 3318.1C638.338 3328.4 645.638 3337.6 652.538 3347.3C658.838 3356.1 670.138 3362.6 678.638 3369.3C681.338 3371.4 684.438 3374.5 683.538 3377.8C682.638 3381.3 678.138 3382.3 674.538 3382C663.138 3381 657.938 3374 651.138 3366.1C647.138 3361.5 641.838 3357.7 637.638 3353.1C633.638 3348.7 629.738 3344.1 625.938 3339.5C611.138 3321.3 596.338 3303.2 581.538 3285C576.538 3278.9 568.038 3272.3 562.038 3277.2C557.838 3280.6 558.538 3287.1 559.838 3292.4C565.438 3314.7 576.638 3335.5 591.738 3352.9C599.338 3361.7 607.938 3369.6 617.238 3376.5C621.838 3379.9 626.538 3383 631.538 3385.8C635.838 3388.2 639.338 3391.5 644.538 3391C647.838 3390.6 651.038 3389.4 654.438 3389.6C657.738 3389.7 661.438 3391.9 661.738 3395.2C661.938 3397.6 660.338 3399.8 658.338 3400.9C656.238 3402 653.838 3402.3 651.538 3402.4C629.138 3403.1 608.738 3387.5 594.638 3371.2C585.338 3360.4 577.038 3348.4 566.238 3339.1C564.938 3338 563.238 3336.8 561.638 3337.3C560.138 3337.8 559.338 3339.4 559.438 3341C559.538 3342.5 560.238 3344 560.938 3345.3C569.538 3362.3 576.038 3379.4 589.238 3393.5C600.938 3406.1 616.138 3416 633.038 3418.5C656.838 3422 666.538 3406.5 685.638 3398.4C709.438 3388 733.738 3387.5 754.138 3368.8Z" fill="#D13355"/>
<path d="M782.438 2954.8C808.838 2976.6 819.338 3015 809.838 3048C800.338 3080.9 772.238 3107.2 739.338 3116.8C736.638 3100.4 740.338 3083.4 747.038 3068.2C753.638 3052.9 763.138 3039.1 772.638 3025.4C757.838 3036.3 742.938 3047.4 726.038 3054.7C709.138 3062 690.038 3065.6 672.338 3060.8C675.738 3041.5 688.438 3024.8 703.938 3012.7C719.338 3000.6 737.438 2992.5 755.338 2984.5C748.538 2987.5 726.838 2976.2 720.438 2973.3C714.138 2970.4 689.938 2960.7 688.538 2953.2C687.038 2944.7 708.138 2939.8 714.238 2938.5C725.338 2936.1 737.038 2936.2 748.138 2938.5C760.638 2941.2 772.638 2946.7 782.438 2954.8Z" fill="#8BCBCA"/>
<path d="M436.338 3196.8C422.438 3233.6 384.638 3259.4 345.238 3261.3C305.938 3263.2 266.838 3242.5 244.238 3210.3C261.138 3201.3 280.938 3199 299.938 3200.5C318.938 3202 337.538 3207.2 355.938 3212.3C338.538 3200.3 321.038 3188.2 306.738 3172.6C292.438 3157 281.538 3137.5 280.038 3116.4C302.338 3112.9 325.138 3120.5 344.038 3132.8C362.938 3145.1 378.538 3161.7 393.838 3178.2C388.038 3172 392.138 3144.1 392.938 3136.1C393.738 3128.2 395.238 3098.3 402.938 3094C411.638 3089.2 424.838 3110.4 428.438 3116.5C435.138 3127.7 439.438 3140.4 441.038 3153.3C443.038 3168 441.538 3183 436.338 3196.8Z" fill="#ACB8DE"/>
<path d="M643.238 2470.7C659.438 2467.9 676.338 2469.9 691.438 2476.2C695.538 2477.9 699.638 2480 702.538 2483.4C705.538 2486.7 707.138 2491.5 705.838 2495.7C704.138 2501.2 697.938 2504.2 692.238 2504.6C686.438 2504.9 680.838 2503.2 675.138 2502.4C656.338 2499.7 636.438 2507.2 624.038 2521.5C611.638 2535.8 607.238 2556.7 612.638 2574.9C613.938 2579.4 616.138 2584 620.238 2586.3C624.038 2588.4 628.838 2587.9 632.838 2586.1C636.738 2584.3 640.038 2581.2 643.038 2578.1C665.038 2555.3 680.938 2525.5 708.538 2510C712.238 2507.9 716.638 2506.1 720.638 2507.4C726.438 2509.3 728.338 2516.7 727.338 2522.7C723.938 2542.9 699.538 2552.4 690.338 2570.7C686.438 2578.5 685.538 2587.8 687.938 2596.3C689.238 2600.9 692.038 2605.6 696.638 2606.8C699.438 2607.5 702.438 2606.8 705.138 2605.8C717.038 2601.5 726.838 2591.8 731.438 2580.1C738.438 2562.2 733.238 2541.9 735.838 2522.8C736.638 2516.7 739.138 2509.8 745.138 2508.2C750.938 2506.7 756.638 2511.5 758.938 2517C762.738 2526 760.338 2536.2 757.838 2545.6C753.138 2563.6 748.438 2581.6 743.638 2599.6C741.438 2607.8 754.338 2614 762.838 2613.4C771.338 2612.8 778.538 2606.1 781.738 2598.3C784.938 2590.4 784.638 2581.5 782.838 2573.2C781.038 2564.9 777.838 2557 775.438 2548.8C771.738 2536.4 769.638 2523.6 769.238 2510.7C768.938 2501.9 770.938 2491.2 779.238 2488.3C783.538 2486.8 788.538 2488.1 792.138 2491C795.738 2493.9 798.138 2498 799.738 2502.3C803.238 2511.7 803.138 2522.4 799.638 2531.8C797.338 2537.8 793.738 2543.3 791.338 2549.3C788.938 2555.3 787.738 2562.3 790.638 2568.1C795.038 2577.1 808.038 2579.4 816.538 2574.2C825.038 2569 829.038 2558.2 828.338 2548.3C827.738 2538.3 823.238 2529 817.938 2520.5C812.638 2512 806.638 2504 802.238 2495.1C800.138 2490.9 798.438 2486.4 798.538 2481.7C798.638 2477 800.738 2472.2 804.838 2469.9C808.838 2467.6 814.138 2468.3 818.038 2470.8C821.938 2473.3 824.638 2477.3 826.338 2481.6C829.638 2489.9 829.638 2499.1 830.438 2508C831.238 2516.9 833.138 2526.3 839.338 2532.8C845.538 2539.3 857.038 2541.4 863.238 2534.9C869.238 2528.7 867.338 2518.1 862.238 2511.2C857.038 2504.2 849.338 2499.4 843.238 2493.3C836.838 2487 830.838 2480.2 825.538 2472.9C823.638 2470.3 821.738 2467 822.938 2464C824.438 2460.2 829.938 2459.6 833.438 2461.8C836.938 2464 838.838 2467.8 841.038 2471.3C850.538 2486.2 867.338 2496.2 884.938 2497.5C895.338 2498.2 906.838 2495.6 913.338 2487.4C919.838 2479.3 918.738 2465 909.338 2460.4C904.438 2458 898.638 2458.6 893.538 2460.4C888.438 2462.1 883.738 2464.9 878.638 2466.8C869.238 2470.4 858.738 2471 848.938 2468.5C843.538 2467.1 837.438 2463.3 838.238 2457.8C838.938 2452.5 845.438 2450.4 850.738 2449.3C862.638 2446.9 874.538 2443.7 885.138 2437.7C895.738 2431.7 904.838 2422.5 908.838 2411C910.838 2405 911.338 2398.1 908.238 2392.6C902.738 2382.7 887.838 2381.7 878.138 2387.6C868.438 2393.5 862.738 2404.1 857.538 2414.2C852.338 2424.3 846.838 2434.9 837.238 2441.1C825.238 2448.9 826.438 2432.8 827.638 2426C829.538 2414.7 833.338 2403.8 835.438 2392.6C837.938 2379.4 837.738 2366.5 828.138 2356.1C816.838 2344 798.838 2340.8 790.838 2358.2C786.838 2366.9 790.338 2377.4 795.638 2385.4C801.038 2393.4 808.238 2400.1 812.838 2408.6C819.038 2420 819.638 2434.3 814.638 2446.3C813.238 2449.7 811.238 2453 808.038 2454.8C801.138 2458.7 791.938 2453.3 789.038 2445.9C786.138 2438.5 787.638 2430.2 789.138 2422.5C790.838 2413.8 787.638 2405.8 784.738 2397.4C782.838 2391.9 780.138 2386.6 775.538 2383C770.938 2379.5 764.338 2378.2 759.338 2381.2C755.138 2383.7 752.938 2388.8 752.838 2393.7C752.738 2398.6 754.438 2403.4 756.638 2407.8C763.338 2421.5 774.738 2433.3 777.638 2448.3C778.538 2452.9 778.538 2457.8 776.538 2462C774.538 2466.2 770.038 2469.4 765.338 2468.8C761.738 2468.4 758.638 2465.7 756.638 2462.6C754.638 2459.5 753.838 2455.8 753.038 2452.3C751.038 2443.8 749.238 2435.3 747.738 2426.8C745.638 2415.6 734.238 2407.7 724.438 2401.9C719.538 2399 714.238 2396.7 708.638 2396C703.038 2395.4 697.038 2396.6 692.638 2400.1C688.238 2403.7 685.738 2409.8 687.238 2415.2C688.338 2419.2 691.338 2422.4 694.738 2424.7C698.138 2427 701.938 2428.6 705.638 2430.4C713.438 2434.3 720.838 2439.5 726.038 2446.5C731.338 2453.5 734.338 2462.4 733.038 2471.1C732.338 2476 729.438 2481.3 724.538 2481.9C719.438 2482.5 715.438 2477.7 712.538 2473.4C706.838 2465.1 701.238 2456.7 695.538 2448.4C691.638 2442.7 686.638 2438.4 679.938 2436.6C668.738 2433.6 657.038 2432.5 645.438 2433.5C639.238 2434 632.838 2435.3 628.138 2439.3C622.538 2444.2 620.838 2453 624.138 2459.6C627.438 2466 635.938 2471.9 643.238 2470.7Z" fill="#ACB8DE"/>
<path d="M399.238 3485.5C382.838 3492.6 364.438 3494.9 346.838 3492C342.038 3491.2 337.238 3490 333.238 3487.3C329.238 3484.5 326.238 3479.9 326.538 3475.1C326.938 3468.8 332.638 3464.1 338.638 3462.2C344.638 3460.3 351.038 3460.7 357.338 3460.1C377.938 3458.1 397.038 3445.1 406.438 3426.7C415.838 3408.3 415.238 3385.2 404.738 3367.3C402.138 3362.9 398.638 3358.6 393.738 3357.2C389.138 3356 384.138 3357.7 380.438 3360.6C376.738 3363.5 374.138 3367.6 371.738 3371.7C354.338 3401.4 345.238 3437 319.938 3460.5C316.538 3463.7 312.338 3466.7 307.738 3466.3C301.138 3465.7 297.138 3458.5 296.738 3451.9C295.138 3429.6 318.538 3413.4 323.538 3391.7C325.638 3382.4 324.238 3372.3 319.538 3364C316.938 3359.5 312.838 3355.2 307.638 3355.1C304.438 3355 301.538 3356.6 298.938 3358.3C287.538 3365.9 279.638 3378.6 277.738 3392.2C274.938 3413 285.638 3433.1 287.838 3453.9C288.538 3460.5 287.638 3468.5 281.738 3471.7C276.038 3474.8 268.738 3471.2 264.838 3465.9C258.538 3457.4 258.438 3446 258.638 3435.4C259.038 3415.1 259.338 3394.9 259.738 3374.6C259.938 3365.4 244.738 3362.1 235.938 3365C227.138 3367.9 221.238 3376.7 219.838 3385.8C218.438 3394.9 221.138 3404.3 225.138 3412.6C229.138 3420.9 234.538 3428.5 239.238 3436.5C246.338 3448.6 251.838 3461.7 255.538 3475.2C258.038 3484.4 258.838 3496.3 250.738 3501.5C246.538 3504.2 240.938 3504.1 236.338 3502C231.738 3499.9 228.238 3496.1 225.438 3492C219.338 3482.9 216.638 3471.6 218.038 3460.8C218.938 3453.8 221.338 3447.1 222.338 3440.2C223.338 3433.2 222.738 3425.6 218.338 3420.1C211.438 3411.7 197.038 3412.6 189.438 3420.3C181.838 3428 180.338 3440.4 183.538 3450.7C186.738 3461.1 193.838 3469.8 201.638 3477.4C209.338 3485 217.838 3491.9 224.838 3500.3C228.138 3504.2 231.038 3508.6 232.138 3513.5C233.238 3518.5 232.238 3524.1 228.538 3527.6C224.838 3531 219.138 3531.7 214.438 3530.1C209.638 3528.5 205.838 3524.9 202.938 3520.8C197.338 3512.8 194.938 3503.1 191.738 3493.9C188.538 3484.7 184.138 3475.2 175.938 3469.9C167.738 3464.6 155.038 3465.4 150.138 3473.8C145.438 3481.9 150.038 3492.6 157.238 3498.6C164.538 3504.7 173.938 3507.8 181.938 3512.6C190.238 3517.7 198.438 3523.3 205.938 3529.7C208.638 3532 211.438 3535 211.038 3538.5C210.438 3542.9 204.738 3544.9 200.438 3543.5C196.238 3542.1 193.138 3538.5 189.938 3535.4C176.038 3522.1 155.738 3515.8 136.738 3519C125.538 3520.9 114.138 3526.7 109.338 3537C104.538 3547.3 109.438 3562.1 120.538 3564.5C126.238 3565.7 132.238 3563.6 137.238 3560.5C142.238 3557.4 146.538 3553.3 151.338 3549.9C160.338 3543.7 171.338 3540.4 182.338 3540.5C188.338 3540.6 195.838 3543.1 196.438 3549C197.038 3554.8 190.738 3558.7 185.438 3561.2C173.438 3566.8 161.638 3573.2 152.038 3582.3C142.438 3591.4 135.038 3603.4 133.838 3616.6C133.238 3623.4 134.438 3630.8 139.138 3635.9C147.538 3645 163.538 3642.2 172.238 3633.4C180.938 3624.6 184.238 3612 187.138 3600C190.038 3588 193.138 3575.3 201.638 3566.3C212.338 3555 215.238 3572.3 215.738 3579.8C216.538 3592.2 215.438 3604.7 216.038 3617.1C216.738 3631.7 220.238 3645.3 233.138 3653.8C248.138 3663.7 268.038 3662.4 272.038 3642C274.038 3631.7 267.638 3621.6 259.938 3614.5C252.238 3607.4 242.838 3602.2 235.838 3594.4C226.438 3583.9 222.038 3569 224.338 3555C224.938 3551.1 226.238 3547.1 229.138 3544.3C235.438 3538.4 246.538 3541.8 251.538 3548.8C256.538 3555.8 257.038 3565 257.438 3573.6C257.838 3583.3 263.338 3590.8 268.538 3599C271.938 3604.3 276.238 3609.3 281.938 3611.8C287.638 3614.3 295.038 3614 299.538 3609.6C303.338 3605.9 304.438 3599.9 303.238 3594.7C302.138 3589.5 299.038 3584.9 295.638 3580.8C285.038 3568 269.938 3558.4 263.038 3543.3C260.938 3538.7 259.638 3533.5 260.738 3528.6C261.838 3523.7 265.738 3519.1 270.838 3518.5C274.838 3518 278.738 3520 281.538 3522.8C284.338 3525.6 286.238 3529.2 288.038 3532.8C292.338 3541.2 296.338 3549.8 300.238 3558.4C305.338 3569.7 319.338 3575.1 331.238 3578.7C337.138 3580.5 343.338 3581.6 349.438 3580.8C355.538 3580 361.538 3577.2 365.338 3572.3C369.038 3567.4 370.138 3560.3 367.138 3554.9C364.938 3551 360.938 3548.4 356.738 3546.8C352.538 3545.2 348.038 3544.5 343.738 3543.5C334.438 3541.4 325.338 3537.8 318.038 3531.7C310.638 3525.6 305.238 3517 304.338 3507.5C303.838 3502.2 305.538 3495.8 310.538 3493.9C315.838 3492 321.238 3496 325.338 3499.8C333.438 3507.2 341.638 3514.6 349.738 3521.9C355.338 3526.9 361.738 3530.2 369.238 3530.4C381.838 3530.7 394.538 3528.9 406.538 3524.9C412.938 3522.8 419.438 3519.8 423.338 3514.3C427.938 3507.7 427.538 3498 422.338 3491.8C417.038 3486.4 406.638 3482.3 399.238 3485.5Z" fill="#009158"/>
<path d="M926.238 3345.7C938.238 3341.9 951.738 3347.4 960.638 3356.3C969.638 3365.2 975.038 3377 980.238 3388.4C983.838 3396.4 987.538 3405.2 985.238 3413.6C982.938 3422.1 971.438 3428.1 965.138 3422C968.738 3445.4 969.338 3469.3 966.938 3492.8C966.138 3500.1 964.838 3507.9 959.438 3512.9C954.038 3517.9 943.438 3517.4 941.138 3510.4C933.438 3529.3 924.638 3547.8 916.938 3566.7C914.238 3573.2 911.538 3579.8 906.738 3585C901.938 3590.2 894.638 3593.5 887.838 3591.6C881.038 3589.7 876.338 3581.3 879.838 3575.2C868.238 3583.5 856.638 3591.8 845.038 3600.1C836.338 3606.3 824.838 3612.7 815.738 3607.1C812.538 3605.1 810.338 3601.9 807.438 3599.6C800.738 3594.4 791.438 3594.5 783.038 3595.9C774.638 3597.3 766.238 3599.7 757.938 3598.2C749.638 3596.7 741.438 3589.7 742.238 3581.3C747.438 3575.6 752.538 3566.3 746.938 3561.1C745.038 3559.3 742.338 3558.7 740.138 3557.4C733.438 3553.4 731.938 3543.7 735.138 3536.6C738.338 3529.5 745.138 3524.7 752.038 3521.1C768.838 3512.5 788.438 3509.4 807.038 3512.5C801.338 3510.4 801.138 3501.6 805.338 3497.2C809.538 3492.8 816.038 3491.7 821.938 3490.8C836.838 3488.5 851.738 3486.3 866.638 3484C860.738 3486.5 855.238 3477.9 857.738 3472C860.238 3466.1 866.738 3463.2 872.638 3460.8C887.438 3454.9 902.238 3448.9 917.038 3443C913.538 3438.2 907.338 3435.5 901.438 3436.2C896.738 3439.9 900.438 3438.5 896.838 3433.8C893.238 3429.1 893.038 3422.3 895.238 3416.7C897.338 3411.1 901.538 3406.5 905.938 3402.5C910.338 3398.5 915.038 3394.8 919.038 3390.3C921.238 3387.8 923.238 3384.9 923.938 3381.6C924.638 3378.3 923.838 3374.5 921.238 3372.4C919.838 3371.2 917.938 3370.7 916.338 3369.6C911.638 3366.6 910.238 3359.9 912.438 3354.8C914.638 3349.7 920.938 3347.4 926.238 3345.7Z" fill="#36C7C1"/>
<path d="M415.947 2095.91C420.147 2096.61 424.147 2096.31 426.747 2101.11C428.847 2105.01 428.847 2109.61 428.947 2114.01C429.147 2118.41 429.647 2123.11 432.547 2126.41C436.747 2131.21 445.447 2132.51 446.447 2138.81C446.947 2141.81 445.247 2144.81 445.647 2147.91C446.547 2153.61 453.747 2155.11 458.647 2158.21C464.947 2162.21 467.947 2169.61 471.647 2176.11C475.347 2182.61 481.547 2189.01 488.947 2188.31C496.247 2187.51 501.247 2179.01 499.347 2171.81C497.447 2164.71 490.047 2159.91 482.647 2159.61C479.147 2159.51 479.047 2154.91 480.047 2151.51C481.047 2148.11 483.247 2145.01 482.847 2141.61C482.247 2137.01 477.147 2134.41 472.647 2133.21C468.147 2132.01 462.947 2131.21 460.147 2127.51C455.847 2121.71 459.747 2112.61 455.747 2106.61C452.547 2101.81 445.847 2101.11 441.547 2097.31C435.347 2091.81 435.747 2082.31 430.747 2076.11C425.947 2070.01 417.047 2069.91 413.347 2062.01C411.647 2058.41 411.547 2054.31 410.147 2050.61C408.247 2045.51 404.047 2041.51 398.847 2039.81C392.147 2037.61 383.847 2040.01 379.147 2045.31C375.847 2048.91 376.647 2054.91 379.547 2058.81C385.647 2067.11 398.647 2064.01 401.347 2075.71C401.947 2078.31 401.847 2081.11 402.347 2083.71C403.347 2088.91 407.447 2093.31 412.347 2095.21C413.647 2095.51 414.747 2095.71 415.947 2095.91Z" fill="#FFDF00"/>
<path d="M770.248 1326.91C766.854 1318.15 759.555 1310.07 761.252 1300.81C762.61 1293.91 768.89 1289.03 771.267 1282.29C776.529 1268.32 763.629 1253.33 766.005 1238.52C767.533 1228.92 775.001 1221.68 780.772 1213.77C786.543 1206.02 790.787 1195.08 785.355 1187C790.956 1187.84 794.181 1194.24 793.842 1199.8C793.502 1205.35 790.447 1210.4 788.071 1215.45C780.942 1230.44 778.226 1247.27 779.923 1263.6C780.942 1271.85 782.809 1280.78 778.905 1288.18C775.68 1294.08 768.551 1298.62 768.551 1305.36C768.551 1311.75 774.831 1315.96 778.905 1320.85C788.41 1331.96 786.713 1350.81 775.341 1360.24C783.658 1363.61 791.635 1353.34 791.635 1344.42C791.635 1335.49 787.562 1326.91 788.241 1317.98C789.598 1299.8 810.646 1286.67 809.797 1268.49C809.628 1262.59 806.912 1256.7 807.93 1250.81C808.949 1244.92 817.266 1240.2 821 1244.92C816.926 1260.41 812.853 1275.89 808.779 1291.55C805.384 1304.85 801.82 1318.32 800.971 1331.96C800.462 1340.54 800.801 1349.3 798.255 1357.55C794.86 1368.83 776.189 1384.15 767.363 1367.99C761.422 1356.88 775.85 1341.22 770.248 1326.91Z" fill="#8AAA9A"/>
<path d="M818.283 108.7C815.983 102.7 810.983 97.1 812.183 90.9C813.083 86.2 817.283 82.8 818.983 78.3C822.583 68.7 813.883 58.4 815.383 48.3C816.383 41.8 821.483 36.8 825.383 31.4C829.283 26 832.183 18.6 828.583 13C832.383 13.6 834.583 17.9 834.283 21.8C833.983 25.6 831.983 29.1 830.383 32.5C825.583 42.7 823.683 54.3 824.883 65.5C825.483 71.2 826.883 77.3 824.183 82.3C821.983 86.4 817.183 89.4 817.183 94.1C817.183 98.4 821.383 101.3 824.183 104.6C830.683 112.3 829.483 125.2 821.783 131.5C827.383 133.8 832.783 126.8 832.883 120.7C832.883 114.6 830.083 108.7 830.483 102.7C831.383 90.2 845.683 81.3 845.183 68.8C844.983 64.7 843.183 60.7 843.983 56.7C844.783 52.7 850.283 49.4 852.783 52.6C849.983 63.2 847.283 73.8 844.483 84.5C842.083 93.6 839.783 102.8 839.183 112.2C838.783 118.1 839.083 124.1 837.383 129.7C835.083 137.4 822.383 148 816.383 136.9C812.183 129.2 822.083 118.5 818.283 108.7Z" fill="#8AAA9A"/>
<path d="M275.352 514.752C275.152 510.952 273.952 506.552 270.452 505.052C267.052 503.552 262.852 505.252 259.552 503.652C256.352 502.052 255.352 497.952 255.452 494.352C255.652 490.752 256.652 487.252 256.052 483.652C255.252 478.652 251.452 474.652 249.252 470.052C247.052 465.452 247.552 458.552 252.352 456.952C256.352 455.652 260.652 459.252 261.952 463.352C263.252 467.452 262.652 471.752 262.852 476.052C263.052 480.352 264.552 485.052 268.352 486.852C272.852 489.052 278.952 486.552 282.852 489.652C289.252 494.852 282.052 508.952 289.752 511.852C297.752 514.852 299.252 504.452 296.652 499.652C295.652 497.852 294.852 495.652 295.952 493.952C297.252 491.852 300.352 492.052 302.652 492.852C304.952 493.652 307.452 494.852 309.752 494.052C312.652 493.052 313.652 489.352 312.952 486.452C312.252 483.452 310.452 480.952 309.152 478.252C307.252 474.052 307.452 466.652 313.552 466.552C316.052 466.452 318.352 467.652 320.552 468.852C328.752 473.252 336.852 469.552 342.052 462.052C345.152 457.552 346.752 451.852 351.252 448.752C357.752 444.352 367.852 448.752 370.152 456.252C372.452 463.752 367.752 472.352 360.552 475.652C355.352 478.052 348.552 478.552 345.752 483.552C343.152 488.152 345.552 494.352 343.352 499.152C339.652 507.052 327.652 505.252 320.252 509.852C316.052 512.452 313.652 517.052 311.152 521.352C301.352 538.852 276.452 535.652 275.352 514.752Z" fill="#93ACD1"/>
</g>
</svg>
