<svg width="986" height="3726" viewBox="0 0 986 3726" fill="none" xmlns="http://www.w3.org/2000/svg">
<mask id="mask0" mask-type="alpha" maskUnits="userSpaceOnUse" x="0" y="0" width="986" height="3726">
<rect width="986" height="3726" fill="#C4C4C4"/>
</mask>
<g mask="url(#mask0)">
<path d="M637.938 3131.8C639.538 3136.2 638.138 3141.2 635.638 3144.6C633.138 3148 629.538 3150 626.038 3151.9C599.938 3166.1 571.738 3175.6 542.638 3179.8C531.138 3181.5 518.238 3181.9 508.638 3173.3C502.338 3167.6 498.538 3158.8 497.038 3149.8C495.538 3140.8 496.238 3131.7 497.438 3122.9C501.238 3096 510.338 3070.5 524.038 3049.1C526.038 3045.9 528.238 3042.8 531.338 3041.2C534.438 3039.6 538.538 3039.9 540.938 3043C544.238 3047.3 542.538 3053.8 540.638 3058.9C534.338 3075.6 527.938 3092.4 521.638 3109.1C526.238 3097 535.338 3085.1 542.338 3074.9C550.038 3063.7 558.538 3042.3 571.938 3039.4C586.038 3036.3 577.538 3059.5 574.638 3066.2C570.238 3076.4 564.438 3085.5 558.738 3094.7C553.038 3103.9 547.238 3113 541.538 3122.2C556.938 3101.9 572.238 3081.6 587.638 3061.3C591.738 3055.9 596.038 3050.3 601.838 3047.8C607.638 3045.3 615.538 3047 618.938 3053.5C621.538 3058.4 620.938 3064.8 618.738 3069.6C616.538 3074.4 612.938 3078.1 609.438 3081.6C592.238 3098.8 575.138 3116 557.938 3133.2C570.438 3134.6 581.838 3126.6 591.438 3117.9C601.038 3109.2 610.338 3099.1 622.238 3095.1C625.638 3094 629.238 3093.4 632.738 3094.6C636.238 3095.8 639.438 3099.2 640.038 3103.4C641.038 3110.4 634.938 3115.1 629.638 3118C612.638 3127.4 595.638 3136.8 578.538 3146.1C573.438 3148.9 567.138 3150.6 562.738 3155C557.738 3160.1 559.938 3165.7 567.238 3166.2C573.538 3166.3 637.838 3131.6 637.938 3131.8Z" fill="#E2F1DD"/>
<path d="M255.649 1975.39C294.349 1979.29 328.449 1952.89 347.449 1921.19C349.349 1918.09 351.049 1914.69 350.949 1911.09C350.849 1907.49 347.949 1903.79 344.349 1903.89C341.849 1903.99 339.849 1905.89 338.049 1907.59C328.649 1916.69 319.549 1926.29 310.049 1935.19C304.449 1940.49 297.949 1944.79 291.549 1949.19C286.049 1952.99 280.949 1957.29 274.949 1960.19C262.649 1965.89 251.449 1970.19 237.749 1966.09C234.349 1965.09 230.549 1962.89 230.449 1959.39C230.349 1956.09 233.649 1953.59 236.949 1953.09C240.249 1952.59 243.549 1953.49 246.849 1953.59C250.849 1953.79 253.549 1951.99 256.949 1950.19C296.949 1928.29 330.749 1896.09 353.249 1856.19C355.549 1852.19 357.649 1846.99 355.149 1843.09C352.949 1839.69 347.949 1839.19 344.249 1840.79C340.549 1842.39 337.749 1845.59 335.149 1848.69C316.549 1870.79 298.049 1892.89 279.449 1915.09C271.549 1924.49 262.349 1933.39 251.849 1939.79C250.249 1940.79 248.449 1941.69 246.549 1941.89C244.649 1942.19 242.549 1941.69 241.249 1940.29C239.249 1938.29 239.349 1934.79 240.849 1932.29C242.349 1929.79 244.749 1928.09 247.149 1926.49C255.249 1920.89 260.649 1912.69 266.849 1904.99C273.349 1896.89 279.949 1888.79 286.449 1880.69C295.149 1869.89 304.049 1858.79 308.449 1845.59C311.449 1836.59 312.349 1825.49 308.549 1816.49C304.849 1807.69 298.849 1812.49 295.449 1818.59C292.249 1824.29 289.049 1829.89 285.849 1835.59C279.249 1847.29 272.649 1858.99 266.049 1870.69C260.849 1879.79 255.549 1888.89 250.549 1898.09C246.049 1906.49 243.249 1916.19 239.849 1925.19C239.049 1927.29 238.249 1929.49 236.749 1931.19C235.249 1932.89 233.049 1934.09 230.849 1933.69C228.349 1933.29 226.549 1930.89 225.949 1928.39C225.449 1925.89 225.849 1923.29 226.449 1920.79C228.549 1910.69 231.649 1900.79 235.649 1891.19C237.649 1886.39 239.849 1881.69 242.249 1877.19C244.349 1873.19 245.249 1868.79 246.349 1864.39C251.549 1844.09 256.649 1823.79 261.849 1803.39C262.849 1799.39 263.749 1794.49 260.949 1791.39C258.449 1788.59 253.749 1788.59 250.449 1790.39C247.149 1792.19 244.849 1795.49 242.749 1798.69C230.549 1817.39 221.049 1837.79 214.549 1859.09C211.349 1869.69 209.449 1880.49 207.049 1891.39C204.849 1901.19 207.449 1913.09 208.249 1923.09C208.449 1926.29 208.349 1930.29 205.449 1931.79C202.449 1933.29 198.949 1930.89 196.949 1928.19C190.449 1919.59 192.049 1911.79 193.249 1902.09C193.949 1896.39 193.249 1890.39 193.849 1884.69C194.349 1879.19 195.149 1873.59 195.949 1868.09C199.249 1846.59 202.549 1824.99 205.849 1803.49C206.949 1796.29 206.149 1786.29 198.949 1785.09C193.949 1784.29 189.849 1788.79 187.049 1792.99C175.149 1810.79 167.749 1831.39 165.149 1852.59C163.849 1863.29 163.749 1874.19 164.849 1884.89C165.349 1890.19 166.249 1895.39 167.349 1900.49C168.349 1904.99 168.249 1909.49 171.949 1912.69C174.249 1914.79 177.149 1916.29 179.149 1918.69C181.149 1921.09 181.949 1924.89 179.849 1927.19C178.349 1928.79 175.749 1929.09 173.749 1928.39C171.649 1927.69 169.949 1926.19 168.449 1924.59C153.849 1909.49 151.849 1885.59 154.349 1865.79C155.949 1852.59 159.149 1839.49 158.749 1826.19C158.749 1824.59 158.449 1822.69 157.049 1821.89C155.849 1821.19 154.149 1821.69 153.149 1822.69C152.149 1823.69 151.549 1825.09 151.049 1826.39C144.649 1842.89 136.849 1857.99 135.349 1875.89C133.949 1891.79 136.649 1908.49 145.549 1921.69C158.149 1940.39 174.849 1937.49 192.549 1945.69C214.249 1956.29 229.849 1972.79 255.649 1975.39Z" fill="#ACB8DE"/>
<path d="M315.738 3014.9C320.638 3007.3 327.938 3001.5 333.238 2994.2C338.438 2986.8 341.338 2976.4 336.438 2968.9C330.138 2959.3 314.638 2960.6 306.238 2968.4C297.838 2976.2 294.738 2988 291.938 2999.1C288.838 3011.5 285.838 3023.9 282.738 3036.3C280.238 3046.3 277.838 3056.7 280.038 3066.7C283.238 3080.8 295.238 3091.3 308.038 3098.1C346.938 3118.9 398.838 3112.1 431.038 3081.9C434.438 3078.7 437.738 3075.2 439.338 3070.8C441.038 3066.4 440.738 3061.1 437.538 3057.6C423.438 3042.1 400.438 3071.6 390.038 3078.3C385.538 3081.2 380.838 3083.9 375.638 3084.7C370.438 3085.5 364.538 3084.3 361.038 3080.3C356.438 3075 357.438 3066.6 361.238 3060.9C366.638 3052.9 377.838 3046.3 386.038 3041.5C390.538 3038.9 395.438 3036.9 399.538 3033.7C403.638 3030.5 407.038 3025.7 406.738 3020.6C406.438 3014.3 400.738 3009.3 394.638 3007.7C388.538 3006.2 382.038 3007.5 375.938 3009.1C359.838 3013.3 344.438 3019.6 330.038 3027.9C325.838 3030.3 316.138 3039.5 312.038 3034.9C308.038 3030.4 313.238 3018.8 315.738 3014.9Z" fill="#008753"/>
<path d="M439.838 3305.9C446.438 3295.7 456.238 3288 463.338 3278.1C470.338 3268.2 474.238 3254.3 467.538 3244.1C459.038 3231.3 438.238 3232.9 427.038 3243.4C415.838 3253.9 411.538 3269.7 407.838 3284.6C403.738 3301.2 399.538 3317.9 395.438 3334.5C392.138 3347.9 388.838 3361.8 391.838 3375.3C396.138 3394.3 412.238 3408.3 429.438 3417.5C481.738 3445.4 551.338 3436.2 594.638 3395.8C599.238 3391.5 603.638 3386.8 605.838 3380.9C608.038 3375 607.738 3367.8 603.438 3363.2C584.538 3342.4 553.638 3382 539.638 3391C533.638 3394.9 527.338 3398.5 520.338 3399.6C513.338 3400.7 505.438 3399.1 500.738 3393.7C494.638 3386.6 495.838 3375.4 501.038 3367.6C508.238 3356.9 523.338 3348 534.338 3341.5C540.338 3338 546.938 3335.3 552.438 3331C557.938 3326.7 562.438 3320.3 562.138 3313.3C561.738 3304.8 554.038 3298.1 545.838 3296C537.638 3294 528.938 3295.7 520.738 3297.8C499.138 3303.4 478.338 3311.9 459.038 3323C453.338 3326.3 440.438 3338.5 434.938 3332.5C429.538 3326.8 436.538 3311.2 439.838 3305.9Z" fill="#36C7C1"/>
<path d="M524.8 2554.8C532.4 2536.6 523.7 2516.2 520.6 2496.8C513.1 2449.5 544.8 2399 590.8 2385.4C589.2 2377 579.7 2372 571.2 2372.8C562.7 2373.5 555.2 2378.6 548.7 2384.1C520.8 2407.5 502.9 2442.5 500.3 2478.9C497.5 2424.6 522.8 2369.7 566 2336.6C560.5 2330.4 555 2324.2 549.5 2318C491.4 2367.5 464.8 2451.1 483.7 2525.1C460.6 2464.6 465.2 2394.1 495.8 2337.1C479.1 2330.4 459.5 2342 451.4 2358.1C443.3 2374.2 444 2393.1 445.6 2411C449.1 2449.6 456.3 2487.9 467 2525.1C455.6 2495.2 444.1 2465 425.2 2439.2C406.3 2413.4 379 2392.2 347.3 2387.9C343.6 2400.1 339.9 2412.2 336.2 2424.4C342 2417.3 352.6 2415.6 361.5 2418.1C370.3 2420.6 377.8 2426.5 384.6 2432.7C414.5 2459.8 437.8 2494.1 451.9 2531.8C427.4 2487.8 373.6 2462.3 324 2471.2C325.2 2481 326.4 2490.8 327.6 2500.6C326.9 2494.8 382.3 2503.9 387 2505.5C406.4 2511.9 424.4 2522.8 438.9 2537.3C450.1 2548.5 457.2 2565.1 472.1 2571.8C491.3 2580.3 515.9 2575.9 524.8 2554.8Z" fill="#8BCBCA"/>
<path d="M542.185 1492.07C533.579 1489.63 521.763 1488.52 517.902 1496.58C515.02 1502.83 519.327 1509.95 523.966 1515.08C546.528 1539.49 581.955 1551.27 614.608 1545.26C647.241 1539.16 676.116 1515.44 688.349 1484.51C700.582 1453.57 695.869 1416.5 676.212 1389.7C671.952 1383.9 666.592 1378.2 659.468 1376.6C652.442 1374.99 643.675 1379.2 643.001 1386.35C642.152 1395.27 652.919 1403.71 648.727 1411.63C645.83 1417.27 637.34 1417.05 631.919 1413.71C626.596 1410.34 622.803 1404.86 617.462 1401.39C612.121 1397.93 603.771 1397.38 600.523 1402.79C597.753 1407.49 600.54 1413.57 604.268 1417.65C608.229 1421.88 619.398 1429.22 619.772 1435.46C620 1438.27 618.307 1441.14 615.785 1442.33C611.018 1444.56 605.56 1441.02 602.323 1436.85C594.513 1426.83 584.893 1415.33 570.606 1422.63C563.354 1426.25 559.629 1436.63 564.61 1443.01C567.748 1447.2 573.324 1448.68 578.371 1450.06C583.418 1451.44 588.872 1453.35 591.556 1457.83C594.24 1462.31 591.404 1469.87 586.133 1469.45C580.113 1462.96 573.509 1456.07 564.898 1454.15C556.268 1452.13 545.33 1457.77 545.385 1466.62C545.444 1477.09 559.678 1479.68 560.617 1488.35C561.882 1499.82 547.78 1493.65 542.185 1492.07Z" fill="#FFD7CC"/>
<path d="M341.438 3709.5C347.738 3710.2 353.338 3705.1 356.238 3700C359.338 3694.6 360.738 3688.4 363.338 3682.7C368.938 3670.2 380.638 3660.6 393.938 3657.4C404.438 3654.9 415.638 3656.1 425.838 3652.8C436.038 3649.4 445.338 3638.3 440.838 3628.5C437.638 3621.5 428.638 3618.6 421.038 3620.1C413.438 3621.5 406.938 3626.2 400.738 3630.8C406.738 3617.5 412.838 3604.2 418.838 3590.9C426.938 3585.3 432.738 3584 440.838 3578.4C446.938 3574.2 453.238 3569.8 457.138 3563.5C461.038 3557.2 461.838 3548.4 457.138 3542.7C439.238 3521.1 421.938 3561.8 418.438 3574.2C420.038 3568.2 420.238 3561.8 419.038 3555.6C418.438 3552.5 417.438 3549.4 415.538 3546.9C410.538 3540.3 400.038 3543 395.338 3548.9C390.738 3554.8 391.238 3563.1 392.038 3570.6C393.338 3583.2 394.638 3595.7 395.938 3608.3C394.738 3609 393.338 3609 392.138 3609.6C388.738 3598 385.238 3586.5 381.838 3574.9C380.238 3569.7 377.238 3563.3 371.738 3563.6C367.138 3563.8 364.338 3569.2 364.838 3573.7C365.338 3578.3 368.038 3582.2 370.338 3586.2C372.138 3589.4 373.438 3592.4 375.638 3595.4C377.838 3598.4 379.438 3601.7 380.638 3605.2C382.838 3612.2 382.938 3619.8 381.538 3627C379.138 3639.2 372.838 3650.2 366.738 3661C362.138 3669.2 357.938 3677.7 353.838 3686.2C350.138 3693.7 347.138 3703.5 341.438 3709.5Z" fill="#00B590"/>
<path d="M696.638 3025.4C704.438 3025.7 711.838 3024.4 717.938 3032.3C722.838 3038.8 724.138 3047.1 725.638 3055C727.138 3062.9 729.438 3071.2 735.738 3076.5C744.838 3084.2 761.138 3084.6 764.638 3095.8C766.338 3101.1 764.038 3107 765.738 3112.3C769.038 3122.3 782.538 3123.6 792.338 3128C805.038 3133.7 812.538 3146.5 821.238 3157.4C829.838 3168.3 842.938 3178.5 856.338 3175.5C869.538 3172.5 876.238 3156 870.738 3143.6C865.238 3131.2 850.338 3124.1 836.838 3125.4C830.438 3126 828.938 3117.6 829.738 3111.4C830.538 3105.2 833.838 3099 832.138 3092.9C829.738 3084.7 819.738 3081.1 811.138 3080C802.538 3078.9 792.838 3078.5 786.638 3072.4C777.038 3062.9 781.738 3045.7 772.638 3035.8C765.538 3027.9 752.938 3028 744.038 3022.1C731.238 3013.6 729.138 2996.4 718.338 2986.3C707.738 2976.4 691.438 2978.2 682.538 2964.8C678.438 2958.7 677.138 2951.3 673.538 2944.9C668.738 2936.2 659.738 2929.8 649.838 2927.9C636.938 2925.5 622.538 2931.6 615.338 2942.1C610.338 2949.3 613.438 2959.9 619.838 2966.3C633.238 2980 656.338 2971.4 664.538 2991.9C666.438 2996.5 666.838 3001.5 668.638 3006.1C672.038 3015.2 680.638 3022.2 690.138 3024.6C692.238 3025.2 694.438 3025.4 696.638 3025.4Z" fill="#008DB5"/>
<path d="M122.538 2862C151.138 2847.1 188.838 2850.8 214.738 2869.2C240.638 2887.7 254.238 2919.4 251.238 2949.7C235.738 2946.6 221.938 2938.1 210.738 2927.7C199.538 2917.3 190.538 2905 181.638 2892.8C186.238 2908.5 190.738 2924.5 191.438 2940.8C192.138 2957.1 188.538 2974.1 178.138 2987.3C162.138 2978.3 151.838 2962.4 146.438 2945.7C141.038 2929 140.138 2911.4 139.238 2894C139.538 2900.6 122.038 2915 117.238 2919.3C112.538 2923.6 95.438 2940.5 88.338 2939.2C80.238 2937.7 83.238 2918.6 84.238 2913.2C86.038 2903.2 90.138 2893.6 96.038 2885.2C102.838 2875.7 111.838 2867.6 122.538 2862Z" fill="#ACB8DE"/>
<path d="M200.238 3640.9C200.538 3636.5 199.938 3630.8 195.638 3629.7C192.338 3628.9 189.338 3631.7 187.438 3634.4C177.938 3647.6 175.738 3665.8 181.938 3680.8C188.038 3695.9 202.338 3707.4 218.338 3710.2C234.338 3713 251.638 3707.1 262.538 3695C264.938 3692.4 267.038 3689.2 267.138 3685.7C267.238 3682.2 264.338 3678.4 260.838 3678.8C256.538 3679.2 253.538 3685.3 249.338 3684.1C246.338 3683.2 245.638 3679.2 246.738 3676.3C247.838 3673.4 250.038 3671 251.238 3668.2C252.338 3665.3 251.838 3661.2 248.838 3660.2C246.338 3659.3 243.638 3661.3 242.138 3663.5C240.538 3665.8 238.038 3671.9 235.138 3672.7C233.838 3673.1 232.238 3672.5 231.438 3671.4C229.938 3669.3 231.038 3666.4 232.738 3664.4C236.738 3659.7 241.338 3653.9 236.438 3647.8C233.938 3644.7 228.638 3643.9 226.038 3646.9C224.338 3648.8 224.138 3651.6 224.038 3654.2C223.838 3656.8 223.538 3659.6 221.638 3661.3C219.738 3663 215.838 3662.4 215.538 3659.9C218.038 3656.4 220.738 3652.5 220.738 3648.2C220.738 3643.9 217.038 3639.2 212.838 3640.1C207.838 3641.2 208.038 3648.3 203.938 3649.5C198.438 3651.1 200.038 3643.7 200.238 3640.9Z" fill="#FF863A"/>
<path d="M441.438 2672.6C446.638 2685.1 448.138 2699 445.838 2712.3C445.238 2715.9 444.238 2719.5 442.138 2722.5C440.038 2725.5 436.538 2727.7 432.838 2727.4C428.138 2727 424.538 2722.6 423.238 2718.1C421.938 2713.5 422.238 2708.7 421.838 2704C420.538 2688.4 410.938 2673.8 397.138 2666.5C383.338 2659.2 365.838 2659.4 352.238 2667.1C348.838 2669 345.538 2671.6 344.538 2675.3C343.538 2678.7 344.838 2682.5 347.038 2685.4C349.238 2688.2 352.238 2690.3 355.338 2692.1C377.638 2705.6 404.338 2712.9 421.838 2732.2C424.138 2734.8 426.438 2738 426.138 2741.5C425.638 2746.5 420.138 2749.4 415.138 2749.7C398.338 2750.6 386.338 2732.8 369.938 2728.8C362.938 2727.1 355.338 2728.1 349.038 2731.5C345.638 2733.4 342.338 2736.4 342.138 2740.4C342.038 2742.8 343.238 2745 344.438 2747C350.038 2755.7 359.538 2761.8 369.838 2763.4C385.538 2765.7 400.838 2757.9 416.538 2756.5C421.538 2756 427.638 2756.8 429.938 2761.3C432.238 2765.7 429.438 2771.1 425.438 2774C418.938 2778.7 410.338 2778.6 402.338 2778.3C387.038 2777.8 371.738 2777.3 356.438 2776.8C349.438 2776.6 346.838 2788 348.838 2794.7C350.938 2801.4 357.538 2806 364.438 2807.1C371.338 2808.2 378.438 2806.3 384.738 2803.4C391.038 2800.5 396.838 2796.5 402.938 2793C412.138 2787.8 422.038 2783.7 432.338 2781.1C439.338 2779.3 448.338 2778.9 452.138 2785C454.138 2788.2 453.938 2792.5 452.338 2795.9C450.738 2799.3 447.838 2802 444.638 2804C437.738 2808.5 429.138 2810.4 420.938 2809.3C415.638 2808.6 410.638 2806.7 405.438 2805.8C400.238 2804.9 394.338 2805.3 390.238 2808.6C383.838 2813.7 384.338 2824.6 390.038 2830.4C395.738 2836.2 405.138 2837.5 412.938 2835.2C420.838 2832.9 427.438 2827.6 433.338 2821.8C439.138 2816 444.438 2809.7 450.838 2804.6C453.838 2802.2 457.138 2800 460.938 2799.2C464.738 2798.4 468.938 2799.2 471.538 2802.1C474.138 2804.9 474.538 2809.2 473.238 2812.8C471.938 2816.4 469.138 2819.3 466.038 2821.4C459.938 2825.6 452.638 2827.3 445.638 2829.5C438.638 2831.8 431.438 2835 427.338 2841.2C423.238 2847.4 423.738 2857 430.038 2860.8C436.138 2864.4 444.238 2861.1 448.838 2855.7C453.538 2850.3 455.938 2843.2 459.738 2837.2C463.638 2831 468.038 2824.8 472.938 2819.3C474.738 2817.3 476.938 2815.2 479.638 2815.6C482.938 2816.1 484.438 2820.5 483.338 2823.6C482.238 2826.8 479.538 2829.1 477.138 2831.4C466.938 2841.7 461.938 2857 464.138 2871.4C465.438 2879.9 469.638 2888.6 477.438 2892.3C485.238 2896 496.438 2892.5 498.338 2884.2C499.338 2879.9 497.838 2875.3 495.538 2871.5C493.238 2867.7 490.138 2864.4 487.738 2860.7C483.138 2853.8 480.738 2845.5 480.938 2837.2C481.038 2832.7 483.038 2827.1 487.538 2826.7C491.938 2826.3 494.838 2831.1 496.638 2835.2C500.738 2844.3 505.438 2853.3 512.238 2860.7C518.938 2868.1 528.038 2873.7 537.938 2874.8C543.138 2875.3 548.738 2874.5 552.538 2871C559.538 2864.8 557.538 2852.7 551.038 2846C544.538 2839.3 535.038 2836.7 525.938 2834.3C516.938 2832 507.338 2829.5 500.638 2823C492.238 2814.8 505.338 2812.8 511.038 2812.5C520.438 2812 529.838 2813 539.238 2812.7C550.238 2812.3 560.638 2809.8 567.138 2800.2C574.838 2788.9 574.038 2773.9 558.638 2770.7C550.938 2769.1 543.138 2773.8 537.738 2779.5C532.338 2785.3 528.238 2792.3 522.238 2797.5C514.138 2804.5 502.938 2807.6 492.338 2805.8C489.438 2805.3 486.338 2804.3 484.338 2802.1C479.938 2797.3 482.638 2788.9 487.938 2785.3C493.338 2781.6 500.238 2781.3 506.738 2781.1C514.038 2780.9 519.838 2776.9 526.038 2773C530.038 2770.5 533.838 2767.3 535.838 2763C537.838 2758.7 537.638 2753.1 534.338 2749.7C531.538 2746.8 527.138 2745.9 523.138 2746.7C519.138 2747.5 515.638 2749.7 512.538 2752.3C502.738 2760.2 495.338 2771.4 483.838 2776.5C480.338 2778.1 476.438 2779 472.638 2778.1C468.938 2777.2 465.538 2774.2 465.138 2770.4C464.838 2767.4 466.338 2764.4 468.538 2762.3C470.738 2760.2 473.438 2758.8 476.138 2757.5C482.538 2754.4 489.038 2751.4 495.638 2748.6C504.238 2744.9 508.438 2734.3 511.338 2725.4C512.738 2721 513.638 2716.3 513.138 2711.7C512.638 2707.1 510.538 2702.5 506.938 2699.6C503.338 2696.7 497.938 2695.8 493.838 2698C490.838 2699.6 488.838 2702.6 487.638 2705.7C486.438 2708.9 485.838 2712.2 485.038 2715.5C483.338 2722.5 480.538 2729.3 475.838 2734.8C471.138 2740.3 464.538 2744.3 457.438 2744.9C453.438 2745.2 448.638 2743.9 447.238 2740.1C445.838 2736.1 448.938 2732.1 451.838 2729C457.538 2722.9 463.138 2716.9 468.838 2710.8C472.738 2706.7 475.238 2701.8 475.538 2696.1C475.938 2686.6 474.638 2677 471.738 2667.9C470.238 2663.1 468.038 2658.1 463.938 2655.1C459.038 2651.5 451.638 2651.7 446.938 2655.6C442.238 2659.5 439.038 2667 441.438 2672.6Z" fill="#FFD7CC"/>
<path d="M854.738 2869.8C862.438 2852.5 880.838 2838.4 899.438 2842.1C912.838 2844.8 923.438 2856.8 925.838 2870.2C928.138 2883.6 922.638 2897.9 912.738 2907.2C902.738 2916.5 888.838 2921 875.138 2920.6C871.438 2920.5 867.738 2920 864.138 2920.9C860.538 2921.8 857.038 2924.3 856.438 2928C855.638 2932.7 859.838 2936.8 864.238 2938.9C873.938 2943.5 885.138 2942.6 895.838 2942.5C906.538 2942.4 918.338 2943.9 925.638 2951.6C933.638 2960 933.738 2973.8 928.638 2984.2C919.738 3002.2 896.238 3011.4 877.538 3004.1C858.838 2996.8 847.638 2974.1 853.338 2954.9C854.038 2952.4 855.138 2949.8 854.738 2947.1C854.338 2944.5 851.938 2941.9 849.338 2942.6C847.538 2943.1 846.438 2944.8 845.538 2946.3C835.238 2962.7 818.438 2976 799.138 2977.5C779.838 2979 759.238 2966 756.138 2946.9C752.938 2926.9 770.238 2907.4 790.238 2904C799.438 2902.5 808.838 2903.8 817.538 2907.1C822.038 2908.8 826.338 2911.1 830.438 2913.7C833.138 2915.4 838.738 2921.9 841.638 2922.2C851.138 2922.9 848.038 2905.2 848.438 2899.3C848.838 2889.2 850.638 2879.1 854.738 2869.8Z" fill="#FF863A"/>
<path d="M104.738 3346.6C95.438 3330.1 95.138 3306.9 109.238 3294.2C119.438 3285.1 135.338 3283.7 147.538 3289.8C159.738 3295.9 167.838 3308.9 169.438 3322.4C170.938 3336 166.238 3349.9 157.738 3360.5C155.438 3363.4 152.838 3366.1 151.438 3369.5C150.038 3372.9 149.938 3377.2 152.538 3379.9C155.838 3383.4 161.638 3382.4 165.938 3380.2C175.438 3375.2 181.338 3365.6 187.738 3357C194.038 3348.4 202.238 3339.8 212.838 3338.5C224.338 3337.1 235.438 3345.2 240.838 3355.6C250.038 3373.5 243.338 3397.8 226.338 3408.5C209.338 3419.2 184.438 3414.6 172.438 3398.5C170.838 3396.4 169.338 3394 167.038 3392.8C164.738 3391.5 161.238 3392 160.138 3394.4C159.438 3396.1 160.138 3398 160.838 3399.7C167.838 3417.7 168.438 3439.2 158.138 3455.6C147.838 3472 125.138 3480.8 107.938 3471.9C89.938 3462.6 84.638 3437 93.938 3418.9C98.238 3410.6 104.838 3403.9 112.638 3398.9C116.738 3396.3 121.038 3394.2 125.638 3392.5C128.638 3391.4 137.138 3390.8 139.138 3388.5C145.438 3381.3 129.238 3373.2 124.838 3369.4C116.838 3362.9 109.838 3355.5 104.738 3346.6Z" fill="#FFD7CC"/>
<path d="M606.838 3578.3C594.338 3587.6 582.138 3598.5 576.338 3613C570.538 3627.5 572.738 3646.2 585.238 3655.6C594.438 3662.5 607.538 3663.5 615.438 3671.9C622.438 3679.3 623.338 3690.4 625.138 3700.4C626.938 3710.4 631.238 3721.6 640.838 3724.9C651.538 3728.5 662.338 3720.5 671.338 3713.6C680.338 3706.8 693.238 3700.6 702.238 3707.4C708.238 3711.9 710.938 3721.3 718.338 3722.7C723.538 3723.7 728.438 3720 732.138 3716.2C751.338 3697 762.038 3670.3 765.638 3643.4C769.038 3617.6 772.438 3521.7 732.138 3520.6C716.038 3520.2 690.238 3535.7 675.238 3541.3C650.738 3550.4 627.638 3562.8 606.838 3578.3Z" fill="#E2F1DD"/>
<path d="M276.038 3555.6C273.838 3561.7 272.938 3568.1 272.438 3574.5C271.738 3583 271.838 3592.1 276.338 3599.3C277.738 3601.6 279.638 3603.7 282.138 3604.6C285.538 3605.8 289.338 3604.5 292.138 3602.3C294.338 3600.6 296.638 3597.3 299.738 3597.3C303.338 3597.2 306.338 3602.4 309.738 3603.8C314.338 3605.7 320.638 3604.5 322.738 3599.9C323.838 3597.6 323.638 3594.9 323.938 3592.4C324.238 3589.9 325.538 3587.1 328.038 3586.5C330.938 3585.8 333.438 3588.3 336.338 3589C340.138 3589.9 344.138 3587.5 346.038 3584C347.938 3580.6 347.938 3576.4 347.438 3572.6C346.238 3563.5 341.738 3555 335.238 3548.5C328.738 3542 320.338 3537.6 311.338 3535.6C303.738 3533.9 295.038 3534.1 288.238 3538.3C282.538 3541.7 278.338 3549.3 276.038 3555.6Z" fill="#EF3C45"/>
<path d="M836.438 3221C819.838 3223.6 804.038 3229.6 788.738 3236.5C768.438 3245.6 747.938 3257.1 736.838 3276.4C733.338 3282.4 730.938 3289.4 732.038 3296.3C733.538 3305.5 741.138 3312.7 749.738 3316.2C756.438 3318.9 766.738 3320.2 770.738 3327.4C775.438 3335.6 767.338 3348.8 768.438 3358.4C769.938 3371.3 780.538 3384.2 793.538 3383.3C800.138 3382.8 806.038 3379 812.238 3376.6C818.438 3374.2 826.438 3373.6 830.938 3378.5C836.138 3384.1 833.638 3393.2 835.638 3400.6C838.238 3410.4 848.938 3416.5 859.038 3416.5C869.238 3416.5 878.738 3411.5 886.938 3405.5C906.138 3391.3 920.138 3370.4 926.838 3347.5C933.538 3324.6 933.138 3299.7 926.638 3276.8C921.038 3257.2 909.738 3237.6 891.538 3227.3C876.138 3218.4 853.638 3218.3 836.438 3221Z" fill="#EC1728"/>
<path d="M817.638 2128C803.338 2136.8 791.038 2148.5 779.638 2160.7C764.438 2176.9 749.938 2195.5 747.238 2217.5C746.338 2224.4 746.838 2231.8 750.538 2237.7C755.438 2245.6 765.338 2249.3 774.538 2249.2C781.738 2249.2 791.738 2246.3 798.238 2251.4C805.738 2257.2 803.338 2272.4 808.138 2280.9C814.538 2292.2 829.238 2300 840.938 2294.2C846.938 2291.2 850.838 2285.4 855.638 2280.8C860.438 2276.2 867.538 2272.6 873.638 2275.4C880.638 2278.6 881.838 2287.9 886.538 2293.9C892.738 2302 904.938 2303.5 914.238 2299.5C923.538 2295.5 930.438 2287.3 935.638 2278.6C947.838 2258.1 952.738 2233.4 950.038 2209.7C947.338 2186 937.438 2163.2 922.538 2144.6C909.838 2128.7 891.838 2115 871.038 2112.5C853.238 2110.3 832.438 2118.9 817.638 2128Z" fill="#E2F1DD"/>
<path d="M552.738 2896.7C546.238 2906.6 541.838 2917.8 538.038 2929.1C533.138 2944 529.338 2960.3 534.138 2975.3C535.638 2980 538.138 2984.6 542.238 2987.3C547.738 2990.9 555.138 2990.3 561.138 2987.5C565.738 2985.3 571.338 2980.5 577.038 2981.8C583.538 2983.3 586.638 2993.8 592.238 2997.8C599.738 3003.2 611.538 3003.8 617.238 2996.5C620.138 2992.8 620.938 2987.9 622.638 2983.5C624.338 2979.1 627.838 2974.7 632.538 2974.6C637.938 2974.6 641.538 2980.2 646.338 2982.7C652.738 2986 661.038 2983.4 665.838 2978C670.638 2972.7 672.638 2965.3 673.338 2958.2C675.038 2941.4 670.838 2924.1 662.038 2909.6C653.238 2895.1 640.038 2883.5 624.938 2876C612.038 2869.6 596.338 2866.2 582.338 2870.8C570.338 2874.7 559.538 2886.4 552.738 2896.7Z" fill="#00B590"/>
<path d="M215.249 932.6C212.149 924.8 205.649 917.4 207.249 909.2C208.449 903 213.949 898.5 216.249 892.6C220.949 880 209.549 866.5 211.549 853.3C212.849 844.7 219.549 838.1 224.749 831.1C229.849 824.1 233.649 814.3 228.849 807C233.849 807.8 236.749 813.5 236.349 818.5C235.949 823.5 233.349 828 231.249 832.6C224.949 846 222.449 861.2 224.049 875.9C224.849 883.4 226.649 891.4 223.049 898C220.149 903.4 213.849 907.4 213.849 913.5C213.849 919.2 219.349 923 223.049 927.3C231.549 937.3 230.049 954.3 219.849 962.6C227.249 965.6 234.349 956.4 234.349 948.5C234.349 940.5 230.649 932.8 231.249 924.8C232.449 908.4 251.149 896.7 250.549 880.3C250.349 874.9 247.949 869.7 248.949 864.4C249.949 859.1 257.249 854.9 260.549 859.1C256.949 873 253.349 887 249.749 900.9C246.649 912.9 243.549 924.9 242.749 937.2C242.249 944.9 242.649 952.8 240.349 960.2C237.249 970.3 220.649 984.2 212.849 969.6C207.349 959.5 220.349 945.5 215.249 932.6Z" fill="#8AAA9A"/>
<path d="M693.238 501.4C689.638 502.7 686.138 506.9 688.238 510C689.538 511.9 692.138 512.3 694.438 512.5C704.738 513.4 715.038 514.3 725.338 515.1C733.438 515.8 741.638 516.5 749.638 515.3C757.638 514.1 765.638 510.7 770.938 504.6C771.838 503.6 772.638 502.4 772.638 501.1C772.738 498.9 770.538 497.2 768.438 496.9C766.238 496.6 764.138 497.3 762.038 497.9C753.638 500.3 744.638 500.6 736.038 498.8C730.338 497.6 724.938 495.6 719.238 494.6C708.538 492.8 702.638 498 693.238 501.4Z" fill="#767777"/>
<path d="M136.038 326.6C134.038 331.3 133.038 337.1 135.738 341.5C139.438 347.4 147.538 348.1 154.538 348.2C159.738 348.3 165.038 348.3 170.238 348.4C175.438 348.5 181.238 348.3 185.038 344.8C189.338 340.9 189.638 334.3 188.538 328.7C187.338 322.8 184.738 317.2 180.638 312.9C165.638 297.2 143.438 309.4 136.038 326.6Z" fill="#A38D6F"/>
<path d="M583.006 934.464C583.106 937.364 583.706 940.564 586.106 942.064C587.306 942.864 588.806 943.064 590.206 943.264C610.106 946.064 630.106 947.464 650.106 947.464C654.206 947.464 658.406 947.364 662.206 946.164C666.106 944.864 669.706 942.164 671.106 938.364C673.206 932.764 669.906 926.264 665.106 922.764C660.306 919.264 654.206 918.064 648.306 916.864C642.406 915.764 636.306 914.464 631.506 910.964C624.306 905.664 620.806 895.964 612.706 892.364C607.106 889.764 599.906 890.964 595.506 895.264C590.306 900.264 591.806 906.264 589.806 912.364C587.306 920.364 582.806 925.264 583.006 934.464Z" fill="#D8BF8B"/>
<path d="M579.538 64.1001C579.538 65.7001 579.938 67.5001 581.238 68.3001C581.938 68.7001 582.738 68.9001 583.538 69.0001C594.538 70.5001 605.638 71.3001 616.738 71.3001C619.038 71.3001 621.338 71.3001 623.438 70.6001C625.638 69.9001 627.638 68.4001 628.438 66.3001C629.638 63.2001 627.738 59.6001 625.138 57.7001C622.438 55.8001 619.038 55.1001 615.838 54.5001C612.538 53.9001 609.238 53.2001 606.538 51.2001C602.538 48.3001 600.638 42.9001 596.138 40.9001C593.038 39.5001 589.038 40.1001 586.538 42.5001C583.638 45.3001 584.538 48.6001 583.438 52.0001C581.938 56.3001 579.338 59.0001 579.538 64.1001Z" fill="#898F8E"/>
</g>
</svg>
