<svg width="986" height="3726" viewBox="0 0 986 3726" fill="none" xmlns="http://www.w3.org/2000/svg">
<mask id="mask0" mask-type="alpha" maskUnits="userSpaceOnUse" x="0" y="0" width="986" height="3726">
<rect width="986" height="3726" fill="#C4C4C4"/>
</mask>
<g mask="url(#mask0)">
<path d="M881.138 1814.3C885.038 1813.7 889.038 1815.6 891.438 1818.2C893.838 1820.8 895.038 1824.1 896.038 1827.3C903.738 1851.3 907.238 1876.2 906.238 1901C905.838 1910.8 904.238 1921.6 895.538 1928.2C889.838 1932.5 881.838 1934.3 874.138 1934.2C866.438 1934 858.938 1932.1 851.838 1929.7C830.038 1922.4 810.238 1910.8 794.538 1896.1C792.238 1893.9 789.938 1891.6 789.038 1888.8C788.138 1886 789.038 1882.6 792.038 1881.1C796.138 1879 801.338 1881.5 805.138 1883.8C818.038 1891.7 831.038 1899.6 843.938 1907.5C834.538 1901.8 826.138 1892.3 818.738 1884.9C810.638 1876.8 794.138 1866.4 793.838 1854.7C793.438 1842.5 811.438 1853.2 816.538 1856.6C824.338 1861.8 831.038 1868.1 837.738 1874.2C844.438 1880.4 851.138 1886.6 857.938 1892.8C843.438 1876.9 828.938 1860.9 814.438 1845C810.538 1840.8 806.638 1836.3 805.438 1831.1C804.238 1825.9 806.838 1819.6 812.838 1817.8C817.338 1816.4 822.538 1817.9 826.238 1820.4C829.938 1822.9 832.338 1826.5 834.738 1830C846.338 1846.9 857.938 1863.9 869.638 1880.8C872.738 1870.6 867.938 1859.9 862.138 1850.5C856.338 1841.1 849.438 1831.8 848.038 1821.4C847.638 1818.4 847.738 1815.3 849.238 1812.6C850.738 1809.9 854.138 1807.8 857.638 1807.9C863.638 1808.2 866.538 1814 868.138 1818.8C873.238 1834.4 878.438 1850 883.538 1865.7C885.038 1870.4 885.438 1875.9 888.438 1880.2C891.938 1885.2 896.938 1884.2 898.438 1878.2C899.838 1873.3 880.938 1814.4 881.138 1814.3Z" fill="#FFDF00"/>
<path d="M281.442 1593.11C279.342 1586.11 276.342 1578.91 270.842 1574.01C265.342 1569.11 256.642 1567.11 250.542 1571.21C246.042 1574.21 243.442 1579.91 238.542 1582.01C234.142 1583.91 229.042 1582.61 224.342 1581.81C219.642 1581.01 213.942 1581.11 210.942 1584.91C207.642 1589.11 209.542 1595.21 211.142 1600.21C212.742 1605.31 213.442 1612.01 208.942 1614.91C205.942 1616.91 201.442 1616.51 199.642 1619.61C198.342 1621.81 199.242 1624.51 200.342 1626.81C205.842 1638.41 215.942 1647.31 227.342 1653.21C238.242 1658.81 280.342 1675.51 287.242 1657.81C289.942 1650.71 287.142 1636.81 287.042 1629.21C286.942 1617.11 285.042 1604.91 281.442 1593.11Z" fill="#FFDF00"/>
<path d="M32.1062 2080.02C46.4062 2080.52 59.8062 2090.52 65.1062 2103.82C70.4062 2117.12 67.8062 2133.12 59.4062 2144.72C54.3062 2139.92 51.2062 2133.42 49.5062 2126.62C47.8062 2119.82 47.4062 2112.82 47.0062 2105.92C44.9062 2113.32 42.8062 2120.82 39.1062 2127.52C35.4062 2134.32 30.0062 2140.32 22.9062 2143.32C19.1062 2136.02 19.0062 2127.22 21.0062 2119.32C23.0062 2111.42 26.9062 2104.02 30.8062 2096.82C29.3062 2099.52 19.2062 2101.42 16.4062 2102.12C13.6062 2102.82 3.10619 2105.82 0.706186 2103.62C-1.99381 2101.22 3.8062 2094.12 5.4062 2092.12C8.5062 2088.52 12.4062 2085.52 16.6062 2083.42C21.4062 2081.12 26.7062 2079.82 32.1062 2080.02Z" fill="#FFD7CC"/>
<path d="M564.338 711.7C555.538 710.8 546.238 710.8 538.338 714.6C530.338 718.4 524.138 727.2 525.838 735.9C527.038 742.3 532.138 747.7 532.238 754.2C532.338 760 528.538 764.9 525.438 769.8C522.338 774.7 519.938 781 522.738 786C525.838 791.6 533.438 792.3 539.838 792.9C546.238 793.5 553.938 795.8 555.138 802.1C555.938 806.3 553.438 811.2 556.038 814.6C557.838 817 561.338 817.3 564.338 817.2C579.738 816.5 594.338 809.4 606.138 799.4C617.438 789.9 655.338 751 638.838 735.2C632.238 728.9 615.538 725.6 607.138 722.2C593.438 716.8 578.938 713.2 564.338 711.7Z" fill="#E2F1DD"/>
<path d="M140.938 2980.2C113.638 3017.3 120.138 3068.8 141.238 3108C143.338 3111.8 145.738 3115.8 149.438 3117.9C153.138 3120 158.738 3119.5 160.738 3115.7C162.138 3113.1 161.438 3109.9 160.738 3106.9C157.038 3091.6 152.738 3076.2 149.238 3060.9C147.238 3051.8 146.638 3042.5 145.938 3033.2C145.338 3025.2 143.938 3017.2 144.738 3009.3C146.238 2993.2 148.638 2979.1 161.138 2967.6C164.238 2964.8 168.738 2962.3 172.438 2964.3C175.938 2966.3 176.438 2971.3 174.938 2974.9C173.438 2978.6 170.538 2981.4 168.438 2984.7C165.838 2988.6 166.038 2992.6 165.838 2997.1C164.138 3051.8 176.838 3106.6 204.238 3154.7C207.038 3159.6 211.038 3165 216.538 3164.9C221.338 3164.8 224.938 3160 225.538 3155.2C226.138 3150.4 224.538 3145.6 222.838 3141C211.338 3108.1 199.838 3075.2 188.338 3042.3C183.438 3028.4 179.838 3013.3 179.638 2998.6C179.638 2996.3 179.738 2993.9 180.638 2991.8C181.538 2989.7 183.238 2987.9 185.438 2987.3C188.738 2986.5 192.238 2988.9 193.938 2991.9C195.638 2995 195.838 2998.5 196.138 3002C196.938 3013.8 202.138 3024.5 206.338 3035.7C210.738 3047.5 215.038 3059.3 219.438 3071.1C225.238 3086.8 231.338 3102.9 242.238 3115.7C249.638 3124.4 260.538 3132.3 272.038 3134.1C283.338 3135.9 282.038 3126.8 277.838 3119.4C273.938 3112.6 270.038 3105.7 266.138 3098.9C258.138 3084.8 250.038 3070.7 242.038 3056.5C235.738 3045.5 229.738 3034.3 223.238 3023.4C217.338 3013.5 209.038 3004.5 201.938 2995.3C200.238 2993.2 198.538 2991 197.738 2988.4C196.838 2985.8 196.938 2982.8 198.738 2980.7C200.738 2978.4 204.238 2978 207.138 2979.1C210.038 2980.1 212.438 2982.2 214.638 2984.4C223.738 2993 232.038 3002.4 239.438 3012.5C243.138 3017.5 246.638 3022.8 249.838 3028.1C252.638 3032.8 256.638 3036.4 260.538 3040.4C278.238 3058.5 296.038 3076.6 313.738 3094.7C317.238 3098.3 321.738 3102.2 326.538 3101.3C330.938 3100.5 333.738 3095.7 333.838 3091.2C333.938 3086.7 332.038 3082.3 330.038 3078.2C318.238 3054 303.038 3031.4 285.038 3011.3C276.038 3001.3 266.038 2992.6 256.438 2983.3C247.738 2974.9 233.938 2970.1 223.138 2964.5C219.638 2962.7 215.638 2960 215.938 2956.1C216.138 2952.1 220.838 2950 224.838 2949.7C237.538 2948.5 244.638 2955.1 253.838 2962.4C259.238 2966.7 265.838 2969.8 271.338 2973.9C276.738 2977.9 281.938 2982.2 287.038 2986.5C307.138 3003.5 327.238 3020.4 347.438 3037.4C354.138 3043.1 364.938 3048.6 370.438 3042C374.238 3037.4 372.138 3030.3 369.538 3024.8C358.538 3001.4 341.738 2980.8 321.538 2964.8C311.338 2956.7 300.238 2949.7 288.538 2944.1C282.838 2941.3 276.938 2938.9 270.938 2936.8C265.738 2935 261.138 2932.1 255.638 2933.8C252.138 2934.9 248.838 2936.8 245.238 2937.4C241.538 2937.9 237.138 2936.3 236.038 2932.7C235.338 2930.1 236.538 2927.4 238.538 2925.7C240.538 2924 243.138 2923.2 245.638 2922.7C269.938 2917.4 295.638 2930.4 314.438 2945.4C327.038 2955.4 338.538 2966.9 352.438 2974.9C354.138 2975.9 356.138 2976.8 357.838 2975.9C359.338 2975.1 359.838 2973.1 359.438 2971.4C359.038 2969.7 357.938 2968.3 356.938 2966.9C343.838 2950 333.038 2932.5 315.538 2919.6C300.038 2908.2 281.338 2900.3 262.338 2901.1C235.538 2902.2 228.438 2921.1 209.438 2933.9C185.438 2949.9 159.138 2955.5 140.938 2980.2Z" fill="#FFD7CC"/>
<path d="M447.338 2998C453.438 2984.2 468.138 2973 482.838 2976C493.438 2978.2 501.938 2987.6 503.738 2998.3C505.638 3009 501.238 3020.3 493.338 3027.7C485.438 3035.1 474.338 3038.7 463.538 3038.3C460.638 3038.2 457.638 3037.8 454.738 3038.5C451.938 3039.2 449.138 3041.2 448.638 3044.1C448.038 3047.9 451.338 3051.1 454.838 3052.8C462.538 3056.4 471.438 3055.7 479.938 3055.7C488.438 3055.7 497.738 3056.8 503.638 3062.9C510.038 3069.6 510.038 3080.5 506.038 3088.8C499.038 3103.1 480.338 3110.4 465.438 3104.6C450.538 3098.8 441.738 3080.8 446.238 3065.5C446.838 3063.5 447.638 3061.4 447.338 3059.3C447.038 3057.2 445.138 3055.2 443.038 3055.7C441.638 3056.1 440.738 3057.4 440.038 3058.6C431.838 3071.6 418.438 3082.2 403.138 3083.4C387.838 3084.6 371.438 3074.3 368.938 3059.1C366.338 3043.2 380.138 3027.7 396.038 3025.1C403.338 3023.9 410.838 3025 417.738 3027.6C421.338 3029 424.738 3030.7 427.938 3032.8C430.038 3034.2 434.538 3039.3 436.838 3039.5C444.438 3040.1 441.938 3026 442.238 3021.3C442.638 3013.4 444.038 3005.4 447.338 2998Z" fill="#EC1728"/>
<path d="M606.238 3391.3C610.938 3387 610.838 3379.5 608.938 3373.9C606.938 3368 603.238 3362.8 600.638 3357.1C595.038 3344.6 595.538 3329.5 601.938 3317.4C607.038 3307.9 615.338 3300.3 619.638 3290.4C623.938 3280.5 621.638 3266.2 611.338 3263C603.938 3260.7 595.838 3265.6 591.938 3272.2C588.038 3278.8 587.238 3286.8 586.438 3294.5C580.438 3281.2 574.538 3267.9 568.538 3254.5C569.738 3244.8 572.638 3239.5 573.738 3229.8C574.638 3222.4 575.538 3214.8 573.338 3207.8C571.238 3200.7 565.138 3194.2 557.738 3194C529.638 3193.1 548.638 3233.1 555.638 3243.9C552.138 3238.7 547.538 3234.3 542.138 3231.1C539.438 3229.5 536.438 3228.1 533.338 3227.9C525.038 3227.3 520.138 3237 521.538 3244.4C522.838 3251.8 529.438 3256.9 535.538 3261.3C545.838 3268.7 556.138 3276 566.438 3283.4C566.138 3284.8 565.238 3285.8 564.938 3287.1C554.038 3282 543.038 3276.9 532.138 3271.9C527.138 3269.6 520.338 3267.7 516.938 3271.9C514.138 3275.5 516.238 3281.1 519.938 3283.8C523.638 3286.4 528.438 3287 532.938 3287.9C536.538 3288.6 539.638 3289.7 543.338 3290C547.038 3290.3 550.638 3291.3 553.938 3292.8C560.638 3295.8 566.438 3300.8 570.838 3306.6C578.338 3316.5 582.438 3328.5 586.538 3340.2C589.638 3349.1 593.238 3357.9 596.838 3366.6C600.138 3374.3 605.438 3383.1 606.238 3391.3Z" fill="#00B590"/>
<path d="M133.338 3596.9C139.938 3594.9 145.838 3591.7 152.938 3596.9C158.738 3601.1 161.938 3607.9 165.238 3614.3C168.538 3620.7 172.638 3627.2 179.238 3630C188.838 3634.1 202.538 3629.9 208.438 3638.5C211.238 3642.6 210.838 3648.3 213.638 3652.4C218.938 3660.1 230.638 3657.4 239.938 3658.4C252.038 3659.8 261.738 3668.7 271.738 3675.6C281.738 3682.5 295.338 3687.7 305.838 3681.4C316.138 3675.1 317.438 3659 309.538 3649.8C301.738 3640.6 287.438 3638.7 276.438 3643.6C271.238 3645.9 267.838 3639.1 266.938 3633.5C266.038 3627.9 267.138 3621.7 264.138 3616.9C260.038 3610.4 250.738 3610.2 243.238 3611.7C235.738 3613.2 227.538 3615.6 220.738 3612C210.238 3606.5 209.738 3590.4 199.538 3584.3C191.538 3579.5 181.038 3583.1 172.038 3580.5C159.138 3576.7 152.938 3562.5 141.238 3556.8C129.838 3551.2 116.638 3557.4 105.638 3548.3C100.638 3544.2 97.538 3538.2 92.938 3533.7C86.638 3527.6 77.438 3524.5 68.738 3525.7C57.338 3527.2 46.838 3536.5 43.538 3547.6C41.238 3555.2 46.638 3563.4 53.538 3567.2C68.338 3575.2 85.338 3561.4 97.638 3576.7C100.338 3580.1 102.038 3584.3 104.738 3587.8C109.938 3594.7 118.938 3598.3 127.538 3597.7C129.638 3597.9 131.538 3597.4 133.338 3596.9Z" fill="#008DB5"/>
<path d="M397.138 3501.1C411.538 3510.5 423.138 3524 430.138 3539.5C432.038 3543.7 433.638 3548.2 433.538 3552.8C433.438 3557.4 431.338 3562.1 427.238 3564.3C421.938 3567.2 415.138 3565.1 410.438 3561.2C405.838 3557.3 402.638 3552.1 398.838 3547.4C386.438 3532 365.738 3523.4 345.938 3525.3C326.138 3527.2 307.838 3539.6 298.938 3557C296.738 3561.3 295.138 3566.3 296.638 3570.9C298.038 3575.2 302.038 3578.3 306.438 3579.7C310.738 3581.1 315.438 3581.2 320.038 3581C353.238 3579.7 386.738 3568.7 418.938 3576.8C423.238 3577.9 427.938 3579.6 430.038 3583.5C433.038 3589 429.338 3595.9 424.238 3599.7C407.138 3612.3 381.638 3602.1 361.538 3609.2C352.938 3612.2 345.538 3618.6 341.338 3626.6C339.038 3630.9 337.738 3636.4 340.438 3640.6C342.038 3643.1 344.838 3644.7 347.638 3645.9C359.838 3651.1 374.238 3650.9 386.238 3645.4C404.438 3637 415.038 3618.2 430.638 3605.8C435.638 3601.8 442.538 3598.5 448.238 3601.5C453.738 3604.5 454.738 3612.2 452.538 3617.9C449.038 3627.3 439.838 3633.2 431.238 3638.4C414.738 3648.5 398.138 3658.6 381.638 3668.6C374.138 3673.2 379.538 3687 386.438 3692.5C393.438 3698 403.638 3698.3 411.738 3694.6C419.838 3691 425.938 3684.1 430.538 3676.7C435.138 3669.2 438.338 3661.1 442.338 3653.2C448.338 3641.3 455.938 3630.2 464.938 3620.4C471.038 3613.7 480.238 3607 488.638 3610.7C493.038 3612.7 495.938 3617.2 496.638 3621.9C497.338 3626.6 496.238 3631.4 494.338 3635.7C490.238 3645.2 482.538 3653.1 473.138 3657.6C467.038 3660.5 460.338 3662 454.238 3664.7C448.038 3667.4 442.238 3671.9 440.238 3678.2C437.138 3688 445.438 3699 455.638 3701.1C465.838 3703.2 476.638 3698.1 483.238 3690.2C489.938 3682.3 493.138 3672.2 495.238 3662.1C497.338 3652 498.338 3641.7 501.438 3631.9C502.838 3627.3 504.838 3622.7 508.238 3619.3C511.638 3615.9 516.738 3613.7 521.538 3614.9C526.238 3616.1 529.838 3620.3 531.038 3624.9C532.238 3629.5 531.338 3634.5 529.638 3638.9C526.238 3647.5 519.638 3654.3 513.838 3661.6C508.038 3668.8 502.838 3677.2 502.838 3686.4C502.838 3695.6 510.238 3705.4 519.638 3705C528.638 3704.6 534.838 3695.4 535.938 3686.6C537.038 3677.6 534.538 3668.6 534.138 3659.7C533.838 3650.5 534.038 3641.1 535.238 3631.9C535.638 3628.6 536.538 3624.8 539.638 3623.4C543.538 3621.6 548.138 3625.2 549.238 3629.2C550.338 3633.3 549.038 3637.6 548.338 3641.7C544.938 3659.6 550.638 3679 563.238 3692.5C570.638 3700.5 581.338 3706.6 592.238 3705.2C603.138 3703.8 612.438 3692.3 608.538 3682.2C606.538 3677 601.638 3673.3 596.438 3670.9C591.238 3668.5 585.738 3667.2 580.438 3665.1C570.638 3661.1 562.138 3654 556.438 3645.2C553.338 3640.4 551.338 3633.2 555.938 3629.6C560.338 3626.1 566.738 3629.2 571.538 3632.2C582.438 3638.9 593.838 3645 606.238 3648C618.638 3651 632.238 3650.7 643.538 3644.9C649.338 3641.9 654.738 3637.1 656.338 3630.8C659.238 3619.5 648.538 3608.2 636.838 3605.7C625.138 3603.2 613.238 3607.1 602.038 3610.9C590.838 3614.7 578.938 3618.7 567.238 3616.6C552.438 3613.9 564.938 3602.7 570.738 3598.5C580.338 3591.5 590.938 3586 600.638 3579.1C612.038 3571.1 621.138 3561.3 621.238 3546.6C621.338 3529.5 609.738 3514.4 591.138 3521.6C581.738 3525.3 576.938 3535.5 575.338 3545.3C573.738 3555.1 574.438 3565.2 571.838 3574.8C568.338 3587.7 558.638 3598.8 546.238 3604.1C542.738 3605.6 538.838 3606.7 535.138 3605.8C527.038 3603.8 523.938 3593.3 526.938 3585.7C529.938 3578.1 537.038 3573 543.838 3568.3C551.438 3563 554.638 3554.8 558.438 3546.5C560.938 3541.1 562.638 3535.1 561.638 3529.2C560.638 3523.3 556.438 3517.6 550.538 3516.3C545.538 3515.2 540.138 3517.4 536.538 3521C532.938 3524.6 530.838 3529.4 529.338 3534.2C524.638 3549.2 524.838 3566.1 516.338 3579.4C513.738 3583.4 510.238 3587.1 505.638 3588.8C501.038 3590.5 495.338 3589.6 492.238 3585.9C489.738 3583 489.238 3578.8 490.038 3575.1C490.838 3571.4 492.738 3568.1 494.638 3564.8C499.138 3557.1 503.938 3549.5 508.838 3542C515.338 3532.2 512.238 3518.2 508.838 3506.9C507.138 3501.3 504.738 3495.8 500.938 3491.3C497.138 3486.8 491.638 3483.5 485.738 3483C479.838 3482.5 473.538 3485.3 470.738 3490.4C468.738 3494.1 468.738 3498.7 469.638 3502.8C470.538 3507 472.438 3510.9 473.938 3514.9C477.138 3523.4 479.038 3532.5 478.038 3541.4C477.038 3550.4 472.938 3559.2 465.738 3564.7C461.738 3567.8 455.638 3569.8 451.538 3566.7C447.238 3563.5 447.538 3557.1 448.438 3551.9C450.138 3541.6 451.738 3531.4 453.438 3521.1C454.538 3514.1 453.738 3507.2 449.938 3501.2C443.538 3491 435.338 3481.8 425.738 3474.3C420.638 3470.3 414.838 3466.6 408.338 3466.4C400.538 3466.1 392.938 3471.4 390.638 3478.7C388.338 3486.4 390.638 3496.8 397.138 3501.1Z" fill="#FFD7CC"/>
<path d="M202.976 2599.17C200.776 2611.27 199.576 2624.17 203.976 2635.67C208.376 2647.17 219.776 2656.77 232.076 2655.47C241.076 2654.57 249.176 2648.07 258.276 2648.67C266.276 2649.17 272.776 2655.07 279.176 2659.97C285.576 2664.77 294.076 2668.97 301.376 2665.67C309.476 2661.97 311.376 2651.57 312.976 2642.77C314.476 2633.97 318.676 2623.47 327.476 2622.57C333.376 2621.97 339.976 2625.97 344.976 2622.77C348.476 2620.57 349.376 2615.77 349.476 2611.57C350.276 2590.17 342.076 2568.97 329.676 2551.47C317.776 2534.77 268.176 2477.57 244.276 2498.57C234.776 2506.97 228.176 2529.87 222.476 2541.17C213.376 2559.37 206.776 2579.07 202.976 2599.17Z" fill="#E2F1DD"/>
<path d="M394.038 3289C399.438 3288.1 405.038 3290.8 408.338 3294.4C411.638 3298 413.338 3302.6 414.738 3307.1C425.538 3340.5 430.338 3375.2 429.038 3409.8C428.538 3423.5 426.238 3438.5 414.138 3447.8C406.238 3453.9 395.038 3456.4 384.338 3456.1C373.638 3455.8 363.238 3453.1 353.238 3449.8C322.838 3439.6 295.238 3423.4 273.438 3402.9C270.238 3399.9 267.038 3396.6 265.838 3392.7C264.638 3388.8 265.938 3384 270.038 3382C275.738 3379.1 282.938 3382.5 288.338 3385.8C306.338 3396.8 324.338 3407.8 342.338 3418.8C329.338 3410.8 317.538 3397.7 307.238 3387.3C295.938 3376 273.038 3361.5 272.538 3345.2C272.038 3328.2 297.038 3343.1 304.238 3347.9C315.138 3355.2 324.438 3363.9 333.738 3372.5C343.138 3381.1 352.438 3389.8 361.838 3398.4C341.638 3376.2 321.438 3354 301.238 3331.7C295.838 3325.8 290.338 3319.6 288.738 3312.3C287.138 3305 290.738 3296.3 299.038 3293.7C305.338 3291.8 312.538 3293.8 317.638 3297.4C322.738 3301 326.138 3306 329.538 3310.8C345.738 3334.4 361.938 3358 378.138 3381.6C382.438 3367.4 375.738 3352.5 367.638 3339.4C359.638 3326.3 349.938 3313.4 347.938 3298.8C347.338 3294.7 347.438 3290.3 349.638 3286.5C351.838 3282.7 356.438 3279.7 361.338 3280C369.638 3280.4 373.738 3288.5 375.938 3295.2C383.138 3317 390.238 3338.7 397.438 3360.5C399.638 3367 400.138 3374.7 404.238 3380.7C409.138 3387.7 416.038 3386.3 418.238 3377.9C420.138 3371.2 393.838 3289.1 394.038 3289Z" fill="#FFDF00"/>
<path d="M872.238 3560.3C867.538 3576.4 862.938 3592.5 858.238 3608.6C853.138 3589.8 848.138 3571.1 843.038 3552.3C841.138 3575.7 839.238 3599.2 837.338 3622.6C829.038 3594.6 812.138 3569.1 789.538 3550.5C792.138 3574.2 794.838 3597.9 797.438 3621.6C780.538 3606.9 763.638 3592.3 746.638 3577.6C759.538 3603 772.438 3628.3 785.238 3653.7C764.138 3631.4 734.038 3617.8 703.338 3616.5C724.838 3635.1 746.338 3653.7 767.838 3672.3C781.438 3684 795.438 3696.1 812.638 3701.5C825.538 3705.6 843.038 3705.5 854.238 3696.7C862.938 3689.9 864.638 3673.9 867.838 3663.9C878.438 3630.7 880.138 3594.4 872.238 3560.3Z" fill="#FFDF00"/>
<path d="M705.638 3386.9C736.338 3370.7 776.238 3375.9 803.238 3397.6C830.238 3419.3 843.838 3455.8 839.938 3490.2C823.538 3486.3 809.138 3476.2 797.538 3464.1C785.938 3452 776.638 3437.7 767.538 3423.6C771.938 3441.6 776.438 3459.9 776.738 3478.5C777.038 3497.1 772.838 3516.3 761.538 3531C744.838 3520.3 734.238 3501.9 728.938 3482.8C723.638 3463.7 723.138 3443.6 722.638 3423.8C722.838 3431.3 703.838 3447.2 698.638 3452.1C693.538 3456.9 675.038 3475.7 667.538 3474C658.938 3472.1 662.638 3450.5 663.838 3444.3C665.938 3433 670.538 3422.2 677.038 3412.7C684.438 3402 694.138 3393 705.638 3386.9Z" fill="#ACB8DE"/>
<path d="M644.138 2752.7C645.538 2744.9 652.438 2739.1 660.038 2736.8C667.638 2734.5 675.638 2734.9 683.538 2735.3C689.038 2735.6 694.938 2736.1 698.938 2739.9C702.938 2743.6 702.938 2751.7 697.738 2753.5C711.738 2758.3 725.038 2764.9 737.338 2773.2C741.138 2775.7 745.038 2778.8 746.238 2783.2C747.438 2787.6 744.038 2793.3 739.538 2792.6C747.738 2802.4 755.438 2812.6 763.538 2822.4C766.338 2825.8 769.238 2829.2 770.638 2833.3C772.038 2837.4 771.738 2842.5 768.738 2845.6C765.738 2848.8 759.738 2848.9 757.338 2845.2C758.538 2854 759.738 2862.9 760.938 2871.7C761.838 2878.3 762.038 2886.5 756.238 2889.9C754.238 2891.1 751.838 2891.4 749.738 2892.3C744.938 2894.5 742.238 2899.7 740.638 2904.7C738.938 2909.7 737.838 2915.1 734.538 2919.2C731.338 2923.4 725.038 2925.9 720.638 2922.9C718.938 2918.4 715.338 2912.8 710.838 2914.4C709.338 2914.9 708.138 2916.2 706.838 2917.1C702.738 2919.7 696.938 2917.7 693.938 2913.8C690.938 2909.9 690.238 2904.8 690.338 2899.9C690.438 2888.1 694.438 2876.4 701.638 2867C698.838 2869.5 693.938 2867.1 692.738 2863.5C691.538 2859.9 692.738 2856 694.038 2852.4C697.138 2843.5 700.238 2834.6 703.338 2825.8C703.038 2829.8 696.638 2830.3 694.138 2827.2C691.638 2824.1 691.938 2819.7 692.338 2815.7C693.338 2805.8 694.338 2795.9 695.438 2786C691.738 2786.6 688.438 2789.2 687.138 2792.6C687.838 2796.3 688.138 2793.8 684.438 2794.4C680.738 2795 677.038 2793.1 674.538 2790.3C672.038 2787.5 670.738 2783.9 669.838 2780.3C668.838 2776.7 668.238 2773 666.938 2769.5C666.138 2767.5 665.138 2765.6 663.538 2764.3C661.938 2763 659.638 2762.3 657.638 2763.1C656.538 2763.6 655.738 2764.4 654.738 2765C651.738 2766.7 647.638 2765.6 645.438 2762.8C642.938 2760.3 643.538 2756.1 644.138 2752.7Z" fill="#36C7C1"/>
<path d="M546.83 1115.8C544.93 1120.3 544.03 1125.7 546.53 1129.8C549.93 1135.4 557.63 1136.1 564.23 1136.1C569.13 1136.1 574.13 1136.2 579.03 1136.2C583.93 1136.2 589.33 1136.1 593.03 1132.8C597.03 1129.2 597.43 1122.9 596.33 1117.6C595.23 1112.1 592.73 1106.8 588.83 1102.7C574.63 1088.1 553.73 1099.6 546.83 1115.8Z" fill="#8AAA9A"/>
<path d="M754.938 293.1C752.938 297.8 751.938 303.6 754.638 308C758.338 313.9 766.438 314.6 773.438 314.7C778.638 314.8 783.938 314.8 789.138 314.9C794.338 315 800.138 314.8 803.938 311.3C808.238 307.4 808.538 300.8 807.438 295.2C806.238 289.3 803.638 283.7 799.538 279.4C784.538 263.7 762.338 276 754.938 293.1Z" fill="#A38D6F"/>
<path d="M330.011 157.944C330.011 159.544 330.411 161.344 331.711 162.144C332.411 162.544 333.211 162.744 334.011 162.844C345.011 164.344 356.111 165.144 367.211 165.144C369.511 165.144 371.811 165.144 373.911 164.444C376.111 163.744 378.111 162.244 378.911 160.144C380.111 157.044 378.211 153.444 375.611 151.544C372.911 149.644 369.511 148.944 366.311 148.344C363.111 147.744 359.711 147.044 357.011 145.044C353.011 142.144 351.111 136.744 346.611 134.744C343.511 133.344 339.511 133.944 337.011 136.344C334.111 139.144 335.011 142.444 333.911 145.844C332.411 150.144 329.811 152.944 330.011 157.944Z" fill="#D8BF8B"/>
</g>
</svg>
