<svg width="510" height="2770" viewBox="0 0 510 2770" fill="none" xmlns="http://www.w3.org/2000/svg">
<mask id="mask0" mask-type="alpha" maskUnits="userSpaceOnUse" x="0" y="0" width="510" height="2770">
<rect width="510" height="2770" fill="#C4C4C4"/>
</mask>
<g mask="url(#mask0)">
<path d="M353.598 2711.55C355.406 2710 357.472 2707.54 356.181 2705.48C355.277 2703.93 352.953 2703.8 351.145 2704.19C342.366 2705.61 334.49 2711.8 331.004 2720.07C327.518 2728.33 328.551 2738.27 333.715 2745.5C338.88 2752.73 347.788 2757.25 356.697 2756.74C358.634 2756.61 360.7 2756.22 362.12 2754.93C363.54 2753.64 363.798 2751.05 362.378 2749.76C360.57 2748.21 357.084 2749.38 355.922 2747.31C355.148 2745.76 356.439 2743.95 357.988 2743.31C359.538 2742.66 361.345 2742.53 362.894 2741.89C364.444 2741.24 365.864 2739.43 365.089 2737.89C364.444 2736.59 362.636 2736.34 361.216 2736.59C359.667 2736.85 356.439 2738.27 354.889 2737.5C354.244 2737.11 353.857 2736.34 353.986 2735.56C354.244 2734.14 355.793 2733.5 357.214 2733.37C360.57 2733.11 364.573 2732.59 365.089 2728.33C365.348 2726.14 363.54 2723.81 361.474 2723.94C360.054 2724.07 358.892 2725.1 357.859 2726.01C356.826 2726.91 355.535 2727.81 354.115 2727.81C352.695 2727.81 351.403 2726.01 352.307 2724.84C354.631 2724.46 357.084 2723.94 358.892 2722.39C360.57 2720.71 360.958 2717.49 359.021 2716.19C356.697 2714.64 353.986 2717.49 351.92 2716.45C348.95 2714.77 352.436 2712.58 353.598 2711.55Z" fill="#FFD7CC"/>
<path d="M322.51 2366.02C323.414 2368.48 322.639 2371.19 321.219 2372.99C319.799 2374.8 317.862 2375.96 315.925 2377C301.594 2384.74 286.229 2389.91 270.348 2392.23C264.022 2393.14 257.05 2393.39 251.756 2388.62C248.27 2385.52 246.204 2380.61 245.43 2375.71C244.655 2370.8 245.042 2365.76 245.688 2360.99C247.754 2346.27 252.789 2332.32 260.278 2320.58C261.44 2318.9 262.602 2317.09 264.28 2316.19C265.959 2315.28 268.283 2315.41 269.574 2317.22C271.381 2319.54 270.478 2323.16 269.445 2325.87C265.959 2335.04 262.473 2344.2 258.987 2353.37C261.44 2346.79 266.475 2340.2 270.348 2334.65C274.609 2328.58 279.257 2316.83 286.617 2315.15C294.363 2313.47 289.715 2326.13 288.037 2329.87C285.713 2335.42 282.485 2340.46 279.386 2345.49C276.288 2350.53 273.06 2355.56 269.961 2360.47C278.353 2349.37 286.746 2338.26 295.138 2327.16C297.333 2324.19 299.786 2321.09 302.885 2319.8C306.113 2318.38 310.373 2319.28 312.31 2322.9C313.73 2325.61 313.472 2329.1 312.181 2331.68C311.019 2334.26 308.953 2336.33 307.145 2338.26C297.72 2347.69 288.424 2357.11 278.999 2366.54C285.842 2367.31 292.039 2362.92 297.333 2358.15C302.627 2353.37 307.662 2347.82 314.118 2345.75C315.925 2345.11 317.991 2344.85 319.798 2345.49C321.606 2346.14 323.414 2347.95 323.801 2350.27C324.317 2354.14 320.961 2356.6 318.12 2358.28C308.824 2363.44 299.528 2368.61 290.232 2373.64C287.391 2375.19 283.905 2376.09 281.581 2378.55C278.87 2381.39 280.032 2384.36 284.034 2384.61C287.391 2385 322.51 2365.89 322.51 2366.02Z" fill="#E2F1DD"/>
<path d="M302.47 396.95C297.693 396.433 292.528 396.433 288.268 398.499C283.878 400.565 280.521 405.342 281.425 410.119C282.07 413.605 284.911 416.575 284.911 420.19C284.911 423.289 282.845 426.129 281.167 428.711C279.488 431.423 278.197 434.78 279.617 437.62C281.296 440.719 285.427 441.106 288.913 441.364C292.399 441.623 296.66 442.914 297.306 446.4C297.693 448.724 296.402 451.435 297.822 453.243C298.855 454.534 300.663 454.663 302.341 454.663C310.733 454.276 318.738 450.402 325.194 444.98C331.391 439.815 352.178 418.512 343.14 409.861C339.525 406.375 330.358 404.567 325.71 402.76C318.48 399.661 310.475 397.724 302.47 396.95Z" fill="#E2F1DD"/>
<path d="M143.352 2175.93C120.973 2174.67 102.184 2190.72 92.0923 2209.36C91.1583 2211.22 90.1167 2213.15 90.3642 2215.16C90.6117 2217.17 92.3274 2219.28 94.3331 2219.03C95.7658 2218.86 96.9133 2217.78 97.7744 2216.75C102.975 2211.28 107.854 2205.56 113.127 2200.19C116.283 2197.01 119.796 2194.37 123.31 2191.72C126.393 2189.36 129.155 2186.75 132.488 2185C139.369 2181.36 145.675 2178.72 153.658 2180.7C155.698 2181.21 157.881 2182.39 158.057 2184.29C158.233 2186.19 156.332 2187.76 154.506 2188.05C152.571 2188.4 150.71 2187.93 148.848 2187.93C146.52 2187.93 145.086 2189.03 143.187 2190.14C120.784 2203.79 102.276 2223.06 90.2791 2246.53C89.0579 2248.89 87.9789 2251.93 89.5869 2254.12C90.9805 2255.98 93.7376 2256.17 95.8877 2255.2C97.9663 2254.13 99.5449 2252.31 100.944 2250.45C110.956 2237.29 121.146 2224.16 131.158 2211C135.356 2205.42 140.45 2200.02 146.364 2196.09C147.332 2195.45 148.264 2194.98 149.339 2194.73C150.413 2194.49 151.666 2194.74 152.453 2195.46C153.633 2196.53 153.594 2198.57 152.84 2200C152.085 2201.43 150.651 2202.54 149.432 2203.51C144.915 2206.97 142.078 2211.8 138.741 2216.35C135.152 2221.21 131.671 2226 128.083 2230.87C123.346 2237.27 118.573 2243.85 116.377 2251.51C114.864 2256.7 114.675 2263.18 117.031 2268.13C119.386 2273.07 122.757 2270.21 124.517 2266.56C126.205 2263.27 127.822 2259.87 129.618 2256.51C133.138 2249.68 136.587 2242.73 140.107 2235.9C142.873 2230.5 145.71 2225.2 148.297 2219.76C150.668 2214.93 152.109 2209.17 153.8 2204.02C154.232 2202.8 154.664 2201.58 155.346 2200.51C156.207 2199.47 157.389 2198.69 158.642 2198.94C160.11 2199.05 161.218 2200.48 161.503 2201.84C161.858 2203.31 161.749 2204.78 161.46 2206.21C160.556 2212.08 158.935 2217.81 156.885 2223.36C155.842 2226.22 154.657 2228.87 153.471 2231.52C152.357 2233.81 151.923 2236.42 151.418 2238.93C149.036 2250.74 146.475 2262.52 144.093 2274.33C143.624 2276.66 143.154 2279.45 144.941 2281.21C146.479 2282.82 149.129 2282.61 151.029 2281.5C152.928 2280.4 154.077 2278.39 155.19 2276.57C161.689 2265.58 166.614 2253.63 169.856 2241.25C171.477 2235.05 172.275 2228.79 173.359 2222.49C174.406 2216.83 172.519 2210.03 171.812 2204.29C171.636 2202.4 171.532 2200.14 173.216 2199.18C174.901 2198.21 176.976 2199.47 178.155 2201.01C182.051 2205.71 181.399 2210.33 180.925 2215.91C180.633 2219.21 181.165 2222.57 181.053 2225.9C180.869 2229.12 180.613 2232.24 180.25 2235.43C178.87 2247.81 177.561 2260.31 176.181 2272.7C175.709 2276.89 176.416 2282.62 180.605 2283.09C183.505 2283.49 185.729 2280.77 187.273 2278.19C193.663 2267.75 197.406 2255.65 198.285 2243.44C198.796 2237.21 198.555 2231.01 197.634 2224.96C197.209 2221.99 196.605 2218.98 195.786 2216.11C195.073 2213.64 195.042 2211.03 192.896 2209.2C191.537 2208.09 189.819 2207.37 188.604 2206C187.388 2204.64 186.89 2202.49 188.003 2201.13C188.756 2200.17 190.296 2199.92 191.513 2200.35C192.73 2200.78 193.696 2201.54 194.625 2202.47C203.386 2210.75 205.119 2224.33 204.206 2235.79C203.585 2243.48 202.069 2251 202.666 2258.67C202.664 2259.6 202.913 2260.67 203.772 2261.03C204.523 2261.46 205.419 2261.18 206.029 2260.46C206.603 2259.93 206.855 2259.14 207.214 2258.28C210.452 2248.69 214.477 2239.81 214.994 2229.39C215.438 2220.26 213.448 2210.73 207.945 2203.38C200.262 2192.99 190.805 2195.09 180.391 2190.84C167.615 2185.85 158.176 2176.77 143.352 2175.93Z" fill="#FFD7CC"/>
<path d="M165.224 2675.14L162.512 2670.36L131.913 2689.08L133.72 2715.16L114.353 2722L121.971 2679.14L139.53 2666.1L137.335 2654.09L159.284 2645.31L157.348 2640.15L136.302 2648.54L133.849 2634.72L128.556 2635.76L133.72 2663.52L119.905 2673.97L102.346 2655.9L116.161 2626.72L108.543 2620.39L126.49 2600.9L122.616 2597.02L104.412 2616.91L92.0169 2606.71L88.7891 2610.97L109.576 2628.27L98.3434 2651.9L94.3409 2647.64L73.4247 2640.66L71.8753 2645.96L91.5004 2652.54L100.409 2661.58L59.6097 2665.2L53.2832 2641.83L48.2478 2643.25L54.4452 2666.36L31.205 2674.75L33.0125 2680.04L58.3185 2670.88L82.979 2668.68L79.1056 2678.88L84.141 2680.95L88.9182 2668.16L105.315 2666.74L116.677 2678.49L110.996 2710.13L88.4017 2697.09L71.3589 2683.66L68.2602 2688.05L82.4626 2699.28L67.3564 2710.26L70.4551 2714.77L87.1106 2702.64L110.093 2715.81L106.219 2736.72L111.513 2737.76L113.191 2728.33L139.272 2719.16L137.594 2694.76L160.576 2704.06L162.512 2698.89L140.692 2690.11L165.224 2675.14Z" fill="#FFCC33"/>
<path d="M292.004 2506.63C296.135 2496.69 291.358 2485.58 289.68 2474.87C285.548 2448.92 302.978 2421.41 328.026 2413.93C327.122 2409.41 321.958 2406.57 317.31 2406.95C312.662 2407.34 308.53 2410.05 305.044 2413.15C289.809 2425.93 279.996 2445.17 278.576 2465.05C277.027 2435.36 290.971 2405.28 314.469 2387.2C311.5 2383.84 308.401 2380.49 305.431 2377C273.67 2404.11 259.08 2449.82 269.409 2490.36C256.756 2457.18 259.209 2418.7 275.994 2387.46C266.827 2383.71 256.11 2390.17 251.721 2398.95C247.331 2407.73 247.718 2418.06 248.493 2427.87C250.43 2449.04 254.303 2469.96 260.242 2490.36C254.045 2473.96 247.718 2457.44 237.389 2443.36C227.06 2429.29 212.083 2417.67 194.782 2415.22C192.716 2421.93 190.78 2428.52 188.714 2435.23C191.942 2431.36 197.752 2430.45 202.529 2431.74C207.306 2433.16 211.438 2436.39 215.182 2439.75C231.579 2454.6 244.361 2473.32 251.979 2493.98C238.551 2469.96 209.114 2455.89 182 2460.79C182.646 2466.22 183.291 2471.51 183.937 2476.93C183.549 2473.71 213.891 2478.74 216.473 2479.64C227.06 2483.13 236.873 2489.2 244.878 2497.07C251.075 2503.14 254.948 2512.31 263.083 2515.92C273.67 2520.57 287.227 2518.12 292.004 2506.63Z" fill="#8BCBCA"/>
<path d="M325.452 2588.35C328.034 2586.02 327.905 2581.89 326.872 2578.79C325.839 2575.57 323.774 2572.72 322.353 2569.63C319.255 2562.78 319.513 2554.52 323.128 2547.94C325.839 2542.77 330.487 2538.64 332.811 2533.22C335.135 2527.79 333.973 2519.92 328.293 2518.24C324.29 2516.95 319.771 2519.66 317.705 2523.27C315.64 2526.89 315.123 2531.28 314.736 2535.54C311.508 2528.31 308.28 2520.95 304.923 2513.72C305.569 2508.43 307.118 2505.46 307.764 2500.16C308.28 2496.16 308.797 2492.03 307.505 2488.16C306.343 2484.28 302.987 2480.8 298.984 2480.67C283.62 2480.15 294.078 2502.1 297.822 2507.91C295.885 2505.07 293.432 2502.62 290.463 2500.94C288.913 2500.03 287.364 2499.26 285.685 2499.13C281.167 2498.74 278.455 2504.04 279.23 2508.17C280.005 2512.17 283.62 2515.01 286.977 2517.34C292.658 2521.34 298.209 2525.34 303.89 2529.34C303.761 2530.12 303.245 2530.63 303.116 2531.41C297.176 2528.57 291.108 2525.86 285.169 2523.02C282.458 2521.73 278.713 2520.69 276.906 2523.02C275.356 2524.95 276.518 2528.05 278.584 2529.47C280.65 2530.89 283.232 2531.28 285.685 2531.8C287.622 2532.18 289.43 2532.83 291.366 2532.96C293.432 2533.09 295.369 2533.6 297.176 2534.51C300.792 2536.19 304.019 2538.9 306.473 2542C310.604 2547.42 312.799 2554 314.994 2560.46C316.672 2565.37 318.609 2570.14 320.675 2574.92C322.095 2579.05 325.065 2583.96 325.452 2588.35Z" fill="#00B590"/>
<path d="M171.55 2762.52C175.036 2762.91 178.006 2760.07 179.684 2757.35C181.363 2754.39 182.137 2751.03 183.557 2747.93C186.656 2741.09 192.983 2735.79 200.342 2734.11C206.023 2732.69 212.22 2733.47 217.772 2731.53C223.324 2729.6 228.489 2723.53 226.035 2718.23C224.228 2714.36 219.322 2712.81 215.19 2713.59C211.058 2714.36 207.443 2716.94 204.086 2719.4C207.443 2712.17 210.671 2704.81 214.028 2697.58C218.418 2694.48 221.646 2693.83 226.035 2690.73C229.392 2688.41 232.749 2686.08 234.944 2682.6C237.01 2679.11 237.526 2674.34 234.944 2671.24C225.132 2659.36 215.706 2681.69 213.77 2688.41C214.674 2685.05 214.803 2681.57 214.157 2678.21C213.899 2676.53 213.253 2674.85 212.22 2673.43C209.509 2669.82 203.699 2671.37 201.246 2674.59C198.664 2677.82 199.051 2682.34 199.438 2686.47C200.213 2693.31 200.859 2700.29 201.633 2707.13C200.988 2707.52 200.213 2707.52 199.567 2707.9C197.631 2701.58 195.823 2695.25 193.886 2688.93C192.983 2686.08 191.304 2682.6 188.335 2682.73C185.882 2682.86 184.332 2685.83 184.59 2688.28C184.849 2690.73 186.398 2692.93 187.56 2695.12C188.593 2696.93 189.238 2698.48 190.53 2700.16C191.692 2701.84 192.595 2703.64 193.241 2705.58C194.403 2709.45 194.532 2713.59 193.757 2717.46C192.466 2724.17 188.98 2730.11 185.623 2736.05C183.041 2740.57 180.846 2745.22 178.522 2749.87C176.327 2753.87 174.649 2759.16 171.55 2762.52Z" fill="#00B590"/>
<path d="M257.295 2536.75C271.756 2548.76 277.566 2569.67 272.272 2587.75C267.108 2605.82 251.744 2620.15 233.668 2625.45C232.248 2616.41 234.184 2607.24 237.929 2598.85C241.544 2590.46 246.708 2582.97 251.873 2575.48C243.739 2581.42 235.605 2587.49 226.438 2591.49C217.271 2595.49 206.683 2597.43 197 2594.85C198.808 2584.26 205.78 2575.09 214.301 2568.51C222.693 2561.92 232.635 2557.41 242.448 2553.02C238.703 2554.69 226.825 2548.5 223.339 2546.95C219.853 2545.4 206.683 2540.1 205.909 2535.97C205.005 2531.33 216.625 2528.61 219.982 2527.97C226.05 2526.68 232.377 2526.68 238.574 2527.97C245.288 2529.26 251.873 2532.23 257.295 2536.75Z" fill="#8BCBCA"/>
<path d="M421.708 2196.76C421.321 2186.43 427.131 2175.07 437.202 2172.49C444.432 2170.68 452.566 2174.04 456.827 2180.11C461.217 2186.17 461.862 2194.57 459.151 2201.41C456.44 2208.38 450.629 2213.93 443.787 2216.9C441.979 2217.68 440.042 2218.32 438.364 2219.61C436.814 2220.91 435.652 2222.97 436.298 2224.91C437.073 2227.49 440.042 2228.39 442.754 2228.39C448.564 2228.39 453.986 2225.3 459.151 2222.71C464.445 2220.13 470.513 2218.07 476.065 2220.13C482.004 2222.33 485.361 2229.17 485.232 2235.5C485.102 2246.47 475.677 2256.54 464.703 2257.44C453.728 2258.35 442.883 2249.7 441.075 2238.85C440.817 2237.43 440.688 2235.88 439.913 2234.72C439.138 2233.56 437.331 2232.78 436.169 2233.82C435.394 2234.46 435.265 2235.5 435.136 2236.53C433.974 2246.99 428.809 2257.57 419.643 2262.87C410.476 2268.16 397.177 2266.74 391.109 2257.96C384.782 2248.92 388.656 2235.11 397.823 2228.78C401.954 2225.81 406.99 2224.26 412.025 2223.88C414.607 2223.62 417.319 2223.75 419.901 2224.13C421.579 2224.39 425.969 2226.2 427.389 2225.68C432.296 2223.75 426.485 2215.74 425.323 2212.77C423.387 2207.74 421.837 2202.44 421.708 2196.76Z" fill="#FF863A"/>
<path d="M51.0881 2498.1C45.9236 2489.06 45.7945 2476.41 53.5412 2469.43C59.0931 2464.4 67.8727 2463.62 74.4574 2466.98C81.0422 2470.34 85.5611 2477.44 86.4649 2484.8C87.3687 2492.16 84.7864 2499.78 80.1384 2505.72C78.8472 2507.26 77.427 2508.81 76.6523 2510.62C75.8777 2512.43 75.8777 2514.88 77.2979 2516.3C79.1055 2518.24 82.3333 2517.72 84.6573 2516.43C89.8218 2513.72 93.0496 2508.43 96.5356 2503.78C100.022 2499.13 104.411 2494.35 110.222 2493.71C116.548 2492.93 122.616 2497.45 125.457 2503C130.492 2512.82 126.877 2526.11 117.452 2531.92C108.027 2537.73 94.599 2535.28 87.8851 2526.5C86.9813 2525.34 86.2067 2524.05 84.9155 2523.4C83.6244 2522.76 81.6877 2522.89 81.1713 2524.31C80.7839 2525.21 81.1713 2526.24 81.5586 2527.15C85.432 2536.96 85.6902 2548.71 80.1384 2557.75C74.5865 2566.79 62.0626 2571.56 52.6374 2566.66C42.8249 2561.49 39.8553 2547.55 45.0198 2537.73C47.3438 2533.22 50.959 2529.47 55.2197 2526.76C57.4146 2525.34 59.8677 2524.18 62.3209 2523.27C63.9993 2522.63 68.6474 2522.37 69.6803 2521.08C73.1663 2517.21 64.2576 2512.69 61.8044 2510.62C57.6728 2507.01 53.7995 2502.87 51.0881 2498.1Z" fill="#FFD7CC"/>
<path d="M312.799 2689.44C305.956 2694.48 299.242 2700.55 296.143 2708.42C293.045 2716.3 294.207 2726.63 301.05 2731.79C306.085 2735.54 313.315 2736.18 317.576 2740.7C321.449 2744.7 321.837 2750.77 322.87 2756.32C323.903 2761.87 326.227 2767.94 331.52 2769.75C337.459 2771.69 343.269 2767.3 348.176 2763.55C353.082 2759.81 360.183 2756.45 365.089 2760.2C368.446 2762.65 369.867 2767.81 373.869 2768.59C376.71 2769.1 379.421 2767.17 381.487 2765.1C392.074 2754.64 397.884 2740.05 399.821 2725.21C401.757 2711.13 403.565 2658.58 381.487 2658.07C372.707 2657.81 358.634 2666.33 350.371 2669.43C336.943 2674.08 324.29 2680.92 312.799 2689.44Z" fill="#E2F1DD"/>
<path d="M381.099 2557.62C397.884 2548.84 419.704 2551.55 434.552 2563.43C449.4 2575.31 456.759 2595.32 454.693 2614.04C445.785 2611.85 437.909 2606.42 431.453 2599.71C425.127 2593.12 420.091 2585.25 415.056 2577.5C417.509 2587.31 419.962 2597.38 420.091 2607.58C420.22 2617.78 418.026 2628.24 411.699 2636.38C402.532 2630.57 396.722 2620.5 393.882 2610.04C391.041 2599.58 390.654 2588.61 390.395 2577.76C390.525 2581.89 380.067 2590.54 377.226 2593.25C374.386 2595.84 364.315 2606.16 360.183 2605.26C355.535 2604.23 357.472 2592.35 358.117 2588.99C359.279 2582.8 361.733 2576.86 365.348 2571.69C369.479 2565.75 374.902 2560.85 381.099 2557.62Z" fill="#ACB8DE"/>
<path d="M282.587 1830.74C285.685 1835 285.169 1841.07 282.845 1845.72C280.521 1850.37 276.518 1853.98 272.645 1857.6C269.934 1860.05 266.964 1862.63 263.349 1862.76C259.734 1862.89 255.86 1859.15 257.539 1855.92C248.759 1860.31 239.334 1863.54 229.78 1865.6C226.81 1866.25 223.582 1866.64 220.871 1865.22C218.16 1863.8 217.127 1859.41 219.58 1857.73C211.188 1857.08 202.666 1855.92 194.274 1855.27C191.433 1855.02 188.335 1854.76 185.752 1853.6C183.17 1852.43 180.846 1849.85 180.717 1847.01C180.588 1844.17 183.299 1841.2 186.14 1841.72C181.363 1838.23 176.585 1834.62 171.808 1831.13C168.193 1828.55 164.191 1824.67 165.353 1820.41C165.74 1818.86 166.773 1817.57 167.289 1816.15C168.451 1812.8 167.289 1809.18 165.611 1806.08C164.062 1802.98 161.996 1799.88 161.479 1796.4C160.963 1792.91 162.77 1788.78 166.127 1788.01C169.097 1789.3 173.358 1790.2 174.649 1787.23C175.165 1786.2 175.036 1785.17 175.294 1784.13C176.069 1781.03 179.684 1779.1 182.912 1779.48C186.14 1779.87 188.851 1781.94 191.175 1784.26C196.727 1789.81 200.471 1797.17 201.504 1804.92C201.633 1802.47 205.119 1801.18 207.314 1802.34C209.638 1803.37 210.8 1805.82 211.962 1808.15C214.803 1813.7 217.514 1819.38 220.354 1824.93C218.676 1822.87 221.387 1819.64 223.97 1819.9C226.552 1820.16 228.618 1822.35 230.296 1824.42C234.557 1829.45 238.818 1834.62 242.949 1839.65C244.369 1837.59 244.628 1834.87 243.724 1832.55C241.658 1831.13 242.691 1832.42 244.111 1830.48C245.531 1828.42 248.114 1827.51 250.696 1827.64C253.149 1827.77 255.473 1828.81 257.668 1830.1C259.863 1831.39 261.929 1832.68 264.124 1833.71C265.415 1834.23 266.835 1834.74 268.126 1834.49C269.417 1834.23 270.837 1833.58 271.354 1832.29C271.612 1831.52 271.612 1830.74 271.87 1829.97C272.516 1827.77 274.969 1826.35 277.164 1826.61C279.488 1826.61 281.296 1828.93 282.587 1830.74Z" fill="#36C7C1"/>
<path d="M346.497 1520.23C343.14 1521.52 339.783 1525.39 341.849 1528.36C343.011 1530.17 345.593 1530.56 347.788 1530.68C357.472 1531.46 367.155 1532.36 376.968 1533.14C384.585 1533.78 392.332 1534.43 399.95 1533.27C407.567 1532.11 415.056 1529.01 420.091 1523.07C420.866 1522.16 421.641 1521 421.77 1519.71C421.77 1517.64 419.833 1516.1 417.767 1515.84C415.701 1515.58 413.765 1516.22 411.699 1516.74C403.694 1518.94 395.173 1519.32 387.168 1517.64C381.874 1516.61 376.71 1514.67 371.287 1513.64C360.958 1512.09 355.406 1517 346.497 1520.23Z" fill="#767777"/>
<path d="M400.208 419.803C400.208 421.352 400.595 423.16 401.887 423.934C402.532 424.322 403.307 424.451 404.081 424.58C414.927 426.129 425.901 426.904 436.876 426.904C439.071 426.904 441.395 426.904 443.461 426.129C445.526 425.484 447.592 423.934 448.367 421.868C449.529 418.77 447.721 415.284 445.01 413.347C442.299 411.41 439.071 410.765 435.843 410.119C432.615 409.474 429.258 408.828 426.676 406.891C422.803 404.051 420.866 398.757 416.347 396.691C413.248 395.271 409.375 395.917 406.922 398.241C404.081 400.952 404.856 404.309 403.823 407.537C402.532 412.056 400.079 414.767 400.208 419.803Z" fill="#D8BF8B"/>
<path d="M381.099 924.89C386.135 927.472 393.107 929.667 396.464 925.148C399.046 921.662 397.239 916.756 395.044 913.141C384.327 895.323 364.057 883.703 343.27 883.316C322.482 882.928 301.824 893.903 290.463 911.204C279.101 928.634 277.422 951.874 286.073 970.725C288.009 974.856 290.592 978.988 294.723 980.796C298.855 982.732 304.665 981.183 306.085 976.922C307.764 971.629 302.212 965.044 305.698 960.783C308.151 957.685 313.315 958.846 316.285 961.687C319.126 964.398 320.804 968.272 323.644 970.983C326.485 973.694 331.52 975.115 334.232 972.274C336.556 969.692 335.652 965.689 333.844 962.72C331.908 959.621 325.968 953.682 326.614 949.809C326.872 948.001 328.293 946.581 329.971 946.064C333.199 945.29 336.039 948.13 337.459 951.1C340.946 958.201 345.464 966.464 355.148 963.753C360.054 962.462 363.54 956.522 361.345 952.004C359.925 949.034 356.697 947.485 353.857 945.935C351.016 944.386 347.788 942.578 346.756 939.48C345.723 936.381 348.305 932.12 351.533 933.024C354.373 937.801 357.601 942.837 362.636 945.032C367.672 947.226 375.031 945.29 376.064 939.867C377.355 933.411 368.963 930.055 369.479 924.632C369.996 917.531 377.872 923.211 381.099 924.89Z" fill="#FFD7CC"/>
</g>
</svg>
