<svg width="510" height="2770" viewBox="0 0 510 2770" fill="none" xmlns="http://www.w3.org/2000/svg">
<mask id="mask0" mask-type="alpha" maskUnits="userSpaceOnUse" x="0" y="0" width="510" height="2770">
<rect width="510" height="2770" fill="#C4C4C4"/>
</mask>
<g mask="url(#mask0)">
<path d="M89.0472 2719.61C89.1763 2717.16 88.9181 2714.06 86.594 2713.54C84.7865 2713.15 83.108 2714.7 82.0751 2716.12C76.9106 2723.35 75.7486 2733.3 79.1055 2741.56C82.4624 2749.82 90.2092 2756.15 98.9888 2757.57C107.768 2758.99 117.194 2755.89 123.133 2749.31C124.424 2747.89 125.586 2746.21 125.715 2744.27C125.715 2742.33 124.166 2740.27 122.229 2740.53C119.905 2740.78 118.227 2744.01 115.903 2743.37C114.224 2742.85 113.837 2740.65 114.482 2739.11C115.128 2737.56 116.29 2736.27 116.935 2734.59C117.581 2733.04 117.194 2730.84 115.644 2730.2C114.224 2729.68 112.804 2730.71 111.9 2732C110.996 2733.3 109.705 2736.65 108.027 2737.04C107.252 2737.3 106.477 2736.91 105.961 2736.39C105.186 2735.23 105.703 2733.68 106.606 2732.52C108.801 2729.94 111.254 2726.84 108.672 2723.48C107.381 2721.8 104.412 2721.42 102.991 2722.97C102.088 2724 101.958 2725.55 101.829 2726.97C101.7 2728.39 101.571 2729.94 100.538 2730.84C99.5053 2731.75 97.3104 2731.49 97.1812 2730.07C98.6015 2728.13 100.022 2726.07 100.022 2723.61C100.022 2721.29 97.9559 2718.71 95.6319 2719.22C92.9205 2719.87 92.9205 2723.74 90.7256 2724.39C88.1434 2725.16 88.9181 2721.16 89.0472 2719.61Z" fill="#FF863A"/>
<path d="M496.009 2358.74C496.655 2360.81 495.88 2363.13 494.589 2364.55C493.298 2365.97 491.619 2366.88 489.941 2367.78C477.546 2373.72 464.248 2377.46 450.691 2378.62C445.397 2379.14 439.329 2379.01 435.197 2374.75C432.486 2372.04 430.937 2367.78 430.42 2363.65C429.904 2359.52 430.42 2355.25 431.324 2351.25C433.777 2338.86 438.554 2327.37 445.397 2317.68C446.43 2316.26 447.463 2314.84 449.012 2314.2C450.433 2313.55 452.369 2313.81 453.402 2315.23C454.823 2317.3 453.919 2320.27 452.886 2322.59C449.529 2330.21 446.172 2337.7 442.815 2345.31C445.268 2339.76 449.787 2334.6 453.273 2330.08C457.147 2325.04 461.536 2315.36 467.863 2314.33C474.448 2313.29 469.929 2323.75 468.508 2326.85C466.184 2331.5 463.344 2335.5 460.503 2339.63C457.663 2343.76 454.693 2347.77 451.853 2351.9C459.471 2342.86 467.088 2333.82 474.706 2324.91C476.772 2322.46 478.837 2320.01 481.678 2318.97C484.518 2317.94 488.004 2318.97 489.425 2322.07C490.457 2324.4 490.07 2327.37 488.908 2329.56C487.746 2331.76 486.068 2333.31 484.26 2334.86C475.868 2342.34 467.605 2349.96 459.212 2357.45C465.022 2358.35 470.445 2355 475.093 2351.12C479.741 2347.38 484.26 2342.86 489.812 2341.31C491.361 2340.92 493.04 2340.67 494.718 2341.31C496.268 2341.96 497.688 2343.63 497.817 2345.57C498.075 2348.8 495.106 2350.87 492.652 2352.03C484.518 2355.9 476.513 2359.9 468.379 2363.78C465.926 2364.94 462.957 2365.58 460.891 2367.52C458.438 2369.72 459.341 2372.43 462.698 2372.81C465.41 2373.2 496.009 2358.74 496.009 2358.74Z" fill="#ACB8DE"/>
<path d="M175.134 2334.89C177.846 2330.76 181.848 2327.53 184.689 2323.53C187.529 2319.53 189.208 2313.85 186.367 2309.71C182.881 2304.42 174.489 2305.2 169.841 2309.46C165.193 2313.72 163.514 2320.17 161.965 2326.24C160.286 2333.08 158.608 2339.8 156.929 2346.64C155.638 2352.06 154.218 2357.74 155.509 2363.3C157.188 2371.04 163.772 2376.72 170.874 2380.47C192.177 2391.83 220.582 2388.09 238.141 2371.56C239.949 2369.75 241.756 2367.94 242.66 2365.49C243.564 2363.04 243.435 2360.2 241.756 2358.26C234.009 2349.74 221.486 2365.88 215.805 2369.62C213.352 2371.17 210.769 2372.72 207.929 2373.11C205.088 2373.63 201.861 2372.85 199.924 2370.66C197.471 2367.82 197.987 2363.17 200.053 2360.07C203.023 2355.68 209.091 2352.06 213.61 2349.48C216.063 2348.06 218.774 2346.9 220.969 2345.22C223.164 2343.54 225.101 2340.83 224.972 2337.99C224.843 2334.5 221.744 2331.79 218.387 2331.02C215.03 2330.24 211.544 2330.89 208.187 2331.79C199.407 2334.12 190.886 2337.6 183.01 2342.12C180.686 2343.41 175.392 2348.45 173.198 2346C170.874 2343.41 173.714 2336.96 175.134 2334.89Z" fill="#008753"/>
<path d="M285.298 2675.58C286.847 2665.12 288.526 2654.79 290.075 2644.34C294.723 2655.57 299.371 2666.8 304.019 2678.16C303.374 2663.45 302.599 2648.73 301.953 2634.01C309.442 2650.79 321.966 2665.25 337.459 2674.94C333.973 2660.48 330.358 2645.89 326.872 2631.43C338.621 2639.17 350.241 2646.92 361.991 2654.67C351.92 2639.95 341.849 2625.23 331.908 2610.51C346.885 2622.65 366.639 2628.71 385.747 2627.04C370.899 2617.22 356.052 2607.28 341.204 2597.47C331.778 2591.27 322.095 2584.95 310.991 2582.88C302.599 2581.33 291.754 2582.88 285.556 2589.21C280.779 2594.11 280.908 2604.18 279.746 2610.64C275.744 2632.33 277.68 2655.05 285.298 2675.58Z" fill="#FF863A"/>
<path d="M484.26 2749.05C475.093 2750.08 466.055 2750.98 456.888 2752.02C465.28 2745.56 473.802 2739.1 482.194 2732.65C469.928 2736.52 457.663 2740.4 445.397 2744.27C457.921 2734.2 467.217 2720.38 471.994 2705.15C460.503 2711.35 449.141 2717.67 437.65 2723.87C441.524 2712.25 445.526 2700.63 449.4 2689.01C439.2 2700.76 429 2712.51 418.8 2724.39C425.772 2709.02 426.418 2691.08 420.608 2675.19C415.572 2689.91 410.666 2704.63 405.631 2719.48C402.532 2728.78 399.304 2738.46 400.079 2748.14C400.724 2755.5 404.339 2764.41 411.182 2768.28C416.347 2771.25 424.868 2768.8 430.678 2768.41C449.787 2766.73 468.508 2760.02 484.26 2749.05Z" fill="#FFDF00"/>
<path d="M389.362 2548.41C404.727 2534.46 406.405 2511.48 400.595 2492.76C400.079 2490.95 399.304 2489.02 397.884 2487.85C396.464 2486.69 393.881 2486.43 392.719 2487.85C391.945 2488.89 391.945 2490.31 391.945 2491.6C392.203 2498.57 392.719 2505.54 392.849 2512.51C392.978 2516.65 392.332 2520.78 391.816 2524.78C391.299 2528.27 391.299 2531.88 390.266 2535.24C388.2 2542.08 385.876 2548.02 379.292 2552.02C377.742 2553.05 375.418 2553.7 373.998 2552.54C372.707 2551.38 372.836 2549.18 373.869 2547.76C374.902 2546.34 376.322 2545.31 377.613 2544.02C379.163 2542.47 379.421 2540.79 379.808 2538.85C385.36 2515.22 384.714 2490.31 376.968 2467.2C376.193 2464.87 374.902 2462.16 372.449 2461.77C370.383 2461.51 368.317 2463.19 367.672 2465.26C367.026 2467.32 367.284 2469.52 367.542 2471.71C369.737 2486.95 371.803 2502.18 373.998 2517.42C374.902 2523.88 375.16 2530.72 373.998 2537.17C373.869 2538.21 373.482 2539.24 372.965 2540.01C372.449 2540.92 371.416 2541.56 370.383 2541.56C368.834 2541.69 367.543 2540.27 367.026 2538.85C366.51 2537.43 366.768 2535.75 367.026 2534.33C367.672 2529.17 366.38 2524 365.477 2518.84C364.573 2513.42 363.798 2507.87 362.894 2502.44C361.732 2495.08 360.441 2487.72 356.826 2481.27C354.373 2476.88 350.241 2472.62 345.335 2470.94C340.558 2469.26 340.3 2473.39 341.462 2476.88C342.624 2480.11 343.657 2483.46 344.819 2486.69C347.143 2493.53 349.338 2500.25 351.662 2507.09C353.469 2512.38 355.148 2517.68 356.955 2522.97C358.634 2527.75 361.474 2532.4 363.798 2536.92C364.315 2537.95 364.96 2539.11 365.089 2540.27C365.218 2541.43 364.96 2542.73 363.927 2543.5C362.894 2544.4 361.216 2544.28 360.054 2543.5C358.892 2542.86 357.988 2541.69 357.214 2540.66C353.986 2536.27 351.145 2531.49 348.821 2526.46C347.659 2524 346.626 2521.42 345.593 2518.84C344.819 2516.52 343.269 2514.71 341.978 2512.64C335.781 2503.35 329.583 2494.05 323.386 2484.75C322.095 2482.95 320.546 2480.88 318.351 2480.88C316.285 2480.88 314.736 2482.69 314.219 2484.75C313.703 2486.82 314.219 2488.76 314.736 2490.69C317.705 2502.18 322.482 2513.16 328.551 2523.36C331.649 2528.39 335.264 2533.04 338.621 2537.82C341.72 2542.21 347.401 2545.31 351.662 2548.67C353.082 2549.7 354.502 2551.25 354.115 2552.93C353.598 2554.6 351.403 2555.12 349.596 2554.99C343.915 2554.47 341.333 2551.12 337.976 2547.12C336.039 2544.79 333.328 2542.98 331.262 2540.66C329.196 2538.47 327.389 2536.27 325.452 2533.95C318.092 2524.91 310.733 2516 303.374 2506.96C300.921 2503.99 296.66 2500.64 293.69 2503.09C291.624 2504.77 291.883 2507.99 292.528 2510.58C295.24 2521.68 300.791 2531.88 308.28 2540.53C312.024 2544.92 316.285 2548.79 320.933 2552.15C323.257 2553.83 325.581 2555.38 328.034 2556.67C330.1 2557.83 331.907 2559.51 334.49 2559.25C336.168 2559.12 337.718 2558.48 339.396 2558.48C341.074 2558.61 342.882 2559.64 343.011 2561.19C343.14 2562.35 342.366 2563.51 341.333 2564.03C340.3 2564.55 339.138 2564.67 337.976 2564.8C326.743 2565.19 316.672 2557.44 309.7 2549.44C305.052 2544.15 300.921 2538.21 295.627 2533.56C294.981 2533.04 294.207 2532.4 293.303 2532.65C292.528 2532.91 292.141 2533.69 292.141 2534.46C292.141 2535.24 292.528 2535.88 292.916 2536.66C297.176 2545.05 300.404 2553.57 306.86 2560.54C312.67 2566.74 320.158 2571.65 328.68 2572.81C340.558 2574.49 345.335 2566.87 354.889 2562.74C367.026 2558.09 379.163 2557.83 389.362 2548.41Z" fill="#D13355"/>
<path d="M66.5772 2287.51C73.9461 2276.25 88.6354 2270.54 101.841 2272.87C115.047 2275.19 126.521 2285.1 131.737 2297.55C125.446 2299.24 118.602 2298.57 112.342 2296.56C106.082 2294.55 100.303 2291.53 94.5762 2288.34C99.4023 2293.65 104.404 2299 107.996 2305.28C111.588 2311.55 113.72 2318.93 112.605 2326.02C104.958 2325.5 97.8569 2321.15 92.5049 2315.7C87.0908 2310.13 83.2501 2303.4 79.2963 2296.73C80.8384 2299.27 77.2556 2308.31 76.4276 2310.82C75.5996 2313.34 72.8023 2323.27 69.8885 2324.13C66.573 2325.07 63.78 2317.03 63.1145 2314.74C61.6814 2310.52 61.2159 2305.92 61.7402 2301.51C62.1912 2296.69 63.9093 2291.77 66.5772 2287.51Z" fill="#ACB8DE"/>
<path d="M326.181 2426.48C335.09 2424.93 344.256 2425.96 352.52 2429.45C354.715 2430.35 357.039 2431.52 358.588 2433.32C360.266 2435.13 361.17 2437.71 360.396 2440.04C359.492 2443.01 356.135 2444.69 352.907 2444.94C349.679 2445.2 346.71 2444.17 343.482 2443.78C333.153 2442.36 322.307 2446.36 315.464 2454.24C308.621 2462.12 306.297 2473.48 309.267 2483.42C310.042 2485.87 311.204 2488.45 313.399 2489.62C315.464 2490.78 318.176 2490.52 320.242 2489.49C322.307 2488.45 324.115 2486.78 325.793 2485.1C337.801 2472.7 346.451 2456.31 361.687 2447.91C363.752 2446.75 366.076 2445.72 368.271 2446.49C371.37 2447.53 372.532 2451.53 372.016 2454.88C370.079 2465.99 356.78 2471.15 351.745 2481.09C349.55 2485.36 349.163 2490.52 350.454 2495.04C351.229 2497.49 352.649 2500.2 355.231 2500.85C356.78 2501.24 358.459 2500.85 359.879 2500.33C366.335 2498.01 371.757 2492.71 374.211 2486.26C378.084 2476.45 375.243 2465.34 376.664 2454.88C377.051 2451.53 378.471 2447.78 381.699 2446.88C384.798 2446.11 388.026 2448.69 389.317 2451.66C391.382 2456.56 390.091 2462.12 388.671 2467.28C386.089 2477.09 383.507 2487.03 380.924 2496.85C379.762 2501.37 386.734 2504.72 391.383 2504.34C396.031 2503.95 400.033 2500.33 401.711 2496.07C403.39 2491.81 403.261 2486.9 402.357 2482.39C401.324 2477.87 399.646 2473.48 398.355 2469.09C396.289 2462.37 395.127 2455.27 394.998 2448.17C394.869 2443.39 395.901 2437.45 400.42 2435.91C402.744 2435.13 405.585 2435.78 407.522 2437.33C409.458 2438.88 410.749 2441.2 411.653 2443.52C413.59 2448.69 413.461 2454.5 411.653 2459.66C410.362 2463.02 408.425 2465.99 407.134 2469.22C405.843 2472.44 405.198 2476.32 406.747 2479.55C409.2 2484.45 416.301 2485.74 420.949 2482.9C425.597 2480.06 427.792 2474.12 427.405 2468.7C427.018 2463.28 424.564 2458.11 421.724 2453.46C418.883 2448.82 415.526 2444.43 413.073 2439.52C411.911 2437.2 411.008 2434.74 411.008 2432.16C411.008 2429.58 412.17 2427 414.364 2425.71C416.559 2424.41 419.4 2424.8 421.595 2426.22C423.79 2427.64 425.21 2429.84 426.114 2432.16C427.921 2436.68 427.921 2441.72 428.438 2446.62C428.825 2451.53 429.987 2456.69 433.344 2460.18C436.701 2463.79 443.027 2464.83 446.384 2461.34C449.612 2457.98 448.708 2452.17 445.868 2448.43C443.027 2444.56 438.767 2441.97 435.41 2438.62C431.924 2435.13 428.567 2431.39 425.726 2427.38C424.693 2425.96 423.661 2424.16 424.306 2422.48C425.081 2420.41 428.18 2420.15 430.116 2421.32C432.053 2422.48 433.086 2424.67 434.248 2426.48C439.412 2434.61 448.579 2440.17 458.263 2440.81C463.944 2441.2 470.27 2439.78 473.756 2435.26C477.371 2430.74 476.726 2422.99 471.561 2420.54C468.85 2419.25 465.751 2419.64 462.911 2420.54C460.07 2421.44 457.488 2422.99 454.777 2424.03C449.612 2425.96 443.931 2426.35 438.509 2424.93C435.539 2424.16 432.182 2422.09 432.698 2419.12C433.086 2416.15 436.701 2415.12 439.541 2414.47C445.997 2413.18 452.582 2411.37 458.392 2408.15C464.202 2404.79 469.237 2399.88 471.303 2393.56C472.465 2390.33 472.723 2386.46 471.045 2383.49C468.075 2378.06 459.941 2377.55 454.518 2380.77C449.225 2384 446.126 2389.81 443.286 2395.36C440.445 2400.92 437.476 2406.73 432.182 2410.08C425.597 2414.34 426.243 2405.56 426.888 2401.82C427.921 2395.62 429.987 2389.68 431.149 2383.49C432.569 2376.26 432.44 2369.15 427.147 2363.47C420.949 2356.89 411.137 2355.08 406.747 2364.64C404.552 2369.41 406.489 2375.09 409.458 2379.48C412.428 2383.87 416.301 2387.49 418.883 2392.14C422.24 2398.33 422.628 2406.21 419.787 2412.79C419.013 2414.6 417.98 2416.41 416.172 2417.44C412.428 2419.64 407.392 2416.67 405.843 2412.54C404.294 2408.53 405.068 2404.01 405.843 2399.75C406.747 2394.98 405.068 2390.59 403.39 2386.07C402.357 2383.1 400.808 2380.13 398.355 2378.19C395.901 2376.26 392.157 2375.61 389.446 2377.16C387.122 2378.58 385.96 2381.29 385.831 2384C385.702 2386.71 386.734 2389.3 387.896 2391.75C391.641 2399.24 397.838 2405.69 399.387 2413.96C399.904 2416.41 399.904 2419.12 398.742 2421.45C397.58 2423.77 395.127 2425.45 392.674 2425.19C390.737 2424.93 388.929 2423.51 387.896 2421.83C386.864 2420.15 386.347 2418.09 385.96 2416.15C384.927 2411.5 383.894 2406.86 382.99 2402.21C381.828 2396.01 375.631 2391.75 370.208 2388.65C367.497 2387.1 364.656 2385.81 361.558 2385.42C358.459 2385.04 355.231 2385.68 352.778 2387.62C350.325 2389.55 349.034 2392.91 349.808 2395.88C350.454 2398.08 352.003 2399.75 353.94 2401.05C355.747 2402.34 357.942 2403.24 359.879 2404.14C364.14 2406.21 368.142 2409.18 371.112 2412.92C373.952 2416.8 375.631 2421.7 374.985 2426.35C374.598 2429.06 373.049 2431.9 370.337 2432.29C367.497 2432.68 365.431 2429.97 363.752 2427.64C360.654 2423.12 357.555 2418.48 354.456 2413.96C352.391 2410.86 349.55 2408.4 345.935 2407.5C339.867 2405.82 333.411 2405.31 327.085 2405.82C323.728 2406.08 320.242 2406.73 317.659 2409.05C314.561 2411.76 313.657 2416.54 315.464 2420.15C317.53 2423.9 322.178 2427.13 326.181 2426.48Z" fill="#E2F1DD"/>
<path d="M144.824 2672.87C143.662 2676.23 143.145 2679.71 142.887 2683.2C142.5 2687.85 142.629 2692.75 144.953 2696.76C145.728 2698.05 146.761 2699.21 148.181 2699.6C149.988 2700.24 152.054 2699.6 153.603 2698.31C154.765 2697.4 156.057 2695.59 157.735 2695.59C159.672 2695.59 161.35 2698.43 163.287 2699.08C165.869 2700.11 169.226 2699.47 170.388 2697.01C171.034 2695.72 170.905 2694.3 171.034 2692.88C171.163 2691.46 171.937 2689.91 173.229 2689.65C174.778 2689.27 176.198 2690.69 177.747 2691.08C179.813 2691.59 182.008 2690.3 183.041 2688.36C184.074 2686.43 184.074 2684.23 183.816 2682.17C183.17 2677.13 180.717 2672.48 177.102 2669C173.616 2665.38 168.968 2663.06 164.062 2661.9C159.93 2660.99 155.153 2661.12 151.409 2663.45C148.31 2665.38 145.986 2669.51 144.824 2672.87Z" fill="#EF3C45"/>
<path d="M169.872 2631.63C168.581 2638.21 168.064 2645.31 170.388 2651.64C172.712 2657.96 179.039 2663.13 185.752 2662.48C190.659 2661.97 195.178 2658.48 200.084 2658.74C204.474 2659 207.96 2662.23 211.575 2664.94C215.061 2667.52 219.709 2669.84 223.711 2668.04C228.23 2665.97 229.263 2660.29 230.038 2655.51C230.813 2650.73 233.137 2644.92 238.043 2644.41C241.271 2644.02 244.886 2646.22 247.597 2644.54C249.534 2643.38 249.921 2640.66 250.05 2638.47C250.438 2626.72 246.048 2615.23 239.205 2605.55C232.749 2596.38 205.507 2565.13 192.466 2576.62C187.302 2581.27 183.687 2593.67 180.588 2599.86C175.553 2609.81 171.937 2620.52 169.872 2631.63Z" fill="#E2F1DD"/>
<path d="M226.343 2114.26C222.728 2119.68 220.404 2125.75 218.338 2131.95C215.626 2140.08 213.561 2148.99 216.272 2157.26C217.047 2159.84 218.467 2162.29 220.662 2163.84C223.631 2165.78 227.763 2165.52 230.991 2163.97C233.573 2162.81 236.543 2160.1 239.641 2160.87C243.257 2161.65 244.935 2167.46 247.905 2169.65C252.036 2172.62 258.492 2172.88 261.59 2169.01C263.14 2166.94 263.656 2164.36 264.56 2161.9C265.464 2159.45 267.401 2157.13 269.983 2157C272.952 2157 274.889 2160.1 277.471 2161.39C280.957 2163.19 285.476 2161.77 288.188 2158.8C290.77 2155.84 291.932 2151.83 292.319 2147.96C293.223 2138.79 290.899 2129.24 286.122 2121.36C281.345 2113.49 274.114 2107.03 265.851 2103.03C258.75 2099.54 250.229 2097.61 242.482 2100.19C236.026 2102.25 230.087 2108.58 226.343 2114.26Z" fill="#00B590"/>
<path d="M184.461 2520.39C187.431 2519.87 190.4 2521.29 192.337 2523.36C194.145 2525.42 195.048 2527.88 195.823 2530.33C201.762 2548.66 204.344 2567.64 203.57 2586.49C203.312 2593.98 202.02 2602.25 195.436 2607.28C191.046 2610.64 184.978 2611.93 179.168 2611.8C173.358 2611.67 167.547 2610.12 162.125 2608.31C145.469 2602.76 130.363 2593.85 118.485 2582.62C116.677 2580.94 114.999 2579.14 114.353 2577.07C113.708 2574.87 114.353 2572.29 116.677 2571.13C119.776 2569.58 123.778 2571.39 126.748 2573.2C136.56 2579.26 146.502 2585.2 156.315 2591.27C149.214 2586.88 142.758 2579.78 137.077 2574.1C130.88 2567.9 118.356 2560.03 118.097 2551.12C117.839 2541.82 131.525 2549.96 135.398 2552.54C141.338 2556.54 146.502 2561.32 151.538 2565.97C156.702 2570.74 161.737 2575.39 166.902 2580.17C155.798 2568.03 144.824 2555.89 133.72 2543.63C130.75 2540.4 127.781 2537.04 126.877 2533.04C125.973 2529.04 128.039 2524.26 132.558 2522.84C136.044 2521.81 139.917 2522.84 142.758 2524.91C145.598 2526.97 147.406 2529.56 149.214 2532.27C158.122 2545.18 166.902 2558.09 175.811 2571C178.135 2563.25 174.52 2555.12 170.13 2547.89C165.74 2540.79 160.446 2533.69 159.413 2525.68C159.155 2523.36 159.155 2521.03 160.317 2518.97C161.479 2516.9 164.061 2515.22 166.773 2515.35C171.292 2515.61 173.616 2520 174.778 2523.62C178.651 2535.5 182.654 2547.37 186.527 2559.38C187.689 2563 187.947 2567.13 190.271 2570.48C192.983 2574.23 196.727 2573.58 197.889 2568.94C198.793 2565.32 184.332 2520.39 184.461 2520.39Z" fill="#FFDF00"/>
<path d="M372.062 2671.91C372.836 2667.65 376.58 2664.42 380.712 2663.13C384.844 2661.84 389.233 2662.1 393.494 2662.35C396.464 2662.48 399.692 2662.87 401.886 2664.81C404.081 2666.87 404.081 2671.26 401.241 2672.17C408.859 2674.75 416.218 2678.36 422.932 2682.88C424.998 2684.3 427.192 2685.98 427.838 2688.31C428.484 2690.63 426.676 2693.86 424.223 2693.47C428.742 2698.76 432.873 2704.45 437.392 2709.74C438.942 2711.55 440.491 2713.48 441.266 2715.68C442.04 2718 441.911 2720.71 440.233 2722.39C438.554 2724.07 435.327 2724.2 434.035 2722.13C434.681 2726.91 435.327 2731.82 435.972 2736.59C436.489 2740.21 436.618 2744.73 433.39 2746.54C432.228 2747.18 430.937 2747.31 429.775 2747.83C427.192 2748.99 425.643 2751.83 424.739 2754.54C423.836 2757.25 423.19 2760.22 421.382 2762.55C419.575 2764.87 416.218 2766.16 413.765 2764.61C412.861 2762.16 410.924 2759.06 408.342 2759.96C407.567 2760.22 406.922 2761 406.147 2761.38C403.823 2762.8 400.724 2761.64 399.046 2759.58C397.368 2757.51 396.98 2754.67 397.109 2751.96C397.109 2745.5 399.304 2739.05 403.307 2734.01C401.757 2735.43 399.046 2734.01 398.4 2732.08C397.755 2730.14 398.4 2727.94 399.046 2726.01C400.724 2721.1 402.403 2716.32 404.081 2711.42C403.952 2713.61 400.466 2713.87 399.046 2712.19C397.626 2710.51 397.755 2708.06 398.013 2705.87C398.53 2700.44 399.175 2695.02 399.692 2689.6C397.626 2689.86 395.947 2691.28 395.173 2693.21C395.56 2695.28 395.689 2693.86 393.752 2694.25C391.816 2694.63 389.621 2693.6 388.33 2692.05C387.039 2690.5 386.264 2688.56 385.747 2686.63C385.231 2684.69 384.844 2682.63 384.198 2680.69C383.811 2679.66 383.294 2678.62 382.391 2677.85C381.487 2677.07 380.196 2676.82 379.163 2677.2C378.517 2677.46 378.13 2677.98 377.613 2678.24C375.935 2679.14 373.74 2678.49 372.578 2677.07C371.416 2676.17 371.674 2673.85 372.062 2671.91Z" fill="#36C7C1"/>
<path d="M422.932 805.461C420.995 800.426 416.863 795.778 417.896 790.484C418.671 786.482 422.157 783.641 423.577 779.897C426.547 771.892 419.317 763.241 420.608 754.72C421.512 749.168 425.772 745.037 429 740.518C432.228 735.999 434.681 729.801 431.711 725.153C434.939 725.67 436.747 729.285 436.489 732.513C436.23 735.74 434.552 738.581 433.261 741.551C429.258 750.072 427.58 759.885 428.613 769.181C429.129 773.958 430.291 779.122 427.967 783.254C426.16 786.74 422.028 789.193 422.157 793.195C422.157 796.811 425.643 799.264 428.096 802.104C433.519 808.56 432.615 819.405 426.03 824.699C430.808 826.636 435.327 820.696 435.327 815.661C435.327 810.497 433.003 805.59 433.39 800.555C434.165 790.097 446.172 782.608 445.656 772.15C445.526 768.793 443.977 765.307 444.623 761.95C445.268 758.593 449.916 755.882 451.982 758.593C449.658 767.502 447.334 776.411 445.01 785.32C443.073 792.937 441.007 800.684 440.491 808.56C440.104 813.466 440.362 818.502 438.942 823.279C437.005 829.734 426.418 838.643 421.382 829.347C417.896 822.633 426.16 813.724 422.932 805.461Z" fill="#8AAA9A"/>
<path d="M102.991 240.336C101.829 242.919 101.313 246.146 102.862 248.47C104.799 251.698 109.318 252.086 113.191 252.086C116.032 252.086 118.872 252.086 121.842 252.215C124.682 252.215 127.781 252.215 129.976 250.278C132.3 248.212 132.558 244.597 131.913 241.498C131.267 238.271 129.847 235.172 127.523 232.848C119.26 224.326 107.123 231.04 102.991 240.336Z" fill="#A38D6F"/>
<path d="M78.9766 1695.17C77.2981 1699.18 76.3943 1704.08 78.7184 1707.83C81.8171 1712.86 88.7891 1713.51 94.7283 1713.51C99.2472 1713.51 103.637 1713.64 108.156 1713.64C112.546 1713.64 117.452 1713.51 120.809 1710.54C124.424 1707.31 124.682 1701.63 123.779 1696.85C122.746 1691.82 120.551 1687.04 117.065 1683.42C104.024 1670.13 85.174 1680.58 78.9766 1695.17Z" fill="#ACB8DE"/>
<path d="M288.009 1402.35C285.943 1407 285.04 1412.68 287.751 1417.07C291.366 1422.88 299.371 1423.65 306.343 1423.65C311.508 1423.65 316.672 1423.78 321.837 1423.78C327.001 1423.78 332.682 1423.65 336.426 1420.29C340.687 1416.55 340.945 1409.97 339.912 1404.41C338.75 1398.6 336.168 1393.05 332.037 1388.79C317.189 1373.3 295.24 1385.43 288.009 1402.35Z" fill="#A38D6F"/>
<path d="M345.594 44.8603C345.594 46.5388 345.981 48.4754 347.401 49.3792C348.176 49.8957 348.95 50.0248 349.854 50.1539C361.733 51.8324 373.611 52.607 385.489 52.607C387.942 52.607 390.396 52.607 392.72 51.8324C395.044 51.0577 397.239 49.5083 398.013 47.1843C399.304 43.8274 397.368 39.954 394.398 37.8882C391.558 35.8224 387.942 35.0478 384.327 34.4022C380.841 33.7566 377.226 32.982 374.386 30.9162C370.125 27.8175 368.059 22.0074 363.153 19.8125C359.796 18.2632 355.535 19.0378 352.953 21.491C349.854 24.4605 350.758 28.0757 349.596 31.6908C348.176 36.468 345.464 39.4376 345.594 44.8603Z" fill="#D8BF8B"/>
<path d="M98.3433 608.952C98.2142 606.886 97.5686 604.433 95.6319 603.658C93.8244 602.884 91.5003 603.788 89.6928 602.884C87.8852 601.98 87.3687 599.785 87.4979 597.848C87.627 595.912 88.1434 593.975 87.8852 592.038C87.4979 589.327 85.3029 587.132 84.1409 584.679C82.9789 582.226 83.2371 578.352 85.8194 577.449C88.0143 576.674 90.3383 578.74 91.113 580.935C91.7586 583.13 91.5003 585.583 91.6295 587.907C91.7586 590.231 92.5332 592.813 94.599 593.846C97.0522 595.008 100.409 593.717 102.475 595.395C105.961 598.236 102.088 605.982 106.219 607.532C110.609 609.21 111.384 603.529 109.963 600.818C109.447 599.785 108.931 598.623 109.576 597.719C110.351 596.557 112.029 596.686 113.191 597.074C114.482 597.461 115.773 598.236 117.065 597.719C118.614 597.203 119.259 595.137 118.872 593.588C118.485 591.909 117.452 590.618 116.806 589.069C115.773 586.745 115.903 582.742 119.259 582.613C120.551 582.613 121.842 583.259 123.133 583.904C127.652 586.357 132.042 584.292 134.882 580.16C136.561 577.707 137.464 574.608 139.917 572.93C143.533 570.477 148.955 572.93 150.246 577.061C151.538 581.193 148.955 585.841 144.953 587.649C142.112 588.94 138.368 589.198 136.819 592.038C135.399 594.621 136.69 597.978 135.528 600.56C133.462 604.95 127.006 603.917 122.875 606.37C120.551 607.79 119.259 610.243 117.968 612.696C112.546 622.122 98.9889 620.443 98.3433 608.952Z" fill="#93ACD1"/>
<path d="M127.859 1221.03C128.505 1217.41 128.376 1213.02 125.406 1210.83C122.566 1208.63 118.305 1209.41 115.464 1207.08C112.882 1204.89 112.753 1200.89 113.657 1197.53C114.561 1194.3 116.368 1191.07 116.626 1187.72C117.014 1182.81 114.302 1178.29 113.269 1173.51C112.237 1168.74 114.173 1162.41 119.08 1162.02C123.211 1161.64 126.31 1166.03 126.568 1170.03C126.826 1174.16 125.277 1178.03 124.631 1182.04C123.986 1186.04 124.244 1190.82 127.343 1193.4C131.087 1196.37 137.284 1195.46 140.254 1199.21C145.031 1205.53 135.219 1217.03 141.803 1221.42C148.517 1225.93 152.261 1216.64 150.97 1211.47C150.454 1209.54 150.196 1207.34 151.616 1205.92C153.294 1204.24 156.135 1205.15 158.071 1206.31C160.008 1207.6 162.074 1209.28 164.398 1209.02C167.238 1208.76 169.046 1205.53 169.046 1202.57C169.046 1199.72 167.884 1196.88 167.368 1194.04C166.464 1189.78 168.271 1182.81 174.081 1184.1C176.405 1184.62 178.342 1186.17 180.021 1187.85C186.734 1193.79 195.127 1192.11 201.582 1186.3C205.456 1182.81 208.296 1177.78 213.073 1175.97C220.174 1173.26 228.567 1179.58 229.083 1187.07C229.6 1194.56 223.273 1201.53 215.914 1203.08C210.491 1204.11 204.035 1203.21 200.291 1207.21C196.805 1210.96 197.709 1217.15 194.61 1221.16C189.446 1227.74 178.6 1223.35 170.724 1226.06C166.206 1227.61 162.978 1231.36 159.75 1234.84C146.839 1249.17 124.244 1240.78 127.859 1221.03Z" fill="#93ACD1"/>
</g>
</svg>
