<svg width="510" height="2770" viewBox="0 0 510 2770" fill="none" xmlns="http://www.w3.org/2000/svg">
<mask id="mask0" mask-type="alpha" maskUnits="userSpaceOnUse" x="0" y="0" width="510" height="2770">
<rect width="510" height="2770" fill="#C4C4C4"/>
</mask>
<g mask="url(#mask0)">
<path d="M206.152 820.696C210.8 814.499 209.38 805.978 209.896 798.231C211.446 779.509 228.23 763.37 246.952 762.467C247.081 759.11 243.982 756.398 240.625 755.882C237.268 755.366 234.04 756.528 231.071 758.077C218.289 764.403 208.218 776.023 203.828 789.58C207.831 768.664 222.549 750.201 242.045 741.68C240.496 738.839 239.076 735.999 237.526 733.029C210.8 746.457 192.983 775.765 193.241 805.59C190.142 780.413 198.405 754.074 215.319 735.353C209.638 731.221 201.117 733.804 196.469 739.226C191.95 744.52 190.4 751.879 189.368 758.722C187.044 773.699 186.269 788.935 186.914 804.041C185.365 791.646 183.816 779.122 179.039 767.502C174.261 756.011 165.869 745.295 154.249 740.776C151.667 745.036 149.214 749.297 146.631 753.558C149.472 751.363 153.733 751.75 156.831 753.558C159.93 755.366 162.254 758.335 164.191 761.305C172.97 774.345 178.651 789.58 180.588 805.203C175.423 786.223 157.348 771.505 137.723 770.213C137.206 774.087 136.819 777.831 136.302 781.704C136.561 779.38 156.831 788.031 158.381 789.064C165.094 793.325 170.904 799.135 175.165 805.978C178.393 811.271 179.555 818.243 184.59 822.117C191.046 827.152 200.859 827.798 206.152 820.696Z" fill="#8BCBCA"/>
<path d="M333.069 2359.95C341.204 2349.88 348.95 2359.56 351.533 2364.21C354.115 2368.85 361.345 2376.6 368.188 2372.99C375.031 2369.24 370.512 2359.82 366.639 2353.88C362.765 2348.07 360.57 2335.54 370.383 2331.8C380.195 2328.06 390.912 2330.25 393.236 2342.52C395.56 2354.78 383.94 2375.96 386.264 2383.06C388.588 2390.16 389.75 2400.36 399.433 2396.1C408.988 2391.84 393.365 2371.18 402.919 2368.21C412.474 2365.24 420.091 2365.63 424.352 2378.15C428.613 2390.67 405.372 2397.26 406.664 2407.07C408.084 2417.01 412.344 2422.31 424.739 2417.01C437.134 2411.59 439.845 2397.78 446.172 2402.3C452.498 2406.81 455.468 2416.37 447.463 2420.63C439.329 2424.89 420.866 2427.08 417.251 2431.22C413.636 2435.35 413.506 2441.42 412.474 2444C410.408 2448.9 402.661 2455.36 394.785 2450.84C390.395 2448.39 391.816 2443.22 386.651 2442.97C381.487 2442.71 367.155 2451.62 365.089 2455.62C363.153 2459.75 350.241 2463.24 347.53 2456.52C344.819 2449.94 347.401 2437.41 353.986 2438.7C360.57 2440 371.028 2436.77 372.449 2434.96C373.869 2433.15 373.998 2425.02 362.765 2425.15C351.533 2425.28 340.558 2427.73 337.072 2421.4C333.586 2415.08 332.682 2407.07 336.426 2405.26C340.171 2403.46 347.788 2403.07 355.019 2409.91C362.249 2416.76 370.77 2415.72 372.707 2410.17C374.644 2404.62 368.317 2390.16 363.669 2386.16C359.021 2382.15 341.849 2378.67 338.621 2375.31C335.264 2371.82 328.68 2365.24 333.069 2359.95Z" fill="#FFDF00"/>
<path d="M419.187 2077.06C422.674 2076.54 424.868 2073.06 425.643 2069.96C426.547 2066.6 426.418 2063.25 426.934 2059.76C428.096 2052.4 432.873 2045.56 439.458 2042.07C444.623 2039.23 450.691 2038.33 455.597 2035.1C460.503 2031.87 463.86 2024.64 460.116 2020.12C457.405 2016.89 452.24 2016.64 448.496 2018.57C444.752 2020.51 441.911 2023.87 439.329 2027.09C440.62 2019.22 441.911 2011.34 443.202 2003.47C446.688 1999.34 449.529 1997.79 453.015 1993.78C455.597 1990.68 458.308 1987.46 459.471 1983.58C460.633 1979.71 459.858 1974.93 456.501 1972.61C443.977 1963.7 440.62 1987.72 440.491 1994.82C440.491 1991.46 439.587 1987.97 438.167 1984.87C437.392 1983.33 436.489 1981.78 435.068 1980.74C431.453 1978.03 426.289 1980.87 424.739 1984.75C423.19 1988.49 424.61 1992.88 426.03 1996.62C428.484 2003.08 431.066 2009.54 433.519 2015.99C433.003 2016.51 432.228 2016.77 431.711 2017.28C428.225 2011.73 424.739 2006.05 421.253 2000.5C419.704 1997.92 417.122 1995.07 414.281 1995.98C411.957 1996.75 411.183 1999.98 412.086 2002.31C412.99 2004.63 415.056 2006.31 416.734 2008.12C418.155 2009.54 419.317 2010.96 420.866 2012.25C422.415 2013.54 423.836 2014.96 424.868 2016.77C427.063 2020.12 428.225 2024.13 428.484 2028.13C429 2034.97 427.192 2041.68 425.514 2048.27C424.223 2053.3 423.19 2058.34 422.286 2063.38C421.511 2067.38 421.253 2073.06 419.187 2077.06Z" fill="#00B590"/>
<path d="M108.672 2709.45C112.287 2708.42 115.515 2706.61 119.389 2709.45C122.616 2711.78 124.295 2715.52 126.102 2719.01C127.91 2722.49 130.105 2726.11 133.72 2727.66C139.014 2729.85 146.502 2727.53 149.73 2732.31C151.279 2734.5 151.021 2737.73 152.57 2739.92C155.54 2744.18 161.867 2742.63 167.031 2743.28C173.616 2744.06 178.909 2748.96 184.461 2752.71C190.013 2756.45 197.372 2759.29 203.053 2755.8C208.605 2752.32 209.38 2743.54 205.119 2738.5C200.859 2733.47 192.983 2732.43 187.044 2735.15C184.203 2736.44 182.395 2732.69 181.879 2729.59C181.363 2726.5 182.008 2723.14 180.33 2720.56C178.135 2717.07 172.97 2716.94 168.839 2717.72C164.707 2718.49 160.317 2719.78 156.573 2717.85C150.892 2714.88 150.505 2705.97 144.953 2702.74C140.563 2700.16 134.882 2702.09 129.976 2700.67C122.875 2698.61 119.518 2690.86 113.062 2687.76C106.865 2684.66 99.6344 2688.15 93.5662 2683.11C90.8548 2680.92 89.1763 2677.56 86.5941 2675.11C83.1081 2671.75 78.0727 2670.07 73.2955 2670.72C67.0981 2671.49 61.2881 2676.66 59.4805 2682.73C58.1894 2686.86 61.159 2691.38 65.0323 2693.44C73.1664 2697.83 82.4625 2690.22 89.1763 2698.61C90.7257 2700.54 91.6295 2702.74 93.0497 2704.68C95.8902 2708.42 100.796 2710.49 105.574 2710.1C106.607 2709.97 107.639 2709.71 108.672 2709.45Z" fill="#008DB5"/>
<path d="M235.097 2422.57C227.48 2442.71 206.822 2456.79 185.26 2457.82C163.698 2458.85 142.395 2447.49 130 2429.93C139.167 2425.02 150.012 2423.73 160.471 2424.64C170.929 2425.54 180.999 2428.25 191.199 2431.09C181.645 2424.51 172.091 2417.92 164.215 2409.4C156.339 2400.88 150.4 2390.16 149.625 2378.67C161.762 2376.74 174.286 2380.87 184.615 2387.71C194.944 2394.42 203.465 2403.59 211.857 2412.5C208.629 2409.14 210.953 2393.78 211.341 2389.39C211.728 2385 212.632 2368.73 216.763 2366.41C221.541 2363.7 228.771 2375.32 230.708 2378.67C234.323 2384.87 236.647 2391.71 237.551 2398.81C238.713 2406.82 237.938 2414.95 235.097 2422.57Z" fill="#ACB8DE"/>
<path d="M284.615 1941.19C287.455 1948.03 288.23 1955.65 286.939 1962.88C286.551 1964.82 286.035 1966.88 284.873 1968.43C283.711 1969.98 281.774 1971.27 279.837 1971.14C277.255 1970.88 275.318 1968.56 274.544 1965.98C273.769 1963.4 274.027 1960.81 273.769 1958.23C273.124 1949.71 267.83 1941.7 260.341 1937.7C252.853 1933.7 243.169 1933.83 235.81 1938.09C234.002 1939.12 232.195 1940.54 231.549 1942.61C231.033 1944.54 231.678 1946.61 232.84 1948.16C234.002 1949.71 235.681 1950.87 237.359 1951.78C249.496 1959.13 264.215 1963.14 273.769 1973.72C275.06 1975.14 276.351 1976.82 276.093 1978.76C275.835 1981.47 272.736 1983.02 270.025 1983.28C260.858 1983.79 254.273 1973.98 245.235 1971.79C241.362 1970.88 237.23 1971.4 233.744 1973.34C231.808 1974.37 230 1976.05 230 1978.24C230 1979.53 230.516 1980.83 231.291 1981.86C234.39 1986.64 239.554 1989.99 245.235 1990.77C253.757 1992.06 262.149 1987.8 270.799 1987.02C273.511 1986.76 276.868 1987.15 278.159 1989.61C279.45 1991.93 277.901 1995.03 275.706 1996.58C272.091 1999.16 267.443 1999.03 263.053 1998.9C254.66 1998.64 246.268 1998.38 237.876 1998.13C234.002 1998 232.582 2004.32 233.744 2007.94C234.906 2011.55 238.521 2014.14 242.266 2014.65C246.01 2015.3 249.883 2014.27 253.369 2012.59C256.855 2011.04 259.954 2008.84 263.311 2006.91C268.346 2004.07 273.769 2001.87 279.45 2000.45C283.323 1999.42 288.23 1999.29 290.295 2002.52C291.457 2004.32 291.328 2006.65 290.425 2008.46C289.521 2010.26 287.971 2011.81 286.164 2012.85C282.42 2015.3 277.642 2016.33 273.253 2015.69C270.412 2015.3 267.572 2014.27 264.731 2013.75C261.891 2013.23 258.663 2013.49 256.468 2015.3C252.982 2018.14 253.24 2024.08 256.339 2027.31C259.438 2030.53 264.602 2031.18 268.863 2029.89C273.124 2028.6 276.868 2025.76 279.966 2022.53C283.065 2019.3 286.035 2015.94 289.521 2013.1C291.199 2011.81 293.007 2010.65 295.073 2010.13C297.138 2009.75 299.462 2010.13 300.883 2011.68C302.303 2013.23 302.561 2015.56 301.786 2017.49C301.012 2019.43 299.592 2020.98 297.913 2022.14C294.556 2024.47 290.554 2025.37 286.68 2026.53C282.807 2027.69 278.934 2029.5 276.739 2032.86C274.544 2036.21 274.802 2041.51 278.159 2043.57C281.516 2045.51 285.906 2043.7 288.488 2040.73C291.07 2037.76 292.361 2033.89 294.427 2030.66C296.622 2027.31 298.946 2023.95 301.657 2020.85C302.561 2019.82 303.852 2018.66 305.272 2018.78C307.08 2019.04 307.855 2021.5 307.338 2023.17C306.693 2024.85 305.272 2026.14 303.981 2027.44C298.43 2033.12 295.718 2041.51 296.88 2049.38C297.655 2054.03 299.85 2058.81 304.11 2060.88C308.371 2062.94 314.439 2061 315.601 2056.36C316.118 2054.03 315.343 2051.45 314.052 2049.38C312.761 2047.32 311.083 2045.51 309.791 2043.44C307.338 2039.7 305.918 2035.18 306.047 2030.53C306.047 2028.08 307.209 2024.98 309.662 2024.72C312.115 2024.47 313.665 2027.18 314.569 2029.37C316.763 2034.41 319.346 2039.31 323.09 2043.32C326.834 2047.32 331.741 2050.42 337.163 2051.06C340.004 2051.32 343.102 2050.93 345.168 2049C348.912 2045.64 347.88 2038.93 344.394 2035.31C340.907 2031.7 335.614 2030.15 330.708 2028.98C325.801 2027.69 320.508 2026.4 316.893 2022.79C312.245 2018.27 319.475 2017.24 322.574 2017.11C327.738 2016.85 332.903 2017.36 338.067 2017.24C344.135 2016.98 349.816 2015.69 353.302 2010.39C357.563 2004.19 357.047 1996.06 348.654 1994.25C344.394 1993.35 340.133 1995.93 337.163 1999.03C334.194 2002.13 331.999 2006 328.642 2008.84C324.252 2012.72 318.055 2014.39 312.245 2013.36C310.695 2013.1 309.017 2012.59 307.855 2011.3C305.402 2008.71 306.951 2004.07 309.791 2002.13C312.632 2000.19 316.505 1999.93 320.12 1999.8C324.123 1999.68 327.222 1997.48 330.708 1995.42C332.903 1993.99 334.968 1992.32 336.13 1989.99C337.163 1987.67 337.163 1984.57 335.356 1982.76C333.806 1981.21 331.353 1980.7 329.287 1981.08C327.092 1981.47 325.156 1982.76 323.477 1984.18C318.055 1988.44 314.052 1994.64 307.726 1997.48C305.789 1998.38 303.594 1998.77 301.657 1998.38C299.592 1997.87 297.784 1996.19 297.526 1994.12C297.397 1992.45 298.171 1990.9 299.333 1989.73C300.495 1988.57 302.045 1987.8 303.465 1987.15C306.951 1985.47 310.566 1983.8 314.052 1982.25C318.829 1980.18 321.024 1974.5 322.703 1969.59C323.477 1967.14 323.994 1964.56 323.736 1962.1C323.477 1959.52 322.315 1957.07 320.379 1955.52C318.442 1953.97 315.472 1953.45 313.277 1954.62C311.599 1955.52 310.566 1957.07 309.921 1958.88C309.275 1960.68 308.888 1962.49 308.5 1964.3C307.597 1968.17 306.047 1971.92 303.465 1974.89C300.883 1977.86 297.268 1980.05 293.394 1980.44C291.199 1980.57 288.617 1979.92 287.842 1977.86C287.068 1975.66 288.746 1973.47 290.295 1971.79C293.394 1968.43 296.493 1965.2 299.592 1961.85C301.657 1959.52 303.078 1956.94 303.207 1953.84C303.465 1948.68 302.69 1943.38 301.141 1938.35C300.237 1935.64 299.075 1932.92 296.88 1931.38C294.169 1929.44 290.166 1929.57 287.584 1931.63C285.002 1933.7 283.323 1938.09 284.615 1941.19Z" fill="#FFD7CC"/>
<path d="M472.124 2543.03C478.708 2540.96 486.068 2543.93 490.974 2548.84C495.88 2553.74 498.85 2560.2 501.69 2566.4C503.627 2570.79 505.693 2575.56 504.402 2580.21C503.111 2584.86 496.913 2588.09 493.427 2584.86C495.364 2597.64 495.751 2610.68 494.331 2623.59C493.944 2627.6 493.169 2631.86 490.199 2634.57C487.23 2637.28 481.42 2637.02 480.128 2633.28C475.868 2643.61 471.091 2653.81 466.83 2664.13C465.41 2667.75 463.86 2671.36 461.278 2674.08C458.696 2676.92 454.693 2678.72 450.949 2677.69C447.205 2676.66 444.623 2672.01 446.559 2668.65C440.233 2673.17 433.906 2677.69 427.451 2682.34C422.674 2685.7 416.347 2689.18 411.441 2686.21C409.762 2685.18 408.471 2683.37 406.922 2682.08C403.307 2679.24 398.142 2679.24 393.623 2680.02C389.104 2680.79 384.456 2682.08 379.808 2681.31C375.289 2680.53 370.77 2676.66 371.287 2672.01C374.127 2668.91 376.968 2663.88 373.869 2660.91C372.836 2660 371.416 2659.62 370.125 2658.84C366.51 2656.65 365.606 2651.35 367.413 2647.48C369.221 2643.61 372.836 2640.89 376.71 2638.96C385.877 2634.18 396.593 2632.5 406.793 2634.18C403.694 2633.02 403.565 2628.24 405.889 2625.79C408.213 2623.33 411.699 2622.82 415.056 2622.3C423.19 2621.01 431.324 2619.85 439.458 2618.56C436.23 2619.98 433.261 2615.2 434.552 2611.97C435.972 2608.75 439.458 2607.2 442.686 2605.9C450.82 2602.68 458.825 2599.45 466.959 2596.09C465.022 2593.51 461.665 2591.96 458.438 2592.35C455.855 2594.41 457.921 2593.64 455.984 2591.06C454.048 2588.47 453.919 2584.73 455.081 2581.76C456.243 2578.79 458.567 2576.21 460.891 2574.01C463.344 2571.82 465.926 2569.75 467.992 2567.3C469.154 2565.88 470.316 2564.33 470.703 2562.52C471.091 2560.72 470.574 2558.65 469.154 2557.49C468.379 2556.84 467.346 2556.58 466.443 2555.94C463.86 2554.26 463.086 2550.64 464.377 2547.8C465.797 2545.22 469.283 2543.93 472.124 2543.03Z" fill="#36C7C1"/>
<path d="M81.1714 1943.43C83.4954 1943.04 85.5612 1942.14 87.7561 1944.08C89.5637 1945.62 90.3384 1948.08 91.2421 1950.27C92.1459 1952.47 93.3079 1954.79 95.3737 1955.95C98.4724 1957.63 103.12 1956.73 104.799 1959.83C105.574 1961.25 105.315 1963.18 106.09 1964.6C107.639 1967.32 111.642 1966.93 114.611 1967.57C118.614 1968.48 121.454 1971.83 124.553 1974.42C127.652 1977.13 132.042 1979.32 135.657 1977.52C139.272 1975.84 140.305 1970.41 137.981 1967.19C135.657 1963.83 131.009 1962.67 127.135 1963.96C125.328 1964.6 124.424 1962.15 124.295 1960.21C124.166 1958.28 124.811 1956.34 123.908 1954.53C122.746 1952.21 119.647 1951.82 117.065 1952.08C114.482 1952.34 111.642 1952.86 109.576 1951.43C106.348 1949.24 106.607 1943.82 103.508 1941.49C101.055 1939.56 97.4395 1940.46 94.47 1939.3C90.3384 1937.62 88.789 1932.58 85.0448 1930.39C81.4296 1928.19 76.7816 1929.74 73.5538 1926.26C72.0044 1924.71 71.2297 1922.64 69.8095 1920.96C67.8728 1918.64 65.0323 1917.35 62.0628 1917.48C58.1894 1917.61 54.316 1920.32 52.8958 1923.93C51.8629 1926.39 53.4122 1929.36 55.6071 1930.78C60.2552 1934 66.4526 1930 69.9386 1935.55C70.7133 1936.85 71.1006 1938.27 71.8753 1939.56C73.4246 1942.01 76.2651 1943.56 79.1056 1943.69C79.8803 1943.56 80.5258 1943.56 81.1714 1943.43Z" fill="#FFDF00"/>
<path d="M181.234 1585.43C177.231 1575.36 168.968 1565.93 171.034 1555.35C172.583 1547.34 179.684 1541.66 182.525 1534.04C188.593 1517.9 173.874 1500.47 176.585 1483.43C178.264 1472.33 186.914 1463.93 193.499 1454.9C200.084 1445.86 204.99 1433.21 198.793 1423.91C205.248 1424.94 208.864 1432.3 208.476 1438.76C208.089 1445.21 204.603 1451.02 201.892 1456.83C193.757 1474.13 190.53 1493.63 192.595 1512.61C193.628 1522.16 195.952 1532.49 191.304 1541.01C187.56 1547.86 179.426 1553.02 179.426 1560.9C179.426 1568.26 186.527 1573.16 191.304 1578.71C202.279 1591.63 200.213 1613.45 187.173 1624.16C196.727 1628.04 205.894 1616.29 205.894 1605.96C205.894 1595.63 201.117 1585.69 201.892 1575.49C203.441 1554.44 227.585 1539.34 226.681 1518.29C226.423 1511.45 223.324 1504.6 224.615 1497.76C225.906 1490.92 235.203 1485.5 239.592 1490.92C234.944 1508.87 230.296 1526.81 225.648 1544.76C221.646 1560.12 217.643 1575.62 216.61 1591.5C215.965 1601.44 216.481 1611.64 213.512 1621.06C209.509 1633.98 188.206 1651.92 178.135 1633.2C171.034 1619.9 187.689 1601.96 181.234 1585.43Z" fill="#8BCBCA"/>
<path d="M397.884 240.078C392.978 239.949 387.168 240.595 383.94 236.85C381.487 234.01 381.874 229.749 380.583 226.263C377.871 218.516 368.446 215.676 361.862 210.899C348.563 201.215 345.981 179.783 356.697 167.388C358.763 173.069 356.955 179.266 355.922 185.335C354.889 191.274 355.148 198.375 359.796 202.119C365.218 206.509 373.611 204.185 379.55 207.929C388.2 213.481 386.909 228.975 396.464 232.461C400.208 233.881 404.339 232.719 408.213 233.106C412.086 233.493 416.605 236.463 415.83 240.336C420.22 239.433 420.22 232.719 417.251 229.362C414.281 226.005 409.762 224.456 406.793 221.099C404.598 218.516 403.436 215.289 402.274 212.061C399.046 202.765 395.818 193.34 392.59 184.043C391.557 180.816 390.395 177.33 391.557 174.231C392.719 171.132 397.367 169.196 399.562 171.778C401.241 173.714 400.337 176.684 400.208 179.266C399.95 183.269 401.757 187.013 403.565 190.628C407.955 199.279 412.99 207.542 418.671 215.418C422.286 220.453 426.289 225.488 428.225 231.428C430.162 237.367 429.645 244.597 425.256 248.987C414.281 259.703 407.955 240.207 397.884 240.078Z" fill="#909AB2"/>
<path d="M364.005 1106.21C364.005 1107.76 364.392 1109.44 365.812 1110.22C366.458 1110.6 367.362 1110.73 368.136 1110.86C379.498 1112.41 390.86 1113.06 402.351 1113.06C404.675 1113.06 406.999 1113.06 409.323 1112.28C411.647 1111.51 413.584 1110.22 414.358 1108.15C415.52 1105.18 413.713 1101.7 410.872 1099.89C408.161 1098.08 404.675 1097.43 401.318 1096.79C397.961 1096.14 394.475 1095.5 391.764 1093.69C387.632 1090.85 385.696 1085.69 381.048 1083.75C377.82 1082.33 373.817 1082.97 371.235 1085.3C368.265 1088.01 369.169 1091.24 368.007 1094.47C366.458 1098.73 363.876 1101.44 364.005 1106.21Z" fill="#D8BF8B"/>
<path d="M285.944 2653.68L286.847 2646.96L243.078 2642.06L225.132 2668.78L201.117 2660.78L241.013 2625.01L267.868 2625.4L274.84 2612.1L302.728 2620.37L304.665 2613.91L278.068 2606.03L285.944 2590.8L280.134 2587.83L264.124 2618.69L242.82 2618.3L239.463 2587.57L274.969 2569.75L272.387 2557.75L304.407 2552.32L303.632 2545.74L270.838 2551.16L266.706 2532.05L260.25 2533.73L267.352 2566.14L238.689 2580.6L237.914 2573.5L222.937 2551.03L217.514 2554.91L231.587 2576.08L233.266 2591.57L191.046 2564.33L202.537 2536.83L196.598 2534.38L185.107 2561.49L156.315 2552.19L154.12 2558.65L185.494 2568.72L211.059 2585.25L199.568 2592.35L202.795 2598.16L217.256 2589.25L234.17 2600.22L236.365 2620.37L207.056 2646.7L194.919 2616.88L188.464 2591.06L182.137 2592.99L187.431 2614.56L164.449 2613.91L164.062 2620.62L189.497 2621.4L201.762 2651.35L182.266 2668.91L186.527 2673.82L195.307 2665.94L227.585 2676.79L244.37 2651.87L259.605 2678.21L265.286 2674.59L250.825 2649.8L285.944 2653.68Z" fill="#EC1728"/>
</g>
</svg>
