<svg width="510" height="2770" viewBox="0 0 510 2770" fill="none" xmlns="http://www.w3.org/2000/svg">
<mask id="mask0" mask-type="alpha" maskUnits="userSpaceOnUse" x="0" y="0" width="510" height="2770">
<rect width="510" height="2770" fill="#C4C4C4"/>
</mask>
<g mask="url(#mask0)">
<path d="M345.391 2218.52C341.776 2229.5 338.161 2240.34 334.546 2251.32C331.963 2238.4 329.51 2225.36 326.928 2212.45C324.862 2228.46 322.667 2244.47 320.601 2260.48C316.341 2241.12 306.528 2223.3 292.713 2210C293.488 2226.27 294.263 2242.54 295.037 2258.8C284.708 2248.35 274.508 2237.89 264.179 2227.43C271.41 2245.12 278.769 2262.81 285.999 2280.5C273.346 2264.74 254.625 2254.67 235 2252.99C248.04 2266.29 261.21 2279.46 274.25 2292.76C282.513 2301.15 291.035 2309.67 301.88 2313.81C310.014 2316.9 321.247 2317.29 328.736 2311.61C334.546 2307.22 336.224 2296.25 338.677 2289.53C346.682 2266.81 349.135 2242.15 345.391 2218.52Z" fill="#FFDF00"/>
<path d="M412.871 1686.88C403.358 1691.57 393.928 1696.18 384.415 1700.87C391.211 1690.88 398.176 1680.88 404.972 1670.89C393.157 1679.83 381.258 1688.69 369.442 1697.63C379.388 1682.39 384.748 1664.5 384.575 1646.9C374.417 1657.87 364.259 1668.84 354.101 1679.81C354.308 1666.32 354.599 1652.91 354.806 1639.42C347.87 1655.53 341.016 1671.73 334.08 1687.84C336.26 1669.42 330.817 1650.68 319.295 1636.74C318.97 1653.84 318.813 1670.93 318.489 1688.03C318.306 1698.84 318.205 1709.9 322.473 1719.66C325.675 1726.98 332.645 1734.59 341.182 1735.84C347.794 1736.83 356.062 1730.87 362.038 1728.16C382.071 1718.78 399.802 1704.53 412.871 1686.88Z" fill="#FFDF00"/>
<path d="M104.153 1448.7C106.736 1446.37 109.576 1442.89 107.768 1439.92C106.348 1437.6 103.12 1437.6 100.538 1437.98C87.8852 1440.05 76.6524 1448.96 71.617 1460.71C66.7107 1472.46 68.131 1486.79 75.4904 1497.25C82.8498 1507.7 95.761 1514.03 108.543 1513.38C111.384 1513.26 114.224 1512.74 116.29 1510.8C118.356 1508.87 118.743 1505.25 116.677 1503.44C113.966 1501.25 109.06 1502.93 107.381 1499.96C106.219 1497.76 108.027 1495.18 110.222 1494.15C112.416 1493.11 114.999 1493.11 117.194 1492.08C119.389 1491.05 121.325 1488.59 120.292 1486.4C119.389 1484.46 116.806 1484.08 114.741 1484.46C112.546 1484.85 107.768 1486.92 105.703 1485.63C104.799 1485.11 104.153 1483.95 104.412 1482.91C104.67 1480.98 106.994 1479.94 109.06 1479.81C113.966 1479.43 119.647 1478.78 120.292 1472.58C120.68 1469.49 118.097 1466.13 114.999 1466.39C112.933 1466.52 111.384 1467.94 109.834 1469.36C108.285 1470.65 106.606 1472.07 104.541 1471.94C102.475 1471.81 100.667 1469.36 101.958 1467.81C105.315 1467.29 108.93 1466.65 111.384 1464.19C113.837 1461.87 114.353 1457.09 111.513 1455.28C108.156 1453.09 104.282 1457.09 101.313 1455.54C97.4395 1453.48 102.475 1450.25 104.153 1448.7Z" fill="#FFD7CC"/>
<path d="M178.006 2666.14C179.942 2665.37 182.396 2665.88 183.945 2666.92C185.623 2668.08 186.527 2669.63 187.56 2671.18C194.661 2683.06 199.567 2695.84 202.15 2709.27C203.183 2714.56 203.57 2720.5 199.826 2725.15C197.373 2728.12 193.241 2730.05 189.109 2730.96C184.978 2731.86 180.717 2731.73 176.715 2731.34C164.191 2730.18 152.183 2726.44 141.983 2720.5C140.434 2719.59 139.014 2718.69 138.11 2717.27C137.335 2715.85 137.335 2713.91 138.756 2712.75C140.692 2711.07 143.791 2711.85 146.115 2712.62C153.991 2715.2 161.867 2717.79 169.743 2720.5C164.062 2718.56 158.381 2714.56 153.474 2711.59C148.181 2708.23 138.11 2704.75 136.432 2698.55C134.753 2692.09 145.599 2695.58 148.826 2696.74C153.603 2698.55 157.993 2701 162.254 2703.46C166.644 2705.91 170.905 2708.36 175.294 2710.81C165.611 2704.1 155.928 2697.39 146.244 2690.67C143.662 2688.87 140.95 2687.06 139.659 2684.35C138.368 2681.64 139.014 2678.02 141.983 2676.34C144.178 2675.05 147.148 2675.18 149.472 2676.08C151.796 2676.99 153.474 2678.54 155.153 2680.22C163.416 2687.83 171.679 2695.45 180.072 2703.07C180.459 2697.26 176.585 2692.09 172.325 2687.83C168.064 2683.57 163.287 2679.44 161.221 2674.02C160.576 2672.47 160.317 2670.79 160.834 2669.24C161.35 2667.69 162.77 2666.01 164.707 2665.75C167.935 2665.11 170.259 2667.95 171.679 2670.27C176.327 2678.02 180.975 2685.64 185.752 2693.38C187.173 2695.71 188.076 2698.55 190.142 2700.49C192.595 2702.68 195.178 2701.52 195.178 2698.16C195.178 2695.19 177.877 2666.14 178.006 2666.14Z" fill="#ACB8DE"/>
<path d="M272.001 1064.22C274.841 1061.38 277.553 1058.15 278.456 1054.15C279.36 1050.28 278.069 1045.5 274.583 1043.56C272.001 1042.14 268.644 1042.4 266.191 1040.59C264.125 1038.92 263.479 1036.2 262.576 1033.75C261.672 1031.3 260.252 1028.59 257.669 1028.07C254.829 1027.55 252.376 1030.01 250.31 1032.07C248.244 1034.14 245.275 1036.2 242.692 1034.78C241.014 1033.88 239.981 1031.56 238.044 1031.56C236.624 1031.56 235.591 1032.59 234.816 1033.75C230.685 1039.43 228.877 1046.66 229.006 1053.63C229.136 1060.35 231.976 1085.01 242.176 1083.72C246.307 1083.2 252.247 1078.29 255.862 1076.23C261.801 1073 267.224 1069 272.001 1064.22Z" fill="#FFDF00"/>
<path d="M57.0062 2344.9C67.2753 2345.49 76.9195 2352.69 80.8073 2362.06C84.6951 2371.42 83.0694 2382.53 77.0931 2390.59C73.3625 2387.14 71.1154 2382.48 69.852 2377.81C68.5887 2373.14 68.0938 2368.15 67.7471 2363.25C66.3416 2368.47 64.9361 2373.68 62.3451 2378.22C59.8213 2382.99 55.9639 2386.99 50.895 2388.98C48.1361 2383.84 47.9116 2377.69 49.3309 2372.11C50.7502 2366.52 53.4359 2361.48 56.1217 2356.43C55.0691 2358.27 47.9119 2359.45 45.8495 2359.97C43.8681 2360.34 36.4542 2362.31 34.6226 2360.7C32.6427 2359.01 36.6086 2354.13 37.9438 2352.82C40.1559 2350.32 42.8799 2348.3 45.8864 2346.82C49.4184 2345.45 53.2329 2344.62 57.0062 2344.9Z" fill="#FFD7CC"/>
<path d="M142.441 2062.79C152.641 2055.17 168.005 2052.98 177.689 2061.37C184.661 2067.31 186.856 2077.77 183.886 2086.42C180.788 2095.07 172.912 2101.52 164.003 2103.72C155.094 2105.91 145.411 2103.98 137.664 2099.2C135.598 2097.91 133.532 2096.36 131.079 2095.71C128.755 2095.07 125.786 2095.33 124.236 2097.26C122.171 2099.72 123.333 2103.59 125.14 2106.17C129.272 2111.98 136.115 2115.21 142.441 2118.69C148.768 2122.18 155.094 2126.83 156.902 2133.8C158.838 2141.42 154.319 2149.42 147.864 2153.81C136.76 2161.43 119.976 2159.11 111.454 2148.65C102.933 2138.19 103.837 2121.28 113.52 2111.98C114.811 2110.69 116.231 2109.53 116.877 2107.85C117.522 2106.17 116.877 2103.85 115.198 2103.46C114.036 2103.2 112.874 2103.72 111.712 2104.36C100.351 2110.56 86.1482 2112.76 74.399 2107.33C62.6497 2101.91 54.7739 2087.45 59.2928 2075.31C63.9409 2062.53 80.5964 2056.85 93.3785 2061.5C99.1885 2063.56 104.353 2067.44 108.356 2072.21C110.421 2074.67 112.229 2077.38 113.649 2080.35C114.682 2082.29 115.715 2087.84 117.393 2089C122.687 2092.61 126.689 2081.12 128.884 2077.9C132.629 2072.21 136.889 2066.92 142.441 2062.79Z" fill="#FF863A"/>
<path d="M93.5739 2369.53C107.905 2364.24 109.971 2378.7 109.713 2384.9C109.455 2391.22 112.295 2403.36 121.462 2403.75C130.629 2404.13 131.791 2391.74 131.275 2383.48C130.758 2375.21 136.181 2361.14 148.318 2363.2C160.454 2365.27 170.137 2373.92 165.102 2387.86C160.196 2401.81 135.665 2416.27 133.728 2424.92C131.791 2433.57 126.885 2444.67 139.151 2446.09C151.416 2447.51 147.93 2417.17 159.421 2419.76C170.912 2422.34 178.401 2427.37 175.173 2442.74C171.945 2458.1 144.444 2450.74 139.925 2461.59C135.406 2472.43 136.568 2480.57 152.32 2482.5C168.072 2484.44 179.175 2471.92 182.92 2480.31C186.664 2488.7 183.953 2500.19 173.236 2499.68C162.52 2499.16 142.378 2490.25 136.181 2492.32C129.984 2494.38 126.239 2500.45 123.657 2502.39C118.622 2506.13 106.872 2507.94 101.579 2498.64C98.6093 2493.48 102.999 2489.09 97.9637 2485.73C92.7992 2482.38 72.9159 2482.76 68.5261 2485.73C64.1363 2488.7 48.901 2484.57 50.063 2476.18C51.225 2467.79 61.4249 2456.81 67.235 2461.85C73.045 2467.01 85.698 2470.11 88.1512 2469.21C90.6043 2468.3 95.7688 2460.04 84.1487 2453.45C72.6577 2446.87 60.0047 2442.74 60.2629 2434.22C60.5211 2425.69 64.3945 2417.04 69.3008 2417.43C74.207 2417.82 82.0829 2421.95 85.4398 2433.18C88.7967 2444.55 97.9637 2448.42 103.257 2444.03C108.551 2439.51 110.875 2421.18 108.551 2414.2C106.227 2407.36 90.8625 2393.55 89.7005 2388.12C88.6676 2382.96 85.9563 2372.37 93.5739 2369.53Z" fill="#EF3C45"/>
<path d="M248.501 2694.62C252.116 2689.07 257.539 2684.81 261.283 2679.39C265.027 2673.96 267.222 2666.35 263.607 2660.79C258.959 2653.82 247.597 2654.73 241.4 2660.41C235.202 2666.09 232.878 2674.74 230.942 2683C228.618 2692.17 226.423 2701.21 224.099 2710.37C222.291 2717.73 220.484 2725.35 222.162 2732.71C224.486 2743.04 233.395 2750.79 242.691 2755.82C271.354 2771.06 309.442 2766.02 333.07 2743.94C335.523 2741.62 337.976 2739.04 339.267 2735.81C340.558 2732.58 340.3 2728.71 337.976 2726.13C327.647 2714.76 310.733 2736.45 303.116 2741.36C299.888 2743.43 296.402 2745.49 292.528 2746.14C288.655 2746.78 284.394 2745.88 281.812 2742.91C278.455 2739.04 279.101 2732.84 281.941 2728.58C285.815 2722.77 294.078 2717.86 300.146 2714.25C303.503 2712.31 306.989 2710.89 310.088 2708.57C313.057 2706.24 315.51 2702.76 315.381 2698.88C315.123 2694.23 310.991 2690.49 306.472 2689.46C301.954 2688.42 297.176 2689.33 292.787 2690.49C281.037 2693.59 269.546 2698.24 259.088 2704.3C255.99 2706.11 248.888 2712.83 245.919 2709.47C242.82 2706.11 246.693 2697.59 248.501 2694.62Z" fill="#36C7C1"/>
<path d="M302.599 2583.71C296.014 2577 291.366 2567.83 289.429 2557.5C288.913 2554.79 288.526 2551.82 289.171 2548.85C289.817 2545.88 291.495 2543.04 293.948 2541.88C297.176 2540.33 300.662 2542.01 302.728 2544.72C304.794 2547.43 305.827 2550.92 307.247 2554.15C312.153 2564.6 322.224 2571.19 333.199 2570.93C344.173 2570.67 355.535 2563.83 362.507 2553.11C364.186 2550.53 365.735 2547.43 365.477 2544.33C365.218 2541.49 363.411 2539.3 361.216 2538.27C359.021 2537.1 356.568 2536.85 353.986 2536.72C335.91 2535.81 316.414 2541.11 299.888 2534.26C297.693 2533.36 295.369 2531.94 294.723 2529.36C293.69 2525.74 296.66 2521.48 299.758 2519.42C310.604 2512.19 323.128 2520.06 334.877 2516.58C339.912 2515.03 344.69 2511.41 347.917 2506.5C349.725 2503.79 351.016 2500.44 350.112 2497.6C349.596 2495.92 348.176 2494.76 346.884 2493.85C340.945 2489.85 333.069 2489.33 325.968 2492.17C315.123 2496.56 307.118 2508.05 297.176 2515.16C293.948 2517.48 289.817 2519.16 287.105 2516.96C284.523 2514.77 284.911 2509.86 286.718 2506.25C289.817 2500.44 295.498 2497.21 300.791 2494.24C310.991 2488.69 321.191 2483.14 331.262 2477.58C335.91 2475 334.619 2465.96 331.52 2462.09C328.421 2458.22 322.87 2457.57 318.092 2459.38C313.315 2461.19 309.184 2465.32 305.698 2469.84C302.212 2474.36 299.5 2479.39 296.531 2484.17C291.883 2491.4 286.331 2498.11 280.392 2503.92C276.26 2507.92 270.45 2511.67 266.447 2508.83C264.253 2507.41 263.349 2504.31 263.478 2501.34C263.607 2498.37 264.898 2495.27 266.447 2492.69C269.804 2486.88 274.969 2482.23 280.65 2479.78C284.265 2478.23 288.138 2477.58 291.753 2476.16C295.369 2474.74 299.113 2472.29 301.05 2468.29C303.89 2462.22 300.791 2454.73 295.498 2452.92C290.204 2450.99 283.749 2453.83 279.23 2458.47C274.711 2463.12 271.741 2469.45 269.288 2475.78C266.964 2482.1 265.156 2488.56 262.316 2494.63C261.025 2497.47 259.346 2500.31 257.151 2502.37C254.956 2504.44 251.858 2505.47 249.405 2504.44C246.952 2503.41 245.531 2500.57 245.531 2497.6C245.531 2494.63 246.564 2491.53 247.984 2488.82C250.825 2483.52 255.215 2479.52 259.217 2475.13C263.22 2470.87 267.093 2465.7 268.126 2459.89C269.159 2453.96 266.447 2447.37 261.283 2447.24C256.377 2446.98 251.858 2452.54 250.308 2458.09C248.63 2463.77 248.888 2469.58 247.984 2475.26C247.081 2481.2 245.789 2487.14 243.982 2492.95C243.336 2495.01 242.433 2497.47 240.625 2498.11C238.301 2499.02 236.235 2496.56 236.106 2493.85C235.977 2491.14 237.139 2488.56 238.172 2485.98C242.174 2474.74 241.529 2462.09 236.235 2452.79C233.136 2447.37 228.101 2442.85 222.033 2443.24C215.965 2443.63 209.509 2450.47 210.413 2457.05C210.929 2460.54 213.124 2463.12 215.577 2464.8C218.03 2466.48 221 2467.64 223.453 2469.32C228.23 2472.42 231.974 2477.33 234.04 2483.26C235.202 2486.49 235.331 2491.14 232.491 2493.21C229.65 2495.14 226.552 2492.95 224.357 2490.75C219.321 2485.98 213.899 2481.46 207.572 2478.87C201.246 2476.29 193.886 2475.78 187.043 2478.87C183.557 2480.55 180.071 2483.26 178.393 2487.14C175.423 2494.24 179.813 2501.99 185.881 2504.18C191.95 2506.38 198.793 2504.57 205.377 2502.63C211.962 2500.69 218.805 2498.89 224.873 2500.82C232.491 2503.28 224.486 2509.73 220.742 2512.19C214.673 2516.19 208.218 2519.16 202.15 2523.03C195.048 2527.55 188.851 2533.36 187.043 2542.66C184.978 2553.5 189.367 2563.83 200.342 2560.09C205.894 2558.28 209.767 2551.95 211.704 2545.75C213.77 2539.56 214.544 2533.1 217.127 2527.16C220.613 2519.16 227.197 2512.57 234.557 2509.73C236.623 2508.96 238.817 2508.44 240.754 2509.22C244.886 2510.89 245.273 2517.74 242.691 2522.51C240.109 2527.16 235.719 2530.13 231.458 2532.71C226.681 2535.68 223.97 2540.72 220.871 2545.88C218.934 2549.24 217.256 2552.86 216.997 2556.73C216.868 2560.47 218.418 2564.35 221.387 2565.51C223.97 2566.54 227.068 2565.38 229.521 2563.31C231.845 2561.25 233.653 2558.28 235.073 2555.31C239.463 2546.01 241.4 2535.17 247.597 2527.16C249.534 2524.71 251.858 2522.51 254.44 2521.74C257.022 2520.97 260.121 2521.74 261.412 2524.19C262.445 2526.13 262.187 2528.84 261.283 2531.17C260.379 2533.49 258.959 2535.55 257.539 2537.49C254.182 2542.14 250.696 2546.79 247.081 2551.31C242.433 2557.25 242.433 2566.28 242.82 2573.64C243.078 2577.26 243.724 2581 245.144 2583.97C246.693 2587.07 249.276 2589.39 252.374 2590.04C255.473 2590.69 259.217 2589.27 261.412 2586.04C262.961 2583.71 263.478 2580.87 263.478 2578.16C263.478 2575.45 262.961 2572.87 262.574 2570.29C261.799 2564.73 261.929 2558.8 263.607 2553.11C265.285 2547.43 268.513 2542.01 273.032 2538.91C275.614 2537.1 279.1 2536.2 280.908 2538.4C282.845 2540.59 281.941 2544.72 280.779 2547.95C278.584 2554.41 276.518 2560.86 274.323 2567.32C272.903 2571.71 272.516 2576.1 273.807 2580.23C276.002 2587.07 279.359 2593.27 283.619 2598.56C285.943 2601.4 288.655 2603.98 292.141 2604.5C296.272 2605.15 301.05 2602.18 303.244 2597.53C305.439 2592.88 305.698 2586.68 302.599 2583.71Z" fill="#FFD7CC"/>
<path d="M374.515 2333.64C375.935 2330.15 376.451 2326.53 381.099 2325.11C384.844 2323.95 388.846 2324.86 392.72 2325.63C396.593 2326.4 400.854 2326.79 404.21 2324.86C409.246 2322.01 411.957 2314.66 417.638 2315.04C420.35 2315.17 422.674 2317.24 425.385 2317.37C430.549 2317.63 433.261 2311.69 436.876 2307.94C441.524 2303.16 448.625 2302 454.952 2299.94C461.278 2297.87 468.121 2293.74 468.896 2287.15C469.67 2280.57 463.086 2274.63 456.501 2275.02C449.916 2275.28 444.364 2280.83 442.686 2287.28C441.911 2290.25 437.909 2289.48 435.068 2288.06C432.357 2286.64 430.033 2284.06 426.934 2283.67C422.803 2283.28 419.575 2287.28 417.638 2291.03C415.831 2294.77 414.023 2299.16 410.279 2300.84C404.469 2303.55 397.238 2298.39 391.17 2300.71C386.393 2302.65 384.456 2308.33 380.325 2311.3C374.386 2315.69 366.122 2313.62 359.796 2316.72C353.598 2319.82 351.791 2327.57 344.173 2329.25C340.687 2330.02 337.072 2329.37 333.586 2329.89C328.809 2330.54 324.419 2333.51 321.966 2337.64C318.867 2343.06 319.384 2350.81 322.999 2355.84C325.581 2359.33 330.875 2359.84 334.877 2358.04C343.269 2354.29 343.011 2342.29 353.728 2342.16C356.181 2342.16 358.505 2342.8 360.958 2342.8C365.735 2342.93 370.254 2340.22 372.836 2336.22C373.74 2335.57 374.127 2334.67 374.515 2333.64Z" fill="#008DB5"/>
<path d="M391.295 2082.75C405.756 2094.76 411.566 2115.67 406.272 2133.75C401.108 2151.82 385.744 2166.15 367.668 2171.45C366.248 2162.41 368.184 2153.24 371.929 2144.85C375.544 2136.46 380.708 2128.97 385.873 2121.48C377.739 2127.42 369.605 2133.49 360.438 2137.49C351.271 2141.49 340.683 2143.43 331 2140.85C332.808 2130.26 339.78 2121.09 348.301 2114.51C356.693 2107.92 366.635 2103.41 376.448 2099.02C372.703 2100.69 360.825 2094.5 357.339 2092.95C353.853 2091.4 340.683 2086.1 339.909 2081.97C339.005 2077.33 350.625 2074.61 353.982 2073.97C360.05 2072.68 366.377 2072.68 372.574 2073.97C379.288 2075.26 385.873 2078.23 391.295 2082.75Z" fill="#8BCBCA"/>
<path d="M188.851 2625.68C179.942 2629.55 169.872 2630.84 160.188 2629.29C157.606 2628.9 154.895 2628.26 152.7 2626.71C150.505 2625.16 148.826 2622.71 149.085 2619.99C149.343 2616.51 152.441 2613.93 155.669 2612.89C158.897 2611.86 162.512 2612.12 165.869 2611.73C177.102 2610.7 187.56 2603.6 192.724 2593.53C197.889 2583.46 197.502 2570.8 191.821 2560.99C190.4 2558.54 188.464 2556.21 185.752 2555.44C183.299 2554.79 180.588 2555.7 178.522 2557.37C176.456 2559.05 175.036 2561.25 173.745 2563.44C164.191 2579.71 159.284 2599.21 145.469 2611.99C143.662 2613.67 141.338 2615.35 138.756 2615.22C135.14 2614.96 132.945 2610.96 132.687 2607.34C131.783 2595.2 144.566 2586.3 147.406 2574.42C148.568 2569.38 147.793 2563.83 145.211 2559.31C143.791 2556.86 141.596 2554.53 138.756 2554.41C137.077 2554.41 135.399 2555.18 133.978 2556.21C127.781 2560.34 123.391 2567.32 122.358 2574.8C120.809 2586.17 126.619 2597.14 127.91 2608.63C128.297 2612.25 127.781 2616.64 124.553 2618.32C121.454 2619.99 117.452 2618.06 115.257 2615.22C111.771 2610.57 111.771 2604.37 111.9 2598.56C112.158 2587.46 112.287 2576.35 112.546 2565.25C112.675 2560.22 104.283 2558.41 99.5054 2559.96C94.7282 2561.51 91.5004 2566.41 90.7257 2571.32C89.9511 2576.35 91.3713 2581.39 93.5662 2586.04C95.7611 2590.56 98.7307 2594.69 101.313 2599.08C105.186 2605.66 108.285 2612.89 110.222 2620.25C111.642 2625.29 112.029 2631.74 107.639 2634.58C105.315 2636.13 102.217 2636 99.7636 2634.84C97.3105 2633.68 95.3738 2631.61 93.8244 2629.42C90.4675 2624.51 89.0473 2618.32 89.6928 2612.38C90.2093 2608.5 91.5004 2604.89 92.0168 2601.14C92.5333 2597.4 92.2751 2593.14 89.8219 2590.17C86.0777 2585.65 78.2018 2586.04 73.9411 2590.3C69.8095 2594.56 69.0349 2601.27 70.7133 2606.95C72.5209 2612.63 76.3943 2617.41 80.655 2621.54C84.9157 2625.68 89.5637 2629.55 93.308 2634.07C95.1155 2636.26 96.6649 2638.59 97.3105 2641.3C97.956 2644.01 97.4396 2647.11 95.3738 2649.04C93.308 2650.98 90.2093 2651.24 87.627 2650.34C85.0448 2649.43 82.8499 2647.5 81.3005 2645.17C78.2018 2640.78 76.9107 2635.49 75.2323 2630.45C73.5538 2625.42 71.1007 2620.25 66.5817 2617.28C62.0628 2614.44 55.0907 2614.83 52.3794 2619.48C49.7971 2623.87 52.3794 2629.81 56.2527 2633.03C60.2552 2636.39 65.4197 2638.07 69.8095 2640.65C74.3285 2643.36 78.8474 2646.46 82.979 2649.95C84.3992 2651.24 85.9486 2652.79 85.6903 2654.73C85.4321 2657.18 82.2043 2658.21 79.8803 2657.44C77.5563 2656.66 75.8778 2654.73 74.0702 2653.05C66.4526 2645.69 55.349 2642.33 45.02 2644.01C38.8226 2645.04 32.6252 2648.14 30.0429 2653.82C27.4607 2659.5 30.0429 2667.51 36.1112 2668.93C39.2099 2669.57 42.5668 2668.41 45.2782 2666.73C47.9896 2665.05 50.3136 2662.73 53.0249 2660.92C57.9312 2657.57 63.9995 2655.76 69.9386 2655.76C73.2956 2655.76 77.298 2657.18 77.6854 2660.41C77.9436 2663.63 74.5867 2665.7 71.6171 2667.12C65.0324 2670.22 58.5768 2673.71 53.2832 2678.61C47.9896 2683.52 43.9871 2690.23 43.3415 2697.33C42.9542 2701.08 43.7288 2705.08 46.182 2707.92C50.83 2712.83 59.4806 2711.41 64.2577 2706.5C69.0349 2701.72 70.8424 2694.75 72.3918 2688.17C73.9411 2681.58 75.7487 2674.61 80.2676 2669.7C86.0777 2663.5 87.627 2672.93 88.0144 2677.06C88.5308 2683.9 87.8853 2690.75 88.1435 2697.46C88.5308 2705.47 90.4675 2712.96 97.5687 2717.6C105.832 2723.03 116.677 2722.25 118.872 2711.15C120.034 2705.47 116.548 2699.91 112.287 2696.04C108.027 2692.17 102.991 2689.33 99.118 2685.07C93.9535 2679.26 91.5004 2671.12 92.7915 2663.51C93.1789 2661.31 93.8244 2659.12 95.3738 2657.7C98.8598 2654.47 104.928 2656.27 107.639 2660.15C110.351 2664.02 110.609 2669.06 110.867 2673.7C111.125 2679 114.095 2683.13 116.936 2687.65C118.743 2690.49 121.196 2693.2 124.295 2694.62C127.394 2696.04 131.525 2695.78 133.849 2693.46C135.915 2691.39 136.561 2688.17 135.915 2685.33C135.269 2682.48 133.591 2679.9 131.783 2677.71C125.973 2670.74 117.71 2665.44 113.966 2657.18C112.804 2654.73 112.158 2651.76 112.675 2649.17C113.191 2646.59 115.386 2644.01 118.227 2643.62C120.422 2643.36 122.616 2644.4 124.166 2645.95C125.715 2647.5 126.748 2649.43 127.781 2651.37C130.105 2656.02 132.3 2660.66 134.495 2665.31C137.335 2671.51 144.953 2674.48 151.409 2676.42C154.636 2677.45 157.993 2677.97 161.35 2677.58C164.707 2677.19 167.935 2675.64 170.001 2672.93C172.067 2670.22 172.583 2666.35 171.034 2663.38C169.872 2661.18 167.677 2659.76 165.353 2658.99C163.029 2658.08 160.576 2657.69 158.251 2657.18C153.216 2656.02 148.181 2654.08 144.178 2650.72C140.176 2647.37 137.206 2642.72 136.69 2637.42C136.432 2634.45 137.335 2630.97 140.047 2630.06C142.887 2629.03 145.857 2631.23 148.181 2633.29C152.571 2637.3 157.089 2641.43 161.479 2645.43C164.578 2648.14 168.064 2649.95 172.196 2650.08C179.039 2650.21 186.011 2649.17 192.595 2647.11C196.081 2645.95 199.697 2644.27 201.762 2641.3C204.345 2637.68 204.086 2632.39 201.246 2629.03C198.664 2626.19 192.983 2624 188.851 2625.68Z" fill="#009158"/>
<path d="M451.465 2464.16C442.428 2465.58 433.777 2468.93 425.385 2472.68C414.281 2477.58 403.048 2483.91 396.98 2494.5C395.043 2497.85 393.752 2501.6 394.398 2505.34C395.172 2510.38 399.433 2514.25 404.081 2516.19C407.696 2517.74 413.377 2518.38 415.572 2522.26C418.154 2526.78 413.765 2534.01 414.281 2539.3C415.056 2546.4 420.866 2553.37 427.967 2552.99C431.582 2552.73 434.81 2550.66 438.167 2549.37C441.524 2548.08 445.914 2547.69 448.367 2550.4C451.207 2553.5 449.916 2558.41 450.949 2562.54C452.369 2567.96 458.179 2571.32 463.731 2571.32C469.283 2571.32 474.447 2568.61 478.966 2565.25C489.424 2557.5 497.171 2546.01 500.786 2533.49C504.531 2520.97 504.272 2507.41 500.657 2494.76C497.559 2484.04 491.361 2473.32 481.419 2467.64C473.156 2462.74 460.891 2462.74 451.465 2464.16Z" fill="#EC1728"/>
<path d="M487.23 2670.48L482.065 2665.57L451.078 2700.69L463.473 2732.58L441.911 2748.46L434.939 2692.17L451.724 2669.06L444.364 2654.85L468.508 2635.62L463.989 2629.94L441.007 2648.4L432.615 2632.26L426.418 2635.36L443.46 2668.15L430.291 2686.49L401.499 2670.73L407.567 2628.9L395.56 2624L410.408 2592.75L404.081 2589.52L388.975 2621.28L369.737 2613.28L367.284 2619.86L399.821 2633.42L395.043 2667.12L388.33 2663.5L359.667 2662.86L359.796 2669.96L386.78 2670.61L401.241 2678.48L351.791 2698.62L335.006 2672.03L329.196 2675.64L345.852 2702.11L320.158 2721.48L324.419 2727.29L352.307 2706.24L382.261 2693.98L381.487 2708.31L388.459 2708.95L389.492 2691.13L409.375 2683L428.096 2693.2L433.261 2734.77L399.95 2727.29L373.611 2717.09L371.287 2723.8L393.365 2732.32L378.775 2751.82L384.456 2756.34L400.595 2734.77L434.164 2742.26L437.521 2769.89L444.364 2769.25L442.815 2756.72L471.865 2735.16L460.374 2705.6L492.652 2708.31L492.911 2701.08L462.569 2698.62L487.23 2670.48Z" fill="#008DB5"/>
<path d="M145.082 85.7889C143.274 81.0118 139.272 76.622 140.305 71.7157C141.079 67.9714 144.307 65.2601 145.728 61.774C148.568 54.1564 141.725 46.0223 142.887 38.0174C143.662 32.8529 147.793 28.8504 150.892 24.5897C153.991 20.329 156.315 14.3898 153.345 10C156.315 10.5164 158.122 13.8734 157.864 16.9721C157.606 20.0708 156.057 22.7821 154.765 25.4935C150.892 33.6276 149.472 42.7945 150.376 51.5742C150.892 56.0931 151.925 60.8703 149.73 64.8727C147.922 68.1006 144.178 70.5537 144.178 74.1688C144.178 77.6549 147.535 79.8498 149.73 82.5611C154.895 88.6294 153.991 98.8293 147.793 103.865C152.312 105.672 156.573 100.12 156.573 95.3433C156.573 90.5661 154.378 85.9181 154.765 81.0118C155.54 71.1992 166.773 64.0981 166.386 54.1564C166.256 50.9286 164.836 47.7008 165.482 44.6021C166.127 41.3743 170.517 38.7921 172.454 41.3743C170.259 49.7666 168.064 58.1589 165.869 66.5512C164.061 73.7815 162.125 81.0118 161.608 88.5003C161.35 93.1483 161.479 97.9255 160.188 102.444C158.381 108.513 148.31 116.905 143.533 108.125C140.305 101.928 148.181 93.5357 145.082 85.7889Z" fill="#8AAA9A"/>
<path d="M357.859 550.077C354.889 551.239 351.92 554.596 353.727 557.307C354.76 558.857 356.955 559.244 358.892 559.373C367.413 560.148 376.064 560.793 384.585 561.568C391.299 562.084 398.142 562.73 404.856 561.697C411.57 560.664 418.284 557.824 422.673 552.788C423.448 552.014 424.094 550.981 424.094 549.819C424.094 548.011 422.286 546.591 420.608 546.333C418.929 546.074 416.992 546.72 415.314 547.236C408.213 549.173 400.724 549.431 393.623 548.011C388.846 547.107 384.327 545.3 379.679 544.525C370.641 542.847 365.735 547.236 357.859 550.077Z" fill="#767777"/>
<path d="M67.6147 383.78C65.678 384.555 63.7413 386.75 64.9033 388.557C65.5489 389.59 67.0982 389.848 68.2602 389.977C73.9412 390.494 79.493 390.881 85.1739 391.398C89.5638 391.785 94.0827 392.172 98.4725 391.527C102.862 390.881 107.252 389.074 110.093 385.588C110.609 385.071 110.996 384.426 110.996 383.651C110.996 382.489 109.834 381.585 108.672 381.327C107.51 381.198 106.348 381.585 105.186 381.843C100.538 383.135 95.632 383.264 90.984 382.36C87.8853 381.714 84.9157 380.552 81.817 380.036C76.007 379.003 72.7792 381.843 67.6147 383.78Z" fill="#D8BF8B"/>
<path d="M410.537 1328.37C402.145 1328.24 392.074 1329.27 386.78 1322.81C382.649 1317.91 383.165 1310.68 381.099 1304.61C376.322 1291.31 360.441 1286.53 348.95 1278.27C326.227 1261.74 321.837 1225.08 340.171 1203.77C343.657 1213.46 340.558 1224.17 338.88 1234.37C337.072 1244.57 337.459 1256.71 345.593 1263.16C354.89 1270.65 369.35 1266.78 379.292 1273.11C394.011 1282.53 391.816 1309 408.213 1315.07C414.539 1317.39 421.512 1315.58 428.225 1316.1C434.939 1316.62 442.557 1321.78 441.137 1328.37C448.625 1326.69 448.625 1315.33 443.59 1309.65C438.554 1303.96 430.808 1301.12 425.772 1295.44C421.899 1291.18 419.962 1285.5 418.025 1280.08C412.474 1264.07 407.051 1248.19 401.499 1232.18C399.692 1226.75 397.755 1220.82 399.821 1215.39C401.886 1209.97 409.762 1206.87 413.507 1211.26C416.347 1214.62 414.927 1219.65 414.669 1223.91C414.281 1230.76 417.251 1237.21 420.35 1243.28C427.838 1258 436.489 1272.2 446.172 1285.76C452.369 1294.41 459.083 1303.06 462.44 1313.26C465.797 1323.46 464.893 1335.73 457.276 1343.21C438.425 1361.94 427.709 1328.75 410.537 1328.37Z" fill="#909AB2"/>
<path d="M136.431 2567.33L137.335 2560.61L93.5662 2555.71L75.6196 2582.43L51.7338 2574.3L91.5004 2538.54L118.356 2539.05L125.328 2525.75L153.216 2533.89L155.282 2527.43L128.556 2519.69L136.431 2504.45L130.751 2501.35L114.611 2532.21L93.308 2531.82L89.951 2501.22L125.457 2483.28L122.875 2471.4L155.024 2465.97L154.12 2459.39L121.454 2464.81L117.194 2445.57L110.738 2447.25L117.839 2479.79L89.1764 2494.25L88.4017 2487.15L73.4247 2464.55L68.0019 2468.43L82.0752 2489.73L83.7536 2505.1L41.5339 2477.85L53.0249 2450.48L47.0857 2448.03L35.5947 2475.14L6.8027 2465.85L4.60779 2472.17L35.9821 2482.37L61.5463 2498.9L50.0553 2506L53.2831 2511.68L67.7437 2502.9L84.6574 2513.88L86.8523 2533.89L57.5438 2560.23L45.4073 2530.53L39.0808 2504.71L32.6252 2506.52L38.0479 2528.21L15.0659 2527.43L14.5494 2534.15L39.9846 2535.05L52.2502 2565L32.7543 2582.43L37.015 2587.47L45.9237 2579.59L78.0727 2590.31L94.8573 2565.52L110.222 2591.86L115.903 2588.24L101.442 2563.33L136.431 2567.33Z" fill="#EC1728"/>
<path d="M385.876 2605.93L381.874 2602.06L356.826 2628.4L365.477 2653.45L348.305 2665.32L344.56 2621.3L358.246 2603.74L352.953 2592.63L372.32 2578.3L368.963 2573.78L350.5 2587.47L344.431 2574.56L339.654 2576.88L351.92 2602.83L341.074 2616.65L319.254 2603.61L325.194 2571.33L315.898 2567.07L328.421 2543.31L323.644 2540.6L310.991 2564.87L296.143 2558.03L294.078 2563.07L318.996 2574.56L314.219 2600.64L309.184 2597.67L286.847 2596.25L286.718 2601.8L307.763 2603.09L318.738 2609.68L279.746 2623.88L267.48 2602.7L262.832 2605.42L274.969 2626.46L254.44 2640.79L257.668 2645.31L279.875 2629.82L303.503 2621.17L302.47 2632.27L307.893 2632.92L309.184 2619.1L324.935 2613.42L339.267 2621.94L341.978 2654.35L316.285 2647.51L296.143 2638.86L294.207 2644.02L311.12 2651.25L299.113 2665.97L303.374 2669.71L316.543 2653.32L342.366 2660.16L344.173 2681.72L349.596 2681.46L348.821 2671.65L371.932 2655.77L363.927 2632.4L388.846 2635.5L389.362 2629.95L365.735 2627.11L385.876 2605.93Z" fill="#008DB5"/>
<path d="M146.115 993.707C146.76 995.644 145.986 997.839 144.824 999.388C143.662 1000.81 141.983 1001.71 140.434 1002.49C128.426 1008.17 115.644 1011.78 102.733 1012.94C97.5686 1013.46 91.8877 1013.33 87.7561 1009.2C85.0447 1006.49 83.6245 1002.49 83.108 998.484C82.7207 994.482 83.108 990.479 83.8827 986.477C86.2067 974.598 90.8548 963.495 97.4395 954.199C98.3433 952.907 99.5053 951.487 100.926 950.842C102.346 950.196 104.153 950.454 105.186 951.875C106.606 953.94 105.703 956.781 104.67 958.976C101.442 966.335 98.2142 973.565 94.9863 980.925C97.3104 975.631 101.7 970.596 105.057 966.206C108.801 961.429 113.062 952.133 119.13 951.1C125.457 950.067 121.196 960.138 119.647 963.107C117.452 967.497 114.611 971.5 111.9 975.373C109.189 979.376 106.348 983.249 103.637 987.251C110.996 978.601 118.227 969.95 125.586 961.171C127.523 958.847 129.588 956.523 132.3 955.49C135.011 954.457 138.368 955.49 139.788 958.459C140.821 960.654 140.434 963.495 139.401 965.56C138.368 967.626 136.561 969.176 135.011 970.725C127.006 977.955 119.001 985.186 110.867 992.416C116.419 993.32 121.713 990.092 126.102 986.348C130.492 982.603 135.011 978.472 140.305 976.922C141.854 976.535 143.403 976.277 144.953 976.922C146.502 977.568 147.793 979.117 147.922 981.054C148.181 984.153 145.34 986.089 143.016 987.251C135.269 990.996 127.394 994.869 119.647 998.613C117.323 999.775 114.482 1000.29 112.417 1002.23C110.092 1004.42 110.867 1006.88 114.224 1007.26C116.677 1007.65 146.115 993.707 146.115 993.707Z" fill="#ACB8DE"/>
</g>
</svg>
