<svg width="2109" height="5888" viewBox="0 0 2109 5888" fill="none" xmlns="http://www.w3.org/2000/svg">
<path d="M564.672 1550C580.472 1528.7 575.572 1499.3 577.772 1472.9C583.072 1408.7 640.672 1353 705.072 1349.9C705.572 1338.5 694.772 1328.9 683.472 1327.1C672.172 1325.3 660.772 1329.5 650.472 1334.6C606.572 1356.3 571.972 1396.3 556.872 1442.9C570.572 1371.1 621.272 1307.5 688.172 1278.1C682.972 1268.3 677.772 1258.4 672.572 1248.6C580.772 1294.6 519.272 1395.3 520.272 1497.9C509.572 1411.5 538.072 1320.9 596.372 1256.2C576.772 1242.1 547.372 1251 531.772 1269.4C516.072 1287.8 510.872 1312.7 507.272 1336.6C499.472 1388.1 496.572 1440.4 498.672 1492.5C493.372 1449.9 487.972 1406.6 471.672 1366.9C455.272 1327.2 426.372 1290.7 386.372 1274.9C377.672 1289.6 368.872 1304.3 360.172 1319C370.072 1311.6 384.472 1312.7 395.172 1318.8C405.972 1324.9 413.672 1335 420.672 1345.3C451.072 1390.2 470.472 1442.5 476.872 1496.3C458.972 1431 396.872 1380.4 329.272 1376.1C327.672 1389.3 326.072 1402.5 324.572 1415.7C325.472 1407.9 394.972 1437.6 400.572 1441.1C423.872 1455.7 443.772 1475.7 458.172 1499.2C469.272 1517.4 473.172 1541.3 490.472 1554.8C512.872 1572.4 546.372 1574.7 564.672 1550Z" fill="#8BCBCA"/>
<path d="M1746.27 1970C1756.47 1952.8 1750.47 1931.1 1750.07 1911.2C1749.07 1862.6 1787.97 1816.4 1835.97 1809.1C1835.47 1800.5 1826.67 1794.1 1818.07 1793.7C1809.47 1793.3 1801.27 1797.3 1793.97 1801.9C1762.67 1821.6 1739.97 1854.2 1732.27 1890.3C1736.97 1835.4 1770.07 1783.8 1817.87 1756.6C1813.17 1749.6 1808.57 1742.6 1803.87 1735.7C1738.67 1777.3 1700.37 1857.6 1709.07 1934.4C1694.27 1870.4 1708.67 1800.4 1747.37 1747.3C1731.57 1738.2 1710.27 1747.2 1699.97 1762.2C1689.67 1777.2 1687.67 1796.3 1686.77 1814.5C1684.87 1853.7 1686.77 1893.1 1692.47 1932C1685.17 1900.4 1677.77 1868.5 1662.47 1840C1647.17 1811.5 1622.57 1786.4 1591.37 1777.7C1585.97 1789.4 1580.57 1801.1 1575.17 1812.8C1581.97 1806.5 1592.87 1806.2 1601.37 1810C1609.87 1813.7 1616.57 1820.7 1622.57 1827.9C1648.87 1859.2 1667.47 1896.9 1676.37 1936.8C1657.87 1889.2 1607.37 1856.1 1556.47 1858.2C1556.27 1868.2 1556.17 1878.2 1555.97 1888.2C1556.07 1882.3 1610.37 1899.1 1614.97 1901.4C1633.57 1910.5 1650.07 1924 1662.67 1940.5C1672.37 1953.3 1677.17 1970.9 1691.17 1979.7C1709.17 1990.9 1734.47 1990 1746.27 1970Z" fill="#D13355"/>
<path d="M271.372 1554C278.472 1547.9 286.172 1538.3 281.272 1530.3C277.472 1524.2 268.772 1523.9 261.672 1525C227.472 1530.6 196.872 1554.7 183.372 1586.7C169.872 1618.7 174.072 1657.4 193.972 1685.8C213.872 1714.2 248.872 1731.3 283.472 1729.5C290.972 1729.1 298.972 1727.7 304.472 1722.5C309.972 1717.3 311.272 1707.3 305.372 1702.5C298.172 1696.6 284.572 1701.2 280.072 1693C276.872 1687.2 281.872 1680 287.972 1677.2C293.972 1674.5 300.972 1674.3 306.972 1671.7C312.972 1669.1 318.272 1662.1 315.472 1656.1C312.972 1651 306.072 1649.9 300.372 1650.9C294.372 1652 281.572 1657.4 275.972 1654.2C273.372 1652.8 271.872 1649.7 272.372 1646.8C273.172 1641.4 279.372 1638.7 284.872 1638.2C297.972 1637.2 313.572 1635.3 315.472 1618.7C316.472 1610.3 309.572 1601.2 301.172 1601.7C295.672 1602.1 291.272 1606 287.172 1609.6C283.072 1613.2 278.272 1616.9 272.772 1616.6C267.272 1616.3 262.372 1609.6 265.772 1605.3C274.872 1603.8 284.572 1602 291.272 1595.6C297.972 1589.2 299.272 1576.5 291.572 1571.5C282.372 1565.5 271.972 1576.5 263.972 1572.3C253.272 1566.7 266.772 1558 271.372 1554Z" fill="#FFD7CC"/>
<path d="M1706.37 4189C1713.47 4182.9 1721.17 4173.3 1716.27 4165.3C1712.47 4159.2 1703.77 4158.9 1696.67 4160C1662.47 4165.6 1631.87 4189.7 1618.37 4221.7C1604.87 4253.6 1609.07 4292.4 1628.97 4320.8C1648.87 4349.2 1683.87 4366.3 1718.47 4364.5C1725.97 4364.1 1733.97 4362.7 1739.47 4357.5C1744.97 4352.3 1746.27 4342.3 1740.37 4337.5C1733.17 4331.6 1719.57 4336.2 1715.07 4328C1711.87 4322.2 1716.87 4315 1722.97 4312.2C1728.97 4309.5 1735.97 4309.3 1741.97 4306.7C1748.07 4304.1 1753.27 4297.1 1750.47 4291.1C1747.97 4286 1741.07 4284.9 1735.37 4285.9C1729.37 4287 1716.57 4292.4 1710.97 4289.2C1708.37 4287.8 1706.87 4284.7 1707.37 4281.8C1708.17 4276.4 1714.37 4273.7 1719.87 4273.2C1732.97 4272.2 1748.57 4270.3 1750.47 4253.7C1751.47 4245.3 1744.57 4236.2 1736.17 4236.7C1730.67 4237.1 1726.27 4241 1722.17 4244.6C1718.07 4248.2 1713.27 4251.9 1707.77 4251.6C1702.27 4251.3 1697.37 4244.6 1700.77 4240.3C1709.87 4238.8 1719.57 4237 1726.27 4230.6C1732.97 4224.2 1734.27 4211.5 1726.57 4206.5C1717.37 4200.5 1706.97 4211.5 1698.97 4207.3C1688.27 4201.7 1701.77 4193 1706.37 4189Z" fill="#FFD7CC"/>
<path d="M334.372 5707.1C335.072 5697.8 333.772 5685.5 324.672 5683.3C317.672 5681.6 311.272 5687.6 307.072 5693.4C286.872 5721.6 282.272 5760.2 295.372 5792.3C308.472 5824.4 338.772 5848.9 372.872 5854.9C406.972 5860.9 443.872 5848.2 467.072 5822.5C472.172 5816.9 476.772 5810.2 476.972 5802.7C477.172 5795.2 470.972 5787.1 463.472 5787.9C454.172 5788.9 447.872 5801.7 438.872 5799.1C432.472 5797.3 430.972 5788.6 433.272 5782.4C435.572 5776.2 440.372 5771.2 442.872 5765.1C445.272 5759 444.072 5750.3 437.872 5748.1C432.472 5746.2 426.772 5750.4 423.572 5755C420.072 5760 414.972 5772.9 408.672 5774.6C405.872 5775.4 402.572 5774.3 400.872 5771.9C397.572 5767.5 400.072 5761.2 403.672 5757C412.272 5747 421.972 5734.7 411.572 5721.6C406.272 5715 394.972 5713.4 389.472 5719.7C385.872 5723.8 385.472 5729.7 385.172 5735.2C384.772 5740.7 384.072 5746.7 379.972 5750.3C375.872 5754 367.672 5752.7 367.072 5747.2C372.472 5739.7 378.072 5731.5 378.272 5722.3C378.472 5713.1 370.472 5703.1 361.372 5705.1C350.672 5707.4 351.072 5722.5 342.372 5725.2C330.572 5728.9 333.872 5713.1 334.372 5707.1Z" fill="#FF863A"/>
<path d="M1933.77 2152.4C1942.07 2151.1 1950.57 2155.1 1955.67 2160.7C1960.87 2166.3 1963.27 2173.3 1965.47 2180.1C1981.97 2231.2 1989.37 2284.3 1987.27 2337.1C1986.47 2358 1982.97 2381 1964.47 2395.1C1952.37 2404.4 1935.37 2408.2 1918.97 2407.8C1902.57 2407.4 1886.67 2403.2 1871.47 2398.1C1824.97 2382.5 1782.87 2357.7 1749.47 2326.5C1744.57 2321.9 1739.67 2316.9 1737.77 2311C1735.87 2305.1 1737.87 2297.8 1744.17 2294.6C1752.97 2290.2 1763.87 2295.4 1772.17 2300.4C1799.67 2317.2 1827.27 2334 1854.77 2350.8C1834.87 2338.6 1816.87 2318.5 1801.17 2302.7C1783.87 2285.4 1748.77 2263.2 1748.07 2238.4C1747.27 2212.4 1785.57 2235.2 1796.57 2242.5C1813.17 2253.6 1827.47 2266.9 1841.67 2280.1C1855.97 2293.3 1870.27 2306.5 1884.67 2319.7C1853.77 2285.7 1822.97 2251.7 1792.07 2217.8C1783.87 2208.8 1775.37 2199.3 1772.87 2188.1C1770.37 2176.9 1775.97 2163.6 1788.67 2159.7C1798.27 2156.7 1809.27 2159.8 1817.07 2165.3C1824.87 2170.8 1830.17 2178.4 1835.17 2185.8C1859.97 2221.9 1884.67 2258 1909.47 2294.1C1916.07 2272.3 1905.77 2249.6 1893.47 2229.6C1881.17 2209.6 1866.47 2189.8 1863.37 2167.5C1862.47 2161.2 1862.67 2154.5 1865.97 2148.8C1869.27 2143.1 1876.27 2138.5 1883.87 2138.8C1896.57 2139.4 1902.87 2151.8 1906.17 2162C1917.17 2195.3 1928.07 2228.5 1939.07 2261.8C1942.37 2271.8 1943.17 2283.6 1949.57 2292.7C1957.07 2303.3 1967.67 2301.2 1970.87 2288.4C1973.57 2278 1933.37 2152.5 1933.77 2152.4Z" fill="#FFDF00"/>
<path d="M1307.17 4876C1310.47 4885.3 1307.67 4896.1 1302.37 4903.3C1296.97 4910.5 1289.47 4914.9 1281.97 4918.9C1226.27 4949.2 1166.17 4969.3 1104.37 4978.4C1079.87 4982 1052.37 4983 1031.97 4964.6C1018.57 4952.5 1010.47 4933.6 1007.27 4914.5C1004.17 4895.4 1005.57 4876 1008.17 4857.2C1016.17 4799.8 1035.77 4745.5 1064.77 4699.9C1069.07 4693.2 1073.77 4686.5 1080.27 4683C1086.77 4679.5 1095.67 4680.2 1100.77 4686.9C1107.77 4696.1 1104.17 4710 1100.07 4720.7C1086.57 4756.3 1073.07 4792 1059.47 4827.6C1069.27 4801.8 1088.67 4776.6 1103.67 4754.8C1120.07 4730.9 1138.07 4685.4 1166.77 4679.1C1196.77 4672.5 1178.67 4721.9 1172.57 4736.3C1163.27 4758 1150.87 4777.5 1138.77 4796.9C1126.57 4816.4 1114.37 4835.9 1102.17 4855.4C1134.87 4812.1 1167.67 4768.9 1200.37 4725.6C1209.07 4714.1 1218.27 4702.2 1230.67 4696.9C1243.07 4691.6 1259.77 4695.1 1267.17 4709.1C1272.67 4719.6 1271.57 4733.1 1266.87 4743.4C1262.17 4753.7 1254.57 4761.4 1247.07 4768.9C1210.57 4805.5 1173.97 4842.1 1137.47 4878.8C1164.17 4881.7 1188.37 4864.8 1208.97 4846.2C1229.47 4827.6 1249.27 4806.2 1274.47 4797.7C1281.67 4795.3 1289.37 4794 1296.77 4796.6C1304.17 4799.2 1310.97 4806.4 1312.27 4815.3C1314.37 4830.2 1301.37 4840.1 1290.17 4846.3C1253.87 4866.3 1217.67 4886.3 1181.37 4906.2C1170.47 4912.2 1156.97 4915.7 1147.77 4925.1C1137.07 4936.1 1141.77 4948 1157.47 4948.9C1169.97 4949.6 1306.97 4875.6 1307.17 4876Z" fill="#E2F1DD"/>
<path d="M1918.67 4669C1921.07 4677 1918.27 4686 1913.37 4691.8C1908.47 4697.7 1901.97 4701 1895.47 4704.1C1847.07 4727.2 1795.37 4741.6 1742.67 4746.5C1721.77 4748.5 1698.57 4748 1682.17 4731.6C1671.37 4720.8 1665.37 4704.5 1663.57 4688.2C1661.77 4671.9 1663.77 4655.6 1666.87 4639.8C1676.17 4591.6 1695.17 4546.6 1721.67 4509.4C1725.57 4503.9 1729.87 4498.4 1735.57 4495.8C1741.27 4493.2 1748.67 4494.1 1752.67 4500C1758.17 4508.1 1754.47 4519.7 1750.57 4528.5C1737.57 4558 1724.57 4587.5 1711.57 4617.1C1720.97 4595.7 1738.57 4575.3 1752.17 4557.6C1767.07 4538.2 1784.37 4500.5 1808.87 4496.4C1834.57 4492.1 1816.97 4533.1 1811.17 4545C1802.37 4562.9 1791.07 4578.9 1779.87 4594.7C1768.67 4610.6 1757.47 4626.6 1746.27 4642.5C1775.87 4607.4 1805.47 4572.3 1835.07 4537.2C1842.97 4527.9 1851.27 4518.2 1861.97 4514.3C1872.67 4510.4 1886.67 4514.1 1892.27 4526.2C1896.47 4535.3 1894.87 4546.7 1890.47 4555.1C1886.07 4563.6 1879.27 4569.8 1872.57 4575.8C1840.07 4605.1 1807.57 4634.4 1775.07 4663.8C1797.57 4667.4 1818.77 4654.2 1836.87 4639.4C1855.07 4624.6 1872.67 4607.4 1894.37 4601.3C1900.57 4599.6 1907.17 4598.9 1913.27 4601.4C1919.37 4603.9 1924.87 4610.3 1925.47 4617.9C1926.57 4630.6 1915.17 4638.4 1905.37 4643.1C1873.87 4658.4 1842.27 4673.7 1810.77 4688.9C1801.27 4693.5 1789.77 4695.8 1781.57 4703.4C1771.97 4712.2 1775.47 4722.5 1788.67 4724C1799.47 4725.1 1918.57 4668.7 1918.67 4669Z" fill="#ACB8DE"/>
<path d="M617.771 1736.3C613.171 1721.3 606.971 1706.1 595.271 1695.7C583.571 1685.3 565.071 1681.1 551.871 1689.7C542.171 1696.1 536.871 1708.1 526.271 1712.8C516.871 1716.9 506.171 1714 496.071 1712.3C485.971 1710.6 473.971 1710.9 467.571 1718.9C460.571 1727.8 464.471 1740.7 467.971 1751.6C471.471 1762.5 472.871 1776.7 463.371 1783C457.071 1787.2 447.271 1786.5 443.471 1793C440.771 1797.6 442.671 1803.5 444.871 1808.3C456.571 1833 478.171 1852.1 502.471 1864.6C525.671 1876.6 615.371 1912.1 629.971 1874.4C635.771 1859.4 629.771 1829.7 629.571 1813.5C629.271 1787.4 625.371 1761.3 617.771 1736.3Z" fill="#FFDF00"/>
<path d="M522.872 2250.3C605.372 2258.5 678.072 2202.3 718.372 2134.9C722.272 2128.3 726.072 2121.1 725.772 2113.4C725.472 2105.7 719.472 2097.8 711.772 2098.2C706.472 2098.5 702.172 2102.4 698.372 2106.1C678.372 2125.4 658.872 2145.9 638.772 2164.9C626.772 2176.2 612.972 2185.5 599.472 2194.8C587.772 2202.9 576.872 2212.1 564.072 2218.1C537.872 2230.3 514.072 2239.3 484.872 2230.6C477.672 2228.5 469.572 2223.9 469.272 2216.3C468.972 2209.3 476.172 2203.9 483.172 2202.9C490.172 2201.9 497.172 2203.7 504.272 2204.1C512.672 2204.5 518.672 2200.7 525.672 2196.9C610.972 2150.2 682.972 2081.6 730.872 1996.7C735.772 1988.1 740.272 1977.1 734.872 1968.8C730.072 1961.6 719.472 1960.4 711.572 1963.9C703.672 1967.3 697.872 1974.1 692.272 1980.7C652.672 2027.8 613.172 2075 573.572 2122.1C556.772 2142.1 537.172 2161.2 514.872 2174.7C511.372 2176.8 507.572 2178.7 503.572 2179.2C499.472 2179.7 495.072 2178.8 492.172 2175.9C487.872 2171.6 488.172 2164.1 491.272 2158.8C494.372 2153.5 499.572 2149.9 504.672 2146.4C521.972 2134.5 533.472 2117 546.672 2100.6C560.572 2083.3 574.672 2066.1 588.472 2048.7C607.072 2025.7 625.972 2002 635.272 1973.9C641.672 1954.7 643.472 1931 635.372 1912C627.372 1893.2 614.772 1903.4 607.372 1916.4C600.572 1928.5 593.772 1940.6 586.872 1952.7C572.772 1977.6 558.772 2002.6 544.672 2027.5C533.672 2047 522.272 2066.3 511.672 2085.9C502.072 2103.7 496.072 2124.5 488.772 2143.6C487.072 2148.1 485.272 2152.7 482.172 2156.3C479.072 2159.9 474.272 2162.5 469.572 2161.7C464.172 2160.8 460.272 2155.7 459.172 2150.4C458.072 2145.1 458.972 2139.5 460.172 2134.2C464.772 2112.7 471.372 2091.5 479.772 2071.2C483.972 2061 488.672 2051.1 493.872 2041.3C498.372 2032.7 500.172 2023.4 502.572 2014C513.572 1970.7 524.572 1927.4 535.572 1884.1C537.772 1875.5 539.572 1865.2 533.672 1858.6C528.272 1852.6 518.372 1852.6 511.372 1856.6C504.272 1860.5 499.472 1867.4 495.072 1874.2C469.072 1913.9 448.872 1957.5 434.972 2002.9C428.072 2025.6 424.172 2048.6 419.072 2071.7C414.472 2092.6 419.972 2117.9 421.572 2139.3C422.072 2146.2 421.672 2154.7 415.572 2157.9C409.172 2161.2 401.672 2155.9 397.372 2150.2C383.572 2132 386.972 2115.2 389.572 2094.6C391.072 2082.6 389.572 2069.7 390.772 2057.5C391.872 2045.7 393.572 2033.9 395.272 2022.2C402.272 1976.3 409.372 1930.4 416.372 1884.5C418.772 1869.1 417.072 1847.8 401.772 1845.3C391.172 1843.6 382.372 1853.2 376.272 1862.2C350.872 1900 335.072 1944.1 329.572 1989.2C326.772 2012 326.472 2035.2 328.872 2058.1C330.072 2069.3 331.872 2080.4 334.272 2091.4C336.372 2100.9 336.272 2110.5 344.072 2117.4C349.072 2121.8 355.072 2125 359.372 2130.1C363.572 2135.2 365.372 2143.4 360.872 2148.2C357.672 2151.6 352.272 2152.2 347.772 2150.7C343.372 2149.2 339.672 2146 336.472 2142.6C305.472 2110.3 301.172 2059.6 306.472 2017.4C309.972 1989.3 316.572 1961.3 315.772 1933C315.672 1929.6 315.172 1925.6 312.172 1923.9C309.572 1922.3 305.972 1923.4 303.772 1925.5C301.572 1927.6 300.372 1930.6 299.272 1933.4C285.672 1968.5 269.072 2000.7 265.772 2038.9C262.872 2072.8 268.472 2108.4 287.472 2136.5C314.272 2176.3 349.972 2170.2 387.572 2187.6C434.572 2209.7 467.772 2244.8 522.872 2250.3Z" fill="#ACB8DE"/>
<path d="M816.471 2113.4C843.571 2099.1 878.771 2103.7 902.671 2122.8C926.571 2141.9 938.571 2174.1 935.071 2204.5C920.671 2201.1 907.971 2192.2 897.671 2181.5C887.371 2170.8 879.271 2158.2 871.171 2145.7C875.071 2161.6 879.071 2177.7 879.271 2194.1C879.571 2210.5 875.871 2227.5 865.871 2240.5C851.171 2231.1 841.771 2214.9 837.071 2198C832.371 2181.1 831.971 2163.4 831.471 2145.9C831.671 2152.5 814.871 2166.6 810.271 2170.8C805.771 2175 789.471 2191.6 782.771 2190.1C775.171 2188.4 778.471 2169.3 779.471 2163.9C781.371 2153.9 785.371 2144.4 791.171 2136C797.771 2126.7 806.371 2118.7 816.471 2113.4Z" fill="#FFD7CC"/>
<path d="M1192.77 1514.2C1174.07 1512.3 1154.27 1512.2 1137.37 1520.4C1120.47 1528.6 1107.27 1547.2 1110.77 1565.7C1113.37 1579.4 1124.27 1590.9 1124.47 1604.8C1124.67 1617.1 1116.57 1627.7 1109.97 1638.1C1103.47 1648.5 1098.17 1662 1104.17 1672.7C1110.87 1684.6 1126.97 1686.2 1140.57 1687.4C1154.17 1688.6 1170.67 1693.6 1173.27 1707C1174.97 1715.9 1169.77 1726.4 1175.27 1733.7C1179.17 1738.8 1186.47 1739.5 1192.87 1739.2C1225.67 1737.7 1256.77 1722.5 1281.87 1701.3C1305.87 1681.1 1386.67 1598.1 1351.57 1564.5C1337.57 1551.1 1301.87 1544 1283.97 1536.8C1254.77 1524.9 1223.97 1517.3 1192.77 1514.2Z" fill="#E2F1DD"/>
<path d="M354.073 4605.3C301.973 4675 313.173 4770.7 351.873 4843.5C355.673 4850.6 360.073 4857.9 367.173 4861.8C374.273 4865.7 384.673 4864.6 388.473 4857.5C391.073 4852.6 389.873 4846.6 388.673 4841.2C382.173 4812.7 374.273 4784.2 368.173 4755.8C364.473 4738.9 363.673 4721.5 362.673 4704.3C361.773 4689.4 359.373 4674.6 360.873 4659.8C364.073 4629.7 368.873 4603.4 392.473 4581.8C398.273 4576.5 406.773 4571.7 413.773 4575.5C420.273 4579.1 421.173 4588.4 418.373 4595.2C415.573 4602 410.073 4607.4 405.973 4613.5C401.073 4620.9 401.173 4628.2 400.873 4636.7C396.573 4738.6 419.273 4840.5 469.573 4929.5C474.673 4938.5 482.073 4948.6 492.473 4948.2C501.473 4947.8 508.273 4938.9 509.473 4930C510.673 4921 507.673 4912.1 504.773 4903.6C483.873 4842.5 462.973 4781.5 441.973 4720.4C433.073 4694.5 426.573 4666.5 426.473 4639.1C426.473 4634.8 426.773 4630.4 428.573 4626.5C430.273 4622.6 433.573 4619.1 437.773 4618.1C443.973 4616.6 450.473 4620.9 453.573 4626.6C456.673 4632.3 457.073 4638.9 457.473 4645.3C458.773 4667.3 468.373 4687.1 475.873 4707.8C483.873 4729.7 491.773 4751.6 499.773 4773.5C510.373 4802.6 521.373 4832.5 541.573 4856C555.373 4872.1 575.673 4886.6 597.073 4889.7C618.273 4892.7 615.973 4875.8 608.273 4862.1C601.073 4849.4 593.973 4836.8 586.773 4824.1C571.973 4798 557.173 4771.8 542.373 4745.7C530.873 4725.3 519.673 4704.6 507.773 4684.4C496.973 4666.1 481.473 4649.4 468.373 4632.6C465.273 4628.6 462.073 4624.6 460.573 4619.8C459.073 4615 459.273 4609.3 462.573 4605.5C466.273 4601.2 472.973 4600.4 478.373 4602.3C483.773 4604.2 488.173 4608 492.373 4611.9C509.273 4627.7 524.673 4645 538.373 4663.6C545.173 4672.9 551.573 4682.5 557.573 4692.4C562.773 4701.1 570.273 4707.7 577.373 4715C610.273 4748.3 643.273 4781.7 676.173 4815C682.773 4821.6 690.973 4828.8 700.073 4827.1C708.373 4825.5 713.673 4816.6 713.973 4808.1C714.273 4799.6 710.673 4791.5 707.073 4783.9C685.473 4739 657.273 4697.3 623.973 4660.2C607.373 4641.7 588.773 4625.7 570.873 4608.7C554.673 4593.2 528.873 4584.5 508.773 4574.3C502.273 4571 494.873 4566.1 495.373 4558.9C495.873 4551.4 504.673 4547.5 512.173 4546.7C535.973 4544.2 549.273 4556.3 566.373 4569.7C576.373 4577.6 588.673 4583.2 599.073 4590.8C609.073 4598.2 618.773 4606 628.273 4614C665.673 4645.2 703.073 4676.3 740.573 4707.5C753.073 4717.9 773.173 4728 783.673 4715.6C790.973 4707 787.073 4693.8 782.273 4683.6C762.073 4640.3 730.973 4602.3 693.473 4572.8C674.473 4557.9 653.773 4545.1 631.973 4534.9C621.273 4529.9 610.273 4525.5 599.073 4521.7C589.373 4518.5 580.873 4513.1 570.373 4516.4C563.773 4518.5 557.573 4522.2 550.673 4523.2C543.773 4524.2 535.473 4521.4 533.573 4514.7C532.273 4510 534.673 4504.8 538.473 4501.6C542.273 4498.4 547.073 4496.9 551.873 4495.8C597.673 4485.4 645.573 4509.1 680.673 4536.6C704.073 4555 725.573 4576.1 751.473 4590.7C754.573 4592.5 758.473 4594.1 761.573 4592.5C764.373 4591 765.373 4587.2 764.673 4584.1C763.973 4581 761.973 4578.3 759.973 4575.8C735.773 4544.5 715.873 4512.2 683.273 4488.6C654.473 4467.6 619.473 4453.4 583.773 4455.2C533.473 4457.7 519.673 4493.1 483.673 4517.5C438.373 4548 388.773 4558.8 354.073 4605.3Z" fill="#FFD7CC"/>
<path d="M908.173 4159.8C947.773 4130.2 1007.87 4121.7 1045.27 4154.1C1072.17 4177.4 1081.17 4218.2 1069.27 4251.7C1057.37 4285.3 1026.67 4310.7 992.073 4319.1C957.473 4327.5 919.973 4320 889.473 4301.5C881.273 4296.5 873.273 4290.7 864.073 4288.1C854.773 4285.5 843.573 4286.8 837.573 4294.3C829.673 4304 834.073 4318.8 841.273 4329C857.373 4351.8 884.173 4364.1 908.573 4377.6C932.973 4391.2 957.973 4409.4 964.773 4436.5C972.173 4465.9 954.773 4497.3 929.773 4514.5C886.573 4544.2 821.273 4534.9 787.973 4494.4C754.673 4453.9 758.373 4388 795.973 4351.4C800.973 4346.6 806.573 4342 809.073 4335.5C811.573 4329 809.273 4320.1 802.573 4318.3C797.973 4317.1 793.273 4319.5 789.173 4321.8C744.873 4345.9 689.473 4354.5 643.673 4333.3C597.873 4312.1 567.473 4256.1 584.873 4208.7C603.073 4159 667.573 4136.8 717.373 4154.9C740.273 4163.2 759.873 4178.3 775.473 4196.8C783.573 4206.5 790.473 4217.1 796.273 4228.2C800.173 4235.6 804.473 4257.5 810.973 4261.8C831.673 4275.7 847.273 4231.2 855.673 4218.4C870.073 4196.5 886.873 4175.7 908.173 4159.8Z" fill="#FF863A"/>
<path d="M223.172 4634.2C279.072 4613.4 287.072 4669.8 286.172 4694.2C285.272 4718.6 296.272 4766.3 331.872 4767.6C367.472 4768.9 371.872 4720.9 370.172 4688.7C368.472 4656.5 389.072 4601.9 436.572 4610C483.972 4618.1 521.372 4651.9 502.072 4705.9C482.772 4759.9 387.572 4816.5 380.172 4850C372.772 4883.5 353.772 4926.8 401.572 4932.4C449.372 4938 435.772 4819.6 480.372 4829.9C524.972 4840.2 554.072 4859.7 541.672 4919.4C529.172 4979 422.072 4950.5 404.372 4992.8C386.772 5035.2 391.172 5066.5 452.772 5074.1C514.372 5081.7 557.272 5032.9 571.672 5065.7C586.172 5098.5 575.872 5143.1 533.972 5140.8C492.072 5138.6 413.872 5104.3 389.672 5112.3C365.472 5120.3 351.172 5143.9 341.072 5151.5C321.572 5166.3 275.772 5173.2 255.172 5137C243.772 5116.9 260.872 5100 241.072 5086.9C221.172 5073.8 143.672 5075.4 126.272 5086.9C108.872 5098.4 49.8723 5082.3 54.5723 5049.7C59.2723 5017.1 98.7723 4974.2 121.472 4994.1C144.172 5014 193.572 5026.3 203.072 5022.5C212.572 5018.8 232.572 4986.8 187.572 4961.3C142.672 4935.8 93.7723 4919.7 94.7723 4886.6C95.6723 4853.5 110.772 4819.8 129.772 4821.3C148.772 4822.8 179.672 4838.8 192.572 4882.8C205.472 4926.8 241.572 4942.3 261.972 4924.8C282.372 4907.3 291.472 4835.7 282.572 4808.8C273.672 4781.9 213.572 4728.5 208.972 4707.3C204.072 4686.4 193.472 4645.2 223.172 4634.2Z" fill="#EF3C45"/>
<path d="M1228.97 4576.6C1260.87 4537.4 1290.97 4575 1300.87 4593.3C1310.67 4611.6 1339.27 4641.6 1365.87 4627.2C1392.47 4612.8 1374.97 4575.9 1359.87 4553.1C1344.67 4530.3 1336.27 4481.5 1374.47 4467C1412.67 4452.5 1454.47 4461.1 1463.67 4508.9C1472.87 4556.7 1427.67 4639.1 1436.77 4666.7C1445.77 4694.3 1450.57 4734.2 1487.87 4717.7C1525.17 4701.2 1464.27 4620.6 1501.27 4608.9C1538.27 4597.2 1567.97 4598.9 1584.57 4647.8C1601.17 4696.7 1510.57 4722 1515.97 4760.6C1521.37 4799.2 1538.07 4820.1 1586.37 4799.2C1634.67 4778.2 1644.97 4724.1 1669.67 4741.8C1694.37 4759.5 1706.07 4796.5 1674.47 4813C1642.87 4829.5 1570.97 4838.1 1556.77 4854.3C1542.57 4870.6 1542.27 4894 1538.17 4903.9C1530.27 4923.1 1499.77 4947.9 1469.17 4930.4C1452.17 4920.7 1457.47 4900.9 1437.27 4899.9C1417.07 4898.9 1361.17 4933.5 1353.47 4949.4C1345.77 4965.3 1295.57 4978.9 1284.97 4953.1C1274.37 4927.3 1284.67 4878.9 1309.87 4883.7C1335.07 4888.5 1376.37 4876.1 1381.77 4869.3C1387.07 4862.5 1387.87 4830.5 1344.07 4831.2C1300.27 4831.9 1257.67 4841.3 1244.07 4816.6C1230.47 4792 1226.97 4760.9 1241.47 4753.8C1255.97 4746.7 1285.47 4745 1313.87 4771.7C1342.27 4798.4 1375.27 4794.1 1382.67 4772.5C1390.07 4750.9 1365.77 4694.7 1347.77 4678.9C1329.67 4663.1 1262.77 4649.9 1250.27 4636.5C1237.77 4623.1 1211.97 4597.5 1228.97 4576.6Z" fill="#FFDF00"/>
<path d="M431.373 4367.1C441.873 4350.9 457.373 4338.6 468.573 4323C479.773 4307.4 485.973 4285.2 475.273 4269.1C461.773 4248.7 428.873 4251.4 410.973 4268C393.073 4284.6 386.373 4309.7 380.573 4333.4C373.973 4359.8 367.473 4386.2 360.873 4412.6C355.573 4433.8 350.373 4456 355.173 4477.3C361.973 4507.4 387.573 4529.7 414.773 4544.2C497.673 4588.5 608.073 4573.9 676.773 4509.7C684.073 4502.9 690.973 4495.4 694.573 4486.1C698.073 4476.8 697.573 4465.4 690.873 4458C660.873 4425 611.873 4487.8 589.673 4502.1C580.173 4508.2 570.173 4514 558.973 4515.8C547.873 4517.7 535.373 4515 527.973 4506.5C518.173 4495.3 520.173 4477.4 528.473 4465.1C539.873 4448.1 563.773 4434 581.373 4423.7C590.973 4418.1 601.273 4413.9 610.073 4407.1C618.773 4400.3 625.973 4390.2 625.373 4379.1C624.673 4365.7 612.573 4354.9 599.473 4351.7C586.373 4348.5 572.673 4351.2 559.573 4354.6C525.373 4363.5 492.373 4377 461.773 4394.6C452.773 4399.8 432.273 4419.2 423.473 4409.6C414.873 4400.2 425.973 4375.3 431.373 4367.1Z" fill="#008753"/>
<path d="M929.971 5538.9C943.971 5517.2 964.971 5500.7 979.971 5479.6C994.971 5458.5 1003.27 5428.8 989.071 5407.2C970.971 5379.8 926.671 5383.4 902.671 5405.7C878.671 5428 869.671 5461.7 861.771 5493.6C852.971 5529.1 844.171 5564.5 835.371 5600C828.271 5628.5 821.171 5658.2 827.671 5686.9C836.771 5727.3 871.171 5757.3 907.671 5776.8C1019.07 5836.2 1167.27 5816.7 1259.57 5730.5C1269.27 5721.4 1278.67 5711.3 1283.47 5698.8C1288.27 5686.3 1287.47 5671 1278.47 5661.1C1238.17 5616.8 1172.37 5701.1 1142.57 5720.3C1129.87 5728.5 1116.27 5736.2 1101.37 5738.7C1086.47 5741.2 1069.67 5737.6 1059.67 5726.2C1046.57 5711.2 1049.27 5687.1 1060.37 5670.6C1075.67 5647.8 1107.77 5628.8 1131.37 5615C1144.17 5607.5 1158.17 5601.8 1169.87 5592.7C1181.57 5583.6 1191.17 5569.9 1190.47 5555.1C1189.57 5537 1173.27 5522.6 1155.77 5518.3C1138.17 5514 1119.77 5517.6 1102.27 5522.2C1056.37 5534.1 1012.07 5552.2 970.871 5575.9C958.771 5582.8 931.171 5609 919.471 5596C907.971 5583.3 922.871 5550 929.971 5538.9Z" fill="#36C7C1"/>
<path d="M1147.67 2655.3C1179.77 2642.5 1194.37 2606.5 1214.87 2578.7C1264.67 2511.1 1366.67 2488.8 1440.17 2529.3C1448.57 2517 1443.17 2499 1431.77 2489.3C1420.37 2479.6 1404.97 2476.5 1390.07 2475.1C1326.57 2469.1 1260.87 2489.8 1212.27 2531.2C1276.57 2461 1376.27 2425.1 1470.47 2438.3C1471.47 2423.8 1472.37 2409.4 1473.37 2394.9C1340.17 2383.1 1203.17 2452.7 1134.07 2567.2C1181.27 2464 1274.77 2383.2 1383.67 2351.3C1371.57 2322.2 1332.97 2312 1302.97 2321.7C1272.97 2331.4 1250.17 2355.4 1229.77 2379.5C1185.87 2431.3 1146.97 2487.3 1113.67 2546.4C1136.97 2495.5 1160.57 2443.9 1169.57 2388.7C1178.57 2333.5 1171.47 2273.2 1137.87 2228.4C1118.17 2238.7 1098.37 2249 1078.67 2259.3C1094.67 2257.8 1109.87 2269 1117.57 2283.1C1125.27 2297.2 1127.07 2313.8 1127.67 2329.9C1130.67 2400.5 1116.47 2471.7 1086.67 2535.8C1111.47 2451.2 1077.17 2352.6 1005.27 2301.7C994.473 2315.3 983.673 2328.8 972.973 2342.4C979.273 2334.4 1035.97 2414.8 1039.87 2422.6C1055.67 2454.7 1064.17 2490.6 1063.97 2526.4C1063.87 2554.1 1051.77 2583.4 1061.67 2610.2C1074.87 2644.7 1110.57 2670.1 1147.67 2655.3Z" fill="#8BCBCA"/>
<path d="M793.073 2966.3C801.673 2949.2 808.673 2925 793.173 2913.7C781.273 2905.1 764.573 2911.4 752.073 2919.1C691.973 2956.5 653.173 3026 652.773 3096.8C652.373 3167.6 690.673 3237.5 750.473 3275.4C810.273 3313.3 889.773 3318.1 953.673 3287.7C967.573 3281.1 981.573 3272 987.773 3257.9C993.973 3243.8 988.573 3223.9 973.873 3219.5C955.673 3214.1 933.573 3233.3 918.773 3221.5C908.173 3213.1 911.973 3195.4 921.173 3185.5C930.373 3175.6 943.373 3169.9 952.773 3160.2C962.173 3150.5 966.673 3133.1 956.473 3124.2C947.773 3116.5 933.773 3119.8 923.973 3126.1C913.573 3132.8 893.673 3153.1 880.473 3151.5C874.473 3150.8 869.273 3146.1 867.773 3140.3C864.973 3129.5 874.673 3119.4 884.573 3114.4C908.573 3102.1 936.473 3086.5 927.073 3053.7C922.273 3037.1 902.173 3025.3 886.773 3032.9C876.773 3037.9 871.473 3048.8 866.473 3058.8C861.573 3068.8 855.373 3079.5 844.873 3083.3C834.373 3087.1 819.773 3078.2 822.773 3067.4C838.773 3057.4 855.773 3046.4 863.273 3029.1C870.773 3011.8 863.473 2986.8 844.873 2983.4C822.873 2979.4 811.873 3008.2 793.373 3006.5C768.873 3004.5 787.473 2977.4 793.073 2966.3Z" fill="#FFD7CC"/>
<path d="M1049.27 5590.2C1055.57 5549.7 1061.77 5509.3 1068.07 5468.8C1086.17 5512.6 1104.27 5556.4 1122.47 5600.3C1119.77 5543 1117.07 5485.6 1114.37 5428.3C1143.37 5493.6 1192.17 5549.8 1252.67 5587.7C1238.87 5531.2 1225.07 5474.6 1211.27 5418.1C1256.77 5448.3 1302.27 5478.5 1347.87 5508.7C1308.77 5451.3 1269.67 5393.9 1230.57 5336.6C1288.67 5384 1365.67 5407.5 1440.37 5400.9C1382.47 5362.6 1324.67 5324.2 1266.77 5285.9C1230.27 5261.7 1192.47 5237 1149.37 5229.3C1116.87 5223.5 1074.47 5229.2 1050.17 5253.9C1031.37 5273 1032.07 5312.3 1027.57 5337.6C1012.17 5421.8 1019.57 5510 1049.27 5590.2Z" fill="#FF863A"/>
<path d="M1902.67 5806.4C1867.17 5810.2 1831.57 5814 1796.07 5817.8C1828.97 5792.7 1861.87 5767.6 1894.77 5742.5C1846.97 5757.6 1799.17 5772.8 1751.47 5787.9C1800.07 5748.8 1836.57 5695 1854.97 5635.5C1810.37 5659.8 1765.77 5684.2 1721.17 5708.5C1736.47 5663.3 1751.77 5618.1 1766.97 5573C1727.37 5618.8 1687.67 5664.7 1648.07 5710.5C1674.97 5650.8 1677.67 5580.6 1655.27 5519.1C1635.87 5576.5 1616.57 5633.9 1597.17 5691.4C1584.97 5727.6 1572.57 5765.1 1575.77 5803.2C1578.17 5831.9 1592.47 5866.4 1618.77 5881.4C1639.07 5893 1672.07 5883.6 1694.47 5881.7C1768.87 5875.4 1841.67 5849.4 1902.67 5806.4Z" fill="#FFDF00"/>
<path d="M129.472 2605.5C134.972 2570.2 140.372 2534.9 145.872 2499.5C161.672 2537.8 177.472 2576 193.372 2614.3C191.072 2564.2 188.672 2514.2 186.372 2464.1C211.672 2521.1 254.272 2570.2 307.072 2603.3C294.972 2554 282.972 2504.6 270.872 2455.3C310.572 2481.7 350.372 2508 390.072 2534.4C355.972 2484.3 321.872 2434.2 287.672 2384.1C338.472 2425.4 405.572 2446 470.772 2440.3C420.272 2406.8 369.772 2373.4 319.172 2339.9C287.272 2318.8 254.272 2297.2 216.672 2290.5C188.272 2285.4 151.272 2290.4 130.072 2312C113.672 2328.7 114.272 2363 110.272 2385C97.1723 2458.4 103.572 2535.4 129.472 2605.5Z" fill="#8BCBCA"/>
<path d="M1220.47 5375.7C1230.47 5366.6 1230.17 5350.5 1226.17 5338.6C1221.97 5326 1213.97 5315 1208.57 5302.9C1196.57 5276.3 1197.67 5244.2 1211.37 5218.4C1222.17 5198.1 1239.97 5182 1249.07 5161C1258.17 5139.9 1253.37 5109.4 1231.47 5102.7C1215.77 5097.9 1198.57 5108.2 1190.17 5122.4C1181.77 5136.6 1180.07 5153.6 1178.57 5170C1165.87 5141.6 1153.17 5113.2 1140.57 5084.8C1143.07 5064 1149.17 5052.9 1151.77 5032.1C1153.67 5016.4 1155.57 5000.2 1150.97 4985.1C1146.37 4970 1133.57 4956.2 1117.77 4955.7C1057.97 4953.8 1098.47 5038.9 1113.17 5061.9C1105.77 5050.9 1095.87 5041.5 1084.37 5034.7C1078.57 5031.2 1072.27 5028.4 1065.57 5027.9C1047.97 5026.6 1037.47 5047.2 1040.37 5062.9C1043.27 5078.6 1057.27 5089.5 1070.27 5098.8C1092.17 5114.5 1114.07 5130.1 1135.97 5145.8C1135.37 5148.7 1133.37 5150.8 1132.77 5153.7C1109.47 5142.9 1086.17 5132.1 1062.87 5121.2C1052.27 5116.3 1037.77 5112.2 1030.57 5121.3C1024.47 5128.9 1028.97 5141 1036.97 5146.6C1044.97 5152.2 1055.07 5153.4 1064.67 5155.4C1072.37 5157 1078.97 5159.2 1086.77 5159.9C1094.67 5160.6 1102.27 5162.7 1109.47 5165.9C1123.67 5172.3 1136.07 5182.9 1145.47 5195.2C1161.47 5216.3 1170.17 5241.9 1178.87 5266.9C1185.47 5285.9 1193.07 5304.6 1200.77 5323.2C1207.57 5339.5 1218.87 5358.2 1220.47 5375.7Z" fill="#00B590"/>
<path d="M1770.97 4308.3C1784.27 4306.2 1792.97 4292.6 1796.17 4280.5C1799.57 4267.7 1798.97 4254.1 1801.07 4241C1805.67 4212.2 1824.27 4185.9 1849.87 4171.9C1869.97 4160.9 1893.77 4157.3 1912.97 4144.6C1932.17 4131.9 1944.97 4103.9 1930.37 4086.2C1919.87 4073.5 1899.77 4072.7 1884.97 4079.9C1870.17 4087.1 1859.37 4100.4 1849.17 4113.2C1854.17 4082.5 1859.17 4051.8 1864.17 4021.2C1877.67 4005.2 1888.97 3999.3 1902.47 3983.3C1912.67 3971.3 1923.17 3958.7 1927.57 3943.6C1932.07 3928.5 1928.87 3909.9 1915.97 3900.8C1867.07 3866.3 1854.07 3959.7 1853.77 3987C1853.57 3973.7 1850.47 3960.4 1844.67 3948.5C1841.77 3942.4 1837.97 3936.6 1832.67 3932.5C1818.67 3921.7 1798.57 3933.2 1792.37 3947.9C1786.07 3962.6 1791.87 3979.4 1797.67 3994.3C1807.37 4019.4 1817.07 4044.5 1826.77 4069.7C1824.67 4071.8 1821.87 4072.5 1819.77 4074.6C1806.27 4052.8 1792.77 4030.9 1779.17 4009.1C1773.07 3999.2 1763.17 3987.8 1752.07 3991.4C1742.77 3994.5 1739.97 4007 1743.47 4016.1C1746.97 4025.2 1754.87 4031.8 1761.77 4038.7C1767.37 4044.3 1771.67 4049.8 1777.77 4054.6C1783.97 4059.5 1789.17 4065.4 1793.37 4072C1801.77 4085.2 1806.27 4100.8 1807.27 4116.3C1809.07 4142.7 1802.27 4168.9 1795.77 4194.5C1790.87 4214 1786.97 4233.8 1783.17 4253.5C1780.07 4270.9 1779.17 4292.8 1770.97 4308.3Z" fill="#00B590"/>
<path d="M635.172 5853.3C648.572 5854.7 660.472 5843.8 666.772 5833C673.372 5821.5 676.372 5808.3 681.872 5796.2C693.872 5769.6 718.672 5749.1 746.972 5742.3C769.272 5736.9 793.172 5739.6 814.972 5732.4C836.772 5725.2 856.472 5701.4 846.972 5680.5C840.172 5665.5 820.972 5659.5 804.872 5662.6C788.772 5665.7 774.872 5675.7 761.572 5685.4C774.372 5657.1 787.272 5628.8 800.072 5600.5C817.272 5588.6 829.672 5585.8 846.972 5573.9C859.972 5564.9 873.372 5555.6 881.572 5542.2C889.872 5528.8 891.672 5510 881.572 5497.9C843.372 5451.9 806.472 5538.6 799.072 5564.9C802.372 5552 802.872 5538.4 800.372 5525.3C799.072 5518.7 797.072 5512 792.972 5506.7C782.272 5492.6 759.872 5498.5 749.972 5511.1C740.072 5523.7 741.272 5541.4 742.972 5557.3C745.772 5584.1 748.572 5610.9 751.372 5637.7C748.772 5639.2 745.972 5639.1 743.372 5640.6C736.072 5616 728.672 5591.4 721.372 5566.8C718.072 5555.6 711.572 5542 699.872 5542.7C690.172 5543.2 684.072 5554.6 685.172 5564.3C686.272 5574 692.072 5582.4 696.972 5590.9C700.872 5597.7 703.672 5604.1 708.272 5610.4C712.972 5616.7 716.472 5623.8 718.772 5631.3C723.472 5646.2 723.672 5662.4 720.672 5677.7C715.572 5703.7 702.172 5727.1 689.172 5750.2C679.272 5767.7 670.372 5785.8 661.572 5803.9C653.672 5819.6 647.172 5840.5 635.172 5853.3Z" fill="#00B590"/>
<path d="M1674.37 5173.4C1734.07 5119.1 1740.67 5029.9 1718.17 4956.8C1715.97 4949.7 1713.27 4942.2 1707.47 4937.5C1701.67 4932.8 1692.07 4931.9 1687.27 4937.7C1683.97 4941.7 1684.07 4947.4 1684.27 4952.5C1685.27 4979.6 1687.37 5007 1687.97 5033.9C1688.37 5050 1686.07 5065.9 1683.97 5081.8C1682.17 5095.5 1681.77 5109.5 1677.77 5122.6C1669.57 5149.5 1660.57 5172.6 1635.27 5188.1C1628.97 5191.9 1620.47 5194.8 1614.77 5190.1C1609.47 5185.7 1610.27 5177 1614.07 5171.3C1617.87 5165.6 1623.77 5161.7 1628.67 5156.8C1634.47 5150.9 1635.57 5144.2 1637.37 5136.6C1659.17 5044.5 1656.37 4947.7 1626.17 4857.8C1623.07 4848.7 1618.17 4838.2 1608.57 4836.8C1600.27 4835.6 1592.47 4842.5 1589.87 4850.4C1587.27 4858.3 1588.37 4867 1589.47 4875.3C1597.77 4934.6 1606.17 4993.9 1614.47 5053.2C1617.97 5078.3 1619.07 5105 1614.27 5130C1613.57 5133.9 1612.47 5137.9 1610.17 5141.2C1607.87 5144.5 1604.37 5147.1 1600.37 5147.3C1594.37 5147.6 1589.27 5142.5 1587.47 5136.8C1585.67 5131.1 1586.47 5125 1587.27 5119C1589.97 5098.7 1584.67 5079 1581.47 5058.8C1578.07 5037.5 1574.67 5016.1 1571.17 4994.8C1566.57 4966.4 1561.77 4937.3 1547.57 4912.3C1537.87 4895.2 1521.87 4878.4 1502.87 4871.9C1484.07 4865.4 1483.17 4881.2 1487.87 4895C1492.17 4907.8 1496.47 4920.6 1500.77 4933.4C1509.67 4959.8 1518.57 4986.2 1527.37 5012.6C1534.27 5033.2 1540.77 5054 1548.07 5074.5C1554.67 5093.1 1565.87 5111 1574.87 5128.6C1576.97 5132.8 1579.17 5137 1579.77 5141.6C1580.37 5146.2 1579.07 5151.4 1575.47 5154.3C1571.27 5157.6 1565.07 5157.1 1560.47 5154.5C1555.87 5151.9 1552.47 5147.6 1549.37 5143.3C1536.77 5126 1525.77 5107.4 1516.57 5088.1C1511.97 5078.4 1507.87 5068.5 1504.17 5058.4C1500.97 5049.5 1495.37 5042.2 1490.07 5034.3C1465.97 4998.2 1441.77 4962 1417.67 4925.9C1412.87 4918.7 1406.67 4910.7 1397.97 4910.7C1390.07 4910.7 1383.67 4917.9 1381.97 4925.5C1380.27 4933.2 1382.07 4941.2 1384.07 4948.8C1395.87 4993.5 1414.17 5036.5 1438.07 5076.1C1449.97 5095.9 1464.07 5113.7 1477.47 5132.4C1489.57 5149.3 1511.47 5161.8 1527.97 5174.6C1533.27 5178.7 1539.17 5184.5 1537.47 5191C1535.67 5197.8 1526.97 5199.7 1520.07 5199.2C1497.87 5197.3 1487.97 5183.9 1474.77 5168.7C1467.07 5159.8 1456.77 5152.5 1448.67 5143.7C1440.87 5135.2 1433.47 5126.4 1426.07 5117.4C1397.47 5082.4 1368.87 5047.5 1340.17 5012.5C1330.57 5000.8 1314.07 4988.1 1302.27 4997.6C1294.07 5004.2 1295.37 5016.8 1297.87 5027C1308.67 5070 1330.27 5110.1 1359.37 5143.5C1374.07 5160.4 1390.67 5175.7 1408.77 5188.9C1417.67 5195.3 1426.87 5201.3 1436.37 5206.7C1444.67 5211.4 1451.47 5217.7 1461.57 5216.6C1467.97 5215.9 1474.27 5213.6 1480.67 5213.8C1487.17 5214.1 1494.17 5218.1 1494.77 5224.5C1495.17 5229 1492.07 5233.3 1488.07 5235.6C1484.07 5237.8 1479.37 5238.3 1474.87 5238.5C1431.37 5239.9 1391.87 5210 1364.67 5178.7C1346.57 5157.9 1330.67 5134.9 1309.67 5117C1307.17 5114.8 1303.97 5112.6 1300.77 5113.6C1297.97 5114.5 1296.37 5117.7 1296.47 5120.7C1296.57 5123.7 1297.97 5126.4 1299.27 5129.1C1315.87 5161.8 1328.27 5194.8 1353.77 5222C1376.37 5246.2 1405.77 5265.3 1438.57 5269.9C1484.87 5276.4 1503.57 5246.6 1540.67 5230.7C1587.47 5210.8 1634.57 5209.6 1674.37 5173.4Z" fill="#D13355"/>
<path d="M1491.47 4653.2C1495.57 4639 1496.47 4624.9 1513.87 4617.9C1528.07 4612.2 1543.97 4614.3 1559.17 4615.6C1574.37 4616.9 1590.87 4617.1 1603.47 4608.4C1621.77 4595.8 1629.87 4566.3 1652.17 4565.7C1662.77 4565.4 1672.57 4572.6 1683.17 4572.2C1703.17 4571.4 1711.57 4547.3 1724.17 4531.8C1740.47 4511.6 1767.57 4504.5 1791.47 4494.4C1815.37 4484.3 1840.37 4465.8 1840.77 4439.8C1841.17 4414.2 1813.67 4393.4 1788.27 4397C1762.87 4400.6 1743.07 4424.1 1739.27 4449.4C1737.47 4461.4 1721.37 4459.7 1710.27 4455C1699.17 4450.3 1689.27 4441.1 1677.17 4441.1C1660.87 4441.1 1649.87 4457.6 1643.97 4472.8C1638.07 4488 1632.97 4505.4 1618.87 4513.6C1597.07 4526.1 1567.37 4508.7 1544.97 4520.1C1527.17 4529.1 1521.67 4552 1506.77 4565.1C1485.17 4584.1 1452.57 4579 1428.97 4593.5C1405.97 4607.6 1401.97 4638.4 1373.07 4647.8C1359.97 4652 1345.67 4650.7 1332.27 4653.9C1314.07 4658.2 1298.07 4671.3 1290.17 4688.3C1279.87 4710.6 1284.57 4740.1 1300.77 4758.7C1311.87 4771.5 1332.67 4771.3 1347.57 4763.1C1378.87 4745.7 1373.57 4699.2 1415.17 4694.8C1424.47 4693.8 1433.87 4695.5 1443.17 4694.8C1461.57 4693.4 1478.37 4681.2 1486.97 4665.1C1488.97 4661.1 1490.27 4657.1 1491.47 4653.2Z" fill="#008DB5"/>
<path d="M455.972 5685.8C470.072 5681.6 482.572 5674.8 497.772 5685.8C510.172 5694.7 516.972 5709.3 523.972 5722.8C531.072 5736.4 539.772 5750.4 553.772 5756.3C574.272 5765 603.472 5756 615.972 5774.4C621.872 5783.2 621.072 5795.3 627.172 5804C638.472 5820.4 663.472 5814.6 683.272 5816.9C709.072 5819.9 729.572 5838.9 750.972 5853.6C772.372 5868.4 801.372 5879.5 823.472 5865.9C845.372 5852.5 848.072 5818.2 831.372 5798.7C814.672 5779.2 784.272 5775.1 760.872 5785.5C749.772 5790.4 742.572 5776 740.572 5764C738.572 5752.1 741.072 5738.8 734.572 5728.6C725.772 5714.9 705.972 5714.4 689.972 5717.5C673.972 5720.7 656.572 5725.8 642.072 5718.2C619.772 5706.5 618.572 5672.2 596.872 5659.3C579.772 5649.1 557.472 5656.8 538.372 5651.2C510.772 5643.2 497.572 5612.9 472.672 5600.8C448.372 5589 420.272 5602.1 396.872 5582.8C386.272 5574 379.672 5561.3 369.772 5551.7C356.372 5538.6 336.772 5532.2 318.172 5534.7C293.872 5538 271.472 5557.8 264.472 5581.4C259.672 5597.6 270.972 5615.1 285.872 5623.2C317.372 5640.3 353.672 5610.8 379.772 5643.5C385.572 5650.8 389.272 5659.7 394.872 5667.1C405.972 5681.9 425.172 5689.5 443.472 5688.2C447.972 5687.9 452.072 5686.9 455.972 5685.8Z" fill="#008DB5"/>
<path d="M1491.37 4259.1C1547.67 4305.6 1570.07 4387.4 1549.87 4457.6C1529.57 4527.7 1469.77 4583.8 1399.67 4604.1C1393.97 4569.1 1401.87 4533 1416.07 4500.5C1430.27 4468 1450.47 4438.6 1470.47 4409.3C1438.97 4432.6 1407.17 4456.1 1371.27 4471.8C1335.37 4487.5 1294.57 4494.9 1256.77 4484.8C1263.97 4443.6 1291.07 4408.1 1323.97 4382.4C1356.87 4356.6 1395.37 4339.3 1433.57 4322.3C1419.07 4328.8 1372.77 4304.7 1359.17 4298.5C1345.77 4292.4 1294.17 4271.7 1291.27 4255.7C1287.97 4237.5 1333.07 4227.2 1345.97 4224.4C1369.67 4219.4 1394.47 4219.5 1418.17 4224.4C1444.87 4230 1470.37 4241.7 1491.37 4259.1Z" fill="#8BCBCA"/>
<path d="M973.573 4810C943.973 4888.5 863.373 4943.3 779.573 4947.4C695.773 4951.5 612.573 4907.3 564.373 4838.6C600.273 4819.4 642.473 4814.5 683.073 4817.8C723.673 4821.1 763.173 4832.1 802.473 4843C765.473 4817.4 728.073 4791.6 697.673 4758.4C667.273 4725.2 643.973 4683.7 640.873 4638.8C688.273 4631.3 736.973 4647.6 777.273 4673.7C817.573 4699.9 850.673 4735.3 883.473 4770.4C871.073 4757.1 879.973 4697.8 881.573 4680.7C883.173 4663.8 886.473 4600.1 902.773 4591C921.273 4580.7 949.373 4625.8 957.173 4638.8C971.473 4662.7 980.573 4689.7 983.973 4717.3C987.773 4748.6 984.673 4780.6 973.573 4810Z" fill="#ACB8DE"/>
<path d="M115.971 4348.3C162.371 4323.8 222.871 4331.6 263.871 4364.5C304.871 4397.4 325.371 4452.6 319.471 4504.7C294.671 4498.8 272.871 4483.6 255.271 4465.2C237.671 4446.8 223.671 4425.2 209.871 4403.8C216.571 4431.1 223.371 4458.7 223.871 4486.9C224.371 4515 217.971 4544.2 200.771 4566.5C175.471 4550.3 159.371 4522.5 151.471 4493.5C143.571 4464.5 142.671 4434.2 141.971 4404.2C142.271 4415.6 113.471 4439.7 105.571 4447C97.7715 4454.2 69.7715 4482.7 58.3715 4480.2C45.3715 4477.3 50.9715 4444.6 52.7715 4435.2C55.9715 4418.1 62.9715 4401.7 72.7715 4387.3C83.8715 4371.2 98.6715 4357.5 115.971 4348.3Z" fill="#ACB8DE"/>
<path d="M142.072 3927.1C169.872 3937.1 194.772 3955.2 212.872 3978.6C217.772 3984.9 222.272 3991.9 223.972 3999.7C225.672 4007.5 224.072 4016.5 218.172 4022C210.572 4029.1 198.272 4028.4 188.872 4023.8C179.572 4019.2 172.172 4011.5 163.872 4005.2C136.772 3984.3 98.8715 3978.3 66.6715 3989.9C34.4715 4001.5 9.07152 4030.1 1.47152 4063.5C-0.428475 4071.7 -1.12847 4080.9 3.37153 4088.1C7.47152 4094.8 15.4715 4098.3 23.2715 4099C31.0715 4099.6 38.8715 4097.7 46.4715 4095.5C101.272 4079.3 152.572 4046.6 209.672 4046.8C217.372 4046.8 225.872 4047.8 230.972 4053.6C238.272 4061.7 234.872 4075.1 227.972 4083.5C204.672 4112.2 157.972 4105.4 127.272 4126C114.172 4134.8 104.472 4148.6 100.772 4164C98.7715 4172.3 98.8715 4182.2 104.972 4188.2C108.772 4191.8 114.072 4193.3 119.172 4194.2C141.672 4197.9 165.572 4191.5 183.272 4177.1C210.172 4155.1 220.072 4118.7 240.972 4091C247.672 4082.2 257.772 4073.5 268.472 4076.4C278.872 4079.2 283.672 4091.8 282.372 4102.5C280.372 4119.9 267.472 4133.8 255.272 4146.4C231.872 4170.5 208.472 4194.6 185.072 4218.6C174.372 4229.6 189.072 4250.8 202.972 4257.3C216.872 4263.8 234.072 4259.8 246.072 4250.3C258.072 4240.8 265.472 4226.5 270.072 4211.9C274.672 4197.3 276.672 4182 280.072 4167.1C285.172 4144.4 293.272 4122.3 304.172 4101.8C311.572 4087.8 324.172 4072.6 339.672 4075.4C347.872 4076.9 354.472 4083.4 357.672 4091.1C360.772 4098.8 360.872 4107.4 359.472 4115.6C356.572 4133.5 346.972 4150.2 333.072 4161.8C324.172 4169.3 313.572 4174.6 304.472 4181.8C295.372 4189 287.372 4199 286.672 4210.6C285.572 4228.6 303.872 4243.8 321.872 4243.1C339.872 4242.4 355.572 4229.1 363.472 4212.9C371.372 4196.7 372.572 4178.1 371.872 4160.1C371.172 4142.1 368.672 4124.2 369.772 4106.2C370.272 4097.8 371.572 4089.2 375.872 4081.9C380.072 4074.6 387.772 4068.9 396.172 4068.9C404.472 4068.9 412.172 4074.6 416.072 4081.9C419.972 4089.3 420.572 4098 419.472 4106.3C417.272 4122.3 409.172 4136.8 402.472 4151.5C395.772 4166.2 390.472 4182.7 394.372 4198.4C398.272 4214.1 414.572 4227.6 430.072 4222.9C444.972 4218.4 451.472 4200.2 449.572 4184.8C447.672 4169.1 439.772 4154.8 435.572 4139.8C431.172 4124.2 427.772 4108.1 425.872 4092C425.172 4086.2 425.172 4079.4 429.672 4075.6C435.372 4070.9 444.572 4075 448.072 4081.5C451.572 4088 451.272 4095.8 451.672 4103.1C453.372 4135 470.772 4165.6 497.372 4183.2C513.072 4193.6 533.372 4199.6 550.872 4192.6C568.372 4185.6 579.272 4162.2 568.472 4146.7C562.972 4138.7 553.272 4134.5 543.672 4132.6C534.072 4130.7 524.272 4130.9 514.672 4129.4C496.772 4126.6 479.672 4118.3 466.572 4105.7C459.372 4098.8 453.172 4087.4 459.272 4079.4C465.172 4071.7 477.172 4074.2 486.372 4077.2C507.172 4084 528.772 4089.6 550.672 4089.6C572.572 4089.5 595.172 4083.3 611.472 4068.7C619.972 4061.1 626.872 4050.7 626.972 4039.4C627.072 4018.9 604.572 4004.2 584.172 4004.9C563.672 4005.6 545.372 4017.1 528.272 4028.4C511.172 4039.7 493.072 4051.4 472.572 4052.7C446.872 4054.3 462.972 4030.1 470.872 4020.4C483.972 4004.4 499.472 3990.6 512.772 3974.9C528.372 3956.5 539.672 3936 533.672 3911C526.772 3881.9 501.172 3861 473.272 3881.2C459.172 3891.4 455.372 3910.9 456.772 3928.2C458.172 3945.5 463.472 3962.5 463.172 3979.8C462.672 4003.2 451.072 4026.2 432.472 4040.5C427.272 4044.5 421.172 4048 414.672 4048C400.372 4048.1 390.772 4031.4 392.772 4017.2C394.772 4003 404.372 3991.3 413.672 3980.5C424.072 3968.3 426.072 3953 429.072 3937.2C430.972 3927 431.372 3916.1 427.372 3906.5C423.372 3896.9 413.972 3889 403.572 3889.3C394.772 3889.5 386.772 3895.5 382.272 3903.1C377.772 3910.7 376.172 3919.7 375.672 3928.5C374.072 3956.1 381.372 3984.6 372.672 4010.8C370.072 4018.8 365.672 4026.5 358.772 4031.3C351.872 4036.1 341.972 4037.1 335.172 4032.1C329.872 4028.2 327.272 4021.3 327.072 4014.7C326.872 4008.1 328.672 4001.6 330.572 3995.2C334.972 3980.2 339.672 3965.3 344.772 3950.4C351.472 3930.9 340.572 3908.5 330.272 3890.7C325.172 3881.9 318.972 3873.5 310.672 3867.5C302.372 3861.5 291.972 3858.1 281.872 3859.7C271.772 3861.4 262.472 3868.7 259.972 3878.6C258.172 3885.8 260.072 3893.5 263.372 3900.2C266.672 3906.9 271.272 3912.8 275.472 3918.9C284.272 3932 291.272 3946.7 293.272 3962.3C295.272 3977.9 292.072 3994.6 282.372 4007.1C276.972 4014.1 267.672 4019.9 259.572 4016.5C250.972 4012.9 249.072 4001.9 248.272 3992.6C246.772 3974.5 245.372 3956.3 243.872 3938.2C242.872 3925.8 238.772 3914.5 229.872 3905.7C214.972 3891 197.572 3878.9 178.472 3870.2C168.372 3865.5 157.072 3861.8 146.172 3864.1C133.072 3866.8 122.572 3879.1 121.772 3892.4C121.472 3905.8 129.472 3922.6 142.072 3927.1Z" fill="#FFDF00"/>
<path d="M495.772 5525.3C491.172 5538.2 489.272 5552 488.172 5565.6C486.772 5583.7 486.972 5603 496.472 5618.5C499.472 5623.3 503.472 5627.8 508.872 5629.7C516.072 5632.2 524.172 5629.6 530.072 5624.8C534.672 5621.1 539.672 5614.2 546.372 5614.1C554.172 5614 560.372 5624.9 567.772 5627.9C577.672 5631.9 591.072 5629.3 595.472 5619.7C597.772 5614.7 597.272 5609 598.072 5603.6C598.772 5598.2 601.472 5592.3 606.772 5590.9C612.872 5589.4 618.372 5594.7 624.472 5596.2C632.572 5598.2 641.072 5592.9 645.072 5585.6C649.072 5578.3 649.172 5569.5 648.072 5561.3C645.372 5541.9 635.872 5523.7 622.072 5509.9C608.272 5496.1 590.272 5486.6 571.172 5482.3C554.872 5478.6 536.372 5479.1 521.872 5488.1C509.572 5495.8 500.572 5511.9 495.772 5525.3Z" fill="#EF3C45"/>
<path d="M758.172 5416.5C723.272 5431.6 684.072 5436.5 646.472 5430.4C636.272 5428.8 625.972 5426.2 617.472 5420.4C608.972 5414.5 602.672 5404.7 603.272 5394.4C604.172 5381.1 616.372 5370.9 629.172 5367C641.972 5363.1 655.672 5363.8 668.972 5362.6C712.772 5358.4 753.572 5330.7 773.672 5291.5C793.672 5252.3 792.372 5203 770.072 5165C764.572 5155.6 757.172 5146.4 746.672 5143.6C736.972 5141 726.272 5144.6 718.472 5150.9C710.572 5157.2 704.972 5165.9 699.872 5174.6C662.772 5237.9 643.372 5313.8 589.572 5363.7C582.372 5370.4 573.472 5376.9 563.672 5376.1C549.672 5374.9 541.172 5359.4 540.172 5345.4C536.872 5298 586.572 5263.4 597.272 5217C601.872 5197.2 598.772 5175.8 588.772 5158.1C583.372 5148.5 574.572 5139.3 563.472 5139.1C556.772 5139 550.472 5142.3 544.872 5146C520.572 5162.3 503.672 5189.3 499.772 5218.3C493.872 5262.5 516.572 5305.4 521.272 5349.7C522.772 5363.8 520.872 5380.9 508.372 5387.6C496.172 5394.1 480.572 5386.5 472.372 5375.3C458.972 5357.2 458.872 5332.8 459.272 5310.3C460.072 5267.1 460.872 5224 461.672 5180.8C462.072 5161.1 429.672 5154.1 410.972 5160.2C392.272 5166.3 379.572 5185.1 376.672 5204.6C373.772 5224.1 379.372 5244 387.972 5261.7C396.572 5279.4 407.972 5295.6 417.972 5312.5C433.172 5338.3 444.872 5366.1 452.772 5395C458.172 5414.6 459.672 5439.9 442.672 5451C433.672 5456.8 421.772 5456.5 412.072 5452.1C402.372 5447.7 394.772 5439.6 388.772 5430.8C375.772 5411.5 370.072 5387.4 372.872 5364.3C374.672 5349.4 379.872 5335.2 382.072 5320.4C384.272 5305.6 382.972 5289.2 373.472 5277.7C358.672 5259.9 328.172 5261.7 311.872 5278.1C295.572 5294.5 292.572 5320.9 299.372 5343C306.172 5365.1 321.372 5383.6 337.872 5399.9C354.372 5416.2 372.472 5430.8 387.272 5448.6C394.172 5456.9 400.472 5466.2 402.872 5476.7C405.272 5487.2 403.172 5499.4 395.272 5506.8C387.472 5514.1 375.272 5515.5 365.172 5512.1C355.072 5508.6 346.772 5500.9 340.572 5492.2C328.572 5475.3 323.472 5454.5 316.772 5434.9C310.072 5415.2 300.572 5395.2 283.172 5383.8C265.772 5372.5 238.572 5374.2 228.072 5392.2C218.072 5409.4 227.872 5432.3 243.172 5445.1C258.772 5458.1 278.672 5464.6 295.872 5475C313.672 5485.8 331.072 5497.8 346.972 5511.3C352.672 5516.2 358.772 5522.5 357.772 5530C356.572 5539.4 344.272 5543.7 335.272 5540.7C326.272 5537.7 319.772 5530.1 312.872 5523.5C283.272 5495.1 239.972 5481.7 199.572 5488.5C175.672 5492.5 151.372 5504.8 141.172 5526.7C130.872 5548.6 141.372 5580.2 164.972 5585.3C177.172 5588 189.972 5583.4 200.572 5576.7C211.172 5570 220.272 5561.3 230.672 5554.2C249.972 5541 273.272 5533.9 296.672 5534.2C309.472 5534.3 325.372 5539.6 326.572 5552.4C327.772 5564.8 314.372 5573 303.072 5578.3C277.572 5590.2 252.372 5603.9 231.872 5623.2C211.372 5642.5 195.772 5668.2 193.172 5696.3C191.872 5710.9 194.572 5726.7 204.472 5737.4C222.372 5756.7 256.372 5750.8 274.972 5732.1C293.572 5713.4 300.572 5686.5 306.772 5660.9C312.972 5635.3 319.572 5608.4 337.672 5589.2C360.372 5565.1 366.572 5602 367.672 5618C369.472 5644.5 367.072 5671.1 368.372 5697.6C369.872 5728.6 377.372 5757.7 404.872 5775.9C436.972 5797.1 479.272 5794.2 487.772 5750.8C492.072 5728.9 478.472 5707.2 461.972 5692.2C445.472 5677.2 425.572 5666 410.572 5649.4C390.472 5627 381.172 5595.3 385.972 5565.5C387.372 5557.2 389.972 5548.6 396.072 5542.8C409.372 5530.2 433.072 5537.4 443.672 5552.4C454.272 5567.4 455.472 5586.9 456.272 5605.2C457.172 5625.8 468.772 5641.9 479.872 5659.3C487.072 5670.6 496.272 5681.2 508.472 5686.6C520.672 5692.1 536.372 5691.2 545.872 5681.9C553.972 5673.9 556.172 5661.3 553.772 5650.2C551.372 5639.1 544.872 5629.3 537.572 5620.5C514.872 5593.2 482.872 5572.9 468.072 5540.7C463.572 5530.9 460.772 5519.8 463.072 5509.3C465.372 5498.8 473.772 5489.1 484.472 5487.8C492.972 5486.8 501.372 5491 507.372 5497C513.372 5503 517.372 5510.7 521.272 5518.3C530.372 5536.3 538.972 5554.4 547.272 5572.8C558.072 5596.9 587.972 5608.4 613.272 5616.1C625.772 5619.9 639.072 5622.3 652.072 5620.7C665.072 5619.1 677.972 5613.1 685.872 5602.7C693.872 5592.3 696.172 5577.2 689.772 5565.7C685.072 5557.4 676.572 5551.8 667.672 5548.4C658.772 5545 649.172 5543.6 639.872 5541.5C620.072 5537 600.672 5529.3 585.072 5516.4C569.372 5503.5 557.772 5485 555.872 5464.8C554.772 5453.5 558.372 5439.9 569.072 5435.9C580.272 5431.7 591.772 5440.4 600.672 5448.4C617.972 5464.1 635.272 5479.8 652.572 5495.5C664.372 5506.3 678.172 5513.2 694.172 5513.6C721.072 5514.3 748.072 5510.3 773.572 5501.8C787.172 5497.3 801.072 5490.9 809.272 5479.2C819.172 5465.1 818.272 5444.4 807.272 5431.2C796.272 5418 773.972 5409.7 758.172 5416.5Z" fill="#009158"/>
<path d="M1071.77 3887.2C1082.77 3913.7 1086.07 3943.4 1081.07 3971.7C1079.67 3979.4 1077.67 3987.1 1073.17 3993.5C1068.67 3999.9 1061.17 4004.5 1053.37 4003.9C1043.27 4003.1 1035.77 3993.8 1032.97 3984C1030.17 3974.3 1030.87 3964 1030.07 3953.9C1027.37 3920.8 1006.87 3889.6 977.572 3874C948.172 3858.4 910.872 3858.9 881.972 3875.3C874.872 3879.3 867.772 3884.8 865.572 3892.7C863.472 3900 866.172 3908.1 870.772 3914.1C875.372 3920.1 881.872 3924.5 888.472 3928.4C935.872 3957.2 992.972 3972.7 1030.07 4013.8C1035.07 4019.3 1039.87 4026.1 1039.17 4033.5C1038.17 4044.1 1026.27 4050.3 1015.67 4050.9C979.772 4052.9 954.172 4015 919.372 4006.4C904.472 4002.7 888.272 4004.8 874.772 4012.2C867.472 4016.2 860.372 4022.7 860.172 4031.1C859.972 4036.2 862.372 4041 865.172 4045.3C877.172 4063.9 897.372 4076.9 919.272 4080.2C952.672 4085.2 985.272 4068.5 1018.77 4065.4C1029.47 4064.4 1042.37 4066.1 1047.27 4075.6C1052.07 4084.9 1046.07 4096.6 1037.57 4102.6C1023.77 4112.5 1005.37 4112.3 988.372 4111.8C955.772 4110.7 923.172 4109.6 890.572 4108.6C875.672 4108.1 870.072 4132.5 874.472 4146.7C878.872 4160.9 892.972 4170.7 907.672 4173.1C922.372 4175.5 937.472 4171.5 950.972 4165.2C964.472 4158.9 976.772 4150.4 989.672 4143.1C1009.37 4131.9 1030.47 4123.4 1052.37 4117.7C1067.27 4113.9 1086.37 4113 1094.57 4126C1098.87 4132.8 1098.47 4141.9 1095.07 4149.2C1091.67 4156.5 1085.47 4162.2 1078.67 4166.5C1063.87 4176.1 1045.67 4180.1 1028.27 4177.7C1017.07 4176.2 1006.37 4172.1 995.172 4170.2C983.972 4168.3 971.572 4169.2 962.772 4176.2C949.172 4187.1 950.172 4210.3 962.372 4222.7C974.572 4235.1 994.472 4237.8 1011.27 4232.9C1028.07 4228 1042.17 4216.7 1054.67 4204.5C1067.17 4192.3 1078.47 4178.7 1091.97 4167.8C1098.37 4162.7 1105.37 4158 1113.37 4156.3C1121.37 4154.6 1130.47 4156.3 1135.97 4162.4C1141.47 4168.4 1142.37 4177.6 1139.57 4185.2C1136.87 4192.8 1130.97 4199 1124.27 4203.5C1111.37 4212.4 1095.67 4216 1080.67 4220.8C1065.77 4225.7 1050.47 4232.6 1041.77 4245.6C1033.07 4258.6 1034.07 4279.2 1047.47 4287.3C1060.37 4295.1 1077.77 4287.9 1087.57 4276.5C1097.57 4264.9 1102.67 4249.9 1110.77 4237.1C1119.07 4223.8 1128.37 4210.8 1138.77 4198.9C1142.57 4194.6 1147.37 4190.1 1152.97 4190.9C1160.07 4191.9 1163.17 4201.2 1160.77 4208C1158.37 4214.8 1152.57 4219.6 1147.57 4224.7C1125.77 4246.7 1115.17 4279.3 1119.87 4309.9C1122.67 4328 1131.67 4346.5 1148.07 4354.5C1164.57 4362.5 1188.47 4355 1192.57 4337.2C1194.67 4328 1191.47 4318.3 1186.47 4310.2C1181.57 4302.1 1175.07 4295.1 1169.77 4287.2C1159.97 4272.5 1154.87 4254.8 1155.37 4237.2C1155.57 4227.5 1159.77 4215.6 1169.47 4214.8C1178.87 4214 1184.87 4224.2 1188.77 4232.8C1197.47 4252.2 1207.57 4271.4 1221.87 4287.1C1236.27 4302.8 1255.47 4314.9 1276.67 4317.1C1287.67 4318.3 1299.57 4316.4 1307.87 4309C1322.67 4295.7 1318.57 4269.9 1304.67 4255.7C1290.77 4241.5 1270.47 4235.8 1251.27 4230.9C1231.97 4226 1211.77 4220.6 1197.47 4206.8C1179.57 4189.4 1207.47 4185.1 1219.57 4184.5C1239.57 4183.4 1259.67 4185.6 1279.67 4184.9C1303.17 4184.1 1325.17 4178.8 1339.17 4158.2C1355.57 4134.2 1353.87 4102.2 1321.17 4095.3C1304.67 4091.8 1288.17 4101.8 1276.57 4114.1C1265.07 4126.4 1256.37 4141.3 1243.67 4152.4C1226.47 4167.4 1202.47 4174 1180.07 4170C1173.77 4168.9 1167.37 4166.8 1162.97 4162.1C1153.57 4151.9 1159.27 4134.1 1170.77 4126.2C1182.27 4118.3 1196.97 4117.7 1210.77 4117.3C1226.37 4116.8 1238.67 4108.3 1251.87 4100.1C1260.47 4094.8 1268.57 4088 1272.77 4078.8C1277.07 4069.6 1276.57 4057.8 1269.57 4050.5C1263.67 4044.3 1254.17 4042.5 1245.67 4044.2C1237.27 4045.9 1229.77 4050.7 1223.07 4056.1C1202.17 4072.9 1186.47 4096.9 1161.97 4107.7C1154.57 4111 1146.17 4113 1138.17 4111.1C1130.17 4109.2 1123.07 4102.8 1122.17 4094.7C1121.47 4088.3 1124.77 4082 1129.37 4077.5C1133.97 4073 1139.87 4070.1 1145.67 4067.3C1159.37 4060.6 1173.17 4054.3 1187.17 4048.3C1205.57 4040.4 1214.47 4017.9 1220.57 3998.9C1223.57 3989.5 1225.57 3979.5 1224.47 3969.6C1223.37 3959.7 1219.07 3950 1211.27 3943.8C1203.47 3937.6 1192.07 3935.8 1183.37 3940.5C1177.07 3943.9 1172.67 3950.3 1170.07 3957C1167.47 3963.7 1166.27 3970.9 1164.57 3977.9C1160.97 3992.8 1154.97 4007.4 1145.07 4019C1135.17 4030.7 1121.07 4039.3 1105.77 4040.5C1097.17 4041.2 1086.97 4038.3 1084.07 4030.2C1081.07 4021.7 1087.67 4013.1 1093.87 4006.5C1105.97 3993.6 1117.97 3980.7 1130.07 3967.8C1138.37 3959 1143.77 3948.6 1144.27 3936.5C1145.07 3916.2 1142.37 3895.8 1136.27 3876.4C1132.97 3866.1 1128.37 3855.5 1119.57 3849.2C1109.07 3841.6 1093.37 3842 1083.27 3850.2C1073.57 3858.4 1066.77 3875.2 1071.77 3887.2Z" fill="#FFD7CC"/>
<path d="M1896.87 4230.5C1913.17 4193.6 1952.57 4163.5 1992.07 4171.6C2020.57 4177.4 2043.27 4202.8 2048.17 4231.5C2053.17 4260.1 2041.47 4290.5 2020.27 4310.3C1999.07 4330.2 1969.27 4339.8 1940.27 4338.8C1932.37 4338.5 1924.47 4337.6 1916.77 4339.4C1909.17 4341.2 1901.67 4346.7 1900.37 4354.4C1898.67 4364.5 1907.67 4373.2 1916.87 4377.6C1937.47 4387.4 1961.37 4385.4 1984.17 4385.3C2006.97 4385.2 2032.07 4388.2 2047.77 4404.7C2064.87 4422.7 2064.97 4452 2054.07 4474.2C2035.17 4512.6 1985.07 4532.1 1945.17 4516.6C1905.27 4501.1 1881.57 4452.7 1893.67 4411.7C1895.27 4406.3 1897.37 4400.8 1896.57 4395.2C1895.77 4389.6 1890.57 4384.2 1885.07 4385.5C1881.27 4386.5 1878.97 4390.1 1876.87 4393.4C1854.97 4428.3 1819.07 4456.6 1777.97 4459.8C1736.87 4463 1692.87 4435.4 1686.27 4394.7C1679.37 4352.1 1716.37 4310.5 1758.97 4303.4C1778.57 4300.1 1798.57 4303 1817.07 4310C1826.67 4313.6 1835.87 4318.4 1844.47 4324C1850.17 4327.7 1862.07 4341.5 1868.37 4342C1888.67 4343.6 1881.97 4305.7 1882.77 4293.3C1884.37 4271.9 1888.07 4250.3 1896.87 4230.5Z" fill="#FF863A"/>
<path d="M126.672 5182.5C106.772 5147.4 106.172 5097.9 136.172 5070.9C157.772 5051.5 191.772 5048.5 217.672 5061.6C243.572 5074.7 260.972 5102.2 264.272 5131.1C267.572 5160 257.472 5189.6 239.472 5212.3C234.572 5218.5 229.072 5224.3 225.972 5231.5C222.872 5238.7 222.772 5248 228.272 5253.6C235.372 5261 247.772 5259 256.772 5254.2C276.872 5243.5 289.572 5223.1 303.072 5204.7C316.572 5186.3 333.972 5168 356.572 5165.3C381.172 5162.3 404.772 5179.7 416.172 5201.7C435.772 5239.8 421.472 5291.7 385.272 5314.4C348.972 5337.1 296.072 5327.3 270.372 5293.2C266.972 5288.7 263.872 5283.7 258.872 5281C253.872 5278.3 246.372 5279.2 244.272 5284.5C242.772 5288.1 244.372 5292.1 245.772 5295.7C260.672 5334.1 261.972 5379.8 240.072 5414.7C218.172 5449.6 169.672 5468.4 133.172 5449.4C94.8717 5429.5 83.5717 5375 103.272 5336.6C112.372 5319 126.572 5304.6 143.172 5293.9C151.872 5288.4 161.172 5283.9 170.772 5280.3C177.172 5277.9 195.372 5276.7 199.572 5271.8C212.972 5256.5 178.572 5239.2 169.072 5231.1C152.472 5217.2 137.372 5201.4 126.672 5182.5Z" fill="#FFD7CC"/>
<path d="M551.872 3865.5C547.072 3891.3 544.672 3918.7 554.072 3943.2C563.472 3967.7 587.772 3988.2 613.872 3985.5C633.172 3983.5 650.372 3969.7 669.672 3971C686.772 3972.1 700.572 3984.7 714.172 3995C727.772 4005.3 745.972 4014.2 761.572 4007.1C778.872 3999.2 782.972 3977 786.172 3958.3C789.472 3939.5 798.172 3917.3 817.172 3915.2C829.772 3913.8 843.772 3922.4 854.472 3915.6C861.972 3910.8 863.772 3900.7 864.072 3891.8C865.772 3846.1 848.272 3801.1 821.872 3763.9C796.572 3728.2 690.872 3606.4 640.072 3651.2C619.772 3669.1 605.872 3717.8 593.672 3741.9C573.972 3780.7 559.772 3822.5 551.872 3865.5Z" fill="#E2F1DD"/>
<path d="M1200.37 5573.8C1173.67 5593.6 1147.77 5616.9 1135.37 5647.7C1122.97 5678.5 1127.77 5718.5 1154.37 5738.5C1173.97 5753.3 1201.87 5755.4 1218.67 5773.2C1233.57 5789 1235.47 5812.5 1239.27 5833.9C1243.07 5855.3 1252.17 5879.1 1272.77 5886C1295.67 5893.7 1318.57 5876.5 1337.77 5862C1356.97 5847.5 1384.37 5834.3 1403.67 5848.8C1416.57 5858.4 1422.07 5878.4 1437.87 5881.3C1448.97 5883.4 1459.37 5875.5 1467.37 5867.5C1508.37 5826.6 1530.97 5769.8 1538.67 5712.4C1545.97 5657.5 1553.17 5453.2 1467.27 5450.8C1433.07 5449.9 1378.07 5483 1345.97 5494.9C1294.07 5514.2 1244.87 5540.8 1200.37 5573.8Z" fill="#E2F1DD"/>
<path d="M1883.57 4784.8C1848.27 4790.4 1814.47 4803.2 1781.87 4817.8C1738.77 4837.1 1694.87 4861.7 1671.37 4902.7C1663.97 4915.5 1658.87 4930.4 1661.17 4945C1664.37 4964.5 1680.67 4979.9 1698.97 4987.4C1713.17 4993.3 1735.17 4996 1743.77 5011.2C1753.77 5028.8 1736.47 5056.7 1738.87 5077.3C1742.07 5104.8 1764.67 5132.3 1792.27 5130.3C1806.47 5129.3 1818.97 5121.2 1832.17 5116.1C1845.47 5111 1862.37 5109.8 1871.97 5120.2C1883.07 5132.2 1877.87 5151.4 1881.97 5167.2C1887.47 5188.1 1910.17 5201.2 1931.87 5201.1C1953.47 5201.1 1973.77 5190.5 1991.17 5177.6C2032.07 5147.3 2061.87 5102.8 2076.27 5054C2090.67 5005.2 2089.77 4952.3 2075.77 4903.3C2063.87 4861.6 2039.67 4819.8 2000.97 4797.9C1967.97 4779.4 1920.07 4779 1883.57 4784.8Z" fill="#EC1728"/>
<path d="M1649.47 2833.4C1619.07 2852.2 1592.87 2877 1568.47 2903.1C1536.17 2937.6 1505.17 2977.2 1499.37 3024.1C1497.57 3038.8 1498.57 3054.5 1506.37 3067.1C1516.87 3083.9 1537.77 3091.7 1557.57 3091.6C1572.87 3091.5 1594.27 3085.5 1608.07 3096.2C1624.07 3108.5 1618.97 3141 1629.07 3159.1C1642.67 3183.3 1674.07 3199.8 1698.87 3187.4C1711.57 3181 1719.97 3168.7 1730.17 3158.9C1740.47 3149.1 1755.57 3141.4 1768.47 3147.3C1783.27 3154.1 1785.97 3173.9 1795.87 3186.8C1809.07 3204 1835.07 3207.2 1854.97 3198.8C1874.87 3190.4 1889.57 3172.8 1900.67 3154.2C1926.77 3110.5 1937.07 3057.9 1931.37 3007.3C1925.67 2956.7 1904.47 2908.2 1872.67 2868.5C1845.57 2834.6 1807.17 2805.4 1762.97 2800.2C1725.27 2795.7 1680.97 2813.9 1649.47 2833.4Z" fill="#E2F1DD"/>
<path d="M972.372 4392.1C958.472 4413.2 949.072 4437 941.172 4461C930.672 4492.8 922.672 4527.5 932.972 4559.3C936.172 4569.3 941.472 4579.1 950.272 4584.8C961.972 4592.4 977.772 4591.2 990.472 4585.3C1000.27 4580.7 1012.27 4570.4 1024.27 4573.2C1038.27 4576.4 1044.67 4598.7 1056.57 4607.3C1072.47 4618.8 1097.67 4620 1109.77 4604.6C1115.97 4596.7 1117.67 4586.3 1121.37 4576.9C1125.07 4567.5 1132.47 4558.1 1142.57 4558C1154.17 4557.9 1161.67 4569.8 1171.97 4575.2C1185.57 4582.3 1203.17 4576.6 1213.47 4565.3C1223.77 4554 1227.87 4538.3 1229.47 4523C1233.17 4487.1 1224.07 4450.3 1205.37 4419.5C1186.67 4388.7 1158.57 4363.9 1126.27 4347.9C1098.77 4334.2 1065.37 4327 1035.37 4336.8C1009.77 4345.3 986.772 4370.2 972.372 4392.1Z" fill="#00B590"/>
<path d="M1981.07 5080.4C2006.67 5072.2 2035.27 5084 2054.37 5102.9C2073.47 5121.8 2084.97 5146.9 2096.17 5171.4C2103.87 5188.4 2111.77 5207.1 2106.87 5225.1C2101.97 5243.1 2077.47 5255.9 2063.97 5243C2071.67 5292.8 2072.97 5343.7 2067.67 5393.9C2066.07 5409.4 2063.17 5426.1 2051.77 5436.8C2040.37 5447.4 2017.77 5446.3 2012.77 5431.5C1996.37 5471.7 1977.57 5511.3 1961.17 5551.5C1955.47 5565.3 1949.67 5579.5 1939.47 5590.4C1929.27 5601.3 1913.57 5608.4 1899.27 5604.4C1884.87 5600.4 1874.87 5582.4 1882.27 5569.4C1857.57 5587.1 1832.87 5604.8 1808.07 5622.5C1789.57 5635.8 1764.97 5649.4 1745.67 5637.3C1738.87 5633.1 1734.17 5626.3 1727.87 5621.4C1713.67 5610.3 1693.77 5610.6 1675.97 5613.5C1658.17 5616.4 1640.17 5621.5 1622.37 5618.4C1604.57 5615.3 1587.17 5600.3 1588.97 5582.4C1599.97 5570.2 1610.97 5550.5 1598.87 5539.4C1594.87 5535.7 1589.17 5534.3 1584.37 5531.5C1570.07 5523.1 1566.87 5502.4 1573.77 5487.3C1580.67 5472.2 1595.07 5461.9 1609.87 5454.3C1645.57 5435.9 1687.37 5429.3 1726.97 5435.9C1714.87 5431.4 1714.47 5412.7 1723.37 5403.4C1732.27 5394 1746.07 5391.6 1758.87 5389.7C1790.57 5384.9 1822.27 5380.1 1854.07 5375.3C1841.57 5380.6 1829.77 5362.3 1835.07 5349.7C1840.37 5337.2 1854.17 5330.9 1866.87 5325.8C1898.37 5313.1 1929.87 5300.4 1961.37 5287.8C1953.77 5277.6 1940.67 5271.9 1928.07 5273.2C1918.07 5281.1 1925.97 5278.1 1918.27 5268C1910.57 5257.9 1910.27 5243.5 1914.77 5231.6C1919.37 5219.7 1928.17 5210 1937.47 5201.3C1946.77 5192.7 1956.97 5184.8 1965.37 5175.2C1970.07 5169.8 1974.27 5163.7 1975.77 5156.7C1977.27 5149.7 1975.47 5141.7 1969.87 5137.1C1966.77 5134.6 1962.87 5133.4 1959.57 5131.2C1949.57 5124.8 1946.47 5110.5 1951.27 5099.7C1956.07 5089 1969.77 5084 1981.07 5080.4Z" fill="#36C7C1"/>
<path d="M796.271 5057.6C807.871 5055.8 819.671 5061.3 826.771 5069.1C833.971 5076.9 837.371 5086.6 840.471 5096.1C863.471 5167.2 873.771 5241.2 870.871 5314.9C869.671 5344.1 864.871 5376.1 839.071 5395.8C822.171 5408.7 798.471 5414 775.671 5413.5C752.871 5413 730.671 5407.2 709.471 5400C644.671 5378.2 585.971 5343.8 539.471 5300.2C532.571 5293.8 525.871 5286.9 523.271 5278.5C520.671 5270.2 523.371 5260.1 532.171 5255.6C544.371 5249.4 559.671 5256.7 571.171 5263.7C609.571 5287.1 647.871 5310.5 686.271 5334C658.471 5317 633.471 5289 611.571 5267C587.471 5242.8 538.671 5212 537.571 5177.4C536.471 5141.1 589.771 5172.9 605.071 5183.2C628.171 5198.7 648.071 5217.2 667.971 5235.5C687.971 5253.9 707.871 5272.3 727.871 5290.7C684.871 5243.4 641.871 5196 598.871 5148.7C587.371 5136.1 575.671 5122.9 572.171 5107.3C568.671 5091.7 576.471 5073.2 594.171 5067.7C607.471 5063.6 622.871 5067.9 633.771 5075.5C644.671 5083.1 651.971 5093.7 659.071 5104.1C693.571 5154.4 728.071 5204.7 762.571 5255C771.771 5224.6 757.371 5192.9 740.271 5165.1C723.171 5137.3 702.671 5109.7 698.271 5078.6C697.071 5069.8 697.271 5060.5 701.871 5052.5C706.471 5044.5 716.271 5038.1 726.871 5038.6C744.571 5039.5 753.271 5056.6 757.971 5071C773.271 5117.4 788.571 5163.7 803.771 5210.1C808.371 5224 809.471 5240.4 818.371 5253.1C828.771 5267.9 843.571 5265 848.071 5247C851.671 5232.6 795.671 5057.7 796.271 5057.6Z" fill="#FFDF00"/>
<path d="M748.272 2585.9C757.172 2587.3 765.872 2586.8 771.372 2596.9C775.872 2605.1 775.772 2614.9 776.072 2624.3C776.372 2633.6 777.572 2643.7 783.672 2650.7C792.672 2660.9 811.172 2663.6 813.272 2677.1C814.272 2683.5 810.572 2690 811.672 2696.4C813.572 2708.5 828.872 2711.8 839.272 2718.3C852.772 2726.7 859.072 2742.7 866.972 2756.5C874.872 2770.3 887.972 2784.1 903.772 2782.4C919.372 2780.8 929.972 2762.5 925.872 2747.4C921.772 2732.2 906.072 2721.9 890.372 2721.5C882.972 2721.3 882.772 2711.4 884.772 2704.3C886.772 2697.2 891.672 2690.5 890.772 2683.1C889.572 2673.2 878.772 2667.7 869.072 2665.2C859.372 2662.7 848.472 2661 842.472 2653C833.272 2640.7 841.572 2621.4 833.072 2608.5C826.272 2598.4 811.972 2596.7 802.872 2588.6C789.772 2576.9 790.472 2556.7 779.872 2543.4C769.572 2530.5 750.572 2530.3 742.772 2513.5C739.172 2505.8 738.972 2497.1 736.072 2489.2C732.072 2478.4 722.972 2469.7 712.072 2466.2C697.772 2461.6 680.172 2466.7 670.072 2477.8C663.072 2485.5 664.772 2498.1 670.872 2506.5C683.772 2524.2 711.572 2517.6 717.372 2542.5C718.672 2548.1 718.372 2553.9 719.472 2559.5C721.672 2570.6 730.272 2579.9 740.772 2583.9C743.272 2584.9 745.772 2585.5 748.272 2585.9Z" fill="#FFDF00"/>
<path d="M1555.87 5234.2C1621.17 5199.8 1706.27 5210.7 1763.87 5257C1821.47 5303.2 1850.47 5380.9 1842.07 5454.3C1807.17 5446 1776.57 5424.6 1751.77 5398.7C1726.97 5372.8 1707.37 5342.5 1687.87 5312.4C1697.37 5350.8 1706.87 5389.7 1707.57 5429.3C1708.27 5468.9 1699.27 5509.9 1675.17 5541.2C1639.57 5518.5 1616.97 5479.3 1605.77 5438.6C1594.57 5397.9 1593.37 5355.1 1592.37 5312.9C1592.77 5328.9 1552.27 5362.8 1541.17 5373.1C1530.27 5383.3 1490.87 5423.3 1474.87 5419.8C1456.67 5415.8 1464.57 5369.7 1466.97 5356.5C1471.47 5332.4 1481.27 5309.4 1495.07 5289.2C1510.57 5266.3 1531.47 5247 1555.87 5234.2Z" fill="#ACB8DE"/>
<path d="M1876.87 5454.9L1856.37 5435.9L1736.07 5572.3L1783.97 5696.3L1700.07 5758.5L1673.27 5539L1738.57 5449L1709.87 5394L1803.57 5319L1786.47 5296.9L1696.77 5368.7L1663.97 5305.8L1640.07 5318.2L1706.47 5445.8L1654.87 5516.9L1543.17 5455.7L1566.57 5293.1L1519.87 5273.7L1577.67 5152.2L1553.17 5139.4L1494.27 5263.1L1419.37 5232L1409.87 5257.7L1536.57 5310.3L1517.57 5441.7L1491.77 5427.6L1380.07 5424.8L1380.37 5452.6L1485.47 5455.2L1541.77 5486L1349.67 5564.5L1284.07 5460.6L1261.37 5475.1L1326.27 5577.9L1226.37 5653.5L1242.97 5676.1L1351.57 5594L1468.17 5546.4L1464.87 5601.9L1491.97 5604.6L1496.07 5535L1573.47 5503.4L1646.57 5543.4L1666.37 5705.2L1536.87 5676L1434.27 5636.4L1425.47 5662.4L1511.47 5695.5L1454.67 5771.6L1476.37 5788.9L1539.27 5704.8L1669.87 5734.3L1682.97 5841.5L1709.87 5839L1703.97 5790.4L1816.87 5706.8L1772.27 5591.2L1897.67 5601.8L1898.97 5574.1L1780.57 5564.1L1876.87 5454.9Z" fill="#008DB5"/>
<path d="M1383.47 3851.6C1383.97 3834.8 1396.87 3820.4 1411.97 3813.2C1427.07 3806 1444.27 3804.4 1460.97 3802.9C1472.57 3801.9 1485.27 3801.2 1494.87 3807.8C1504.47 3814.4 1506.87 3831.5 1496.47 3836.7C1527.37 3842.6 1557.57 3852.4 1585.97 3866C1594.77 3870.2 1603.97 3875.4 1607.87 3884.3C1611.77 3893.2 1606.37 3906.3 1596.57 3906.1C1616.77 3924.2 1636.17 3943.5 1656.37 3961.5C1663.37 3967.7 1670.47 3974.1 1674.67 3982.4C1678.87 3990.7 1679.87 4001.4 1674.47 4009C1669.07 4016.6 1656.47 4018.8 1650.37 4011.7C1655.67 4029.9 1660.87 4048.2 1666.17 4066.4C1670.07 4080.1 1672.97 4097.4 1661.87 4106.2C1657.97 4109.3 1652.97 4110.7 1648.77 4113.3C1639.27 4119.4 1635.27 4131.1 1633.27 4142.2C1631.27 4153.3 1630.47 4164.9 1624.97 4174.7C1619.37 4184.5 1606.97 4191.6 1596.77 4186.8C1591.87 4177.8 1582.57 4167.2 1573.57 4172C1570.57 4173.6 1568.57 4176.6 1565.87 4178.9C1557.87 4185.6 1545.07 4183.1 1537.67 4175.9C1530.27 4168.7 1527.17 4158.1 1525.77 4147.8C1522.37 4122.9 1527.27 4097 1539.37 4075.1C1534.17 4081.3 1523.17 4077.6 1519.47 4070.4C1515.87 4063.2 1517.27 4054.6 1518.77 4046.7C1522.57 4027 1526.37 4007.4 1530.17 3987.7C1530.67 3996.2 1517.37 3999.3 1511.17 3993.6C1504.87 3987.9 1504.17 3978.4 1503.77 3969.9C1502.87 3948.7 1502.07 3927.5 1501.17 3906.4C1493.57 3908.7 1487.47 3915.2 1485.67 3922.9C1488.17 3930.4 1488.17 3925.1 1480.57 3927.6C1472.97 3930 1464.47 3927.2 1458.47 3922C1452.47 3916.8 1448.57 3909.6 1445.37 3902.3C1442.27 3895 1439.77 3887.4 1435.87 3880.5C1433.67 3876.6 1430.97 3872.8 1427.17 3870.5C1423.37 3868.2 1418.27 3867.5 1414.47 3869.9C1412.37 3871.2 1410.77 3873.2 1408.87 3874.8C1403.07 3879.3 1393.97 3878.2 1388.57 3873.1C1383.27 3868.1 1383.17 3859 1383.47 3851.6Z" fill="#36C7C1"/>
<path d="M1669.77 1484.4C1661.47 1475.7 1660.57 1461.9 1664.37 1450.5C1668.27 1439.1 1676.07 1429.5 1683.77 1420.2C1689.07 1413.8 1695.07 1406.9 1703.27 1405.3C1711.47 1403.7 1721.47 1411.1 1718.87 1419C1737.37 1406.1 1757.67 1395.6 1778.87 1387.9C1785.47 1385.5 1792.77 1383.4 1799.27 1385.9C1805.77 1388.4 1809.77 1397.7 1804.77 1402.6C1824.17 1401.3 1843.77 1401.1 1863.17 1399.8C1869.87 1399.4 1876.67 1398.9 1883.07 1400.9C1889.47 1402.9 1895.37 1407.8 1896.57 1414.4C1897.77 1421 1892.47 1428.6 1885.87 1428.1C1897.87 1434.6 1909.87 1441 1921.87 1447.5C1930.87 1452.3 1941.17 1459.6 1940.07 1469.7C1939.67 1473.2 1937.87 1476.5 1937.17 1480C1935.47 1487.9 1939.57 1495.9 1944.17 1502.5C1948.87 1509.1 1954.47 1515.3 1956.67 1523.1C1958.87 1530.9 1956.27 1540.8 1948.67 1543.6C1941.57 1541.6 1931.57 1541 1929.37 1548.1C1928.67 1550.5 1929.27 1553 1929.07 1555.5C1928.47 1562.9 1920.77 1568.3 1913.37 1568.5C1905.97 1568.7 1898.97 1564.9 1892.97 1560.5C1878.57 1549.7 1867.67 1534.2 1862.57 1517C1863.17 1522.8 1855.67 1526.6 1850.17 1524.8C1844.67 1523 1840.97 1518 1837.67 1513.2C1829.47 1501.4 1821.37 1489.5 1813.17 1477.7C1817.77 1481.7 1812.67 1490.1 1806.57 1490.4C1800.47 1490.7 1795.27 1486.4 1790.77 1482.3C1779.47 1472.1 1768.17 1461.9 1756.87 1451.7C1754.27 1456.7 1754.57 1463.2 1757.57 1468C1762.67 1470.5 1759.97 1467.9 1757.37 1473C1754.87 1478.1 1749.07 1481.1 1743.37 1481.5C1737.67 1482 1732.07 1480.4 1726.67 1478.3C1721.37 1476.2 1716.17 1473.7 1710.67 1472.2C1707.57 1471.4 1704.27 1470.9 1701.17 1471.6C1698.07 1472.4 1695.17 1474.7 1694.47 1477.8C1694.07 1479.5 1694.37 1481.3 1694.17 1483.1C1693.57 1488.4 1688.37 1492.4 1683.07 1492.6C1678.17 1492.8 1673.47 1488.3 1669.77 1484.4Z" fill="#36C7C1"/>
<path d="M285.172 489.8C278.672 473.1 264.772 457.5 268.172 439.9C270.772 426.7 282.572 417.2 287.272 404.6C297.272 377.9 272.872 349 277.372 320.8C280.272 302.5 294.472 288.5 305.472 273.6C316.472 258.7 324.472 237.7 314.272 222.2C324.872 223.8 330.972 236 330.272 246.7C329.572 257.4 323.972 267 319.372 276.7C305.872 305.3 300.572 337.6 304.072 369C305.872 384.9 309.672 402 301.972 416C295.772 427.4 282.272 435.9 282.372 449C282.472 461.1 294.172 469.3 301.972 478.5C320.072 499.9 316.872 536 295.172 553.8C310.972 560.2 326.072 540.7 326.072 523.7C326.072 506.7 318.172 490.2 319.472 473.3C322.072 438.4 361.972 413.5 360.472 378.5C359.972 367.1 354.972 355.8 357.072 344.6C359.172 333.4 374.672 324.3 381.772 333.2C374.072 362.9 366.372 392.6 358.672 422.3C352.072 447.8 345.472 473.4 343.672 499.7C342.572 516.1 343.372 533 338.572 548.7C331.972 570.2 296.672 599.8 279.972 568.8C268.272 547 295.872 517.2 285.172 489.8Z" fill="#8AAA9A"/>
<path d="M1709.27 835.1C1704.97 824.1 1695.77 813.7 1698.07 802.1C1699.77 793.4 1707.57 787.1 1710.67 778.8C1717.27 761.1 1701.17 742.1 1704.07 723.4C1705.97 711.3 1715.37 702.1 1722.67 692.2C1729.97 682.3 1735.27 668.5 1728.47 658.2C1735.47 659.3 1739.57 667.3 1739.07 674.4C1738.57 681.5 1734.87 687.8 1731.87 694.3C1722.97 713.2 1719.47 734.6 1721.77 755.3C1722.97 765.8 1725.47 777.1 1720.37 786.4C1716.27 794 1707.37 799.6 1707.47 808.2C1707.47 816.2 1715.27 821.6 1720.47 827.7C1732.47 841.9 1730.27 865.7 1715.97 877.5C1726.37 881.7 1736.37 868.8 1736.47 857.6C1736.57 846.4 1731.27 835.5 1732.07 824.3C1733.77 801.2 1760.17 784.7 1759.17 761.6C1758.87 754.1 1755.57 746.6 1756.97 739.2C1758.37 731.8 1768.57 725.8 1773.27 731.7C1768.17 751.3 1763.07 771 1757.97 790.6C1753.57 807.4 1749.27 824.4 1748.07 841.8C1747.37 852.7 1747.87 863.8 1744.67 874.2C1740.37 888.4 1716.97 907.9 1705.87 887.5C1698.07 873 1716.27 853.2 1709.27 835.1Z" fill="#8AAA9A"/>
<path d="M1460.97 215.8C1455.97 203.1 1445.47 191.2 1448.07 177.8C1450.07 167.7 1458.97 160.5 1462.57 150.9C1470.17 130.5 1451.67 108.6 1454.97 87.1C1457.17 73.2 1467.97 62.5 1476.37 51.1C1484.77 39.7 1490.87 23.8 1483.07 12C1491.17 13.2 1495.77 22.5 1495.27 30.6C1494.77 38.7 1490.47 46.1 1486.97 53.5C1476.67 75.3 1472.67 99.9 1475.27 123.8C1476.67 135.9 1479.47 148.9 1473.67 159.6C1468.97 168.3 1458.67 174.8 1458.77 184.7C1458.87 193.9 1467.77 200.1 1473.67 207.2C1487.47 223.5 1484.97 251 1468.47 264.6C1480.47 269.5 1491.97 254.6 1492.07 241.6C1492.07 228.6 1486.07 216.1 1487.07 203.2C1489.07 176.6 1519.37 157.6 1518.27 131C1517.87 122.3 1514.07 113.7 1515.67 105.2C1517.27 96.7 1529.07 89.7 1534.47 96.5C1528.57 119.1 1522.77 141.8 1516.87 164.4C1511.87 183.8 1506.77 203.3 1505.47 223.3C1504.67 235.8 1505.27 248.7 1501.57 260.7C1496.57 277.1 1469.67 299.6 1456.87 276C1448.17 259.4 1469.17 236.7 1460.97 215.8Z" fill="#8AAA9A"/>
<path d="M515.273 608.1C507.573 610.9 500.173 619.7 504.673 626.5C507.373 630.6 512.973 631.4 517.973 631.8C539.873 633.7 561.773 635.6 583.673 637.4C600.973 638.9 618.373 640.4 635.473 637.7C652.573 635 669.673 628 680.873 614.8C682.673 612.7 684.473 610.2 684.473 607.4C684.573 602.8 679.973 599.2 675.373 598.6C670.773 598 666.273 599.5 661.773 600.8C643.773 605.9 624.673 606.6 606.373 602.8C594.373 600.3 582.673 596 570.573 593.8C547.773 589.6 535.273 600.7 515.273 608.1Z" fill="#767777"/>
<path d="M1386.17 358.8C1382.37 360.2 1378.67 364.6 1380.97 367.9C1382.37 369.9 1385.07 370.3 1387.57 370.6C1398.47 371.5 1409.37 372.5 1420.17 373.4C1428.77 374.1 1437.37 374.9 1445.87 373.6C1454.37 372.3 1462.87 368.8 1468.37 362.2C1469.27 361.1 1470.17 359.9 1470.17 358.5C1470.27 356.2 1467.97 354.4 1465.67 354.1C1463.37 353.8 1461.17 354.6 1458.97 355.2C1450.07 357.7 1440.57 358.1 1431.47 356.2C1425.47 355 1419.77 352.8 1413.77 351.7C1402.37 349.6 1396.17 355.1 1386.17 358.8Z" fill="#767777"/>
<path d="M200.273 1053.1C192.573 1055.9 185.173 1064.7 189.673 1071.5C192.373 1075.6 197.973 1076.4 202.973 1076.8C224.873 1078.7 246.773 1080.6 268.673 1082.4C285.973 1083.9 303.373 1085.4 320.473 1082.7C337.573 1080.1 354.673 1073 365.873 1059.8C367.673 1057.7 369.473 1055.2 369.473 1052.4C369.573 1047.8 364.973 1044.2 360.373 1043.6C355.773 1043 351.273 1044.5 346.773 1045.8C328.773 1050.9 309.673 1051.6 291.373 1047.8C279.373 1045.3 267.673 1041 255.573 1038.8C232.773 1034.6 220.273 1045.7 200.273 1053.1Z" fill="#D8BF8B"/>
<path d="M295.372 795.8C291.072 805.9 289.072 818.2 294.772 827.6C302.572 840.2 319.972 841.8 334.872 841.9C346.072 842 357.272 842.1 368.372 842.2C379.472 842.3 391.772 842 399.972 834.5C409.072 826.3 409.872 812.2 407.372 800.2C404.772 787.7 399.272 775.7 390.472 766.5C358.372 733.2 311.172 759.3 295.372 795.8Z" fill="#A38D6F"/>
<path d="M1378.27 595.1C1375.17 602.3 1373.77 611.1 1377.87 617.8C1383.47 626.8 1395.87 627.9 1406.47 628C1414.47 628.1 1422.47 628.2 1430.37 628.2C1438.27 628.3 1447.07 628.1 1452.87 622.7C1459.37 616.8 1459.87 606.8 1458.17 598.2C1456.37 589.3 1452.37 580.7 1446.07 574.1C1423.17 550.4 1389.47 569 1378.27 595.1Z" fill="#8AAA9A"/>
<path d="M1622.37 483.8C1618.07 493.9 1616.07 506.2 1621.77 515.6C1629.57 528.2 1646.97 529.8 1661.87 529.9C1673.07 530 1684.27 530.1 1695.37 530.2C1706.47 530.3 1718.77 530 1726.97 522.5C1736.07 514.3 1736.87 500.2 1734.37 488.2C1731.77 475.7 1726.27 463.7 1717.47 454.5C1685.37 421.2 1638.17 447.3 1622.37 483.8Z" fill="#A38D6F"/>
<path d="M685.473 268.4C677.373 268.2 667.773 269.3 662.673 263C658.773 258.3 659.273 251.4 657.173 245.6C652.673 232.8 637.373 228.3 626.373 220.3C604.573 204.5 600.473 169.3 617.973 148.9C621.373 158.2 618.373 168.5 616.673 178.2C614.973 187.9 615.373 199.6 623.073 205.8C631.973 212.9 645.773 209.2 655.373 215.3C669.473 224.3 667.373 249.8 683.073 255.5C689.173 257.7 695.873 256 702.373 256.5C708.773 257 716.173 261.9 714.773 268.3C721.873 266.7 721.873 255.8 717.073 250.4C712.273 244.9 704.873 242.3 699.973 236.8C696.273 232.7 694.373 227.3 692.573 222C687.273 206.7 682.073 191.4 676.773 176.1C674.973 170.9 673.173 165.1 675.173 160C677.173 154.9 684.773 151.8 688.273 156.1C690.973 159.3 689.573 164.1 689.373 168.3C689.073 174.8 691.873 181 694.873 186.8C702.073 200.9 710.373 214.6 719.573 227.5C725.473 235.8 731.973 244.1 735.173 253.8C738.373 263.5 737.573 275.3 730.273 282.5C712.273 300.6 702.073 268.8 685.473 268.4Z" fill="#909AB2"/>
<path d="M1802.47 436.4C1794.37 436.2 1784.77 437.3 1779.67 431C1775.77 426.3 1776.27 419.4 1774.17 413.6C1769.67 400.8 1754.37 396.3 1743.37 388.3C1721.57 372.5 1717.47 337.3 1734.97 316.9C1738.37 326.2 1735.37 336.5 1733.67 346.2C1731.97 355.9 1732.37 367.6 1740.07 373.8C1748.97 380.9 1762.77 377.2 1772.37 383.3C1786.47 392.3 1784.37 417.8 1800.07 423.5C1806.17 425.7 1812.87 424 1819.37 424.5C1825.77 425 1833.17 429.9 1831.77 436.3C1838.87 434.7 1838.97 423.8 1834.07 418.4C1829.27 412.9 1821.87 410.3 1816.97 404.8C1813.27 400.7 1811.37 395.3 1809.57 390C1804.27 374.7 1799.07 359.4 1793.77 344.1C1791.97 338.9 1790.17 333.1 1792.17 328C1794.17 322.8 1801.77 319.8 1805.27 324.1C1807.97 327.3 1806.57 332.1 1806.37 336.3C1806.07 342.8 1808.87 349 1811.87 354.8C1819.07 368.9 1827.37 382.6 1836.57 395.5C1842.47 403.8 1848.97 412.1 1852.17 421.8C1855.37 431.5 1854.57 443.3 1847.27 450.5C1829.27 468.6 1819.07 436.8 1802.47 436.4Z" fill="#909AB2"/>
<path d="M1434.07 801.3C1434.17 805.8 1435.17 810.8 1438.97 813.2C1440.87 814.4 1443.17 814.8 1445.37 815.1C1476.37 819.5 1507.77 821.7 1539.07 821.7C1545.47 821.7 1551.97 821.6 1558.07 819.6C1564.17 817.6 1569.77 813.4 1572.07 807.4C1575.37 798.6 1570.17 788.5 1562.67 783.1C1555.07 777.6 1545.57 775.7 1536.37 773.9C1527.17 772.1 1517.67 770.2 1510.17 764.7C1498.97 756.5 1493.37 741.3 1480.77 735.6C1471.97 731.6 1460.77 733.5 1453.77 740.1C1445.57 747.9 1447.97 757.3 1444.97 766.8C1440.77 779.3 1433.67 787 1434.07 801.3Z" fill="#D8BF8B"/>
<path d="M1142.07 51.3001C1142.17 54.7001 1142.97 58.5001 1145.77 60.3001C1147.17 61.2001 1148.97 61.5001 1150.57 61.7001C1173.97 65.0001 1197.67 66.7001 1221.37 66.7001C1226.17 66.7001 1231.07 66.6001 1235.67 65.1001C1240.27 63.6001 1244.57 60.4001 1246.27 55.9001C1248.77 49.3001 1244.87 41.6001 1239.17 37.5001C1233.47 33.4001 1226.27 31.9001 1219.27 30.6001C1212.37 29.3001 1205.17 27.8001 1199.47 23.6001C1190.97 17.4001 1186.77 5.90007 1177.27 1.60007C1170.67 -1.39993 1162.17 7.39098e-05 1156.87 5.00007C1150.67 10.9001 1152.47 18.0001 1150.17 25.2001C1147.17 34.6001 1141.77 40.5001 1142.07 51.3001Z" fill="#D8BF8B"/>
<path d="M632.073 457.3C632.173 460.7 632.973 464.5 635.773 466.3C637.173 467.2 638.973 467.5 640.573 467.7C663.973 471 687.673 472.7 711.373 472.7C716.173 472.7 721.073 472.6 725.673 471.1C730.273 469.6 734.573 466.4 736.273 461.9C738.773 455.3 734.873 447.6 729.173 443.5C723.473 439.4 716.273 437.9 709.273 436.6C702.373 435.3 695.173 433.8 689.473 429.6C680.973 423.4 676.773 411.9 667.273 407.6C660.673 404.6 652.173 406 646.873 411C640.673 416.9 642.473 424 640.173 431.2C637.173 440.6 631.773 446.5 632.073 457.3Z" fill="#D8BF8B"/>
<path d="M633.072 904.3C632.672 896.2 630.072 886.9 622.572 883.6C615.372 880.4 606.372 884.1 599.272 880.6C592.472 877.2 590.272 868.5 590.572 860.9C590.972 853.3 593.072 845.7 591.872 838.2C590.172 827.5 581.972 819.1 577.372 809.3C572.772 799.5 573.672 784.8 583.972 781.4C592.572 778.5 601.572 786.3 604.372 794.9C607.172 803.5 605.772 812.9 606.272 822C606.772 831.1 609.872 841.1 618.072 845.1C627.672 849.8 640.672 844.4 648.872 851.1C662.372 862.2 647.172 892.3 663.672 898.4C680.672 904.7 683.872 882.6 678.272 872.3C676.172 868.5 674.472 863.7 676.772 860.1C679.572 855.7 686.072 856.1 690.972 857.8C695.872 859.5 701.072 862.1 705.972 860.4C712.072 858.3 714.272 850.4 712.872 844.1C711.472 837.8 707.572 832.4 704.872 826.6C700.772 817.7 701.172 801.9 714.372 801.6C719.672 801.5 724.572 804 729.272 806.5C746.772 815.8 764.072 808.1 775.072 792C781.572 782.4 785.172 770.2 794.772 763.7C808.672 754.3 830.072 763.6 834.972 779.6C839.872 795.6 829.772 813.9 814.572 820.9C803.472 826 788.972 827.2 783.072 837.8C777.572 847.7 782.672 860.7 777.872 871C769.972 887.9 744.472 883.9 728.772 893.8C719.872 899.4 714.572 909.1 709.472 918.3C688.472 955.6 635.472 948.9 633.072 904.3Z" fill="#93ACD1"/>
<path d="M1748.37 96.0999C1748.17 91.4999 1746.67 86.3999 1742.57 84.4999C1738.57 82.6999 1733.47 84.7999 1729.57 82.7999C1725.77 80.8999 1724.47 75.9999 1724.77 71.7999C1724.97 67.4999 1726.17 63.2999 1725.47 59.0999C1724.47 53.0999 1719.97 48.3999 1717.37 42.8999C1714.77 37.3999 1715.27 29.1999 1721.07 27.2999C1725.87 25.6999 1730.97 29.9999 1732.47 34.8999C1733.97 39.6999 1733.27 44.9999 1733.47 49.9999C1733.77 55.0999 1735.47 60.6999 1740.07 62.8999C1745.37 65.4999 1752.67 62.4999 1757.27 66.2999C1764.87 72.4999 1756.37 89.2999 1765.57 92.7999C1775.07 96.2999 1776.87 83.9999 1773.77 78.1999C1772.57 76.0999 1771.67 73.3999 1772.97 71.2999C1774.57 68.7999 1778.17 68.9999 1780.97 69.9999C1783.67 70.9999 1786.67 72.3999 1789.37 71.3999C1792.77 70.1999 1793.97 65.7999 1793.27 62.2999C1792.47 58.7999 1790.27 55.7999 1788.77 52.4999C1786.47 47.4999 1786.67 38.6999 1794.07 38.4999C1797.07 38.3999 1799.77 39.8999 1802.37 41.1999C1812.17 46.3999 1821.87 42.0999 1827.97 33.0999C1831.67 27.6999 1833.57 20.8999 1838.97 17.2999C1846.77 11.9999 1858.77 17.1999 1861.47 26.1999C1864.17 35.1999 1858.57 45.3999 1850.07 49.2999C1843.87 52.1999 1835.77 52.7999 1832.47 58.7999C1829.37 64.2999 1832.27 71.5999 1829.57 77.3999C1825.17 86.7999 1810.87 84.5999 1802.07 90.0999C1797.07 93.1999 1794.17 98.6999 1791.27 103.8C1779.37 124.8 1749.77 121.1 1748.37 96.0999Z" fill="#93ACD1"/>
<path d="M1121.97 5341.1L1125.57 5315L955.271 5295.8L885.371 5399.7L792.071 5368.5L947.071 5229.3L1051.77 5231.1L1078.77 5179.3L1187.37 5211.1L1195.17 5185.9L1091.27 5155.5L1122.17 5096.1L1099.67 5084.4L1036.97 5204.6L954.171 5203.2L941.171 5083.8L1079.37 5014.1L1069.17 4967.6L1194.17 4946.6L1190.87 4920.7L1063.47 4942.1L1047.07 4867.4L1022.07 4873.9L1049.87 5000.2L938.171 5056.5L935.171 5029L876.871 4941.2L855.571 4956.4L910.371 5039L916.971 5099.1L752.671 4993.1L797.471 4886.3L774.071 4876.7L729.671 4982.3L617.271 4945.9L608.771 4970.9L730.871 5010.5L830.571 5074.8L785.871 5102.3L798.571 5124.6L854.471 5090.3L920.671 5133L929.271 5211.1L814.871 5313.7L767.571 5197.9L742.771 5097.3L717.971 5104.5L738.771 5188.8L649.371 5186L647.671 5212.2L746.671 5215.3L794.371 5332.1L718.571 5400.1L735.071 5419.6L769.471 5388.8L895.071 5430.8L960.171 5334L1019.77 5436.5L1041.87 5422.6L985.571 5325.7L1121.97 5341.1Z" fill="#EC1728"/>
<path d="M533.971 3690.1L537.571 3664L367.271 3644.8L297.371 3748.7L204.071 3717.5L359.071 3578.3L463.771 3580.1L490.771 3528.3L599.371 3560.1L607.171 3534.9L503.271 3504.5L534.171 3445.1L511.671 3433.4L448.971 3553.6L366.171 3552.2L353.171 3432.8L491.371 3363.1L481.171 3316.6L606.171 3295.6L602.871 3269.7L475.471 3291.1L459.071 3216.4L434.071 3222.9L461.871 3349.2L350.171 3405.5L347.171 3378L288.871 3290.2L267.571 3305.4L322.371 3388L328.971 3448.1L164.671 3342.1L209.471 3235.3L186.071 3225.7L141.671 3331.3L29.2715 3294.9L20.7715 3319.9L142.871 3359.5L242.571 3423.8L197.871 3451.3L210.571 3473.6L266.471 3439.3L332.671 3482L341.271 3560.1L226.871 3662.7L179.571 3546.9L154.771 3446.3L129.971 3453.5L150.771 3537.8L61.3715 3535L59.6715 3561.2L158.671 3564.3L206.371 3681.1L130.571 3749.1L147.071 3768.6L181.471 3737.8L307.071 3779.8L372.171 3683L431.771 3785.5L453.871 3771.6L397.571 3674.7L533.971 3690.1Z" fill="#FF863A"/>
<path d="M1561.07 4081.1L1545.77 4065.8L1448.17 4168.3L1481.77 4266L1414.77 4311.9L1400.37 4140.5L1453.77 4072.5L1433.07 4028.9L1508.17 3973.4L1495.47 3955.7L1423.57 4008.9L1399.97 3959L1381.07 3968L1428.97 4069.1L1386.77 4122.8L1301.67 4072L1324.67 3946.3L1288.97 3929.8L1337.47 3837.1L1318.77 3826.4L1269.37 3920.8L1212.07 3894.4L1203.97 3914.1L1300.87 3958.8L1282.27 4060.3L1262.57 4048.6L1175.87 4043.2L1175.27 4064.8L1256.87 4069.9L1299.77 4095.5L1148.07 4150.8L1100.17 4068.1L1082.17 4078.7L1129.57 4160.6L1049.67 4216.4L1061.87 4234.4L1148.67 4173.8L1240.77 4140.2L1236.57 4183.3L1257.57 4186.1L1262.77 4132.2L1323.87 4109.9L1379.47 4143.2L1390.07 4269.5L1290.37 4243L1211.77 4209.2L1204.17 4229.1L1269.97 4257.4L1223.57 4314.8L1239.97 4329L1291.37 4265.4L1391.97 4292.2L1398.97 4376L1420.07 4374.8L1416.87 4336.9L1507.07 4275.2L1475.77 4184.1L1572.97 4195.9L1574.77 4174.4L1482.97 4163.2L1561.07 4081.1Z" fill="#008DB5"/>
<path d="M1628.87 1261.6C1640.07 1267.4 1656.07 1272.3 1663.57 1262.2C1669.37 1254.4 1665.37 1243.3 1660.37 1235C1636.17 1194.9 1590.57 1168.6 1543.77 1167.8C1496.97 1167 1450.47 1191.6 1424.77 1230.8C1399.07 1270 1395.27 1322.5 1414.87 1365C1419.17 1374.3 1424.97 1383.6 1434.27 1387.8C1443.57 1392 1456.77 1388.7 1459.77 1378.9C1463.47 1366.9 1450.97 1352.1 1458.97 1342.4C1464.67 1335.5 1476.27 1338.2 1482.67 1344.3C1489.07 1350.4 1492.77 1359.1 1499.17 1365.4C1505.47 1371.7 1516.97 1374.8 1522.97 1368.2C1528.17 1362.5 1526.07 1353.2 1521.97 1346.7C1517.67 1339.7 1504.37 1326.4 1505.57 1317.7C1506.07 1313.8 1509.27 1310.3 1513.07 1309.4C1520.27 1307.7 1526.77 1314.1 1530.07 1320.7C1537.97 1336.7 1548.07 1355.3 1569.87 1349.3C1580.87 1346.3 1588.87 1333.1 1583.97 1322.8C1580.77 1316.1 1573.57 1312.5 1567.07 1309.2C1560.57 1305.9 1553.47 1301.7 1551.07 1294.7C1548.67 1287.7 1554.67 1278.1 1561.77 1280.3C1568.27 1291 1575.37 1302.3 1586.77 1307.4C1598.17 1312.5 1614.77 1307.9 1617.17 1295.6C1620.07 1281.1 1601.07 1273.6 1602.37 1261.3C1603.87 1245.3 1621.57 1257.9 1628.87 1261.6Z" fill="#FFD7CC"/>
<path d="M1105.67 1222C1108.07 1230 1105.27 1239 1100.37 1244.8C1095.47 1250.7 1088.97 1254 1082.47 1257.1C1034.07 1280.2 982.371 1294.6 929.671 1299.5C908.771 1301.5 885.571 1301 869.171 1284.6C858.371 1273.8 852.371 1257.5 850.571 1241.2C848.771 1224.9 850.771 1208.6 853.871 1192.8C863.171 1144.6 882.171 1099.6 908.671 1062.4C912.571 1056.9 916.871 1051.4 922.571 1048.8C928.271 1046.2 935.671 1047.1 939.671 1053C945.171 1061.1 941.471 1072.7 937.571 1081.5C924.571 1111 911.571 1140.5 898.571 1170.1C907.971 1148.7 925.571 1128.3 939.171 1110.6C954.071 1091.2 971.371 1053.5 995.871 1049.4C1021.57 1045.1 1003.97 1086.1 998.171 1098C989.371 1115.9 978.071 1131.9 966.871 1147.7C955.671 1163.6 944.471 1179.6 933.271 1195.5C962.871 1160.4 992.471 1125.3 1022.07 1090.2C1029.97 1080.9 1038.27 1071.2 1048.97 1067.3C1059.67 1063.4 1073.67 1067.1 1079.27 1079.2C1083.47 1088.3 1081.87 1099.7 1077.47 1108.1C1073.07 1116.6 1066.27 1122.8 1059.57 1128.8C1027.07 1158.1 994.571 1187.4 962.071 1216.8C984.571 1220.4 1005.77 1207.2 1023.87 1192.4C1041.97 1177.6 1059.67 1160.4 1081.37 1154.3C1087.57 1152.6 1094.17 1151.9 1100.27 1154.4C1106.37 1156.9 1111.87 1163.3 1112.47 1170.9C1113.57 1183.6 1102.17 1191.4 1092.37 1196.1C1060.87 1211.4 1029.27 1226.7 997.771 1241.9C988.271 1246.5 976.771 1248.8 968.571 1256.4C958.971 1265.2 962.471 1275.5 975.671 1277C986.471 1278.1 1105.57 1221.7 1105.67 1222Z" fill="#ACB8DE"/>
<path d="M1505.27 2076.1L1500.17 2061.7L1406.77 2097.7L1398.57 2170.3L1341.87 2179.4L1384.57 2065.4L1439.27 2038.1V2004L1504.07 1991.2L1501.27 1976L1439.27 1988.3V1949.3H1424.47V2028.4L1381.17 2050L1342.17 1991.7L1394.97 1918.3L1377.07 1897L1436.17 1852.4L1427.57 1839.9L1367.37 1885.3L1338.67 1851.1L1327.47 1861.2L1375.97 1919.1L1333.27 1978.4L1324.27 1964.9L1270.47 1935.2L1263.57 1948.8L1314.17 1976.8L1333.87 2006.2L1220.07 1995.6L1214.57 1928.2L1199.77 1929.5L1205.27 1996.2L1137.27 2007.7L1139.67 2023L1213.57 2010.5L1282.57 2016.9L1266.87 2043.2L1279.37 2051.3L1299.07 2018.4L1344.87 2022.7L1370.37 2060.8L1338.87 2144.8L1283.17 2097.6L1243.17 2052.2L1232.27 2062.7L1265.77 2100.7L1218.67 2123.4L1224.97 2137.4L1276.97 2112.3L1333.27 2159.9L1312.37 2215.6L1326.17 2221.2L1335.57 2196L1411.97 2183.8L1419.57 2116.1L1478.07 2153.1L1485.77 2139.9L1430.47 2105L1505.27 2076.1Z" fill="#FFCC33"/>
<path d="M1621.47 3700.1L1608.37 3678.3L1469.07 3767.5L1479.87 3887.8L1390.97 3921.1L1422.47 3722.6L1502.07 3660.3L1490.87 3605.1L1591.57 3563L1582.07 3539.3L1485.67 3579.6L1472.77 3516.4L1448.77 3521.3L1474.87 3649.4L1411.97 3698.7L1329.67 3617.2L1390.87 3481L1354.87 3452.3L1435.87 3360.6L1417.67 3343.2L1335.17 3436.6L1277.47 3390.6L1262.77 3410.7L1360.27 3488.4L1310.77 3598.5L1291.77 3579.7L1194.87 3549.3L1188.07 3573.7L1279.37 3602.3L1320.87 3643.4L1133.27 3663.8L1101.97 3556.5L1078.57 3563.5L1109.47 3669.7L1003.17 3710.7L1011.97 3734.6L1127.47 3690L1241.37 3677.7L1224.57 3725.4L1247.57 3734.5L1268.57 3674.7L1344.17 3666.5L1398.07 3719.8L1374.77 3866.2L1268.97 3808.2L1189.17 3747.8L1174.97 3768.3L1241.77 3818.9L1173.07 3871.1L1187.77 3891.7L1263.77 3833.9L1370.57 3892.5L1355.17 3989.5L1379.37 3994L1386.27 3950.1L1505.97 3905.2L1495.97 3793.1L1602.87 3833.7L1610.97 3809.8L1509.97 3771.4L1621.47 3700.1Z" fill="#FFCC33"/>
</svg>
