<svg width="359" height="768" viewBox="0 0 359 768" fill="none" xmlns="http://www.w3.org/2000/svg">
<path d="M358.154 498.157C358.154 345.757 277.702 213.083 224.706 142.133C222.152 138.633 218.959 135.451 215.767 132.588C232.368 125.588 250.246 110.316 264.293 89.6357C279.618 67.6825 280.256 39.366 278.341 19.6399C277.064 6.2771 263.655 -2.94962 250.885 0.868332C231.729 6.2771 205.551 17.0946 190.226 39.0479C189.269 40.3205 188.311 41.9113 187.353 43.184C183.841 48.9109 175.541 48.9109 172.029 43.184C171.071 41.9113 170.113 40.3205 169.155 39.0479C154.15 17.0946 127.652 6.59526 108.497 1.50465C95.4076 -1.99514 82.3181 7.23158 81.0411 20.5944C79.4448 40.3205 80.4026 68.637 95.7269 90.5902C109.774 110.634 127.333 125.27 143.296 132.588C140.103 135.451 136.911 138.633 134.037 142.133C81.0411 213.083 0.588913 345.757 0.588906 498.157C0.588897 725.007 129.568 766.686 179.052 766.686C232.368 766.686 358.154 725.007 358.154 498.157Z" fill="#ED4444"/>
<path d="M325.791 664.578C293.572 626.938 239.981 602.377 179.372 602.377C119.082 602.377 65.4909 626.619 33.2724 663.94C74.7417 748.469 145.559 767.926 179.372 767.926C215.1 768.245 284.96 748.788 325.791 664.578Z" fill="#FFCC49"/>
<path d="M186.075 697.963C184.479 697.009 183.521 695.418 183.521 693.509C183.521 690.645 185.756 688.418 188.629 688.418C190.545 688.418 192.141 689.373 193.099 690.963C194.057 689.054 194.695 686.827 194.695 684.6C194.695 676.01 187.991 669.328 179.371 669.328C170.751 669.328 164.047 676.01 164.047 684.6C164.047 693.191 170.751 699.872 179.371 699.872C181.606 699.554 184.16 698.918 186.075 697.963Z" fill="black"/>
</svg>
