<svg width="288" height="617" viewBox="0 0 288 617" fill="none" xmlns="http://www.w3.org/2000/svg">
<path d="M288 400.273C288 277.839 223.367 171.253 180.792 114.254C178.74 111.443 176.175 108.887 173.61 106.586C186.947 100.963 201.31 88.6941 212.595 72.08C224.906 54.4435 225.419 31.695 223.88 15.8477C222.854 5.1124 212.082 -2.30005 201.823 0.76717C186.434 5.1124 165.403 13.8029 153.092 31.4394C152.323 32.4618 151.553 33.7398 150.784 34.7622C147.962 39.363 141.294 39.363 138.473 34.7622C137.703 33.7398 136.934 32.4618 136.164 31.4394C124.11 13.8029 102.822 5.368 87.4335 1.27837C76.9178 -1.53325 66.4022 5.8792 65.3763 16.6145C64.0939 32.4618 64.8633 55.2103 77.1743 72.8468C88.4594 88.9497 102.566 100.707 115.39 106.586C112.825 108.887 110.26 111.443 107.952 114.254C65.3763 171.253 0.74356 277.839 0.743555 400.273C0.743547 582.517 104.361 616 144.115 616C186.947 616 288 582.517 288 400.273Z" fill="#F05555"/>
<path d="M262 533.97C236.117 503.732 193.063 484 144.372 484C95.9367 484 52.8833 503.475 27 533.457C60.3152 601.365 117.207 616.997 144.372 616.997C173.074 617.253 229.197 601.622 262 533.97Z" fill="#FFCC49"/>
<path d="M149.759 560.791C148.476 560.024 147.707 558.746 147.707 557.212C147.707 554.912 149.502 553.122 151.811 553.122C153.349 553.122 154.632 553.889 155.401 555.167C156.171 553.634 156.684 551.844 156.684 550.055C156.684 543.154 151.298 537.786 144.373 537.786C137.448 537.786 132.062 543.154 132.062 550.055C132.062 556.957 137.448 562.324 144.373 562.324C146.168 562.069 148.22 561.557 149.759 560.791Z" fill="black"/>
</svg>
