<svg width="1495" height="474" viewBox="0 0 1495 474" fill="none" xmlns="http://www.w3.org/2000/svg">
<path d="M1306.58 461.2C1315.18 422.3 1303.48 383.3 1292.88 346.9C1280.48 304 1275.28 271.3 1288.98 228.3C1301.68 188.5 1309.58 148.6 1304.88 106.2C1301.88 79.3999 1295.08 60.6999 1302.28 33.3999C1330.88 38.9999 1349.68 42.5999 1378.98 49.2999" stroke="#8BCBCA" stroke-width="25" stroke-miterlimit="10" stroke-linecap="round" stroke-linejoin="round"/>
<path d="M25.7754 34.5C34.9754 67.5 67.6754 137.9 42.9754 194.4C19.0754 249.4 7.57536 285.9 15.4754 348.5C21.6754 397.8 46.9754 461.2 46.9754 461.2" stroke="#8BCBCA" stroke-width="25" stroke-miterlimit="10" stroke-linecap="round" stroke-linejoin="round"/>
<path d="M101.076 13C127.776 58.6 136.976 113.6 124.476 169.3C112.376 223.5 75.6756 264.5 92.5756 323.7C103.176 360.7 134.776 374.6 129.976 446.8" stroke="#8BCBCA" stroke-width="25" stroke-miterlimit="10" stroke-linecap="round" stroke-linejoin="round"/>
<path d="M46.8749 461.2C4.1749 239.6 132.875 222 101.075 13" stroke="#8BCBCA" stroke-width="25" stroke-miterlimit="10" stroke-linecap="round" stroke-linejoin="round"/>
<path d="M989.676 47.8C1027.58 111.4 988.076 147.3 998.976 214.1C1010.38 283.4 1026.18 321 1007.68 389.9C999.176 421.8 1003.68 461.1 1003.68 461.1" stroke="#8BCBCA" stroke-width="25" stroke-miterlimit="10" stroke-linecap="round" stroke-linejoin="round"/>
<path d="M1070.08 17.1001C1106.48 83.6001 1078.58 133.8 1082.48 207.6C1085.88 270.5 1112.18 323.8 1103.98 389.8C1101.78 407.6 1089.88 445.3 1089.88 445.3" stroke="#8BCBCA" stroke-width="25" stroke-miterlimit="10" stroke-linecap="round" stroke-linejoin="round"/>
<path d="M1006.48 101.7C1037.98 104.6 1060.98 90.7 1089.08 93.4" stroke="#8BCBCA" stroke-width="25" stroke-miterlimit="10" stroke-linecap="round" stroke-linejoin="round"/>
<path d="M1213.78 39.0999C1148.58 16.2999 1150.18 118.4 1139.58 160.8C1123.08 226.6 1171.48 272.6 1165.38 338.9C1162.88 366.5 1145.08 497.2 1214.98 451.6C1252.28 427.2 1236.98 329.4 1230.88 293.4C1225.68 262.9 1216.48 239.9 1212.68 211.4C1208.48 180.1 1221.78 152.7 1227.58 122.8C1232.78 96.4999 1240.38 48.3999 1213.78 39.0999Z" stroke="#8BCBCA" stroke-width="25" stroke-miterlimit="10" stroke-linecap="round" stroke-linejoin="round"/>
<path d="M1456.47 39.0999C1391.27 16.2999 1392.87 118.4 1382.27 160.8C1365.77 226.6 1414.17 272.6 1408.07 338.9C1405.57 366.5 1387.77 497.2 1457.67 451.6C1494.97 427.2 1479.67 329.4 1473.57 293.4C1468.37 262.9 1459.17 239.9 1455.37 211.4C1451.17 180.1 1464.47 152.7 1470.27 122.8C1475.47 96.4999 1483.07 48.3999 1456.47 39.0999Z" stroke="#8BCBCA" stroke-width="25" stroke-miterlimit="10" stroke-linecap="round" stroke-linejoin="round"/>
<path d="M531.676 76.9999C525.176 40.2999 490.876 30.6999 466.676 58.3999C443.176 85.1999 460.176 132.5 465.776 162C479.976 236.9 444.676 290 453.476 362.7C456.176 385.3 464.576 443.4 487.476 455.9C520.076 473.7 549.276 442.8 543.276 408.9" stroke="#8BCBCA" stroke-width="25" stroke-miterlimit="10" stroke-linecap="round" stroke-linejoin="round"/>
<path d="M730.775 42.7C710.975 79.2 729.575 95.5999 738.575 127.4C749.675 166.6 747.975 209 741.375 249.5C728.975 325.6 724.375 384.3 809.875 382.9" stroke="#8BCBCA" stroke-width="25" stroke-miterlimit="10" stroke-linecap="round" stroke-linejoin="round"/>
<path d="M804.174 29C797.174 83.6 828.774 130.6 825.474 184.5C822.074 240.4 808.874 293.8 809.374 351.5C809.674 388.2 818.974 479.2 749.574 457.9C731.374 452.3 723.474 431.7 726.374 418.9" stroke="#8BCBCA" stroke-width="25" stroke-miterlimit="10" stroke-linecap="round" stroke-linejoin="round"/>
<path d="M871.076 37C889.176 81.2 873.676 103.5 869.576 130.3C865.476 157.3 876.376 183.1 875.976 211C875.276 259.8 859.376 312.3 879.076 364.1C889.176 390.6 912.576 395.1 941.576 386.6" stroke="#8BCBCA" stroke-width="25" stroke-miterlimit="10" stroke-linecap="round" stroke-linejoin="round"/>
<path d="M941.377 44.2C956.377 91.1 935.677 111 934.177 144.2C933.477 160.2 949.677 197.8 946.277 245.7C942.077 306.4 929.077 292.8 939.177 352.8C945.577 390.5 937.777 427.6 931.377 461.3" stroke="#8BCBCA" stroke-width="25" stroke-miterlimit="10" stroke-linecap="round" stroke-linejoin="round"/>
<path d="M220.076 107.7C280.276 105.2 236.076 186.7 247.176 234.4C260.076 290.4 232.576 327.7 238.676 381.9C241.176 403.7 260.976 444.3 233.776 456.2C199.976 471 181.376 449.8 175.676 429.1" stroke="#8BCBCA" stroke-width="25" stroke-miterlimit="10" stroke-linecap="round" stroke-linejoin="round"/>
<path d="M188.475 69.2001C185.775 45.7001 211.175 27.6001 236.575 41.7001C250.975 49.7001 251.675 74.4001 248.275 85.6001C244.175 99.0001 229.975 107.5 220.075 107.8" stroke="#8BCBCA" stroke-width="25" stroke-miterlimit="10" stroke-linecap="round" stroke-linejoin="round"/>
<path d="M619.576 25.3C588.276 73.7001 613.176 129.6 619.276 189.5C626.276 258.6 588.876 310 581.176 375.1C577.276 408.5 586.376 444.1 593.576 461.2" stroke="#8BCBCA" stroke-width="25" stroke-miterlimit="10" stroke-linecap="round" stroke-linejoin="round"/>
<path d="M671.877 440.2C676.877 398.6 655.577 358.7 660.877 321.4C665.877 286.7 684.677 257.5 686.977 221.6C690.077 173.3 678.277 75.7001 605.977 107.6" stroke="#8BCBCA" stroke-width="25" stroke-miterlimit="10" stroke-linecap="round" stroke-linejoin="round"/>
<path d="M621.275 102.9C659.075 96.9001 669.575 103.2 675.775 54.9001C678.075 37.1001 685.475 27.8 692.675 18.3" stroke="#8BCBCA" stroke-width="25" stroke-miterlimit="10" stroke-linecap="round" stroke-linejoin="round"/>
</svg>
