<svg width="735" height="467" viewBox="0 0 735 467" fill="none" xmlns="http://www.w3.org/2000/svg">
<path d="M622.699 454.3C609.699 399.4 625.299 338.6 630.799 290.3C635.699 247.4 625.399 229.2 626.599 192.1C628.099 144.2 636.899 143.7 642.899 102.9C647.299 72.5999 657.599 16.3999 697.699 22.5999C730.299 27.6999 721.799 84.4999 717.599 105.5C702.499 182.2 718.799 187.6 719.199 231.6C719.799 293.2 681.099 358.2 720.399 445.1" stroke="#6D8C8C" stroke-width="25" stroke-miterlimit="10" stroke-linecap="round" stroke-linejoin="round"/>
<path d="M642.898 102.9C669.698 92.6999 696.798 97.9999 718.098 102.9" stroke="#6D8C8C" stroke-width="25" stroke-miterlimit="10" stroke-linecap="round" stroke-linejoin="round"/>
<path d="M13 41.6001C36.2 72.1001 48.5 116.2 52.1 153.6C53.2 165 53.6 176.6 53.8 188.1C54.2 213.6 51 237.8 43.6 262.2C35.8 287.8 31 312.8 26.9 339.5C21.8 372.9 22.1 424.5 28.3 446.7" stroke="#6D8C8C" stroke-width="25" stroke-miterlimit="10" stroke-linecap="round" stroke-linejoin="round"/>
<path d="M39.2992 93.1999C80.5992 73.5999 114.099 88.2999 119.299 136.7C124.799 187.8 99.6992 235.5 107.599 287C113.499 325.9 117.699 392.6 92.7992 427.3C73.7992 453.8 56.3992 446.9 28.1992 446.9" stroke="#6D8C8C" stroke-width="25" stroke-miterlimit="10" stroke-linecap="round" stroke-linejoin="round"/>
<path d="M74.2 13.3C52.1 21.5 35.9 27.9 13 41.6" stroke="#6D8C8C" stroke-width="25" stroke-miterlimit="10" stroke-linecap="round" stroke-linejoin="round"/>
<path d="M375.3 429.1C381 406.6 387.5 372.8 380.9 339.6C375.9 314.7 362.2 296.6 356.2 271.5C341.8 211.1 383 164.6 375.1 106.1C372.8 89.0002 368.9 71.7002 361.7 55.9002C353.5 37.9002 326.8 9.20015 309.2 32.8002C293.6 53.8002 305.5 87.3001 306.1 112.8C307.5 179.1 265.9 236.3 284.8 299.1C296.6 338.2 323.4 410.4 302.7 440.8" stroke="#6D8C8C" stroke-width="25" stroke-miterlimit="10" stroke-linecap="round" stroke-linejoin="round"/>
<path d="M483.7 32.3001C419.6 9.90014 421.1 110.3 410.7 152C394.5 216.7 442.1 261.9 436.1 327.1C433.6 354.2 416.2 482.8 484.8 437.9C521.5 414 506.5 317.8 500.5 282.3C495.4 252.3 486.4 229.7 482.6 201.7C478.5 171 491.5 144 497.3 114.5C502.3 88.8001 509.8 41.5001 483.7 32.3001Z" stroke="#6D8C8C" stroke-width="25" stroke-miterlimit="10" stroke-linecap="round" stroke-linejoin="round"/>
<path d="M230.901 27.2C166.801 4.80004 168.301 105.2 157.901 146.9C141.701 211.6 189.301 256.8 183.301 322C180.801 349.1 163.401 477.7 232.001 432.8C268.701 408.8 253.601 312.7 247.601 277.2C242.501 247.2 233.501 224.6 229.701 196.6C225.601 165.9 238.601 138.9 244.401 109.4C249.501 83.7 257.001 36.4 230.901 27.2Z" stroke="#6D8C8C" stroke-width="25" stroke-miterlimit="10" stroke-linecap="round" stroke-linejoin="round"/>
<path d="M565.501 32.6001C552.801 72.4001 572.301 103.1 570.701 140.5C569.001 180.6 551.501 198 562.901 239.9C583.901 316.8 571.801 367.6 556.801 442.2" stroke="#6D8C8C" stroke-width="25" stroke-miterlimit="10" stroke-linecap="round" stroke-linejoin="round"/>
<path d="M520.801 21.8L617.101 45" stroke="#6D8C8C" stroke-width="25" stroke-miterlimit="10" stroke-linecap="round" stroke-linejoin="round"/>
</svg>
