<svg width="1133" height="475" viewBox="0 0 1133 475" fill="none" xmlns="http://www.w3.org/2000/svg">
<path d="M164.9 461.5C151.6 405.5 167.6 343.4 173.2 294C178.2 250.2 167.7 231.6 168.9 193.7C170.4 144.8 179.5 144.2 185.5 102.6C190 71.6999 200.5 14.2999 241.4 20.5999C274.7 25.7999 266 83.8999 261.8 105.3C246.4 183.7 263 189.1 263.4 234.1C264 297 224.5 363.4 264.7 452.1" stroke="#009158" stroke-width="25" stroke-miterlimit="10" stroke-linecap="round" stroke-linejoin="round"/>
<path d="M185.6 102.6C213 92.1999 240.7 97.5999 262.4 102.6" stroke="#009158" stroke-width="25" stroke-miterlimit="10" stroke-linecap="round" stroke-linejoin="round"/>
<path d="M303.1 39.6001C312.2 93.8001 335 143.1 337.3 199.4C339.6 254.2 313.1 297.6 319.7 356C324 394.1 319.5 407.1 307.8 443.8C366.4 468.1 390.4 456.2 397.3 394.8C403.5 339.1 383.5 289.3 395.8 235C404.4 197 429.8 108.7 370.2 94.4001C355.2 90.8001 330.4 103 319.5 106.4" stroke="#009158" stroke-width="25" stroke-miterlimit="10" stroke-linecap="round" stroke-linejoin="round"/>
<path d="M303.1 39.6001C324.6 26.7001 365.7 16.4001 377 40.9001C392.3 74.2001 366.8 88.9001 348.6 96.2001" stroke="#009158" stroke-width="25" stroke-miterlimit="10" stroke-linecap="round" stroke-linejoin="round"/>
<path d="M799.1 33.4001C785.2 138.2 834 132.7 793.3 242C778.3 282.2 796.7 304.4 810.2 342.9C824.6 383.8 806.7 433.5 802.4 440.3C816.4 447.5 849.5 452.6 867.1 451.6" stroke="#009158" stroke-width="25" stroke-miterlimit="10" stroke-linecap="round" stroke-linejoin="round"/>
<path d="M871.4 29.9001L799.1 33.4001" stroke="#009158" stroke-width="25" stroke-miterlimit="10" stroke-linecap="round" stroke-linejoin="round"/>
<path d="M842.7 97.4001C829.2 99.7001 812.7 102.7 799.1 105.1" stroke="#009158" stroke-width="25" stroke-miterlimit="10" stroke-linecap="round" stroke-linejoin="round"/>
<path d="M13 44.1001C51.1 107.9 11.4 144 22.4 211.1C33.8 280.7 49.7 318.4 31.2 387.7C22.6 419.7 27.2 459.3 27.2 459.3" stroke="#009158" stroke-width="25" stroke-miterlimit="10" stroke-linecap="round" stroke-linejoin="round"/>
<path d="M93.6992 13.3C130.199 80.1001 102.199 130.5 106.199 204.7C109.599 267.8 135.999 321.4 127.799 387.7C125.599 405.6 113.699 443.4 113.699 443.4" stroke="#009158" stroke-width="25" stroke-miterlimit="10" stroke-linecap="round" stroke-linejoin="round"/>
<path d="M29.9004 98.2C61.5004 101.1 84.6004 87.2 112.9 89.9" stroke="#009158" stroke-width="25" stroke-miterlimit="10" stroke-linecap="round" stroke-linejoin="round"/>
<path d="M666.9 36.6001C652.1 105.3 676.1 164.3 682.1 228.8C685.4 263.9 667.2 286.9 666.9 321C666.6 354.2 685.2 383.3 686.5 418.1C687.1 433.5 684.1 454.8 680.5 461.5" stroke="#009158" stroke-width="25" stroke-miterlimit="10" stroke-linecap="round" stroke-linejoin="round"/>
<path d="M666.9 36.6001C771 15.0001 726.9 123.7 735.4 181.1C740.5 215.5 769.2 222.5 748.7 278.8C731.4 326.3 750.3 346.5 735 372.9C725.5 389.3 698.5 390.4 682.4 390.9" stroke="#009158" stroke-width="25" stroke-miterlimit="10" stroke-linecap="round" stroke-linejoin="round"/>
<path d="M514.2 65.2001C507.7 28.4001 473.2 18.7001 448.9 46.5001C425.3 73.5001 442.4 120.9 448 150.6C462.3 225.9 426.8 279.2 435.6 352.2C438.3 374.9 446.7 433.3 469.8 445.9C502.5 463.8 531.9 432.8 525.8 398.6" stroke="#009158" stroke-width="25" stroke-miterlimit="10" stroke-linecap="round" stroke-linejoin="round"/>
<path d="M576.9 37.1001C563.9 77.8001 583.8 109.1 582.2 147.3C580.5 188.2 562.6 206 574.3 248.8C595.8 327.3 583.4 379.2 568 455.4" stroke="#009158" stroke-width="25" stroke-miterlimit="10" stroke-linecap="round" stroke-linejoin="round"/>
<path d="M531.301 26.1001L629.601 49.8001" stroke="#009158" stroke-width="25" stroke-miterlimit="10" stroke-linecap="round" stroke-linejoin="round"/>
<path d="M1025 37.5C1005.1 74.2 1023.8 90.6 1032.8 122.6C1043.9 162 1042.2 204.6 1035.6 245.2C1023.2 321.6 1018.5 380.6 1104.4 379.1" stroke="#009158" stroke-width="25" stroke-miterlimit="10" stroke-linecap="round" stroke-linejoin="round"/>
<path d="M1098.7 23.8C1091.7 78.6 1123.4 125.8 1120.1 180C1116.7 236.1 1103.4 289.8 1103.9 347.8C1104.2 384.7 1113.5 476.1 1043.9 454.7C1025.6 449.1 1017.7 428.4 1020.6 415.5" stroke="#009158" stroke-width="25" stroke-miterlimit="10" stroke-linecap="round" stroke-linejoin="round"/>
<path d="M903.299 27.8C921.499 72.2001 905.899 94.6 901.799 121.5C897.599 148.6 908.599 174.6 908.199 202.5C907.499 251.6 891.499 304.3 911.399 356.3C921.499 382.9 944.999 387.4 974.099 378.9" stroke="#009158" stroke-width="25" stroke-miterlimit="10" stroke-linecap="round" stroke-linejoin="round"/>
<path d="M973.9 35C989 82.1 968.1 102.1 966.7 135.4C966 151.4 982.2 189.2 978.9 237.3C974.7 298.2 961.6 284.6 971.8 344.8C978.2 382.7 970.3 420 963.9 453.8" stroke="#009158" stroke-width="25" stroke-miterlimit="10" stroke-linecap="round" stroke-linejoin="round"/>
</svg>
