<svg width="1695" height="1066" viewBox="0 0 1695 1066" fill="none" xmlns="http://www.w3.org/2000/svg">
<path d="M1024.5 613.3C1010 722.6 1060.9 716.8 1018.4 830.8C1002.8 872.7 1021.9 895.8 1036 936C1051 978.6 1032.3 1030.4 1027.9 1037.6C1042.5 1045.1 1077 1050.5 1095.3 1049.4" stroke="#EC1728" stroke-width="25" stroke-miterlimit="10" stroke-linecap="round" stroke-linejoin="round"/>
<path d="M1099.9 609.7L1024.5 613.3" stroke="#EC1728" stroke-width="25" stroke-miterlimit="10" stroke-linecap="round" stroke-linejoin="round"/>
<path d="M1070 680C1055.9 682.4 1038.7 685.6 1024.6 688.1" stroke="#EC1728" stroke-width="25" stroke-miterlimit="10" stroke-linecap="round" stroke-linejoin="round"/>
<path d="M1311 600.1C1318.5 635.2 1348.1 710.8 1318.7 768.4C1290.2 824.2 1275.8 861.7 1280 927.6C1283.3 979.5 1305.6 1047.4 1305.6 1047.4" stroke="#EC1728" stroke-width="25" stroke-miterlimit="10" stroke-linecap="round" stroke-linejoin="round"/>
<path d="M1391.1 582.4C1416.1 631.8 1422.1 689.9 1405.5 747.3C1389.3 803.1 1348.3 843.6 1362.2 906.6C1370.8 946 1403 962.6 1393.4 1037.7" stroke="#EC1728" stroke-width="25" stroke-miterlimit="10" stroke-linecap="round" stroke-linejoin="round"/>
<path d="M1305.5 1047.4C1275.2 813.1 1410.8 802.9 1391.1 582.5" stroke="#EC1728" stroke-width="25" stroke-miterlimit="10" stroke-linecap="round" stroke-linejoin="round"/>
<path d="M303.8 600.4C311.6 635.4 341.8 710.8 312.9 768.6C284.9 824.7 270.8 862.2 275.5 928.2C279.3 980.1 302.2 1047.8 302.2 1047.8" stroke="#EC1728" stroke-width="25" stroke-miterlimit="10" stroke-linecap="round" stroke-linejoin="round"/>
<path d="M383.801 582.1C409.201 631.3 415.801 689.3 399.601 746.8C383.901 802.8 343.301 843.6 357.601 906.5C366.601 945.8 398.901 962.1 389.901 1037.4" stroke="#EC1728" stroke-width="25" stroke-miterlimit="10" stroke-linecap="round" stroke-linejoin="round"/>
<path d="M302.201 1047.7C269.801 813.6 405.401 802.3 383.801 582" stroke="#EC1728" stroke-width="25" stroke-miterlimit="10" stroke-linecap="round" stroke-linejoin="round"/>
<path d="M1396.2 36.1001C1405.8 70.7001 1440.1 144.3 1414.2 203.6C1389.2 261.1 1377.1 299.3 1385.4 364.9C1391.9 416.5 1418.4 482.9 1418.4 482.9" stroke="#EC1728" stroke-width="25" stroke-miterlimit="10" stroke-linecap="round" stroke-linejoin="round"/>
<path d="M1475.2 13.5C1503.2 61.3 1512.8 118.8 1499.7 177.2C1487 233.9 1448.6 276.9 1466.3 338.9C1477.4 377.7 1510.5 392.2 1505.5 467.9" stroke="#EC1728" stroke-width="25" stroke-miterlimit="10" stroke-linecap="round" stroke-linejoin="round"/>
<path d="M1418.4 482.8C1373.7 250.8 1508.4 232.3 1475.1 13.5" stroke="#EC1728" stroke-width="25" stroke-miterlimit="10" stroke-linecap="round" stroke-linejoin="round"/>
<path d="M682.7 1036.7C688.7 1012.7 695.7 976.7 688.6 941.4C683.3 914.9 668.7 895.6 662.3 868.9C646.9 804.5 690.8 755.1 682.5 692.8C680.1 674.6 675.8 656.2 668.2 639.3C659.5 620.2 631 589.5 612.3 614.7C595.7 637.1 608.4 672.7 609 699.9C610.5 770.5 566.2 831.4 586.3 898.3C598.8 940 627.4 1016.8 605.3 1049.2" stroke="#EC1728" stroke-width="25" stroke-miterlimit="10" stroke-linecap="round" stroke-linejoin="round"/>
<path d="M1554.3 469.7C1550.7 439.1 1556.1 420.4 1563.6 390.7C1572.3 356.2 1562.8 338.1 1551.7 305.9C1529.3 240.9 1566.4 187 1561.2 121.9C1559.1 94.9002 1555.9 67.5002 1548.7 42.1002C1571.8 71.8002 1613.8 104.6 1613.8 104.6C1613.8 104.6 1634.8 50.8002 1656.3 29.2002C1676.3 93.7002 1670.8 142.8 1657.8 210.4C1645.4 274.9 1675.6 302.4 1670.1 374.8C1667.6 408.5 1650.7 426 1656.8 482.8" stroke="#EC1728" stroke-width="25" stroke-miterlimit="10" stroke-linecap="round" stroke-linejoin="round"/>
<path d="M1565.7 1035.3C1562.1 1004.7 1567.5 986 1575 956.3C1583.7 921.8 1574.2 903.7 1563.1 871.5C1540.7 806.5 1577.8 752.6 1572.6 687.5C1570.5 660.5 1567.3 633.1 1560.1 607.7C1583.2 637.4 1625.2 670.2 1625.2 670.2C1625.2 670.2 1646.2 616.4 1667.7 594.8C1687.7 659.3 1682.2 708.4 1669.2 776C1656.8 840.5 1687 868 1681.5 940.4C1679 974.1 1662.1 991.6 1668.2 1048.4" stroke="#EC1728" stroke-width="25" stroke-miterlimit="10" stroke-linecap="round" stroke-linejoin="round"/>
<path d="M1142.9 612.7C1177.8 681.9 1133.8 716.5 1140.3 787.1C1147 860.3 1160.8 900.8 1136.4 971.4C1125.1 1004.1 1127 1045.5 1127 1045.5" stroke="#EC1728" stroke-width="25" stroke-miterlimit="10" stroke-linecap="round" stroke-linejoin="round"/>
<path d="M1229.2 586.7C1262.2 658.9 1229.4 709.2 1228 786.6C1226.8 852.5 1250.4 910.2 1236.9 978.6C1233.3 997.1 1218.1 1035.5 1218.1 1035.5" stroke="#EC1728" stroke-width="25" stroke-miterlimit="10" stroke-linecap="round" stroke-linejoin="round"/>
<path d="M1156.5 670.2C1189.2 675.6 1214.2 662.8 1243.4 667.7" stroke="#EC1728" stroke-width="25" stroke-miterlimit="10" stroke-linecap="round" stroke-linejoin="round"/>
<path d="M40.7 1049.4C11.2 977.6 5.3 896.6 23.1 820.4C37.7 757.9 50.1 689.2 13 633C32.2 618.8 50.7 602.2 71.9 591.3C118.4 640.2 115.4 700.9 107.6 765.8C103.7 798.3 91.5 832.9 92.7 865.8C93.8 896.7 107.9 925.1 114.6 954.9C121.3 984.8 125.7 1019.4 121.9 1042.4" stroke="#EC1728" stroke-width="25" stroke-miterlimit="10" stroke-linecap="round" stroke-linejoin="round"/>
<path d="M155.8 606.5C140.3 678.1 165.4 739.7 171.6 806.9C175 843.4 156.1 867.4 155.8 903C155.5 937.6 174.9 968 176.3 1004.2C176.9 1020.2 173.7 1042.5 170 1049.4" stroke="#EC1728" stroke-width="25" stroke-miterlimit="10" stroke-linecap="round" stroke-linejoin="round"/>
<path d="M155.801 606.5C264.301 584 218.401 697.3 227.201 757.2C232.501 793.1 262.501 800.4 241.101 859.1C223.101 908.6 242.701 929.6 226.801 957.2C216.901 974.2 188.801 975.4 172.001 976" stroke="#EC1728" stroke-width="25" stroke-miterlimit="10" stroke-linecap="round" stroke-linejoin="round"/>
<path d="M1121.6 39.8999C1106.1 111.5 1131.2 173.1 1137.4 240.3C1140.8 276.8 1121.9 300.8 1121.6 336.4C1121.3 371 1140.7 401.4 1142.1 437.6C1142.7 453.6 1139.5 475.9 1135.8 482.8" stroke="#EC1728" stroke-width="25" stroke-miterlimit="10" stroke-linecap="round" stroke-linejoin="round"/>
<path d="M1121.6 39.8999C1230.1 17.3999 1184.2 130.7 1193 190.6C1198.3 226.5 1228.3 233.8 1206.9 292.5C1188.9 342 1208.5 363 1192.6 390.6C1182.7 407.6 1154.6 408.8 1137.8 409.4" stroke="#EC1728" stroke-width="25" stroke-miterlimit="10" stroke-linecap="round" stroke-linejoin="round"/>
<path d="M897.399 605.3C916.299 651.6 900.099 675 895.799 703C891.499 731.2 902.899 758.3 902.499 787.5C901.799 838.6 885.099 893.6 905.799 947.8C916.399 975.5 940.899 980.3 971.199 971.4" stroke="#EC1728" stroke-width="25" stroke-miterlimit="10" stroke-linecap="round" stroke-linejoin="round"/>
<path d="M970.998 612.7C986.698 661.9 964.998 682.6 963.398 717.4C962.698 734.1 979.598 773.5 976.098 823.6C971.698 887.1 958.098 873 968.598 935.7C975.298 975.2 967.098 1014.1 960.398 1049.3" stroke="#EC1728" stroke-width="25" stroke-miterlimit="10" stroke-linecap="round" stroke-linejoin="round"/>
<path d="M993.1 482.8C994.3 462.3 994.9 440.8 1001.3 429.1C1010 413 1028 410.2 1060.4 405.9" stroke="#EC1728" stroke-width="25" stroke-miterlimit="10" stroke-linecap="round" stroke-linejoin="round"/>
<path d="M1063.6 405.9C1039.9 408.4 1020.9 408.2 1008.1 394.6C999.7 385.7 995.3 373.6 990.5 352.4C981.2 310.9 979.1 256.4 987.8 213.9C1005 129.5 992.5 93.8002 1009.8 57.7002C1023.7 28.8002 1061.3 35.7002 1061.3 35.7002C1095.8 126.1 1025.6 220.4 1051.1 317.9C1060.1 352.3 1071 427.9 1063.5 473.7" stroke="#EC1728" stroke-width="25" stroke-miterlimit="10" stroke-linecap="round" stroke-linejoin="round"/>
<path d="M1452.6 1049.4C1453.8 1028.9 1454.4 1007.4 1460.8 995.7C1469.5 979.6 1487.5 976.8 1519.9 972.5" stroke="#EC1728" stroke-width="25" stroke-miterlimit="10" stroke-linecap="round" stroke-linejoin="round"/>
<path d="M1523.1 972.5C1499.4 975 1480.4 974.8 1467.6 961.2C1459.2 952.3 1454.8 940.2 1450 919C1440.7 877.5 1438.6 823 1447.3 780.5C1464.5 696.1 1452 660.4 1469.3 624.3C1483.2 595.4 1520.8 602.3 1520.8 602.3C1555.3 692.7 1485.1 787 1510.6 884.5C1519.6 918.9 1530.5 994.5 1523 1040.3" stroke="#EC1728" stroke-width="25" stroke-miterlimit="10" stroke-linecap="round" stroke-linejoin="round"/>
<path d="M474.701 593C442.001 643.8 468.201 702.2 474.601 764.9C482.101 837.2 442.901 891.2 435.001 959.3C430.901 994.2 440.501 1031.5 448.101 1049.5" stroke="#EC1728" stroke-width="25" stroke-miterlimit="10" stroke-linecap="round" stroke-linejoin="round"/>
<path d="M530 1027.5C535.1 983.9 512.8 942.2 518.3 903.1C523.5 866.7 543.1 836.2 545.5 798.5C548.7 747.9 536.2 645.7 460.5 679.2" stroke="#EC1728" stroke-width="25" stroke-miterlimit="10" stroke-linecap="round" stroke-linejoin="round"/>
<path d="M476.602 674.3C516.102 668 527.202 674.5 533.602 624C536.002 605.4 543.702 595.6 551.302 585.6" stroke="#EC1728" stroke-width="25" stroke-miterlimit="10" stroke-linecap="round" stroke-linejoin="round"/>
<path d="M1276.5 26.2998C1243.7 76.9998 1269.8 135.5 1276.2 198.2C1283.6 270.5 1244.3 324.4 1236.3 392.6C1232.2 427.5 1241.7 464.8 1249.3 482.8" stroke="#EC1728" stroke-width="25" stroke-miterlimit="10" stroke-linecap="round" stroke-linejoin="round"/>
<path d="M1331.3 460.9C1336.5 417.3 1314.2 375.5 1319.8 336.5C1325 300.1 1344.7 269.6 1347.1 232C1350.3 181.4 1338 79.1998 1262.3 112.6" stroke="#EC1728" stroke-width="25" stroke-miterlimit="10" stroke-linecap="round" stroke-linejoin="round"/>
<path d="M1278.3 107.6C1317.9 101.3 1328.9 107.9 1335.4 57.2999C1337.8 38.6999 1345.6 28.8999 1353.1 18.8999" stroke="#EC1728" stroke-width="25" stroke-miterlimit="10" stroke-linecap="round" stroke-linejoin="round"/>
<path d="M727.5 592.8C732.7 725.8 709.1 806.3 716.7 856.4C726.4 920.3 752.4 986.7 726.2 1049.8" stroke="#EC1728" stroke-width="25" stroke-miterlimit="10" stroke-linecap="round" stroke-linejoin="round"/>
<path d="M863.3 641.9C869.7 687.4 844.7 719.6 837.3 761.1C811.3 905.3 864.3 902.4 839.3 1016.4C829.3 1061.8 783.3 1067.4 776.1 1016.4C768.5 962.1 793 956.7 783 906.6C771.3 848 751.8 842.1 769.5 777.8C786.1 717.5 761.4 621.8 808 600.1C831.7 589 858.4 607 863.3 641.9Z" stroke="#EC1728" stroke-width="25" stroke-miterlimit="10" stroke-linecap="round" stroke-linejoin="round"/>
<path d="M715.801 842.1C734.401 838.5 745.601 836 761.401 833.1" stroke="#EC1728" stroke-width="25" stroke-miterlimit="10" stroke-linecap="round" stroke-linejoin="round"/>
</svg>
