<svg width="386" height="399" viewBox="0 0 386 399" fill="none" xmlns="http://www.w3.org/2000/svg">
<path d="M233.843 292.003C230.391 317.998 242.473 316.643 232.364 343.747C228.665 353.727 233.227 359.271 236.555 368.757C240.13 378.86 235.692 391.18 234.583 392.904C238.035 394.629 246.294 395.984 250.609 395.738" stroke="#EC1728" stroke-width="4.2211" stroke-miterlimit="10" stroke-linecap="round" stroke-linejoin="round"/>
<path d="M251.842 291.142L233.843 292.004" stroke="#EC1728" stroke-width="4.2211" stroke-miterlimit="10" stroke-linecap="round" stroke-linejoin="round"/>
<path d="M244.692 307.897C241.363 308.513 237.295 309.252 233.843 309.868" stroke="#EC1728" stroke-width="4.2211" stroke-miterlimit="10" stroke-linecap="round" stroke-linejoin="round"/>
<path d="M294.867 289.54C297.209 297.794 305.346 315.288 299.182 329.333C293.264 343.009 290.306 352.125 292.278 367.649C293.881 379.969 300.168 395.738 300.168 395.738" stroke="#EC1728" stroke-width="4.2211" stroke-miterlimit="10" stroke-linecap="round" stroke-linejoin="round"/>
<path d="M313.606 284.119C320.263 295.453 322.605 309.129 319.4 323.05C316.318 336.479 307.195 346.705 311.387 361.489C313.976 370.729 321.866 374.178 320.756 392.166" stroke="#EC1728" stroke-width="4.2211" stroke-miterlimit="10" stroke-linecap="round" stroke-linejoin="round"/>
<path d="M300.168 395.739C289.566 340.545 321.619 336.233 313.606 284.119" stroke="#EC1728" stroke-width="4.2211" stroke-miterlimit="10" stroke-linecap="round" stroke-linejoin="round"/>
<path d="M71.359 289.54C73.7013 297.794 81.8378 315.288 75.6738 329.333C69.7563 343.009 66.7976 352.125 68.7701 367.649C70.3727 379.969 76.66 395.738 76.66 395.738" stroke="#EC1728" stroke-width="4.2211" stroke-miterlimit="10" stroke-linecap="round" stroke-linejoin="round"/>
<path d="M90.2209 284.119C96.8781 295.453 99.2204 309.129 96.0151 323.05C92.9331 336.479 83.8103 346.705 88.0019 361.489C90.5908 370.729 98.4808 374.178 97.3712 392.166" stroke="#EC1728" stroke-width="4.2211" stroke-miterlimit="10" stroke-linecap="round" stroke-linejoin="round"/>
<path d="M76.66 395.739C66.0578 340.545 98.1109 336.233 90.0976 284.119" stroke="#EC1728" stroke-width="4.2211" stroke-miterlimit="10" stroke-linecap="round" stroke-linejoin="round"/>
<path d="M231.008 17.3899C236.186 36.2396 254.924 76.4029 240.87 108.681C227.186 139.974 220.652 160.918 225.09 196.647C228.665 224.736 243.089 260.957 243.089 260.957" stroke="#EC1728" stroke-width="9.67931" stroke-miterlimit="10" stroke-linecap="round" stroke-linejoin="round"/>
<path d="M274.033 5.19287C289.32 31.1882 294.497 62.6043 287.347 94.3901C280.443 125.313 259.486 148.721 269.101 182.478C275.142 203.669 293.265 211.554 290.429 252.826" stroke="#EC1728" stroke-width="9.67931" stroke-miterlimit="10" stroke-linecap="round" stroke-linejoin="round"/>
<path d="M243.089 260.957C218.68 134.553 292.155 124.451 274.033 5.19287" stroke="#EC1728" stroke-width="9.67931" stroke-miterlimit="10" stroke-linecap="round" stroke-linejoin="round"/>
<path d="M159.751 392.659C161.231 386.991 162.833 378.367 161.107 369.99C159.875 363.706 156.423 359.148 154.82 352.742C151.122 337.465 161.601 325.637 159.628 310.853C159.012 306.541 158.025 302.106 156.176 298.164C154.08 293.605 147.3 286.336 142.862 292.373C138.917 297.671 141.876 306.172 142.122 312.578C142.492 329.333 131.89 343.871 136.698 359.764C139.657 369.62 146.437 387.977 141.259 395.615" stroke="#EC1728" stroke-width="4.2211" stroke-miterlimit="10" stroke-linecap="round" stroke-linejoin="round"/>
<path d="M317.181 253.812C315.208 237.179 318.167 226.954 322.235 210.691C326.92 191.842 321.742 181.986 315.702 164.491C303.497 129.009 323.715 99.6877 320.879 64.206C319.647 49.5451 317.921 34.5146 314.099 20.7162C326.673 36.8555 349.604 54.7195 349.604 54.7195C349.604 54.7195 361.069 25.3978 372.781 13.5706C383.629 48.8059 380.671 75.5404 373.644 112.377C366.863 147.49 383.383 162.52 380.301 202.067C378.945 220.424 369.699 229.911 373.027 260.957" stroke="#EC1728" stroke-width="9.67931" stroke-miterlimit="10" stroke-linecap="round" stroke-linejoin="round"/>
<path d="M355.768 392.535C354.905 385.266 356.138 380.831 357.987 373.809C360.083 365.554 357.74 361.242 355.151 353.604C349.85 338.204 358.603 325.391 357.37 309.868C356.877 303.461 356.138 296.932 354.412 290.895C359.959 297.917 369.945 305.802 369.945 305.802C369.945 305.802 375 292.989 380.054 287.938C384.862 303.338 383.506 314.919 380.424 331.058C377.465 346.335 384.616 352.988 383.383 370.113C382.766 378.121 378.821 382.31 380.177 395.738" stroke="#EC1728" stroke-width="4.2211" stroke-miterlimit="10" stroke-linecap="round" stroke-linejoin="round"/>
<path d="M260.842 291.881C269.101 308.389 258.623 316.521 260.225 333.399C261.828 350.77 265.156 360.38 259.239 377.259C256.527 385.02 257.02 394.876 257.02 394.876" stroke="#EC1728" stroke-width="4.2211" stroke-miterlimit="10" stroke-linecap="round" stroke-linejoin="round"/>
<path d="M281.429 285.72C289.319 302.845 281.429 314.796 281.183 333.276C280.936 348.922 286.484 362.598 283.279 378.86C282.416 383.295 278.841 392.412 278.841 392.412" stroke="#EC1728" stroke-width="4.2211" stroke-miterlimit="10" stroke-linecap="round" stroke-linejoin="round"/>
<path d="M264.047 305.556C271.814 306.788 277.731 303.831 284.758 304.94" stroke="#EC1728" stroke-width="4.2211" stroke-miterlimit="10" stroke-linecap="round" stroke-linejoin="round"/>
<path d="M12.9238 395.738C5.89676 378.613 4.54067 359.394 8.73222 341.284C12.1841 326.376 15.1428 310.114 6.2666 296.685C10.828 293.359 15.2661 289.416 20.3206 286.829C31.4159 298.41 30.6762 312.824 28.827 328.348C27.964 336.109 25.0053 344.241 25.2519 352.125C25.4984 359.517 28.827 366.17 30.4297 373.316C32.0323 380.461 33.0185 388.593 32.1556 394.137" stroke="#EC1728" stroke-width="4.2211" stroke-miterlimit="10" stroke-linecap="round" stroke-linejoin="round"/>
<path d="M39.799 290.402C36.1006 307.403 42.0181 322.064 43.6207 338.08C44.4837 346.827 39.9223 352.495 39.799 360.872C39.6757 369.127 44.3604 376.272 44.607 384.896C44.7302 388.716 43.9906 394.013 43.1276 395.615" stroke="#EC1728" stroke-width="4.2211" stroke-miterlimit="10" stroke-linecap="round" stroke-linejoin="round"/>
<path d="M39.799 290.402C65.5647 285.105 54.7159 311.962 56.8117 326.254C58.0445 334.754 65.1948 336.479 60.1403 350.524C55.8255 362.351 60.5101 367.279 56.6884 373.809C54.3461 377.875 47.6889 378.121 43.6207 378.244" stroke="#EC1728" stroke-width="4.2211" stroke-miterlimit="10" stroke-linecap="round" stroke-linejoin="round"/>
<path d="M81.2214 19.4844C72.8383 58.5389 86.3992 92.0494 89.851 128.763C91.7002 148.722 81.3446 161.781 81.2214 181.123C81.0981 199.973 91.7002 216.605 92.3166 236.317C92.6865 245.064 90.9605 257.138 88.8648 260.957" stroke="#EC1728" stroke-width="9.67931" stroke-miterlimit="10" stroke-linecap="round" stroke-linejoin="round"/>
<path d="M81.2213 19.4845C140.396 7.16442 115.37 69.0111 120.178 101.659C123.014 121.248 139.41 125.19 127.698 157.223C117.836 184.204 128.561 195.661 119.931 210.692C114.507 219.932 99.2203 220.671 90.0975 220.917" stroke="#EC1728" stroke-width="9.67931" stroke-miterlimit="10" stroke-linecap="round" stroke-linejoin="round"/>
<path d="M206.721 290.156C211.283 301.12 207.338 306.664 206.352 313.44C205.365 320.093 208.077 326.623 207.954 333.522C207.831 345.719 203.763 358.778 208.694 371.591C211.159 378.244 217.077 379.353 224.227 377.258" stroke="#EC1728" stroke-width="4.2211" stroke-miterlimit="10" stroke-linecap="round" stroke-linejoin="round"/>
<path d="M224.227 291.881C227.926 303.585 222.748 308.513 222.378 316.767C222.255 320.71 226.2 330.073 225.46 342.023C224.474 357.177 221.145 353.727 223.734 368.635C225.337 377.998 223.364 387.238 221.762 395.615" stroke="#EC1728" stroke-width="4.2211" stroke-miterlimit="10" stroke-linecap="round" stroke-linejoin="round"/>
<path d="M11.0746 260.957C11.691 249.746 12.0608 238.042 15.5127 231.635C20.1974 222.888 30.0598 221.41 47.8123 218.946" stroke="#EC1728" stroke-width="9.67931" stroke-miterlimit="10" stroke-linecap="round" stroke-linejoin="round"/>
<path d="M49.5382 219.069C36.5937 220.424 26.2381 220.301 19.3343 212.909C14.773 207.981 12.3073 201.452 9.71844 189.871C4.66392 167.325 3.5544 137.51 8.23907 114.349C17.6084 68.395 10.828 48.9293 20.1973 29.2172C27.8407 13.4476 48.3053 17.2668 48.3053 17.2668C67.1673 66.547 28.827 117.922 42.7577 171.144C47.6889 189.871 53.6064 231.143 49.5382 256.029" stroke="#EC1728" stroke-width="9.67931" stroke-miterlimit="10" stroke-linecap="round" stroke-linejoin="round"/>
<path d="M328.769 395.739C329.016 390.81 329.263 385.759 330.742 382.926C332.838 379.106 337.029 378.49 344.796 377.382" stroke="#EC1728" stroke-width="4.2211" stroke-miterlimit="10" stroke-linecap="round" stroke-linejoin="round"/>
<path d="M345.536 377.381C339.865 377.997 335.427 377.874 332.345 374.671C330.372 372.577 329.263 369.743 328.153 364.692C325.934 354.836 325.441 341.9 327.537 331.797C331.605 311.716 328.646 303.215 332.714 294.714C336.043 287.815 344.919 289.54 344.919 289.54C353.179 310.976 336.413 333.399 342.454 356.684C344.549 364.815 347.138 382.802 345.412 393.767" stroke="#EC1728" stroke-width="4.2211" stroke-miterlimit="10" stroke-linecap="round" stroke-linejoin="round"/>
<path d="M113.521 287.199C105.754 299.272 111.918 313.194 113.521 328.101C115.247 345.349 106.001 358.162 104.152 374.301C103.165 382.556 105.508 391.426 107.234 395.738" stroke="#EC1728" stroke-width="4.2211" stroke-miterlimit="10" stroke-linecap="round" stroke-linejoin="round"/>
<path d="M126.712 390.441C127.945 380.092 122.644 370.113 123.877 360.873C125.109 352.249 129.794 344.98 130.287 335.986C131.027 323.912 128.068 299.642 110.069 307.65" stroke="#EC1728" stroke-width="4.2211" stroke-miterlimit="10" stroke-linecap="round" stroke-linejoin="round"/>
<path d="M114.014 306.541C123.383 305.063 126.096 306.541 127.575 294.591C128.191 290.156 130.041 287.815 131.766 285.474" stroke="#EC1728" stroke-width="4.2211" stroke-miterlimit="10" stroke-linecap="round" stroke-linejoin="round"/>
<path d="M165.669 12.0923C147.793 39.6892 162.094 71.5981 165.546 105.848C169.614 145.272 148.163 174.594 143.848 211.8C141.629 230.896 146.807 251.224 150.875 260.957" stroke="#EC1728" stroke-width="9.67931" stroke-miterlimit="10" stroke-linecap="round" stroke-linejoin="round"/>
<path d="M195.626 249.007C198.462 225.229 186.257 202.437 189.339 181.246C192.174 161.411 202.9 144.779 204.256 124.205C205.982 96.6078 199.324 40.9211 158.025 59.1548" stroke="#EC1728" stroke-width="9.67931" stroke-miterlimit="10" stroke-linecap="round" stroke-linejoin="round"/>
<path d="M166.655 56.4445C188.229 52.9949 194.27 56.5677 197.845 29.094C199.201 18.9915 203.393 13.5707 207.461 8.1499" stroke="#EC1728" stroke-width="9.67931" stroke-miterlimit="10" stroke-linecap="round" stroke-linejoin="round"/>
<path d="M168.258 287.199C169.491 318.862 163.82 337.958 165.669 349.908C168.011 365.062 174.175 380.831 167.888 395.862" stroke="#EC1728" stroke-width="4.28148" stroke-miterlimit="10" stroke-linecap="round" stroke-linejoin="round"/>
<path d="M200.557 298.78C202.037 309.621 196.119 317.26 194.393 327.116C188.229 361.366 200.804 360.75 194.886 387.854C192.544 398.695 181.572 399.927 179.846 387.854C177.997 374.918 183.914 373.686 181.449 361.735C178.613 347.813 174.052 346.458 178.243 331.058C182.188 316.767 176.271 293.975 187.366 288.8C193.037 286.213 199.324 290.525 200.557 298.78Z" stroke="#EC1728" stroke-width="4.28148" stroke-miterlimit="10" stroke-linecap="round" stroke-linejoin="round"/>
<path d="M165.422 346.458C169.86 345.596 172.449 344.98 176.271 344.364" stroke="#EC1728" stroke-width="4.28148" stroke-miterlimit="10" stroke-linecap="round" stroke-linejoin="round"/>
</svg>
