<svg width="1790" height="16" viewBox="0 0 1790 16" fill="none" xmlns="http://www.w3.org/2000/svg">
<path d="M0 1C12.3 1 12.3 15 24.5 15C36.8 15 36.8 1 49 1C61.3 1 61.3 15 73.5 15C85.8 15 85.8 1 98.1 1C110.4 1 110.4 15 122.6 15C134.9 15 134.9 1 147.1 1C159.4 1 159.4 15 171.6 15C183.9 15 183.9 1 196.1 1C208.4 1 208.4 15 220.6 15C232.9 15 232.9 1 245.1 1C257.4 1 257.4 15 269.6 15C282 15 282 1 294.2 1C306.5 1 306.5 15 318.7 15C330.9 15 331 1 343.3 1C355.6 1 355.6 15 367.8 15C380 15 380 1 392.3 1C404.6 1 404.6 15 416.8 15C429.1 15 429.1 1 441.3 1C453.6 1 453.6 15 465.8 15C478.1 15 478.1 1 490.3 1C502.6 1 502.6 15 514.8 15C527.1 15 527.1 1 539.3 1C551.6 1 551.6 15 563.8 15C576.1 15 576.1 1 588.3 1C600.6 1 600.6 15 612.8 15C625.1 15 625.1 1 637.3 1C649.6 1 649.6 15 661.8 15C674.1 15 674.1 1 686.3 1C698.6 1 698.6 15 710.8 15C723.1 15 723.1 1 735.3 1C747.6 1 747.6 15 759.8 15C772.1 15 772.1 1 784.3 1C796.6 1 796.6 15 808.8 15C821.1 15 821.1 1 833.3 1C845.6 1 845.6 15 857.8 15C870.1 15 870.1 1 882.3 1C894.6 1 894.6 15 906.8 15C919.1 15 919.1 1 931.3 1C944 1 944 15 956.2 15C968.5 15 968.5 1 980.7 1C993 1 993 15 1005.2 15C1017.5 15 1017.5 1 1029.7 1C1042 1 1042 15 1054.2 15C1066.5 15 1066.5 1 1078.7 1C1091 1 1091 15 1103.2 15C1115.5 15 1115.5 1 1127.7 1C1140 1 1140 15 1152.2 15C1164.5 15 1164.5 1 1176.7 1C1189 1 1189 15 1201.2 15C1213.5 15 1213.5 1 1225.7 1C1238 1 1238 15 1250.2 15C1262.5 15 1262.5 1 1274.7 1C1287 1 1287 15 1299.2 15C1311.5 15 1311.5 1 1323.7 1C1336 1 1336 15 1348.2 15C1360.5 15 1360.5 1 1372.7 1C1385 1 1385 15 1397.2 15C1409.5 15 1409.5 1 1421.7 1C1434 1 1434 15 1446.2 15C1458.5 15 1458.5 1 1470.7 1C1483 1 1483 15 1495.2 15C1507.5 15 1507.5 1 1519.7 1C1532 1 1532 15 1544.2 15C1556.5 15 1556.5 1 1568.7 1C1581 1 1581 15 1593.2 15C1605.5 15 1605.5 1 1617.7 1C1630 1 1630 15 1642.2 15C1654.5 15 1654.5 1 1666.7 1C1679 1 1679 15 1691.2 15C1703.5 15 1703.5 1 1715.7 1C1728 1 1728 15 1740.2 15C1752.5 15 1752.5 1 1764.7 1C1777 1 1777 15 1789.2 15" stroke="white" stroke-width="2" stroke-miterlimit="10"/>
</svg>
