<svg width="59" height="84" viewBox="0 0 59 84" fill="none" xmlns="http://www.w3.org/2000/svg">
<path d="M57.3 15.6163C55 9.6163 50.4 4.7163 44.4 2.1163C32.1 -3.3837 17.6 2.2163 12.2 14.5163C9.19997 21.3163 8.59997 32.4163 10.3 47.6163C11.2 55.2163 12.4 62.0163 13.2 65.6163L2.49997 71.3163C1.29997 71.9163 0.699971 73.3163 1.09997 74.6163C1.49997 75.9163 2.69997 76.8163 3.99997 76.7163L11.3 76.4163L16 82.0163C16.6 82.7163 17.4 83.0163 18.2 83.0163C18.6 83.0163 19.1 82.9163 19.5 82.7163C20.7 82.1163 21.3 80.7163 21 79.4163L18.1 68.0163C25.8 63.3163 51.3 46.9163 56.8 34.4163C59.5 28.4163 59.7 21.7163 57.3 15.6163Z" fill="#EF5455"/>
<path d="M34.2998 30.4165C37.3374 30.4165 39.7998 27.9541 39.7998 24.9165C39.7998 21.8789 37.3374 19.4165 34.2998 19.4165C31.2622 19.4165 28.7998 21.8789 28.7998 24.9165C28.7998 27.9541 31.2622 30.4165 34.2998 30.4165Z" fill="white"/>
</svg>
