<svg width="241" height="92" viewBox="0 0 241 92" fill="none" xmlns="http://www.w3.org/2000/svg">
<path d="M60.0008 69.516C59.5008 69.216 58.9008 69.016 58.3008 68.916C58.8008 68.816 59.2008 68.716 59.6008 68.516C60.5008 68.116 61.2008 67.516 61.7008 66.716C62.2008 65.916 62.5008 65.016 62.5008 64.016C62.5008 62.816 62.1008 61.716 61.3008 60.716C60.5008 59.716 59.5008 58.916 58.1008 58.316C56.7008 57.716 55.2008 57.416 53.4008 57.416C51.7008 57.416 50.1008 57.716 48.5008 58.416C46.9008 59.016 45.7008 59.916 44.8008 60.916C44.4008 61.416 44.1008 61.916 44.1008 62.416C44.1008 62.916 44.2008 63.416 44.6008 63.716C45.1008 64.116 45.6008 64.216 46.1008 64.216C46.6008 64.216 47.1008 63.916 47.6008 63.416C48.3008 62.716 49.1008 62.216 50.1008 61.916C51.1008 61.616 52.2008 61.416 53.5008 61.416C55.0008 61.416 56.2008 61.716 57.0008 62.216C57.8008 62.716 58.2008 63.516 58.2008 64.516C58.2008 65.416 58.0008 66.116 57.5008 66.716C57.0008 67.316 56.3008 67.616 55.4008 67.716H53.0008C52.4008 67.716 51.8008 67.916 51.4008 68.216C51.0008 68.516 50.8008 68.916 50.8008 69.416C50.8008 69.916 51.0008 70.316 51.5008 70.716C51.9008 71.016 52.5008 71.216 53.1008 71.216H55.6008C56.6008 71.216 57.5008 71.516 58.1008 72.116C58.8008 72.716 59.1008 73.416 59.1008 74.416C59.1008 75.516 58.6008 76.316 57.7008 77.016C56.8008 77.716 55.5008 78.016 53.9008 78.016C52.5008 78.016 51.3008 77.816 50.3008 77.416C49.3008 77.016 48.4008 76.516 47.7008 75.916C47.3008 75.516 46.7008 75.316 46.1008 75.216C45.5008 75.216 45.0008 75.316 44.5008 75.716C44.0008 76.116 43.8008 76.616 43.8008 77.216C43.8008 77.816 44.0008 78.316 44.5008 78.716C45.2008 79.316 46.0008 79.916 46.9008 80.416C47.8008 80.916 48.9008 81.316 50.1008 81.616C51.3008 81.916 52.5008 82.016 53.9008 82.016C55.7008 82.016 57.3008 81.716 58.7008 81.016C60.1008 80.316 61.2008 79.516 62.1008 78.416C62.9008 77.316 63.3008 76.116 63.3008 74.716C63.3008 73.616 63.0008 72.716 62.4008 71.916C61.8008 70.616 61.0008 70.016 60.0008 69.516Z" fill="#EF5455"/>
<path d="M89.7008 63.316C88.6008 61.516 87.2008 60.016 85.4008 59.016C83.6008 57.916 81.6008 57.416 79.3008 57.416C77.0008 57.416 75.0008 57.916 73.2008 59.016C71.4008 60.116 70.0008 61.516 68.9008 63.316C67.8008 65.116 67.3008 67.216 67.3008 69.516C67.3008 71.816 67.8008 73.816 68.8008 75.616C69.8008 77.416 71.1008 78.816 72.8008 79.916C74.5008 81.016 76.4008 81.516 78.5008 81.516C80.6008 81.516 82.5008 81.016 84.2008 79.916C85.2008 79.216 86.1008 78.416 86.9008 77.516V79.116C86.9008 79.716 87.1008 80.316 87.5008 80.716C87.9008 81.116 88.4008 81.316 89.1008 81.316C89.7008 81.316 90.3008 81.116 90.7008 80.716C91.1008 80.316 91.3008 79.816 91.3008 79.116V69.416C91.3008 67.116 90.8008 65.116 89.7008 63.316ZM86.1008 73.616C85.4008 74.816 84.5008 75.816 83.4008 76.516C82.2008 77.216 80.9008 77.616 79.5008 77.616C78.1008 77.616 76.7008 77.216 75.6008 76.516C74.4008 75.816 73.5008 74.816 72.8008 73.616C72.1008 72.416 71.8008 71.016 71.8008 69.516C71.8008 67.916 72.1008 66.516 72.8008 65.316C73.5008 64.116 74.4008 63.116 75.6008 62.416C76.8008 61.716 78.1008 61.316 79.5008 61.316C81.0008 61.316 82.3008 61.716 83.4008 62.416C84.6008 63.116 85.5008 64.116 86.1008 65.316C86.7008 66.516 87.1008 67.916 87.1008 69.516C87.1008 70.916 86.7008 72.316 86.1008 73.616Z" fill="#EF5455"/>
<path d="M124.3 58.1166C123.9 57.7166 123.4 57.5166 122.7 57.5166C121.8 57.5166 121 57.9166 120.4 58.8166L111.4 71.8166L102.4 58.8166C101.8 57.9166 101 57.5166 100.1 57.5166C99.5004 57.5166 98.9004 57.7166 98.5004 58.1166C98.1004 58.5166 97.9004 59.0166 97.9004 59.7166V79.0166C97.9004 79.6166 98.1004 80.2166 98.5004 80.6166C98.9004 81.0166 99.4004 81.2166 100.1 81.2166C100.8 81.2166 101.3 81.0166 101.7 80.6166C102.1 80.2166 102.3 79.7166 102.3 79.0166V65.2166L109 74.8166C109.7 75.8166 110.5 76.3166 111.3 76.3166C112.1 76.3166 112.9 75.8166 113.6 74.8166L120.4 65.1166V78.9166C120.4 79.5166 120.6 80.1166 121 80.5166C121.4 80.9166 121.9 81.1166 122.6 81.1166C123.3 81.1166 123.8 80.9166 124.2 80.5166C124.6 80.1166 124.8 79.6166 124.8 78.9166V59.6166C124.9 59.1166 124.7 58.5166 124.3 58.1166Z" fill="#EF5455"/>
<path d="M149.6 58.916C147.8 57.916 145.8 57.416 143.4 57.416C141.1 57.416 139 57.916 137.2 58.916C135.4 59.916 134 61.316 133 63.116C132 64.916 131.5 67.016 131.5 69.416C131.5 71.716 132 73.816 133 75.616C134 77.416 135.4 78.816 137.2 79.816C139 80.816 141.1 81.316 143.4 81.316C145.7 81.316 147.8 80.816 149.6 79.816C151.4 78.816 152.8 77.416 153.8 75.616C154.8 73.816 155.3 71.716 155.3 69.416C155.3 67.016 154.8 64.916 153.8 63.116C152.8 61.316 151.4 59.916 149.6 58.916ZM150.2 73.616C149.6 74.816 148.6 75.816 147.5 76.516C146.3 77.216 145 77.516 143.5 77.516C142 77.516 140.7 77.216 139.5 76.516C138.3 75.816 137.4 74.916 136.8 73.616C136.1 72.416 135.8 71.016 135.8 69.416C135.8 67.816 136.1 66.416 136.8 65.216C137.5 64.016 138.4 63.016 139.5 62.316C140.7 61.616 142 61.316 143.5 61.316C145 61.316 146.3 61.616 147.5 62.316C148.7 63.016 149.6 64.016 150.2 65.216C150.9 66.416 151.2 67.816 151.2 69.416C151.2 71.016 150.8 72.416 150.2 73.616Z" fill="#EF5455"/>
<path d="M180 58.9164C178.2 57.8164 176.2 57.3164 173.9 57.3164C171.6 57.3164 169.6 57.8164 167.8 58.9164C166 60.0164 164.6 61.4164 163.6 63.2164C162.6 65.0164 162 67.1164 162 69.4164V89.2164C162 89.8164 162.2 90.4164 162.6 90.8164C163 91.2164 163.5 91.4164 164.2 91.4164C164.9 91.4164 165.4 91.2164 165.8 90.8164C166.2 90.4164 166.4 89.9164 166.4 89.2164V77.5164C167.4 78.7164 168.6 79.7164 170.1 80.4164C171.5 81.1164 173.1 81.5164 174.8 81.5164C176.9 81.5164 178.8 81.0164 180.5 79.9164C182.2 78.8164 183.5 77.4164 184.5 75.6164C185.5 73.8164 185.9 71.8164 185.9 69.5164C185.9 67.2164 185.4 65.2164 184.3 63.3164C183.2 61.4164 181.8 60.0164 180 58.9164ZM180.6 73.5164C179.9 74.7164 179 75.7164 177.8 76.4164C176.6 77.1164 175.3 77.5164 173.9 77.5164C172.5 77.5164 171.1 77.1164 170 76.4164C168.8 75.7164 167.9 74.7164 167.2 73.5164C166.5 72.3164 166.2 70.9164 166.2 69.4164C166.2 67.8164 166.5 66.4164 167.2 65.2164C167.9 64.0164 168.8 63.0164 170 62.3164C171.2 61.6164 172.5 61.2164 173.9 61.2164C175.4 61.2164 176.7 61.6164 177.8 62.3164C179 63.0164 179.9 64.0164 180.6 65.2164C181.3 66.4164 181.6 67.8164 181.6 69.4164C181.6 70.9164 181.3 72.3164 180.6 73.5164Z" fill="#EF5455"/>
<path d="M209 65.516C207.5 64.916 205.8 64.516 204 64.516H196.9V59.616C196.9 59.016 196.7 58.416 196.3 58.016C195.9 57.616 195.4 57.416 194.7 57.416C194.1 57.416 193.6 57.616 193.2 58.016C192.8 58.416 192.5 58.916 192.5 59.516V71.916C192.5 73.816 192.9 75.516 193.8 76.916C194.7 78.316 195.9 79.416 197.5 80.216C199.1 81.016 201 81.416 203.2 81.416C205.4 81.416 207.3 81.016 208.9 80.216C210.5 79.416 211.7 78.416 212.6 77.116C213.5 75.816 213.9 74.316 213.9 72.616C213.9 70.916 213.5 69.416 212.6 68.216C211.7 67.116 210.5 66.216 209 65.516ZM207.7 76.316C206.5 77.116 204.9 77.516 203.1 77.516C201.9 77.516 200.9 77.316 199.9 76.816C199 76.316 198.2 75.616 197.7 74.816C197.2 74.016 196.9 73.016 196.9 72.016V68.316H204C205.6 68.316 207 68.716 208 69.416C209.1 70.116 209.6 71.316 209.6 72.816C209.6 74.316 209 75.516 207.7 76.316Z" fill="#EF5455"/>
<path d="M240.4 70.3164C240.8 69.9164 241 69.5164 241 68.9164C241 66.6164 240.6 64.6164 239.7 62.9164C238.8 61.2164 237.6 59.8164 236 58.8164C234.4 57.8164 232.4 57.3164 230.2 57.3164C227.9 57.3164 225.9 57.8164 224.1 58.8164C222.3 59.8164 221 61.2164 220 63.0164C219 64.8164 218.5 66.9164 218.5 69.3164C218.5 71.6164 219 73.7164 220.1 75.5164C221.2 77.3164 222.6 78.7164 224.5 79.7164C226.4 80.7164 228.5 81.2164 230.9 81.2164C232.2 81.2164 233.6 81.0164 235.1 80.5164C236.6 80.0164 237.8 79.4164 238.8 78.6164C239.3 78.2164 239.5 77.8164 239.5 77.3164C239.5 76.8164 239.2 76.3164 238.7 75.9164C238.3 75.6164 237.9 75.4164 237.4 75.4164C236.9 75.4164 236.4 75.6164 236 75.9164C235.4 76.3164 234.7 76.7164 233.7 77.0164C232.8 77.3164 231.8 77.5164 230.9 77.5164C229.3 77.5164 227.8 77.1164 226.5 76.4164C225.2 75.7164 224.2 74.7164 223.5 73.5164C223 72.7164 222.7 71.8164 222.5 70.8164H239C239.6 70.9164 240 70.7164 240.4 70.3164ZM226 62.1164C227.2 61.4164 228.6 61.0164 230.2 61.0164C231.6 61.0164 232.9 61.3164 233.9 62.0164C234.9 62.7164 235.7 63.6164 236.2 64.7164C236.6 65.5164 236.8 66.4164 237 67.4164H222.6C222.7 66.6164 223 65.8164 223.3 65.1164C223.9 63.8164 224.8 62.8164 226 62.1164Z" fill="#EF5455"/>
<path d="M57.3 15.6163C55 9.6163 50.4 4.7163 44.4 2.1163C32.1 -3.3837 17.6 2.2163 12.2 14.5163C9.19997 21.3163 8.59997 32.4163 10.3 47.6163C11.2 55.2163 12.4 62.0163 13.2 65.6163L2.49997 71.3163C1.29997 71.9163 0.699971 73.3163 1.09997 74.6163C1.49997 75.9163 2.69997 76.8163 3.99997 76.7163L11.3 76.4163L16 82.0163C16.6 82.7163 17.4 83.0163 18.2 83.0163C18.6 83.0163 19.1 82.9163 19.5 82.7163C20.7 82.1163 21.3 80.7163 21 79.4163L18.1 68.0163C25.8 63.3163 51.3 46.9163 56.8 34.4163C59.5 28.4163 59.7 21.7163 57.3 15.6163Z" fill="#EF5455"/>
<path d="M34.3008 30.416C37.3383 30.416 39.8008 27.9536 39.8008 24.916C39.8008 21.8784 37.3383 19.416 34.3008 19.416C31.2632 19.416 28.8008 21.8784 28.8008 24.916C28.8008 27.9536 31.2632 30.416 34.3008 30.416Z" fill="white"/>
</svg>
